<?xml version="1.0" encoding="utf-8"?>
<!-- Generator: Adobe Illustrator 25.2.3, SVG Export Plug-In . SVG Version: 6.00 Build 0)  -->
<svg version="1.1" id="Capa_1" xmlns="http://www.w3.org/2000/svg" xmlns:xlink="http://www.w3.org/1999/xlink" x="0px" y="0px"
	 viewBox="0 0 60 60" style="enable-background:new 0 0 60 60;" xml:space="preserve">
<style type="text/css">
	.st0{fill:#95308E;}
	.st1{enable-background:new    ;}
	.st2{fill:#FFFFFF;}
</style>
<g id="Grupo_53834" transform="translate(-284 -971.5)">
	<circle id="Elipse_3955" class="st0" cx="314" cy="1001.5" r="30"/>
	<g class="st1">
		<path class="st2" d="M310.8,998h2.3c1.1,0,1.9-0.3,2.4-0.8s0.8-1.2,0.8-2.1c0-0.9-0.3-1.5-0.8-2c-0.5-0.5-1.2-0.7-2.1-0.7
			c-0.8,0-1.5,0.2-2,0.7s-0.8,1-0.8,1.7h-4.2c0-1.1,0.3-2.1,0.9-3s1.4-1.6,2.5-2.1s2.3-0.7,3.6-0.7c2.3,0,4,0.5,5.3,1.6
			s1.9,2.6,1.9,4.5c0,1-0.3,1.9-0.9,2.7s-1.4,1.5-2.3,1.9c1.2,0.4,2.1,1.1,2.7,1.9c0.6,0.9,0.9,1.9,0.9,3c0,1.9-0.7,3.4-2.1,4.6
			c-1.4,1.1-3.2,1.7-5.5,1.7c-2.1,0-3.9-0.6-5.2-1.7s-2-2.6-2-4.5h4.2c0,0.8,0.3,1.5,0.9,2s1.3,0.8,2.2,0.8c1,0,1.8-0.3,2.4-0.8
			c0.6-0.5,0.9-1.2,0.9-2.1c0-2.1-1.2-3.2-3.5-3.2h-2.2V998z"/>
	</g>
</g>
</svg>
