<?xml version="1.0" encoding="utf-8"?>
<!-- Generator: Adobe Illustrator 25.2.3, SVG Export Plug-In . SVG Version: 6.00 Build 0)  -->
<svg version="1.1" id="Capa_1" xmlns="http://www.w3.org/2000/svg" xmlns:xlink="http://www.w3.org/1999/xlink" x="0px" y="0px"
	 viewBox="0 0 1020 392" style="enable-background:new 0 0 1020 392;" xml:space="preserve">
<style type="text/css">
	.st0{fill:url(#Rectángulo_5200_1_);}
	.st1{fill:none;stroke:#000000;stroke-width:2;stroke-miterlimit:10;}
	.st2{opacity:0.7;}
	.st3{fill:#065270;}
	.st4{fill:url(#Trazado_99714_1_);stroke:#B9D4EF;stroke-width:0.776;stroke-miterlimit:10;}
	.st5{fill:#3366C1;}
	.st6{fill:#FF0062;}
	.st7{enable-background:new    ;}
	.st8{fill:#FFFFFF;}
	.st9{fill:#94308D;}
</style>
<g id="Grupo_55011" transform="translate(-284 -2579)">
	
		<linearGradient id="Rectángulo_5200_1_" gradientUnits="userSpaceOnUse" x1="496.799" y1="3194.8091" x2="495.278" y2="3194.8301" gradientTransform="matrix(1020 0 0 -392 -505424 1255142.875)">
		<stop  offset="0" style="stop-color:#FFFFFF"/>
		<stop  offset="0.7" style="stop-color:#F1F6FC"/>
		<stop  offset="1" style="stop-color:#B8D3EE"/>
	</linearGradient>
	<rect id="Rectángulo_5200" x="284" y="2579" class="st0" width="1020" height="392"/>
	<g id="Grupo_53875" transform="translate(-3148.344 5264.425)">
		<g id="Capa_1_1_">
			<line id="Línea_147" class="st1" x1="4175.4" y1="-2481.4" x2="4295.8" y2="-2481.4"/>
			<g id="Grupo_53855">
				<path id="Trazado_99711" d="M4293.6-2507.4l-0.9-0.9l1.4-1.4l0.9,0.9L4293.6-2507.4z M4289.2-2511.9l-2.1-2.1l1.4-1.4l2.1,2.1
					L4289.2-2511.9z M4283.6-2517.6l-2.1-2.1l1.4-1.4l2.1,2.1L4283.6-2517.6z M4278-2523.3l-2.1-2.1l1.4-1.4l2.1,2.1L4278-2523.3z
					 M4272.3-2529l-2.1-2.1l1.4-1.4l2.1,2.1L4272.3-2529z M4266.7-2534.7l-2.1-2.1l1.4-1.4l2.1,2.1L4266.7-2534.7z M4261.1-2540.4
					l-2.1-2.1l1.4-1.4l2.1,2.1L4261.1-2540.4z M4255.5-2546.1l-2.1-2.1l1.4-1.4l2.1,2.1L4255.5-2546.1z M4249.9-2551.8l-2.1-2.1
					l1.4-1.4l2.1,2.1L4249.9-2551.8z M4244.3-2557.5l-2.1-2.1l1.4-1.4l2.1,2.1L4244.3-2557.5z M4238.6-2563.2l-2.1-2.1l1.4-1.4
					l2.1,2.1L4238.6-2563.2z M4233-2568.9l-2.1-2.1l1.4-1.4l2.1,2.1L4233-2568.9z M4227.4-2574.6l-2.1-2.1l1.4-1.4l2.1,2.1
					L4227.4-2574.6z M4221.8-2580.3l-2.1-2.1l1.4-1.4l2.1,2.1L4221.8-2580.3z M4216.2-2586l-2.1-2.1l1.4-1.4l2.1,2.1L4216.2-2586z
					 M4210.5-2591.7l-2.1-2.1l1.4-1.4l2.1,2.1L4210.5-2591.7z M4204.9-2597.4l-2.1-2.1l1.4-1.4l2.1,2.1L4204.9-2597.4z
					 M4199.3-2603.1l-2.1-2.1l1.4-1.4l2.1,2.1L4199.3-2603.1z M4193.7-2608.8l-2.1-2.1l1.4-1.4l2.1,2.1L4193.7-2608.8z
					 M4188.1-2614.5l-2.1-2.1l1.4-1.4l2.1,2.1L4188.1-2614.5z"/>
				<g id="Grupo_53854">
					<path id="Trazado_99712" d="M4283.8-2507.1l0.1-2l9.9,0.4l-0.3-9.9l2-0.1l0.4,12L4283.8-2507.1z"/>
				</g>
			</g>
			<line id="Línea_148" class="st1" x1="3944.5" y1="-2481.4" x2="4064.9" y2="-2481.4"/>
			<g id="Grupo_53857">
				<g id="Grupo_53856" class="st2">
					<path id="Trazado_99713" class="st3" d="M3848-2491.2c-1.1,0-2.1,0.1-3.1,0.3c-2.3-4.6-7-7.6-12.1-7.6c-0.2,0-0.4,0-0.6,0
						c-0.9-7.2-7.7-12.8-15.9-12.8c-3.6,0-7.2,1.1-10.1,3.3c-4.7-6.8-12.4-10.9-20.7-11c-13.4,0-24.5,10.9-25.5,24.7
						c-1-0.2-2-0.3-3-0.3c-8.2,0-14.8,6.6-14.8,14.8c0,7.7,6,14.2,13.7,14.8c1.7,9.2,9.7,15.8,19,15.8c5.3,0,10.3-2.1,14-6
						c2.6,2.8,6.2,4.4,10,4.4c2.9,0,5.7-0.9,8-2.6c4,4.7,9.9,7.4,16.1,7.5c9.3-0.1,17.6-6.2,20.4-15.1c1.5,0.5,3.1,0.7,4.7,0.7
						c8.6,0,15.5-6.9,15.5-15.5C3863.5-2484.2,3856.5-2491.2,3848-2491.2z"/>
				</g>
				
					<radialGradient id="Trazado_99714_1_" cx="3641.9841" cy="-2072.5579" r="0.956" gradientTransform="matrix(73.1051 0 0 -66.2161 -262439.9062 -139709.9688)" gradientUnits="userSpaceOnUse">
					<stop  offset="0" style="stop-color:#FFFFFF"/>
					<stop  offset="0.514" style="stop-color:#FCFCFC"/>
					<stop  offset="0.81" style="stop-color:#D8E2EB"/>
					<stop  offset="1" style="stop-color:#D8D8F0"/>
				</radialGradient>
				<path id="Trazado_99714" class="st4" d="M3848-2491.2c-1.1,0-2.1,0.1-3.1,0.3c-2.3-4.6-7-7.6-12.1-7.6c-0.2,0-0.4,0-0.6,0
					c-0.9-7.2-7.7-12.8-15.9-12.8c-3.6,0-7.2,1.1-10.1,3.3c-3.7-5.4-9.4-9.1-15.8-10.5l-0.4-0.1c-1.5-0.3-2.9-0.4-4.4-0.4
					c-13.4,0-24.5,10.9-25.5,24.7c-1-0.2-2-0.3-3-0.3c-8.2,0-14.8,6.6-14.8,14.8c0,7.7,6,14.2,13.7,14.8c1.7,9.2,9.7,15.8,19,15.8
					c5.3,0,10.3-2.1,14-6c2.6,2.8,6.2,4.4,10,4.4c2.9,0,5.7-0.9,8-2.6c4,4.7,9.9,7.4,16.1,7.5c9.3-0.1,17.6-6.2,20.4-15.1
					c1.5,0.5,3.1,0.7,4.7,0.7c8.6,0,15.5-6.9,15.5-15.5C3863.5-2484.2,3856.5-2491.2,3848-2491.2z"/>
			</g>
			<path id="Rectángulo_5184" class="st5" d="M3527.6-2510.5h36.9c7.7,0,13.9,6.2,13.9,13.9v36.9c0,7.7-6.2,13.9-13.9,13.9h-36.9
				c-7.7,0-13.9-6.2-13.9-13.9v-36.9C3513.7-2504.3,3519.9-2510.5,3527.6-2510.5z"/>
			<path id="Rectángulo_5185" class="st6" d="M3690-2510.5h36.9c7.7,0,13.9,6.2,13.9,13.9v36.9c0,7.7-6.2,13.9-13.9,13.9H3690
				c-7.7,0-13.9-6.2-13.9-13.9v-36.9C3676.2-2504.3,3682.4-2510.5,3690-2510.5z"/>
			<path id="Rectángulo_5186" class="st6" d="M4100.4-2510.5h36.9c7.7,0,13.9,6.2,13.9,13.9v36.9c0,7.7-6.2,13.9-13.9,13.9h-36.9
				c-7.7,0-13.9-6.2-13.9-13.9v-36.9C4086.5-2504.3,4092.8-2510.5,4100.4-2510.5z"/>
			<path id="Rectángulo_5187" class="st6" d="M4099.6-2393.8h36.9c7.7,0,13.9,6.2,13.9,13.9v36.9c0,7.7-6.2,13.9-13.9,13.9h-36.9
				c-7.7,0-13.9-6.2-13.9-13.9v-36.9C4085.7-2387.6,4091.9-2393.8,4099.6-2393.8z"/>
			<path id="Rectángulo_5188" class="st6" d="M4099.6-2626.2h36.9c7.7,0,13.9,6.2,13.9,13.9v36.9c0,7.7-6.2,13.9-13.9,13.9h-36.9
				c-7.7,0-13.9-6.2-13.9-13.9v-36.9C4085.7-2620,4091.9-2626.2,4099.6-2626.2z"/>
			<path id="Rectángulo_5189" class="st5" d="M4321.1-2510.5h36.9c7.7,0,13.9,6.2,13.9,13.9v36.9c0,7.7-6.2,13.9-13.9,13.9h-36.9
				c-7.7,0-13.9-6.2-13.9-13.9v-36.9C4307.2-2504.3,4313.4-2510.5,4321.1-2510.5z"/>
			<g class="st7">
				<path class="st8" d="M3545.7-2476.3c0-0.5-0.2-0.9-0.5-1.1s-1-0.5-1.9-0.8s-1.6-0.6-2.2-0.9c-1.5-0.8-2.2-1.8-2.2-3.2
					c0-0.7,0.2-1.3,0.6-1.9c0.4-0.5,0.9-1,1.7-1.3s1.5-0.5,2.5-0.5c0.9,0,1.7,0.2,2.4,0.5c0.7,0.3,1.3,0.8,1.7,1.4s0.6,1.3,0.6,2.1
					h-2.6c0-0.6-0.2-1-0.6-1.4c-0.4-0.3-0.9-0.5-1.6-0.5c-0.6,0-1.1,0.1-1.5,0.4c-0.4,0.3-0.5,0.6-0.5,1.1c0,0.4,0.2,0.8,0.6,1
					s1,0.5,1.9,0.8c1.5,0.5,2.6,1,3.3,1.7s1,1.5,1,2.5c0,1.1-0.4,2-1.3,2.6c-0.8,0.6-2,0.9-3.4,0.9c-1,0-1.9-0.2-2.7-0.5
					c-0.8-0.4-1.4-0.9-1.9-1.5s-0.6-1.4-0.6-2.2h2.6c0,1.4,0.8,2.1,2.5,2.1c0.6,0,1.1-0.1,1.5-0.4
					C3545.5-2475.5,3545.7-2475.8,3545.7-2476.3z"/>
				<path class="st8" d="M3552.9-2472.9h-2.6v-12.8h2.6V-2472.9z"/>
			</g>
			<g class="st7">
				<path class="st8" d="M4339.4-2476.3c0-0.5-0.2-0.9-0.5-1.1s-1-0.5-1.9-0.8s-1.6-0.6-2.2-0.9c-1.5-0.8-2.2-1.8-2.2-3.2
					c0-0.7,0.2-1.3,0.6-1.9c0.4-0.5,0.9-1,1.7-1.3s1.5-0.5,2.5-0.5c0.9,0,1.7,0.2,2.4,0.5c0.7,0.3,1.3,0.8,1.7,1.4s0.6,1.3,0.6,2.1
					h-2.6c0-0.6-0.2-1-0.6-1.4c-0.4-0.3-0.9-0.5-1.6-0.5c-0.6,0-1.1,0.1-1.5,0.4c-0.4,0.3-0.5,0.6-0.5,1.1c0,0.4,0.2,0.8,0.6,1
					s1,0.5,1.8,0.8c1.5,0.5,2.6,1,3.3,1.7s1,1.5,1,2.5c0,1.1-0.4,2-1.3,2.6c-0.8,0.6-2,0.9-3.4,0.9c-1,0-1.9-0.2-2.7-0.5
					c-0.8-0.4-1.4-0.9-1.8-1.5s-0.6-1.4-0.6-2.2h2.6c0,1.4,0.8,2.1,2.5,2.1c0.6,0,1.1-0.1,1.5-0.4
					C4339.3-2475.5,4339.4-2475.8,4339.4-2476.3z"/>
				<path class="st8" d="M4346.7-2472.9h-2.6v-12.8h2.6V-2472.9z"/>
			</g>
			<g class="st7">
				<path class="st8" d="M3705.2-2476.3c0-0.5-0.2-0.9-0.5-1.1s-1-0.5-1.9-0.8s-1.6-0.6-2.2-0.9c-1.5-0.8-2.2-1.8-2.2-3.2
					c0-0.7,0.2-1.3,0.6-1.9c0.4-0.5,0.9-1,1.7-1.3s1.5-0.5,2.5-0.5c0.9,0,1.7,0.2,2.4,0.5c0.7,0.3,1.3,0.8,1.7,1.4s0.6,1.3,0.6,2.1
					h-2.6c0-0.6-0.2-1-0.6-1.4c-0.4-0.3-0.9-0.5-1.6-0.5c-0.6,0-1.1,0.1-1.5,0.4c-0.4,0.3-0.5,0.6-0.5,1.1c0,0.4,0.2,0.8,0.6,1
					s1,0.5,1.9,0.8c1.5,0.5,2.6,1,3.3,1.7s1,1.5,1,2.5c0,1.1-0.4,2-1.3,2.6c-0.8,0.6-2,0.9-3.4,0.9c-1,0-1.9-0.2-2.7-0.5
					c-0.8-0.4-1.4-0.9-1.9-1.5s-0.6-1.4-0.6-2.2h2.6c0,1.4,0.8,2.1,2.5,2.1c0.6,0,1.1-0.1,1.5-0.4
					C3705-2475.5,3705.2-2475.8,3705.2-2476.3z"/>
				<path class="st8" d="M3716.2-2476.3c0-0.5-0.2-0.9-0.5-1.1s-1-0.5-1.9-0.8s-1.6-0.6-2.2-0.9c-1.5-0.8-2.2-1.8-2.2-3.2
					c0-0.7,0.2-1.3,0.6-1.9c0.4-0.5,0.9-1,1.7-1.3s1.5-0.5,2.5-0.5c0.9,0,1.7,0.2,2.4,0.5c0.7,0.3,1.3,0.8,1.7,1.4s0.6,1.3,0.6,2.1
					h-2.6c0-0.6-0.2-1-0.6-1.4c-0.4-0.3-0.9-0.5-1.6-0.5c-0.6,0-1.1,0.1-1.5,0.4c-0.4,0.3-0.5,0.6-0.5,1.1c0,0.4,0.2,0.8,0.6,1
					s1,0.5,1.9,0.8c1.5,0.5,2.6,1,3.3,1.7s1,1.5,1,2.5c0,1.1-0.4,2-1.3,2.6c-0.8,0.6-2,0.9-3.4,0.9c-1,0-1.9-0.2-2.7-0.5
					c-0.8-0.4-1.4-0.9-1.9-1.5s-0.6-1.4-0.6-2.2h2.6c0,1.4,0.8,2.1,2.5,2.1c0.6,0,1.1-0.1,1.5-0.4
					C3716.1-2475.5,3716.2-2475.8,3716.2-2476.3z"/>
			</g>
			<g class="st7">
				<path class="st8" d="M4111.6-2476.3c0-0.5-0.2-0.9-0.5-1.1s-1-0.5-1.9-0.8s-1.6-0.6-2.2-0.9c-1.5-0.8-2.2-1.8-2.2-3.2
					c0-0.7,0.2-1.3,0.6-1.9c0.4-0.5,0.9-1,1.7-1.3s1.5-0.5,2.5-0.5c0.9,0,1.7,0.2,2.4,0.5c0.7,0.3,1.3,0.8,1.7,1.4s0.6,1.3,0.6,2.1
					h-2.6c0-0.6-0.2-1-0.6-1.4c-0.4-0.3-0.9-0.5-1.6-0.5c-0.6,0-1.1,0.1-1.5,0.4c-0.4,0.3-0.5,0.6-0.5,1.1c0,0.4,0.2,0.8,0.6,1
					s1,0.5,1.8,0.8c1.5,0.5,2.6,1,3.3,1.7s1,1.5,1,2.5c0,1.1-0.4,2-1.3,2.6c-0.8,0.6-2,0.9-3.4,0.9c-1,0-1.9-0.2-2.7-0.5
					c-0.8-0.4-1.4-0.9-1.8-1.5s-0.6-1.4-0.6-2.2h2.6c0,1.4,0.8,2.1,2.5,2.1c0.6,0,1.1-0.1,1.5-0.4
					C4111.4-2475.5,4111.6-2475.8,4111.6-2476.3z"/>
				<path class="st8" d="M4122.6-2476.3c0-0.5-0.2-0.9-0.5-1.1s-1-0.5-1.9-0.8s-1.6-0.6-2.2-0.9c-1.5-0.8-2.2-1.8-2.2-3.2
					c0-0.7,0.2-1.3,0.6-1.9c0.4-0.5,0.9-1,1.7-1.3s1.5-0.5,2.5-0.5c0.9,0,1.7,0.2,2.4,0.5c0.7,0.3,1.3,0.8,1.7,1.4s0.6,1.3,0.6,2.1
					h-2.6c0-0.6-0.2-1-0.6-1.4c-0.4-0.3-0.9-0.5-1.6-0.5c-0.6,0-1.1,0.1-1.5,0.4c-0.4,0.3-0.5,0.6-0.5,1.1c0,0.4,0.2,0.8,0.6,1
					s1,0.5,1.8,0.8c1.5,0.5,2.6,1,3.3,1.7s1,1.5,1,2.5c0,1.1-0.4,2-1.3,2.6c-0.8,0.6-2,0.9-3.4,0.9c-1,0-1.9-0.2-2.7-0.5
					c-0.8-0.4-1.4-0.9-1.8-1.5s-0.6-1.4-0.6-2.2h2.6c0,1.4,0.8,2.1,2.5,2.1c0.6,0,1.1-0.1,1.5-0.4
					C4122.4-2475.5,4122.6-2475.8,4122.6-2476.3z"/>
			</g>
			<g class="st7">
				<path class="st8" d="M4131.4-2472.9h-2v-7.6l-2.4,0.7v-1.6l4.1-1.5h0.2V-2472.9z"/>
			</g>
			<g class="st7">
				<path class="st8" d="M4111.6-2593c0-0.5-0.2-0.9-0.5-1.1s-1-0.5-1.9-0.8s-1.6-0.6-2.2-0.9c-1.5-0.8-2.2-1.8-2.2-3.2
					c0-0.7,0.2-1.3,0.6-1.9c0.4-0.5,0.9-1,1.7-1.3s1.5-0.5,2.5-0.5c0.9,0,1.7,0.2,2.4,0.5c0.7,0.3,1.3,0.8,1.7,1.4s0.6,1.3,0.6,2.1
					h-2.6c0-0.6-0.2-1-0.6-1.4c-0.4-0.3-0.9-0.5-1.6-0.5c-0.6,0-1.1,0.1-1.5,0.4c-0.4,0.3-0.5,0.6-0.5,1.1c0,0.4,0.2,0.8,0.6,1
					s1,0.5,1.8,0.8c1.5,0.5,2.6,1,3.3,1.7s1,1.5,1,2.5c0,1.1-0.4,2-1.3,2.6c-0.8,0.6-2,0.9-3.4,0.9c-1,0-1.9-0.2-2.7-0.5
					c-0.8-0.4-1.4-0.9-1.8-1.5s-0.6-1.4-0.6-2.2h2.6c0,1.4,0.8,2.1,2.5,2.1c0.6,0,1.1-0.1,1.5-0.4
					C4111.4-2592.2,4111.6-2592.6,4111.6-2593z"/>
				<path class="st8" d="M4122.6-2593c0-0.5-0.2-0.9-0.5-1.1s-1-0.5-1.9-0.8s-1.6-0.6-2.2-0.9c-1.5-0.8-2.2-1.8-2.2-3.2
					c0-0.7,0.2-1.3,0.6-1.9c0.4-0.5,0.9-1,1.7-1.3s1.5-0.5,2.5-0.5c0.9,0,1.7,0.2,2.4,0.5c0.7,0.3,1.3,0.8,1.7,1.4s0.6,1.3,0.6,2.1
					h-2.6c0-0.6-0.2-1-0.6-1.4c-0.4-0.3-0.9-0.5-1.6-0.5c-0.6,0-1.1,0.1-1.5,0.4c-0.4,0.3-0.5,0.6-0.5,1.1c0,0.4,0.2,0.8,0.6,1
					s1,0.5,1.8,0.8c1.5,0.5,2.6,1,3.3,1.7s1,1.5,1,2.5c0,1.1-0.4,2-1.3,2.6c-0.8,0.6-2,0.9-3.4,0.9c-1,0-1.9-0.2-2.7-0.5
					c-0.8-0.4-1.4-0.9-1.8-1.5s-0.6-1.4-0.6-2.2h2.6c0,1.4,0.8,2.1,2.5,2.1c0.6,0,1.1-0.1,1.5-0.4
					C4122.4-2592.2,4122.6-2592.6,4122.6-2593z"/>
			</g>
			<g class="st7">
				<path class="st8" d="M4131.4-2589.7h-2v-7.6l-2.4,0.7v-1.6l4.1-1.5h0.2V-2589.7z"/>
			</g>
			<g class="st7">
				<path class="st8" d="M4111.6-2357.9c0-0.5-0.2-0.9-0.5-1.1s-1-0.5-1.9-0.8s-1.6-0.6-2.2-0.9c-1.5-0.8-2.2-1.8-2.2-3.2
					c0-0.7,0.2-1.3,0.6-1.9c0.4-0.5,0.9-1,1.7-1.3s1.5-0.5,2.5-0.5c0.9,0,1.7,0.2,2.4,0.5c0.7,0.3,1.3,0.8,1.7,1.4s0.6,1.3,0.6,2.1
					h-2.6c0-0.6-0.2-1-0.6-1.4c-0.4-0.3-0.9-0.5-1.6-0.5c-0.6,0-1.1,0.1-1.5,0.4c-0.4,0.3-0.5,0.6-0.5,1.1c0,0.4,0.2,0.8,0.6,1
					s1,0.5,1.8,0.8c1.5,0.5,2.6,1,3.3,1.7s1,1.5,1,2.5c0,1.1-0.4,2-1.3,2.6c-0.8,0.6-2,0.9-3.4,0.9c-1,0-1.9-0.2-2.7-0.5
					c-0.8-0.4-1.4-0.9-1.8-1.5s-0.6-1.4-0.6-2.2h2.6c0,1.4,0.8,2.1,2.5,2.1c0.6,0,1.1-0.1,1.5-0.4
					C4111.4-2357.1,4111.6-2357.4,4111.6-2357.9z"/>
				<path class="st8" d="M4122.6-2357.9c0-0.5-0.2-0.9-0.5-1.1s-1-0.5-1.9-0.8s-1.6-0.6-2.2-0.9c-1.5-0.8-2.2-1.8-2.2-3.2
					c0-0.7,0.2-1.3,0.6-1.9c0.4-0.5,0.9-1,1.7-1.3s1.5-0.5,2.5-0.5c0.9,0,1.7,0.2,2.4,0.5c0.7,0.3,1.3,0.8,1.7,1.4s0.6,1.3,0.6,2.1
					h-2.6c0-0.6-0.2-1-0.6-1.4c-0.4-0.3-0.9-0.5-1.6-0.5c-0.6,0-1.1,0.1-1.5,0.4c-0.4,0.3-0.5,0.6-0.5,1.1c0,0.4,0.2,0.8,0.6,1
					s1,0.5,1.8,0.8c1.5,0.5,2.6,1,3.3,1.7s1,1.5,1,2.5c0,1.1-0.4,2-1.3,2.6c-0.8,0.6-2,0.9-3.4,0.9c-1,0-1.9-0.2-2.7-0.5
					c-0.8-0.4-1.4-0.9-1.8-1.5s-0.6-1.4-0.6-2.2h2.6c0,1.4,0.8,2.1,2.5,2.1c0.6,0,1.1-0.1,1.5-0.4
					C4122.4-2357.1,4122.6-2357.4,4122.6-2357.9z"/>
			</g>
			<g class="st7">
				<path class="st8" d="M4131.4-2354.5h-2v-7.6l-2.4,0.7v-1.6l4.1-1.5h0.2V-2354.5z"/>
			</g>
			<g class="st7">
				<path d="M4033.1-2647.1l3.5,8.7l3.5-8.7h1.8v10.7h-1.4v-4.2l0.1-4.5l-3.5,8.6h-1.1l-3.5-8.6l0.1,4.5v4.2h-1.4v-10.7H4033.1z"/>
				<path d="M4044.1-2646.5c0-0.2,0.1-0.4,0.2-0.6c0.1-0.2,0.3-0.2,0.6-0.2s0.5,0.1,0.6,0.2c0.1,0.2,0.2,0.3,0.2,0.6
					c0,0.2-0.1,0.4-0.2,0.5s-0.3,0.2-0.6,0.2s-0.5-0.1-0.6-0.2C4044.2-2646,4044.1-2646.2,4044.1-2646.5z M4045.6-2636.4h-1.4v-7.9
					h1.4V-2636.4z"/>
				<path d="M4051.1-2636.3c-1.1,0-1.9-0.4-2.6-1.1c-0.7-0.7-1-1.6-1-2.8v-0.2c0-0.8,0.1-1.5,0.5-2.1c0.3-0.6,0.7-1.1,1.3-1.5
					c0.5-0.3,1.1-0.5,1.8-0.5c1,0,1.8,0.3,2.4,1c0.6,0.7,0.9,1.7,0.9,2.9v0.6h-5.4c0,0.8,0.2,1.4,0.7,1.9c0.4,0.5,1,0.7,1.7,0.7
					c0.5,0,0.9-0.1,1.2-0.3s0.6-0.5,0.9-0.8l0.8,0.6C4053.4-2636.8,4052.4-2636.3,4051.1-2636.3z M4050.9-2643.4
					c-0.5,0-1,0.2-1.4,0.6c-0.4,0.4-0.6,1-0.7,1.7h4v-0.1c0-0.7-0.2-1.2-0.6-1.6C4051.9-2643.2,4051.5-2643.4,4050.9-2643.4z"/>
				<path d="M4057-2644.3l0,0.9c0.6-0.7,1.4-1,2.4-1c1.1,0,1.9,0.4,2.3,1.3c0.3-0.4,0.6-0.7,1-0.9s0.9-0.4,1.5-0.4
					c1.7,0,2.6,0.9,2.7,2.8v5.3h-1.4v-5.2c0-0.6-0.1-1-0.4-1.3c-0.3-0.3-0.7-0.4-1.3-0.4c-0.5,0-0.9,0.2-1.3,0.5
					c-0.3,0.3-0.5,0.7-0.6,1.2v5.3h-1.4v-5.2c0-1.2-0.6-1.7-1.7-1.7c-0.9,0-1.5,0.4-1.8,1.1v5.8h-1.4v-7.9H4057z"/>
				<path d="M4075.6-2640.3c0,1.2-0.3,2.2-0.8,2.9c-0.6,0.7-1.3,1.1-2.2,1.1c-1,0-1.8-0.4-2.3-1.1l-0.1,0.9h-1.2v-11.2h1.4v4.2
					c0.5-0.7,1.3-1,2.3-1c1,0,1.7,0.4,2.3,1.1c0.5,0.7,0.8,1.7,0.8,3V-2640.3z M4074.2-2640.5c0-0.9-0.2-1.6-0.5-2.1
					c-0.4-0.5-0.9-0.8-1.5-0.8c-0.9,0-1.5,0.4-1.9,1.2v3.4c0.4,0.8,1.1,1.2,1.9,1.2c0.7,0,1.2-0.3,1.5-0.8
					S4074.2-2639.4,4074.2-2640.5z"/>
				<path d="M4081.1-2643.1c-0.2,0-0.4-0.1-0.7-0.1c-0.9,0-1.5,0.4-1.8,1.1v5.6h-1.4v-7.9h1.3l0,0.9c0.4-0.7,1.1-1.1,1.9-1.1
					c0.3,0,0.5,0,0.6,0.1V-2643.1z"/>
				<path d="M4081.9-2640.5c0-0.8,0.2-1.5,0.5-2.1c0.3-0.6,0.7-1.1,1.3-1.4c0.5-0.3,1.2-0.5,1.9-0.5c1.1,0,2,0.4,2.6,1.1
					c0.7,0.7,1,1.7,1,3v0.1c0,0.8-0.1,1.5-0.4,2.1c-0.3,0.6-0.7,1.1-1.3,1.4c-0.6,0.3-1.2,0.5-1.9,0.5c-1.1,0-1.9-0.4-2.6-1.1
					C4082.2-2638.1,4081.9-2639.1,4081.9-2640.5L4081.9-2640.5z M4083.2-2640.3c0,0.9,0.2,1.6,0.6,2.1s1,0.8,1.6,0.8
					c0.7,0,1.2-0.3,1.6-0.8c0.4-0.5,0.6-1.3,0.6-2.3c0-0.9-0.2-1.6-0.6-2.1c-0.4-0.5-1-0.8-1.6-0.8c-0.7,0-1.2,0.3-1.6,0.8
					C4083.4-2642.1,4083.2-2641.3,4083.2-2640.3z"/>
			</g>
			<g class="st7">
				<path d="M4097.3-2642l1.3-2.4h2.3l-2.3,3.9l2.4,4h-2.3l-1.4-2.5l-1.4,2.5h-2.3l2.4-4l-2.2-3.9h2.3L4097.3-2642z"/>
				<path d="M4106.3-2635.5h-1.6l3.9-11.6h1.6L4106.3-2635.5z"/>
			</g>
			<g class="st7">
				<path d="M4118.6-2641.2c-1.2-0.3-2.1-0.8-2.6-1.3c-0.5-0.5-0.8-1.1-0.8-1.9c0-0.8,0.3-1.5,1-2.1c0.7-0.5,1.5-0.8,2.6-0.8
					c0.7,0,1.4,0.1,2,0.4c0.6,0.3,1,0.7,1.3,1.2c0.3,0.5,0.5,1,0.5,1.6h-1.4c0-0.6-0.2-1.2-0.6-1.5s-1-0.6-1.7-0.6
					c-0.7,0-1.2,0.2-1.6,0.5c-0.4,0.3-0.6,0.7-0.6,1.3c0,0.4,0.2,0.8,0.6,1.1s1,0.6,1.9,0.8c0.9,0.2,1.6,0.5,2.1,0.8
					c0.5,0.3,0.9,0.7,1.1,1.1c0.2,0.4,0.4,0.9,0.4,1.4c0,0.9-0.3,1.6-1,2.1c-0.7,0.5-1.6,0.8-2.7,0.8c-0.7,0-1.4-0.1-2.1-0.4
					c-0.6-0.3-1.1-0.7-1.5-1.2c-0.3-0.5-0.5-1-0.5-1.7h1.4c0,0.6,0.2,1.2,0.7,1.5c0.5,0.4,1.1,0.6,1.9,0.6c0.7,0,1.3-0.2,1.7-0.5
					s0.6-0.7,0.6-1.2s-0.2-0.9-0.5-1.2C4120.2-2640.6,4119.5-2640.9,4118.6-2641.2z"/>
				<path d="M4129-2637.2c-0.5,0.6-1.3,0.9-2.3,0.9c-0.8,0-1.5-0.2-1.9-0.7c-0.4-0.5-0.7-1.2-0.7-2.2v-5.2h1.4v5.1
					c0,1.2,0.5,1.8,1.5,1.8c1,0,1.7-0.4,2.1-1.2v-5.8h1.4v7.9h-1.3L4129-2637.2z"/>
				<path d="M4139.1-2640.3c0,1.2-0.3,2.2-0.8,2.9c-0.6,0.7-1.3,1.1-2.2,1.1c-1,0-1.8-0.4-2.3-1.1l-0.1,0.9h-1.2v-11.2h1.4v4.2
					c0.5-0.7,1.3-1,2.3-1s1.7,0.4,2.3,1.1c0.5,0.7,0.8,1.7,0.8,3V-2640.3z M4137.7-2640.5c0-0.9-0.2-1.6-0.5-2.1s-0.9-0.8-1.5-0.8
					c-0.9,0-1.5,0.4-1.9,1.2v3.4c0.4,0.8,1.1,1.2,1.9,1.2c0.6,0,1.2-0.3,1.5-0.8S4137.7-2639.4,4137.7-2640.5z"/>
				<path d="M4145.4-2638.5c0-0.4-0.1-0.7-0.4-0.9c-0.3-0.2-0.8-0.4-1.4-0.5c-0.7-0.1-1.2-0.3-1.6-0.5c-0.4-0.2-0.7-0.4-0.9-0.7
					c-0.2-0.3-0.3-0.6-0.3-1c0-0.6,0.3-1.2,0.8-1.6c0.5-0.4,1.2-0.7,2.1-0.7c0.9,0,1.6,0.2,2.2,0.7s0.8,1.1,0.8,1.8h-1.4
					c0-0.4-0.2-0.7-0.5-1s-0.7-0.4-1.2-0.4c-0.5,0-0.9,0.1-1.2,0.3c-0.3,0.2-0.4,0.5-0.4,0.8c0,0.3,0.1,0.6,0.4,0.7
					c0.3,0.2,0.7,0.3,1.4,0.5c0.7,0.2,1.2,0.3,1.6,0.5s0.7,0.5,0.9,0.8c0.2,0.3,0.3,0.7,0.3,1.1c0,0.7-0.3,1.3-0.8,1.7
					c-0.6,0.4-1.3,0.6-2.2,0.6c-0.6,0-1.2-0.1-1.7-0.3s-0.9-0.5-1.1-0.9c-0.3-0.4-0.4-0.8-0.4-1.3h1.4c0,0.5,0.2,0.8,0.5,1.1
					c0.3,0.3,0.8,0.4,1.3,0.4c0.5,0,0.9-0.1,1.2-0.3C4145.2-2637.9,4145.4-2638.2,4145.4-2638.5z"/>
				<path d="M4148.5-2646.5c0-0.2,0.1-0.4,0.2-0.6c0.1-0.2,0.3-0.2,0.6-0.2s0.5,0.1,0.6,0.2c0.1,0.2,0.2,0.3,0.2,0.6
					c0,0.2-0.1,0.4-0.2,0.5s-0.3,0.2-0.6,0.2s-0.5-0.1-0.6-0.2C4148.6-2646,4148.5-2646.2,4148.5-2646.5z M4150-2636.4h-1.4v-7.9
					h1.4V-2636.4z"/>
				<path d="M4156.8-2638.5c0-0.4-0.1-0.7-0.4-0.9c-0.3-0.2-0.8-0.4-1.4-0.5c-0.7-0.1-1.2-0.3-1.6-0.5c-0.4-0.2-0.7-0.4-0.9-0.7
					s-0.3-0.6-0.3-1c0-0.6,0.3-1.2,0.8-1.6c0.5-0.4,1.3-0.7,2.1-0.7c0.9,0,1.6,0.2,2.2,0.7c0.6,0.5,0.8,1.1,0.8,1.8h-1.4
					c0-0.4-0.2-0.7-0.5-1c-0.3-0.3-0.7-0.4-1.2-0.4c-0.5,0-0.9,0.1-1.2,0.3s-0.4,0.5-0.4,0.8c0,0.3,0.1,0.6,0.4,0.7s0.7,0.3,1.4,0.5
					c0.7,0.2,1.2,0.3,1.6,0.5s0.7,0.5,0.9,0.8c0.2,0.3,0.3,0.7,0.3,1.1c0,0.7-0.3,1.3-0.8,1.7c-0.6,0.4-1.3,0.6-2.2,0.6
					c-0.6,0-1.2-0.1-1.7-0.3s-0.9-0.5-1.1-0.9c-0.3-0.4-0.4-0.8-0.4-1.3h1.4c0,0.5,0.2,0.8,0.5,1.1c0.3,0.3,0.8,0.4,1.3,0.4
					c0.5,0,0.9-0.1,1.2-0.3C4156.6-2637.9,4156.8-2638.2,4156.8-2638.5z"/>
				<path d="M4161.7-2646.3v1.9h1.5v1h-1.5v4.9c0,0.3,0.1,0.6,0.2,0.7c0.1,0.2,0.4,0.2,0.7,0.2c0.2,0,0.4,0,0.6-0.1v1.1
					c-0.4,0.1-0.7,0.1-1,0.1c-0.6,0-1.1-0.2-1.4-0.5c-0.3-0.4-0.5-0.9-0.5-1.6v-4.9h-1.4v-1h1.4v-1.9H4161.7z"/>
				<path d="M4168.1-2636.3c-1.1,0-1.9-0.4-2.6-1.1c-0.7-0.7-1-1.6-1-2.8v-0.2c0-0.8,0.2-1.5,0.5-2.1c0.3-0.6,0.7-1.1,1.3-1.5
					c0.5-0.3,1.1-0.5,1.8-0.5c1,0,1.8,0.3,2.4,1c0.6,0.7,0.9,1.7,0.9,2.9v0.6h-5.4c0,0.8,0.2,1.4,0.7,1.9c0.4,0.5,1,0.7,1.7,0.7
					c0.5,0,0.9-0.1,1.2-0.3s0.6-0.5,0.9-0.8l0.8,0.6C4170.4-2636.8,4169.4-2636.3,4168.1-2636.3z M4167.9-2643.4
					c-0.5,0-1,0.2-1.4,0.6c-0.4,0.4-0.6,1-0.7,1.7h4v-0.1c0-0.7-0.2-1.2-0.6-1.6C4168.9-2643.2,4168.5-2643.4,4167.9-2643.4z"/>
				<path d="M4174-2644.3l0,0.9c0.6-0.7,1.4-1,2.4-1c1.1,0,1.9,0.4,2.3,1.3c0.3-0.4,0.6-0.7,1-0.9s0.9-0.4,1.5-0.4
					c1.7,0,2.6,0.9,2.7,2.8v5.3h-1.4v-5.2c0-0.6-0.1-1-0.4-1.3c-0.3-0.3-0.7-0.4-1.3-0.4c-0.5,0-0.9,0.2-1.3,0.5
					c-0.3,0.3-0.5,0.7-0.6,1.2v5.3h-1.4v-5.2c0-1.2-0.6-1.7-1.7-1.7c-0.9,0-1.5,0.4-1.8,1.1v5.8h-1.4v-7.9H4174z"/>
				<path d="M4190.8-2636.4c-0.1-0.2-0.1-0.4-0.2-0.8c-0.6,0.7-1.4,1-2.3,1c-0.8,0-1.4-0.2-1.9-0.7c-0.5-0.4-0.8-1-0.8-1.7
					c0-0.8,0.3-1.5,0.9-1.9c0.6-0.5,1.5-0.7,2.6-0.7h1.3v-0.6c0-0.5-0.1-0.9-0.4-1.1c-0.3-0.3-0.7-0.4-1.3-0.4
					c-0.5,0-0.9,0.1-1.2,0.4c-0.3,0.2-0.5,0.5-0.5,0.9h-1.4c0-0.4,0.1-0.8,0.4-1.1c0.3-0.4,0.7-0.7,1.1-0.9s1-0.3,1.6-0.3
					c0.9,0,1.6,0.2,2.1,0.7c0.5,0.5,0.8,1.1,0.8,1.9v3.6c0,0.7,0.1,1.3,0.3,1.7v0.1H4190.8z M4188.5-2637.5c0.4,0,0.8-0.1,1.2-0.3
					s0.7-0.5,0.8-0.9v-1.6h-1.1c-1.7,0-2.5,0.5-2.5,1.5c0,0.4,0.1,0.8,0.4,1S4188.1-2637.5,4188.5-2637.5z"/>
			</g>
			<g class="st7">
				<path d="M4201.4-2642.3l2.2-4.8h2.4l-3.5,6.8v3.9h-2.2v-3.9l-3.5-6.8h2.4L4201.4-2642.3z"/>
			</g>
			<g class="st7">
				<path d="M4033.1-2530.2l3.5,8.7l3.5-8.7h1.8v10.7h-1.4v-4.2l0.1-4.5l-3.5,8.6h-1.1l-3.5-8.6l0.1,4.5v4.2h-1.4v-10.7H4033.1z"/>
				<path d="M4044.1-2529.6c0-0.2,0.1-0.4,0.2-0.6c0.1-0.2,0.3-0.2,0.6-0.2s0.5,0.1,0.6,0.2c0.1,0.2,0.2,0.3,0.2,0.6
					c0,0.2-0.1,0.4-0.2,0.5s-0.3,0.2-0.6,0.2s-0.5-0.1-0.6-0.2C4044.2-2529.2,4044.1-2529.3,4044.1-2529.6z M4045.6-2519.5h-1.4
					v-7.9h1.4V-2519.5z"/>
				<path d="M4051.1-2519.4c-1.1,0-1.9-0.4-2.6-1.1c-0.7-0.7-1-1.6-1-2.8v-0.2c0-0.8,0.1-1.5,0.5-2.1c0.3-0.6,0.7-1.1,1.3-1.5
					c0.5-0.3,1.1-0.5,1.8-0.5c1,0,1.8,0.3,2.4,1c0.6,0.7,0.9,1.7,0.9,2.9v0.6h-5.4c0,0.8,0.2,1.4,0.7,1.9c0.4,0.5,1,0.7,1.7,0.7
					c0.5,0,0.9-0.1,1.2-0.3s0.6-0.5,0.9-0.8l0.8,0.6C4053.4-2519.9,4052.4-2519.4,4051.1-2519.4z M4050.9-2526.5
					c-0.5,0-1,0.2-1.4,0.6c-0.4,0.4-0.6,1-0.7,1.7h4v-0.1c0-0.7-0.2-1.2-0.6-1.6C4051.9-2526.3,4051.5-2526.5,4050.9-2526.5z"/>
				<path d="M4057-2527.5l0,0.9c0.6-0.7,1.4-1,2.4-1c1.1,0,1.9,0.4,2.3,1.3c0.3-0.4,0.6-0.7,1-0.9s0.9-0.4,1.5-0.4
					c1.7,0,2.6,0.9,2.7,2.8v5.3h-1.4v-5.2c0-0.6-0.1-1-0.4-1.3c-0.3-0.3-0.7-0.4-1.3-0.4c-0.5,0-0.9,0.2-1.3,0.5
					c-0.3,0.3-0.5,0.7-0.6,1.2v5.3h-1.4v-5.2c0-1.2-0.6-1.7-1.7-1.7c-0.9,0-1.5,0.4-1.8,1.1v5.8h-1.4v-7.9H4057z"/>
				<path d="M4075.6-2523.4c0,1.2-0.3,2.2-0.8,2.9c-0.6,0.7-1.3,1.1-2.2,1.1c-1,0-1.8-0.4-2.3-1.1l-0.1,0.9h-1.2v-11.2h1.4v4.2
					c0.5-0.7,1.3-1,2.3-1c1,0,1.7,0.4,2.3,1.1c0.5,0.7,0.8,1.7,0.8,3V-2523.4z M4074.2-2523.6c0-0.9-0.2-1.6-0.5-2.1
					c-0.4-0.5-0.9-0.8-1.5-0.8c-0.9,0-1.5,0.4-1.9,1.2v3.4c0.4,0.8,1.1,1.2,1.9,1.2c0.7,0,1.2-0.3,1.5-0.8
					S4074.2-2522.6,4074.2-2523.6z"/>
				<path d="M4081.1-2526.3c-0.2,0-0.4-0.1-0.7-0.1c-0.9,0-1.5,0.4-1.8,1.1v5.6h-1.4v-7.9h1.3l0,0.9c0.4-0.7,1.1-1.1,1.9-1.1
					c0.3,0,0.5,0,0.6,0.1V-2526.3z"/>
				<path d="M4081.9-2523.6c0-0.8,0.2-1.5,0.5-2.1c0.3-0.6,0.7-1.1,1.3-1.4c0.5-0.3,1.2-0.5,1.9-0.5c1.1,0,2,0.4,2.6,1.1
					c0.7,0.7,1,1.7,1,3v0.1c0,0.8-0.1,1.5-0.4,2.1c-0.3,0.6-0.7,1.1-1.3,1.4c-0.6,0.3-1.2,0.5-1.9,0.5c-1.1,0-1.9-0.4-2.6-1.1
					C4082.2-2521.3,4081.9-2522.3,4081.9-2523.6L4081.9-2523.6z M4083.2-2523.4c0,0.9,0.2,1.6,0.6,2.1s1,0.8,1.6,0.8
					c0.7,0,1.2-0.3,1.6-0.8c0.4-0.5,0.6-1.3,0.6-2.3c0-0.9-0.2-1.6-0.6-2.1c-0.4-0.5-1-0.8-1.6-0.8c-0.7,0-1.2,0.3-1.6,0.8
					C4083.4-2525.2,4083.2-2524.4,4083.2-2523.4z"/>
			</g>
			<g class="st7">
				<path d="M4097.3-2525.1l1.3-2.4h2.3l-2.3,3.9l2.4,4h-2.3l-1.4-2.5l-1.4,2.5h-2.3l2.4-4l-2.2-3.9h2.3L4097.3-2525.1z"/>
				<path d="M4106.3-2518.6h-1.6l3.9-11.6h1.6L4106.3-2518.6z"/>
			</g>
			<g class="st7">
				<path d="M4118.6-2524.3c-1.2-0.3-2.1-0.8-2.6-1.3c-0.5-0.5-0.8-1.1-0.8-1.9c0-0.8,0.3-1.5,1-2.1c0.7-0.5,1.5-0.8,2.6-0.8
					c0.7,0,1.4,0.1,2,0.4c0.6,0.3,1,0.7,1.3,1.2c0.3,0.5,0.5,1,0.5,1.6h-1.4c0-0.6-0.2-1.2-0.6-1.5s-1-0.6-1.7-0.6
					c-0.7,0-1.2,0.2-1.6,0.5c-0.4,0.3-0.6,0.7-0.6,1.3c0,0.4,0.2,0.8,0.6,1.1s1,0.6,1.9,0.8c0.9,0.2,1.6,0.5,2.1,0.8
					c0.5,0.3,0.9,0.7,1.1,1.1c0.2,0.4,0.4,0.9,0.4,1.4c0,0.9-0.3,1.6-1,2.1c-0.7,0.5-1.6,0.8-2.7,0.8c-0.7,0-1.4-0.1-2.1-0.4
					c-0.6-0.3-1.1-0.7-1.5-1.2c-0.3-0.5-0.5-1-0.5-1.7h1.4c0,0.6,0.2,1.2,0.7,1.5c0.5,0.4,1.1,0.6,1.9,0.6c0.7,0,1.3-0.2,1.7-0.5
					s0.6-0.7,0.6-1.2s-0.2-0.9-0.5-1.2C4120.2-2523.7,4119.5-2524,4118.6-2524.3z"/>
				<path d="M4129-2520.3c-0.5,0.6-1.3,0.9-2.3,0.9c-0.8,0-1.5-0.2-1.9-0.7c-0.4-0.5-0.7-1.2-0.7-2.2v-5.2h1.4v5.1
					c0,1.2,0.5,1.8,1.5,1.8c1,0,1.7-0.4,2.1-1.2v-5.8h1.4v7.9h-1.3L4129-2520.3z"/>
				<path d="M4139.1-2523.4c0,1.2-0.3,2.2-0.8,2.9c-0.6,0.7-1.3,1.1-2.2,1.1c-1,0-1.8-0.4-2.3-1.1l-0.1,0.9h-1.2v-11.2h1.4v4.2
					c0.5-0.7,1.3-1,2.3-1s1.7,0.4,2.3,1.1c0.5,0.7,0.8,1.7,0.8,3V-2523.4z M4137.7-2523.6c0-0.9-0.2-1.6-0.5-2.1s-0.9-0.8-1.5-0.8
					c-0.9,0-1.5,0.4-1.9,1.2v3.4c0.4,0.8,1.1,1.2,1.9,1.2c0.6,0,1.2-0.3,1.5-0.8S4137.7-2522.6,4137.7-2523.6z"/>
				<path d="M4145.4-2521.6c0-0.4-0.1-0.7-0.4-0.9c-0.3-0.2-0.8-0.4-1.4-0.5c-0.7-0.1-1.2-0.3-1.6-0.5c-0.4-0.2-0.7-0.4-0.9-0.7
					c-0.2-0.3-0.3-0.6-0.3-1c0-0.6,0.3-1.2,0.8-1.6c0.5-0.4,1.2-0.7,2.1-0.7c0.9,0,1.6,0.2,2.2,0.7s0.8,1.1,0.8,1.8h-1.4
					c0-0.4-0.2-0.7-0.5-1s-0.7-0.4-1.2-0.4c-0.5,0-0.9,0.1-1.2,0.3c-0.3,0.2-0.4,0.5-0.4,0.8c0,0.3,0.1,0.6,0.4,0.7
					c0.3,0.2,0.7,0.3,1.4,0.5c0.7,0.2,1.2,0.3,1.6,0.5s0.7,0.5,0.9,0.8c0.2,0.3,0.3,0.7,0.3,1.1c0,0.7-0.3,1.3-0.8,1.7
					c-0.6,0.4-1.3,0.6-2.2,0.6c-0.6,0-1.2-0.1-1.7-0.3s-0.9-0.5-1.1-0.9c-0.3-0.4-0.4-0.8-0.4-1.3h1.4c0,0.5,0.2,0.8,0.5,1.1
					c0.3,0.3,0.8,0.4,1.3,0.4c0.5,0,0.9-0.1,1.2-0.3C4145.2-2521,4145.4-2521.3,4145.4-2521.6z"/>
				<path d="M4148.5-2529.6c0-0.2,0.1-0.4,0.2-0.6c0.1-0.2,0.3-0.2,0.6-0.2s0.5,0.1,0.6,0.2c0.1,0.2,0.2,0.3,0.2,0.6
					c0,0.2-0.1,0.4-0.2,0.5s-0.3,0.2-0.6,0.2s-0.5-0.1-0.6-0.2C4148.6-2529.2,4148.5-2529.3,4148.5-2529.6z M4150-2519.5h-1.4v-7.9
					h1.4V-2519.5z"/>
				<path d="M4156.8-2521.6c0-0.4-0.1-0.7-0.4-0.9c-0.3-0.2-0.8-0.4-1.4-0.5c-0.7-0.1-1.2-0.3-1.6-0.5c-0.4-0.2-0.7-0.4-0.9-0.7
					s-0.3-0.6-0.3-1c0-0.6,0.3-1.2,0.8-1.6c0.5-0.4,1.3-0.7,2.1-0.7c0.9,0,1.6,0.2,2.2,0.7c0.6,0.5,0.8,1.1,0.8,1.8h-1.4
					c0-0.4-0.2-0.7-0.5-1c-0.3-0.3-0.7-0.4-1.2-0.4c-0.5,0-0.9,0.1-1.2,0.3s-0.4,0.5-0.4,0.8c0,0.3,0.1,0.6,0.4,0.7s0.7,0.3,1.4,0.5
					c0.7,0.2,1.2,0.3,1.6,0.5s0.7,0.5,0.9,0.8c0.2,0.3,0.3,0.7,0.3,1.1c0,0.7-0.3,1.3-0.8,1.7c-0.6,0.4-1.3,0.6-2.2,0.6
					c-0.6,0-1.2-0.1-1.7-0.3s-0.9-0.5-1.1-0.9c-0.3-0.4-0.4-0.8-0.4-1.3h1.4c0,0.5,0.2,0.8,0.5,1.1c0.3,0.3,0.8,0.4,1.3,0.4
					c0.5,0,0.9-0.1,1.2-0.3C4156.6-2521,4156.8-2521.3,4156.8-2521.6z"/>
				<path d="M4161.7-2529.4v1.9h1.5v1h-1.5v4.9c0,0.3,0.1,0.6,0.2,0.7c0.1,0.2,0.4,0.2,0.7,0.2c0.2,0,0.4,0,0.6-0.1v1.1
					c-0.4,0.1-0.7,0.1-1,0.1c-0.6,0-1.1-0.2-1.4-0.5c-0.3-0.4-0.5-0.9-0.5-1.6v-4.9h-1.4v-1h1.4v-1.9H4161.7z"/>
				<path d="M4168.1-2519.4c-1.1,0-1.9-0.4-2.6-1.1c-0.7-0.7-1-1.6-1-2.8v-0.2c0-0.8,0.2-1.5,0.5-2.1c0.3-0.6,0.7-1.1,1.3-1.5
					c0.5-0.3,1.1-0.5,1.8-0.5c1,0,1.8,0.3,2.4,1c0.6,0.7,0.9,1.7,0.9,2.9v0.6h-5.4c0,0.8,0.2,1.4,0.7,1.9c0.4,0.5,1,0.7,1.7,0.7
					c0.5,0,0.9-0.1,1.2-0.3s0.6-0.5,0.9-0.8l0.8,0.6C4170.4-2519.9,4169.4-2519.4,4168.1-2519.4z M4167.9-2526.5
					c-0.5,0-1,0.2-1.4,0.6c-0.4,0.4-0.6,1-0.7,1.7h4v-0.1c0-0.7-0.2-1.2-0.6-1.6C4168.9-2526.3,4168.5-2526.5,4167.9-2526.5z"/>
				<path d="M4174-2527.5l0,0.9c0.6-0.7,1.4-1,2.4-1c1.1,0,1.9,0.4,2.3,1.3c0.3-0.4,0.6-0.7,1-0.9s0.9-0.4,1.5-0.4
					c1.7,0,2.6,0.9,2.7,2.8v5.3h-1.4v-5.2c0-0.6-0.1-1-0.4-1.3c-0.3-0.3-0.7-0.4-1.3-0.4c-0.5,0-0.9,0.2-1.3,0.5
					c-0.3,0.3-0.5,0.7-0.6,1.2v5.3h-1.4v-5.2c0-1.2-0.6-1.7-1.7-1.7c-0.9,0-1.5,0.4-1.8,1.1v5.8h-1.4v-7.9H4174z"/>
				<path d="M4190.8-2519.5c-0.1-0.2-0.1-0.4-0.2-0.8c-0.6,0.7-1.4,1-2.3,1c-0.8,0-1.4-0.2-1.9-0.7c-0.5-0.4-0.8-1-0.8-1.7
					c0-0.8,0.3-1.5,0.9-1.9c0.6-0.5,1.5-0.7,2.6-0.7h1.3v-0.6c0-0.5-0.1-0.9-0.4-1.1c-0.3-0.3-0.7-0.4-1.3-0.4
					c-0.5,0-0.9,0.1-1.2,0.4c-0.3,0.2-0.5,0.5-0.5,0.9h-1.4c0-0.4,0.1-0.8,0.4-1.1c0.3-0.4,0.7-0.7,1.1-0.9s1-0.3,1.6-0.3
					c0.9,0,1.6,0.2,2.1,0.7c0.5,0.5,0.8,1.1,0.8,1.9v3.6c0,0.7,0.1,1.3,0.3,1.7v0.1H4190.8z M4188.5-2520.6c0.4,0,0.8-0.1,1.2-0.3
					s0.7-0.5,0.8-0.9v-1.6h-1.1c-1.7,0-2.5,0.5-2.5,1.5c0,0.4,0.1,0.8,0.4,1S4188.1-2520.6,4188.5-2520.6z"/>
			</g>
			<g class="st7">
				<path d="M4201.4-2525.4l2.2-4.8h2.4l-3.5,6.8v3.9h-2.2v-3.9l-3.5-6.8h2.4L4201.4-2525.4z"/>
			</g>
			<g class="st7">
				<path class="st5" d="M3779.2-2461.1h-1.3v-10h1.3V-2461.1z"/>
				<path class="st5" d="M3782.6-2468.5l0,0.9c0.6-0.7,1.3-1.1,2.2-1.1c1.6,0,2.4,0.9,2.4,2.6v4.9h-1.3v-4.9c0-0.5-0.1-0.9-0.4-1.2
					s-0.6-0.4-1.1-0.4c-0.4,0-0.8,0.1-1.1,0.3c-0.3,0.2-0.6,0.5-0.7,0.9v5.3h-1.3v-7.4H3782.6z"/>
				<path class="st5" d="M3790.8-2470.3v1.8h1.4v1h-1.4v4.6c0,0.3,0.1,0.5,0.2,0.7s0.3,0.2,0.6,0.2c0.1,0,0.3,0,0.6-0.1v1
					c-0.3,0.1-0.7,0.1-1,0.1c-0.6,0-1-0.2-1.3-0.5s-0.4-0.8-0.4-1.5v-4.6h-1.3v-1h1.3v-1.8H3790.8z"/>
				<path class="st5" d="M3796.8-2461c-1,0-1.8-0.3-2.4-1c-0.6-0.7-0.9-1.5-0.9-2.6v-0.2c0-0.7,0.1-1.4,0.4-2c0.3-0.6,0.7-1,1.2-1.4
					c0.5-0.3,1-0.5,1.6-0.5c1,0,1.7,0.3,2.2,1s0.8,1.5,0.8,2.7v0.5h-5c0,0.7,0.2,1.3,0.6,1.8c0.4,0.4,0.9,0.7,1.6,0.7
					c0.4,0,0.8-0.1,1.1-0.3c0.3-0.2,0.6-0.4,0.8-0.7l0.8,0.6C3798.9-2461.5,3798-2461,3796.8-2461z M3796.6-2467.6
					c-0.5,0-0.9,0.2-1.3,0.6c-0.3,0.4-0.6,0.9-0.6,1.6h3.7v-0.1c0-0.6-0.2-1.1-0.5-1.5C3797.6-2467.4,3797.1-2467.6,3796.6-2467.6z"
					/>
				<path class="st5" d="M3804.7-2467.4c-0.2,0-0.4,0-0.6,0c-0.8,0-1.4,0.4-1.7,1.1v5.2h-1.3v-7.4h1.2l0,0.9c0.4-0.7,1-1,1.8-1
					c0.2,0,0.4,0,0.6,0.1V-2467.4z"/>
				<path class="st5" d="M3807-2468.5l0,0.9c0.6-0.7,1.3-1.1,2.2-1.1c1.6,0,2.4,0.9,2.4,2.6v4.9h-1.3v-4.9c0-0.5-0.1-0.9-0.4-1.2
					s-0.6-0.4-1.1-0.4c-0.4,0-0.8,0.1-1.1,0.3c-0.3,0.2-0.6,0.5-0.7,0.9v5.3h-1.3v-7.4H3807z"/>
				<path class="st5" d="M3816.6-2461c-1,0-1.8-0.3-2.4-1c-0.6-0.7-0.9-1.5-0.9-2.6v-0.2c0-0.7,0.1-1.4,0.4-2c0.3-0.6,0.7-1,1.2-1.4
					c0.5-0.3,1-0.5,1.6-0.5c1,0,1.7,0.3,2.2,1s0.8,1.5,0.8,2.7v0.5h-5c0,0.7,0.2,1.3,0.6,1.8c0.4,0.4,0.9,0.7,1.6,0.7
					c0.4,0,0.8-0.1,1.1-0.3c0.3-0.2,0.6-0.4,0.8-0.7l0.8,0.6C3818.8-2461.5,3817.9-2461,3816.6-2461z M3816.5-2467.6
					c-0.5,0-0.9,0.2-1.3,0.6c-0.3,0.4-0.6,0.9-0.6,1.6h3.7v-0.1c0-0.6-0.2-1.1-0.5-1.5C3817.4-2467.4,3817-2467.6,3816.5-2467.6z"/>
				<path class="st5" d="M3822.7-2470.3v1.8h1.4v1h-1.4v4.6c0,0.3,0.1,0.5,0.2,0.7s0.3,0.2,0.6,0.2c0.1,0,0.3,0,0.6-0.1v1
					c-0.3,0.1-0.7,0.1-1,0.1c-0.6,0-1-0.2-1.3-0.5s-0.4-0.8-0.4-1.5v-4.6h-1.3v-1h1.3v-1.8H3822.7z"/>
			</g>
			<g class="st7">
				<path d="M4033.1-2414l3.5,8.7l3.5-8.7h1.8v10.7h-1.4v-4.2l0.1-4.5l-3.5,8.6h-1.1l-3.5-8.6l0.1,4.5v4.2h-1.4v-10.7H4033.1z"/>
				<path d="M4044.1-2413.4c0-0.2,0.1-0.4,0.2-0.6c0.1-0.2,0.3-0.2,0.6-0.2s0.5,0.1,0.6,0.2c0.1,0.2,0.2,0.3,0.2,0.6
					c0,0.2-0.1,0.4-0.2,0.5s-0.3,0.2-0.6,0.2s-0.5-0.1-0.6-0.2C4044.2-2413,4044.1-2413.2,4044.1-2413.4z M4045.6-2403.4h-1.4v-7.9
					h1.4V-2403.4z"/>
				<path d="M4051.1-2403.2c-1.1,0-1.9-0.4-2.6-1.1c-0.7-0.7-1-1.6-1-2.8v-0.2c0-0.8,0.1-1.5,0.5-2.1c0.3-0.6,0.7-1.1,1.3-1.5
					c0.5-0.3,1.1-0.5,1.8-0.5c1,0,1.8,0.3,2.4,1c0.6,0.7,0.9,1.7,0.9,2.9v0.6h-5.4c0,0.8,0.2,1.4,0.7,1.9c0.4,0.5,1,0.7,1.7,0.7
					c0.5,0,0.9-0.1,1.2-0.3s0.6-0.5,0.9-0.8l0.8,0.6C4053.4-2403.7,4052.4-2403.2,4051.1-2403.2z M4050.9-2410.3
					c-0.5,0-1,0.2-1.4,0.6c-0.4,0.4-0.6,1-0.7,1.7h4v-0.1c0-0.7-0.2-1.2-0.6-1.6C4051.9-2410.1,4051.5-2410.3,4050.9-2410.3z"/>
				<path d="M4057-2411.3l0,0.9c0.6-0.7,1.4-1,2.4-1c1.1,0,1.9,0.4,2.3,1.3c0.3-0.4,0.6-0.7,1-0.9s0.9-0.4,1.5-0.4
					c1.7,0,2.6,0.9,2.7,2.8v5.3h-1.4v-5.2c0-0.6-0.1-1-0.4-1.3c-0.3-0.3-0.7-0.4-1.3-0.4c-0.5,0-0.9,0.2-1.3,0.5
					c-0.3,0.3-0.5,0.7-0.6,1.2v5.3h-1.4v-5.2c0-1.2-0.6-1.7-1.7-1.7c-0.9,0-1.5,0.4-1.8,1.1v5.8h-1.4v-7.9H4057z"/>
				<path d="M4075.6-2407.2c0,1.2-0.3,2.2-0.8,2.9c-0.6,0.7-1.3,1.1-2.2,1.1c-1,0-1.8-0.4-2.3-1.1l-0.1,0.9h-1.2v-11.2h1.4v4.2
					c0.5-0.7,1.3-1,2.3-1c1,0,1.7,0.4,2.3,1.1c0.5,0.7,0.8,1.7,0.8,3V-2407.2z M4074.2-2407.4c0-0.9-0.2-1.6-0.5-2.1
					c-0.4-0.5-0.9-0.8-1.5-0.8c-0.9,0-1.5,0.4-1.9,1.2v3.4c0.4,0.8,1.1,1.2,1.9,1.2c0.7,0,1.2-0.3,1.5-0.8
					S4074.2-2406.4,4074.2-2407.4z"/>
				<path d="M4081.1-2410.1c-0.2,0-0.4-0.1-0.7-0.1c-0.9,0-1.5,0.4-1.8,1.1v5.6h-1.4v-7.9h1.3l0,0.9c0.4-0.7,1.1-1.1,1.9-1.1
					c0.3,0,0.5,0,0.6,0.1V-2410.1z"/>
				<path d="M4081.9-2407.4c0-0.8,0.2-1.5,0.5-2.1c0.3-0.6,0.7-1.1,1.3-1.4c0.5-0.3,1.2-0.5,1.9-0.5c1.1,0,2,0.4,2.6,1.1
					c0.7,0.7,1,1.7,1,3v0.1c0,0.8-0.1,1.5-0.4,2.1c-0.3,0.6-0.7,1.1-1.3,1.4c-0.6,0.3-1.2,0.5-1.9,0.5c-1.1,0-1.9-0.4-2.6-1.1
					C4082.2-2405.1,4081.9-2406.1,4081.9-2407.4L4081.9-2407.4z M4083.2-2407.2c0,0.9,0.2,1.6,0.6,2.1s1,0.8,1.6,0.8
					c0.7,0,1.2-0.3,1.6-0.8c0.4-0.5,0.6-1.3,0.6-2.3c0-0.9-0.2-1.6-0.6-2.1c-0.4-0.5-1-0.8-1.6-0.8c-0.7,0-1.2,0.3-1.6,0.8
					C4083.4-2409,4083.2-2408.2,4083.2-2407.2z"/>
			</g>
			<g class="st7">
				<path d="M4097.3-2408.9l1.3-2.4h2.3l-2.3,3.9l2.4,4h-2.3l-1.4-2.5l-1.4,2.5h-2.3l2.4-4l-2.2-3.9h2.3L4097.3-2408.9z"/>
				<path d="M4106.3-2402.4h-1.6l3.9-11.6h1.6L4106.3-2402.4z"/>
			</g>
			<g class="st7">
				<path d="M4118.6-2408.1c-1.2-0.3-2.1-0.8-2.6-1.3c-0.5-0.5-0.8-1.1-0.8-1.9c0-0.8,0.3-1.5,1-2.1c0.7-0.5,1.5-0.8,2.6-0.8
					c0.7,0,1.4,0.1,2,0.4c0.6,0.3,1,0.7,1.3,1.2c0.3,0.5,0.5,1,0.5,1.6h-1.4c0-0.6-0.2-1.2-0.6-1.5s-1-0.6-1.7-0.6
					c-0.7,0-1.2,0.2-1.6,0.5c-0.4,0.3-0.6,0.7-0.6,1.3c0,0.4,0.2,0.8,0.6,1.1s1,0.6,1.9,0.8c0.9,0.2,1.6,0.5,2.1,0.8
					c0.5,0.3,0.9,0.7,1.1,1.1c0.2,0.4,0.4,0.9,0.4,1.4c0,0.9-0.3,1.6-1,2.1c-0.7,0.5-1.6,0.8-2.7,0.8c-0.7,0-1.4-0.1-2.1-0.4
					c-0.6-0.3-1.1-0.7-1.5-1.2c-0.3-0.5-0.5-1-0.5-1.7h1.4c0,0.6,0.2,1.2,0.7,1.5c0.5,0.4,1.1,0.6,1.9,0.6c0.7,0,1.3-0.2,1.7-0.5
					s0.6-0.7,0.6-1.2s-0.2-0.9-0.5-1.2C4120.2-2407.6,4119.5-2407.8,4118.6-2408.1z"/>
				<path d="M4129-2404.1c-0.5,0.6-1.3,0.9-2.3,0.9c-0.8,0-1.5-0.2-1.9-0.7c-0.4-0.5-0.7-1.2-0.7-2.2v-5.2h1.4v5.1
					c0,1.2,0.5,1.8,1.5,1.8c1,0,1.7-0.4,2.1-1.2v-5.8h1.4v7.9h-1.3L4129-2404.1z"/>
				<path d="M4139.1-2407.2c0,1.2-0.3,2.2-0.8,2.9c-0.6,0.7-1.3,1.1-2.2,1.1c-1,0-1.8-0.4-2.3-1.1l-0.1,0.9h-1.2v-11.2h1.4v4.2
					c0.5-0.7,1.3-1,2.3-1s1.7,0.4,2.3,1.1c0.5,0.7,0.8,1.7,0.8,3V-2407.2z M4137.7-2407.4c0-0.9-0.2-1.6-0.5-2.1s-0.9-0.8-1.5-0.8
					c-0.9,0-1.5,0.4-1.9,1.2v3.4c0.4,0.8,1.1,1.2,1.9,1.2c0.6,0,1.2-0.3,1.5-0.8S4137.7-2406.4,4137.7-2407.4z"/>
				<path d="M4145.4-2405.5c0-0.4-0.1-0.7-0.4-0.9c-0.3-0.2-0.8-0.4-1.4-0.5c-0.7-0.1-1.2-0.3-1.6-0.5c-0.4-0.2-0.7-0.4-0.9-0.7
					c-0.2-0.3-0.3-0.6-0.3-1c0-0.6,0.3-1.2,0.8-1.6c0.5-0.4,1.2-0.7,2.1-0.7c0.9,0,1.6,0.2,2.2,0.7s0.8,1.1,0.8,1.8h-1.4
					c0-0.4-0.2-0.7-0.5-1s-0.7-0.4-1.2-0.4c-0.5,0-0.9,0.1-1.2,0.3c-0.3,0.2-0.4,0.5-0.4,0.8c0,0.3,0.1,0.6,0.4,0.7
					c0.3,0.2,0.7,0.3,1.4,0.5c0.7,0.2,1.2,0.3,1.6,0.5s0.7,0.5,0.9,0.8c0.2,0.3,0.3,0.7,0.3,1.1c0,0.7-0.3,1.3-0.8,1.7
					c-0.6,0.4-1.3,0.6-2.2,0.6c-0.6,0-1.2-0.1-1.7-0.3s-0.9-0.5-1.1-0.9c-0.3-0.4-0.4-0.8-0.4-1.3h1.4c0,0.5,0.2,0.8,0.5,1.1
					c0.3,0.3,0.8,0.4,1.3,0.4c0.5,0,0.9-0.1,1.2-0.3C4145.2-2404.8,4145.4-2405.1,4145.4-2405.5z"/>
				<path d="M4148.5-2413.4c0-0.2,0.1-0.4,0.2-0.6c0.1-0.2,0.3-0.2,0.6-0.2s0.5,0.1,0.6,0.2c0.1,0.2,0.2,0.3,0.2,0.6
					c0,0.2-0.1,0.4-0.2,0.5s-0.3,0.2-0.6,0.2s-0.5-0.1-0.6-0.2C4148.6-2413,4148.5-2413.2,4148.5-2413.4z M4150-2403.4h-1.4v-7.9
					h1.4V-2403.4z"/>
				<path d="M4156.8-2405.5c0-0.4-0.1-0.7-0.4-0.9c-0.3-0.2-0.8-0.4-1.4-0.5c-0.7-0.1-1.2-0.3-1.6-0.5c-0.4-0.2-0.7-0.4-0.9-0.7
					s-0.3-0.6-0.3-1c0-0.6,0.3-1.2,0.8-1.6c0.5-0.4,1.3-0.7,2.1-0.7c0.9,0,1.6,0.2,2.2,0.7c0.6,0.5,0.8,1.1,0.8,1.8h-1.4
					c0-0.4-0.2-0.7-0.5-1c-0.3-0.3-0.7-0.4-1.2-0.4c-0.5,0-0.9,0.1-1.2,0.3s-0.4,0.5-0.4,0.8c0,0.3,0.1,0.6,0.4,0.7s0.7,0.3,1.4,0.5
					c0.7,0.2,1.2,0.3,1.6,0.5s0.7,0.5,0.9,0.8c0.2,0.3,0.3,0.7,0.3,1.1c0,0.7-0.3,1.3-0.8,1.7c-0.6,0.4-1.3,0.6-2.2,0.6
					c-0.6,0-1.2-0.1-1.7-0.3s-0.9-0.5-1.1-0.9c-0.3-0.4-0.4-0.8-0.4-1.3h1.4c0,0.5,0.2,0.8,0.5,1.1c0.3,0.3,0.8,0.4,1.3,0.4
					c0.5,0,0.9-0.1,1.2-0.3C4156.6-2404.8,4156.8-2405.1,4156.8-2405.5z"/>
				<path d="M4161.7-2413.2v1.9h1.5v1h-1.5v4.9c0,0.3,0.1,0.6,0.2,0.7c0.1,0.2,0.4,0.2,0.7,0.2c0.2,0,0.4,0,0.6-0.1v1.1
					c-0.4,0.1-0.7,0.1-1,0.1c-0.6,0-1.1-0.2-1.4-0.5c-0.3-0.4-0.5-0.9-0.5-1.6v-4.9h-1.4v-1h1.4v-1.9H4161.7z"/>
				<path d="M4168.1-2403.2c-1.1,0-1.9-0.4-2.6-1.1c-0.7-0.7-1-1.6-1-2.8v-0.2c0-0.8,0.2-1.5,0.5-2.1c0.3-0.6,0.7-1.1,1.3-1.5
					c0.5-0.3,1.1-0.5,1.8-0.5c1,0,1.8,0.3,2.4,1c0.6,0.7,0.9,1.7,0.9,2.9v0.6h-5.4c0,0.8,0.2,1.4,0.7,1.9c0.4,0.5,1,0.7,1.7,0.7
					c0.5,0,0.9-0.1,1.2-0.3s0.6-0.5,0.9-0.8l0.8,0.6C4170.4-2403.7,4169.4-2403.2,4168.1-2403.2z M4167.9-2410.3
					c-0.5,0-1,0.2-1.4,0.6c-0.4,0.4-0.6,1-0.7,1.7h4v-0.1c0-0.7-0.2-1.2-0.6-1.6C4168.9-2410.1,4168.5-2410.3,4167.9-2410.3z"/>
				<path d="M4174-2411.3l0,0.9c0.6-0.7,1.4-1,2.4-1c1.1,0,1.9,0.4,2.3,1.3c0.3-0.4,0.6-0.7,1-0.9s0.9-0.4,1.5-0.4
					c1.7,0,2.6,0.9,2.7,2.8v5.3h-1.4v-5.2c0-0.6-0.1-1-0.4-1.3c-0.3-0.3-0.7-0.4-1.3-0.4c-0.5,0-0.9,0.2-1.3,0.5
					c-0.3,0.3-0.5,0.7-0.6,1.2v5.3h-1.4v-5.2c0-1.2-0.6-1.7-1.7-1.7c-0.9,0-1.5,0.4-1.8,1.1v5.8h-1.4v-7.9H4174z"/>
				<path d="M4190.8-2403.4c-0.1-0.2-0.1-0.4-0.2-0.8c-0.6,0.7-1.4,1-2.3,1c-0.8,0-1.4-0.2-1.9-0.7c-0.5-0.4-0.8-1-0.8-1.7
					c0-0.8,0.3-1.5,0.9-1.9c0.6-0.5,1.5-0.7,2.6-0.7h1.3v-0.6c0-0.5-0.1-0.9-0.4-1.1c-0.3-0.3-0.7-0.4-1.3-0.4
					c-0.5,0-0.9,0.1-1.2,0.4c-0.3,0.2-0.5,0.5-0.5,0.9h-1.4c0-0.4,0.1-0.8,0.4-1.1c0.3-0.4,0.7-0.7,1.1-0.9s1-0.3,1.6-0.3
					c0.9,0,1.6,0.2,2.1,0.7c0.5,0.5,0.8,1.1,0.8,1.9v3.6c0,0.7,0.1,1.3,0.3,1.7v0.1H4190.8z M4188.5-2404.4c0.4,0,0.8-0.1,1.2-0.3
					s0.7-0.5,0.8-0.9v-1.6h-1.1c-1.7,0-2.5,0.5-2.5,1.5c0,0.4,0.1,0.8,0.4,1S4188.1-2404.4,4188.5-2404.4z"/>
			</g>
			<g class="st7">
				<path d="M4201.4-2409.2l2.2-4.8h2.4l-3.5,6.8v3.9h-2.2v-3.9l-3.5-6.8h2.4L4201.4-2409.2z"/>
			</g>
			<g class="st7">
				<path d="M3851.4-2520.7h5.1v1.2h-6.5v-10.7h1.4V-2520.7z"/>
				<path d="M3857.5-2523.6c0-0.8,0.2-1.5,0.5-2.1c0.3-0.6,0.7-1.1,1.3-1.4c0.5-0.3,1.2-0.5,1.9-0.5c1.1,0,2,0.4,2.6,1.1
					c0.7,0.7,1,1.7,1,3v0.1c0,0.8-0.1,1.5-0.4,2.1c-0.3,0.6-0.7,1.1-1.3,1.4c-0.5,0.3-1.2,0.5-1.9,0.5c-1.1,0-1.9-0.4-2.6-1.1
					C3857.8-2521.3,3857.5-2522.3,3857.5-2523.6L3857.5-2523.6z M3858.8-2523.4c0,0.9,0.2,1.6,0.6,2.1c0.4,0.5,1,0.8,1.6,0.8
					c0.7,0,1.2-0.3,1.6-0.8c0.4-0.5,0.6-1.3,0.6-2.3c0-0.9-0.2-1.6-0.6-2.1c-0.4-0.5-1-0.8-1.6-0.8c-0.7,0-1.2,0.3-1.6,0.8
					C3859-2525.2,3858.8-2524.4,3858.8-2523.4z"/>
				<path d="M3871.3-2519.5c-0.1-0.2-0.1-0.4-0.2-0.8c-0.6,0.7-1.4,1-2.3,1c-0.8,0-1.4-0.2-1.9-0.7c-0.5-0.4-0.8-1-0.8-1.7
					c0-0.8,0.3-1.5,0.9-1.9c0.6-0.5,1.5-0.7,2.6-0.7h1.3v-0.6c0-0.5-0.1-0.9-0.4-1.1c-0.3-0.3-0.7-0.4-1.3-0.4
					c-0.5,0-0.9,0.1-1.2,0.4s-0.5,0.5-0.5,0.9h-1.4c0-0.4,0.1-0.8,0.4-1.1c0.3-0.4,0.7-0.7,1.1-0.9c0.5-0.2,1-0.3,1.6-0.3
					c0.9,0,1.6,0.2,2.1,0.7c0.5,0.5,0.8,1.1,0.8,1.9v3.6c0,0.7,0.1,1.3,0.3,1.7v0.1H3871.3z M3869-2520.6c0.4,0,0.8-0.1,1.2-0.3
					s0.7-0.5,0.8-0.9v-1.6h-1.1c-1.7,0-2.5,0.5-2.5,1.5c0,0.4,0.1,0.8,0.4,1S3868.6-2520.6,3869-2520.6z"/>
				<path d="M3874.2-2523.6c0-1.2,0.3-2.2,0.9-2.9c0.6-0.7,1.3-1.1,2.3-1.1c0.9,0,1.7,0.3,2.2,1v-4.1h1.4v11.2h-1.2l-0.1-0.8
					c-0.5,0.7-1.3,1-2.3,1c-0.9,0-1.7-0.4-2.2-1.1c-0.6-0.8-0.9-1.7-0.9-2.9V-2523.6z M3875.6-2523.4c0,0.9,0.2,1.6,0.6,2.1
					c0.4,0.5,0.9,0.8,1.5,0.8c0.9,0,1.5-0.4,1.9-1.2v-3.6c-0.4-0.7-1-1.1-1.9-1.1c-0.7,0-1.2,0.3-1.6,0.8
					S3875.6-2524.4,3875.6-2523.4z"/>
				<path d="M3893.4-2523.4c0,1.2-0.3,2.2-0.8,2.9c-0.6,0.7-1.3,1.1-2.2,1.1c-1,0-1.8-0.4-2.3-1.1l-0.1,0.9h-1.2v-11.2h1.4v4.2
					c0.5-0.7,1.3-1,2.3-1s1.7,0.4,2.3,1.1c0.5,0.7,0.8,1.7,0.8,3V-2523.4z M3892.1-2523.6c0-0.9-0.2-1.6-0.5-2.1s-0.9-0.8-1.5-0.8
					c-0.9,0-1.5,0.4-1.9,1.2v3.4c0.4,0.8,1.1,1.2,1.9,1.2c0.6,0,1.2-0.3,1.5-0.8S3892.1-2522.6,3892.1-2523.6z"/>
				<path d="M3900-2519.5c-0.1-0.2-0.1-0.4-0.2-0.8c-0.6,0.7-1.4,1-2.3,1c-0.8,0-1.4-0.2-1.9-0.7c-0.5-0.4-0.8-1-0.8-1.7
					c0-0.8,0.3-1.5,0.9-1.9c0.6-0.5,1.5-0.7,2.6-0.7h1.3v-0.6c0-0.5-0.1-0.9-0.4-1.1c-0.3-0.3-0.7-0.4-1.3-0.4
					c-0.5,0-0.9,0.1-1.2,0.4s-0.5,0.5-0.5,0.9h-1.4c0-0.4,0.1-0.8,0.4-1.1c0.3-0.4,0.7-0.7,1.1-0.9c0.5-0.2,1-0.3,1.6-0.3
					c0.9,0,1.6,0.2,2.1,0.7c0.5,0.5,0.8,1.1,0.8,1.9v3.6c0,0.7,0.1,1.3,0.3,1.7v0.1H3900z M3897.8-2520.6c0.4,0,0.8-0.1,1.2-0.3
					s0.7-0.5,0.8-0.9v-1.6h-1.1c-1.7,0-2.5,0.5-2.5,1.5c0,0.4,0.1,0.8,0.4,1S3897.3-2520.6,3897.8-2520.6z"/>
				<path d="M3904.8-2519.5h-1.4v-11.2h1.4V-2519.5z"/>
				<path d="M3911.8-2519.5c-0.1-0.2-0.1-0.4-0.2-0.8c-0.6,0.7-1.4,1-2.3,1c-0.8,0-1.4-0.2-1.9-0.7c-0.5-0.4-0.8-1-0.8-1.7
					c0-0.8,0.3-1.5,0.9-1.9c0.6-0.5,1.5-0.7,2.6-0.7h1.3v-0.6c0-0.5-0.1-0.9-0.4-1.1c-0.3-0.3-0.7-0.4-1.3-0.4
					c-0.5,0-0.9,0.1-1.2,0.4s-0.5,0.5-0.5,0.9h-1.4c0-0.4,0.1-0.8,0.4-1.1c0.3-0.4,0.7-0.7,1.1-0.9c0.5-0.2,1-0.3,1.6-0.3
					c0.9,0,1.6,0.2,2.1,0.7c0.5,0.5,0.8,1.1,0.8,1.9v3.6c0,0.7,0.1,1.3,0.3,1.7v0.1H3911.8z M3909.6-2520.6c0.4,0,0.8-0.1,1.2-0.3
					s0.7-0.5,0.8-0.9v-1.6h-1.1c-1.7,0-2.5,0.5-2.5,1.5c0,0.4,0.1,0.8,0.4,1S3909.1-2520.6,3909.6-2520.6z"/>
				<path d="M3916.4-2527.5l0,1c0.6-0.8,1.4-1.1,2.4-1.1c1.7,0,2.5,0.9,2.5,2.8v5.2h-1.4v-5.2c0-0.6-0.1-1-0.4-1.3
					c-0.3-0.3-0.7-0.4-1.2-0.4c-0.4,0-0.8,0.1-1.2,0.4s-0.6,0.5-0.8,0.9v5.6h-1.4v-7.9H3916.4z"/>
				<path d="M3926.6-2520.5c0.5,0,0.9-0.1,1.3-0.4s0.6-0.7,0.6-1.1h1.3c0,0.5-0.2,0.9-0.5,1.3s-0.7,0.7-1.2,1
					c-0.5,0.2-1,0.4-1.5,0.4c-1.1,0-1.9-0.4-2.6-1.1c-0.6-0.7-1-1.7-1-3v-0.2c0-0.8,0.1-1.5,0.4-2.1c0.3-0.6,0.7-1.1,1.2-1.4
					c0.5-0.3,1.2-0.5,1.9-0.5c0.9,0,1.6,0.3,2.2,0.8c0.6,0.5,0.9,1.2,0.9,2.1h-1.3c0-0.5-0.2-0.9-0.6-1.3c-0.3-0.3-0.8-0.5-1.3-0.5
					c-0.7,0-1.2,0.2-1.6,0.7c-0.4,0.5-0.6,1.2-0.6,2.2v0.3c0,0.9,0.2,1.6,0.6,2.1S3925.9-2520.5,3926.6-2520.5z"/>
				<path d="M3934.5-2519.4c-1.1,0-1.9-0.4-2.6-1.1c-0.7-0.7-1-1.6-1-2.8v-0.2c0-0.8,0.1-1.5,0.5-2.1c0.3-0.6,0.7-1.1,1.3-1.5
					c0.5-0.3,1.1-0.5,1.8-0.5c1,0,1.8,0.3,2.4,1s0.9,1.7,0.9,2.9v0.6h-5.4c0,0.8,0.2,1.4,0.7,1.9c0.4,0.5,1,0.7,1.7,0.7
					c0.5,0,0.9-0.1,1.2-0.3s0.6-0.5,0.9-0.8l0.8,0.6C3936.8-2519.9,3935.8-2519.4,3934.5-2519.4z M3934.3-2526.5
					c-0.5,0-1,0.2-1.4,0.6c-0.4,0.4-0.6,1-0.7,1.7h4v-0.1c0-0.7-0.2-1.2-0.6-1.6C3935.4-2526.3,3934.9-2526.5,3934.3-2526.5z"/>
				<path d="M3943-2526.3c-0.2,0-0.4-0.1-0.7-0.1c-0.9,0-1.5,0.4-1.8,1.1v5.6h-1.4v-7.9h1.3l0,0.9c0.4-0.7,1.1-1.1,1.9-1.1
					c0.3,0,0.5,0,0.6,0.1V-2526.3z"/>
			</g>
			<g id="Grupo_53859">
				<rect id="Rectángulo_5190" x="3583.9" y="-2482.4" width="80.2" height="2"/>
				<g id="Grupo_53858">
					<path id="Trazado_99715" d="M3657.5-2473.2l-1.4-1.5l7.2-6.7l-7.2-6.7l1.4-1.5l8.8,8.2L3657.5-2473.2z"/>
				</g>
			</g>
			<g id="Grupo_53861">
				<rect id="Rectángulo_5191" x="3754.6" y="-2482.4" width="80.2" height="2"/>
				<g id="Grupo_53860">
					<path id="Trazado_99716" d="M3828.2-2473.2l-1.4-1.5l7.2-6.7l-7.2-6.7l1.4-1.5l8.8,8.2L3828.2-2473.2z"/>
				</g>
			</g>
			<circle id="Elipse_3963" class="st9" cx="3896" cy="-2478.8" r="34.4"/>
			<g id="Grupo_53868">
				<g id="Grupo_53863">
					
						<rect id="Rectángulo_5192" x="3881.3" y="-2485.9" transform="matrix(0.8472 -0.5313 0.5313 0.8472 1914.6863 1687.5422)" class="st8" width="19.6" height="1.9"/>
					<g id="Grupo_53862">
						<path id="Trazado_99717" class="st8" d="M3897.9-2485.4l1-4.4l-4.4-1l2.3-1.5l4.4,1l-1,4.4L3897.9-2485.4z"/>
					</g>
				</g>
				<g id="Grupo_53865">
					
						<rect id="Rectángulo_5193" x="3890.2" y="-2484.3" transform="matrix(0.5317 -0.847 0.847 0.5317 3918.1301 2136.7209)" class="st8" width="1.9" height="19.6"/>
					<g id="Grupo_53864">
						<path id="Trazado_99718" class="st8" d="M3894.5-2468.6l4.4-1l-1-4.4l2.3,1.5l1,4.4l-4.4,1L3894.5-2468.6z"/>
					</g>
				</g>
				<g id="Grupo_53867">
					<rect id="Rectángulo_5194" x="3883.9" y="-2480.6" class="st8" width="15.9" height="1.9"/>
					<g id="Grupo_53866">
						<path id="Trazado_99719" class="st8" d="M3896-2476.5l3.2-3.2l-3.2-3.2h2.7l3.2,3.2l-3.2,3.2H3896z"/>
					</g>
				</g>
				<rect id="Rectángulo_5195" x="3871.5" y="-2486.2" class="st8" width="13.7" height="13.7"/>
				<rect id="Rectángulo_5196" x="3903.1" y="-2496.6" class="st8" width="9.4" height="9.4"/>
				<rect id="Rectángulo_5197" x="3903.1" y="-2483.7" class="st8" width="9.4" height="9.4"/>
				<rect id="Rectángulo_5198" x="3903.1" y="-2470.3" class="st8" width="9.4" height="9.4"/>
			</g>
			<g id="Grupo_53870">
				<path id="Trazado_99720" d="M4295-2447.2l-0.9,0.9l-1.4-1.4l0.9-0.9L4295-2447.2z M4290.6-2442.8l-2.1,2.1l-1.4-1.4l2.1-2.1
					L4290.6-2442.8z M4285-2437.1l-2.1,2.1l-1.4-1.4l2.1-2.1L4285-2437.1z M4279.4-2431.4l-2.1,2.1l-1.4-1.4l2.1-2.1L4279.4-2431.4z
					 M4273.8-2425.7l-2.1,2.1l-1.4-1.4l2.1-2.1L4273.8-2425.7z M4268.2-2420l-2.1,2.1l-1.4-1.4l2.1-2.1L4268.2-2420z M4262.5-2414.3
					l-2.1,2.1l-1.4-1.4l2.1-2.1L4262.5-2414.3z M4256.9-2408.6l-2.1,2.1l-1.4-1.4l2.1-2.1L4256.9-2408.6z M4251.3-2402.9l-2.1,2.1
					l-1.4-1.4l2.1-2.1L4251.3-2402.9z M4245.7-2397.2l-2.1,2.1l-1.4-1.4l2.1-2.1L4245.7-2397.2z M4240.1-2391.5l-2.1,2.1l-1.4-1.4
					l2.1-2.1L4240.1-2391.5z M4234.4-2385.8l-2.1,2.1l-1.4-1.4l2.1-2.1L4234.4-2385.8z M4228.8-2380.1l-2.1,2.1l-1.4-1.4l2.1-2.1
					L4228.8-2380.1z M4223.2-2374.4l-2.1,2.1l-1.4-1.4l2.1-2.1L4223.2-2374.4z M4217.6-2368.7l-2.1,2.1l-1.4-1.4l2.1-2.1
					L4217.6-2368.7z M4212-2363l-2.1,2.1l-1.4-1.4l2.1-2.1L4212-2363z M4206.4-2357.3l-2.1,2.1l-1.4-1.4l2.1-2.1L4206.4-2357.3z
					 M4200.7-2351.6l-2.1,2.1l-1.4-1.4l2.1-2.1L4200.7-2351.6z M4195.1-2345.9l-2.1,2.1l-1.4-1.4l2.1-2.1L4195.1-2345.9z
					 M4189.5-2340.2l-2.1,2.1l-1.4-1.4l2.1-2.1L4189.5-2340.2z"/>
				<g id="Grupo_53869">
					<path id="Trazado_99721" d="M4283.8-2449l0.1,2l9.9-0.4l-0.3,9.9l2,0.1l0.4-12L4283.8-2449z"/>
				</g>
			</g>
			<g id="Grupo_53872">
				<path id="Trazado_99722" d="M4048.4-2600.9l-0.8,0.8l-1.2-1.2l0.8-0.8L4048.4-2600.9z M4044.6-2597l-1.9,1.8l-1.2-1.2l1.9-1.8
					L4044.6-2597z M4039.6-2592.2l-1.9,1.8l-1.2-1.2l1.9-1.8L4039.6-2592.2z M4034.7-2587.3l-1.9,1.8l-1.2-1.2l1.9-1.8
					L4034.7-2587.3z M4029.7-2582.4l-1.9,1.8l-1.2-1.2l1.9-1.8L4029.7-2582.4z M4024.8-2577.5l-1.9,1.8l-1.2-1.2l1.9-1.8
					L4024.8-2577.5z M4019.8-2572.6l-1.9,1.8l-1.2-1.2l1.9-1.8L4019.8-2572.6z M4014.8-2567.7l-1.9,1.8l-1.2-1.2l1.9-1.8
					L4014.8-2567.7z M4009.9-2562.9l-1.9,1.8l-1.2-1.2l1.9-1.8L4009.9-2562.9z M4004.9-2558l-1.9,1.8l-1.2-1.2l1.9-1.8L4004.9-2558z
					 M4000-2553.1l-1.9,1.8l-1.2-1.2l1.9-1.8L4000-2553.1z M3995.1-2548.2l-1.9,1.8l-1.2-1.2l1.9-1.8L3995.1-2548.2z M3990.1-2543.3
					l-1.9,1.8l-1.2-1.2l1.9-1.8L3990.1-2543.3z M3985.1-2538.5l-1.9,1.8l-1.2-1.2l1.9-1.8L3985.1-2538.5z M3980.2-2533.6l-1.9,1.8
					l-1.2-1.2l1.9-1.8L3980.2-2533.6z M3975.2-2528.7l-1.9,1.8l-1.2-1.2l1.9-1.8L3975.2-2528.7z M3970.3-2523.8l-1.9,1.8l-1.2-1.2
					l1.9-1.8L3970.3-2523.8z M3965.3-2518.9l-1.9,1.8l-1.2-1.2l1.9-1.8L3965.3-2518.9z M3960.4-2514l-1.9,1.8l-1.2-1.2l1.9-1.8
					L3960.4-2514z M3955.4-2509.2l-1.9,1.8l-1.2-1.2l1.9-1.8L3955.4-2509.2z"/>
				<g id="Grupo_53871">
					<path id="Trazado_99723" d="M4048.7-2592.4l-1.7-0.1l0.4-8.6l-8.6,0.3l-0.1-1.7l10.4-0.3L4048.7-2592.4z"/>
				</g>
			</g>
			<g id="Grupo_53874">
				<path id="Trazado_99724" d="M4046.7-2354.4l-0.8-0.8l1.2-1.2l0.8,0.8L4046.7-2354.4z M4042.8-2358.3l-1.8-1.8l1.2-1.2l1.8,1.8
					L4042.8-2358.3z M4037.9-2363.1l-1.8-1.8l1.2-1.2l1.8,1.8L4037.9-2363.1z M4033-2368l-1.8-1.8l1.2-1.2l1.8,1.8L4033-2368z
					 M4028.1-2372.8l-1.8-1.8l1.2-1.2l1.8,1.8L4028.1-2372.8z M4023.1-2377.7l-1.8-1.8l1.2-1.2l1.8,1.8L4023.1-2377.7z
					 M4018.2-2382.5l-1.8-1.8l1.2-1.2l1.8,1.8L4018.2-2382.5z M4013.3-2387.4l-1.8-1.8l1.2-1.2l1.8,1.8L4013.3-2387.4z
					 M4008.4-2392.3l-1.8-1.8l1.2-1.2l1.8,1.8L4008.4-2392.3z M4003.5-2397.1l-1.8-1.8l1.2-1.2l1.8,1.8L4003.5-2397.1z M3998.5-2402
					l-1.8-1.8l1.2-1.2l1.8,1.8L3998.5-2402z M3993.6-2406.8l-1.8-1.8l1.2-1.2l1.8,1.8L3993.6-2406.8z M3988.7-2411.7l-1.8-1.8
					l1.2-1.2l1.8,1.8L3988.7-2411.7z M3983.8-2416.5l-1.8-1.8l1.2-1.2l1.8,1.8L3983.8-2416.5z M3978.8-2421.4l-1.8-1.8l1.2-1.2
					l1.8,1.8L3978.8-2421.4z M3973.9-2426.3l-1.8-1.8l1.2-1.2l1.8,1.8L3973.9-2426.3z M3969-2431.1l-1.8-1.8l1.2-1.2l1.8,1.8
					L3969-2431.1z M3964.1-2436l-1.8-1.8l1.2-1.2l1.8,1.8L3964.1-2436z M3959.1-2440.8l-1.8-1.8l1.2-1.2l1.8,1.8L3959.1-2440.8z
					 M3954.2-2445.7l-1.8-1.8l1.2-1.2l1.8,1.8L3954.2-2445.7z"/>
				<g id="Grupo_53873">
					<path id="Trazado_99725" d="M4048.2-2364.1l-1.7,0.1l0.4,8.5l-8.5-0.3l-0.1,1.7l10.4,0.3L4048.2-2364.1z"/>
				</g>
			</g>
		</g>
	</g>
	<g id="Grupo_53879" transform="translate(-3151.411 3981.937)">
		<g id="Capa_2_1_">
			<path id="Rectángulo_5202" class="st8" d="M3724.6-1338.3h-195.5c-8.7,0-15.8-7.1-15.8-15.8v-48.8l0,0h227.1l0,0v48.8
				C3740.4-1345.4,3733.3-1338.3,3724.6-1338.3z"/>
		</g>
		<g id="Capa_1-2">
			<g class="st7">
				<path class="st5" d="M3543.3-1373.2c0-0.4-0.1-0.7-0.4-1c-0.3-0.2-0.8-0.5-1.6-0.7c-0.8-0.2-1.4-0.5-1.8-0.7
					c-1.2-0.7-1.8-1.5-1.8-2.6c0-0.6,0.2-1.1,0.5-1.5c0.3-0.5,0.8-0.8,1.4-1.1c0.6-0.3,1.3-0.4,2-0.4c0.8,0,1.4,0.1,2,0.4
					c0.6,0.3,1.1,0.7,1.4,1.2c0.3,0.5,0.5,1.1,0.5,1.7h-2.2c0-0.5-0.2-0.9-0.5-1.1c-0.3-0.3-0.7-0.4-1.3-0.4c-0.5,0-1,0.1-1.3,0.3
					c-0.3,0.2-0.4,0.5-0.4,0.9c0,0.3,0.2,0.6,0.5,0.9c0.3,0.2,0.9,0.5,1.5,0.7c1.2,0.4,2.2,0.8,2.7,1.4s0.9,1.2,0.9,2.1
					c0,0.9-0.3,1.6-1,2.2c-0.7,0.5-1.6,0.8-2.8,0.8c-0.8,0-1.6-0.2-2.2-0.5c-0.7-0.3-1.2-0.7-1.5-1.2c-0.4-0.5-0.5-1.1-0.5-1.8h2.2
					c0,1.2,0.7,1.8,2.1,1.8c0.5,0,0.9-0.1,1.2-0.3C3543.1-1372.5,3543.3-1372.8,3543.3-1373.2z"/>
				<path class="st5" d="M3549.3-1370.4h-2.2v-10.7h2.2V-1370.4z"/>
				<path class="st5" d="M3551.3-1377.5c0-0.3,0.1-0.6,0.3-0.8c0.2-0.2,0.5-0.3,0.9-0.3c0.3,0,0.6,0.1,0.9,0.3
					c0.2,0.2,0.3,0.5,0.3,0.8c0,0.3-0.1,0.6-0.3,0.8c-0.2,0.2-0.5,0.3-0.9,0.3c-0.3,0-0.6-0.1-0.9-0.3
					C3551.4-1376.9,3551.3-1377.1,3551.3-1377.5z M3551.3-1371.5c0-0.3,0.1-0.6,0.3-0.8c0.2-0.2,0.5-0.3,0.9-0.3
					c0.3,0,0.6,0.1,0.9,0.3c0.2,0.2,0.3,0.5,0.3,0.8c0,0.3-0.1,0.6-0.3,0.8c-0.2,0.2-0.5,0.3-0.9,0.3c-0.3,0-0.6-0.1-0.9-0.3
					C3551.4-1370.9,3551.3-1371.1,3551.3-1371.5z"/>
			</g>
			<g class="st7">
				<path class="st5" d="M3562.7-1375.2c-1.2-0.3-2.1-0.8-2.6-1.3c-0.5-0.5-0.8-1.1-0.8-1.9c0-0.8,0.3-1.5,1-2.1
					c0.7-0.5,1.5-0.8,2.6-0.8c0.7,0,1.4,0.1,2,0.4c0.6,0.3,1,0.7,1.3,1.2c0.3,0.5,0.5,1,0.5,1.6h-1.4c0-0.6-0.2-1.2-0.6-1.5
					s-1-0.6-1.7-0.6c-0.7,0-1.2,0.2-1.6,0.5c-0.4,0.3-0.6,0.7-0.6,1.3c0,0.4,0.2,0.8,0.6,1.1c0.4,0.3,1,0.6,1.9,0.8
					c0.9,0.2,1.6,0.5,2.1,0.8c0.5,0.3,0.9,0.7,1.1,1.1c0.2,0.4,0.4,0.9,0.4,1.4c0,0.9-0.3,1.6-1,2.1c-0.7,0.5-1.6,0.8-2.7,0.8
					c-0.7,0-1.4-0.1-2.1-0.4c-0.6-0.3-1.1-0.7-1.5-1.2c-0.3-0.5-0.5-1-0.5-1.7h1.4c0,0.6,0.2,1.2,0.7,1.5c0.5,0.4,1.1,0.6,1.9,0.6
					c0.7,0,1.3-0.2,1.7-0.5s0.6-0.7,0.6-1.2s-0.2-0.9-0.5-1.2C3564.3-1374.6,3563.7-1374.9,3562.7-1375.2z"/>
				<path class="st5" d="M3568.3-1380.5c0-0.2,0.1-0.4,0.2-0.6c0.1-0.2,0.3-0.2,0.6-0.2s0.5,0.1,0.6,0.2c0.1,0.2,0.2,0.3,0.2,0.6
					c0,0.2-0.1,0.4-0.2,0.5s-0.3,0.2-0.6,0.2s-0.5-0.1-0.6-0.2C3568.3-1380,3568.3-1380.2,3568.3-1380.5z M3569.7-1370.4h-1.4v-7.9
					h1.4V-1370.4z"/>
				<path class="st5" d="M3576.5-1372.5c0-0.4-0.1-0.7-0.4-0.9c-0.3-0.2-0.8-0.4-1.4-0.5c-0.7-0.1-1.2-0.3-1.6-0.5
					c-0.4-0.2-0.7-0.4-0.9-0.7c-0.2-0.3-0.3-0.6-0.3-1c0-0.6,0.3-1.2,0.8-1.6c0.5-0.4,1.3-0.7,2.1-0.7c0.9,0,1.6,0.2,2.2,0.7
					c0.6,0.5,0.8,1.1,0.8,1.8h-1.4c0-0.4-0.2-0.7-0.5-1c-0.3-0.3-0.7-0.4-1.2-0.4c-0.5,0-0.9,0.1-1.2,0.3s-0.4,0.5-0.4,0.8
					c0,0.3,0.1,0.6,0.4,0.7s0.7,0.3,1.4,0.5c0.7,0.2,1.2,0.3,1.6,0.5s0.7,0.5,0.9,0.8c0.2,0.3,0.3,0.7,0.3,1.1
					c0,0.7-0.3,1.3-0.8,1.7c-0.6,0.4-1.3,0.6-2.2,0.6c-0.6,0-1.2-0.1-1.7-0.3s-0.9-0.5-1.1-0.9c-0.3-0.4-0.4-0.8-0.4-1.3h1.4
					c0,0.5,0.2,0.8,0.5,1.1c0.3,0.3,0.8,0.4,1.3,0.4c0.5,0,0.9-0.1,1.2-0.3C3576.4-1371.9,3576.5-1372.2,3576.5-1372.5z"/>
				<path class="st5" d="M3581.5-1380.3v1.9h1.5v1h-1.5v4.9c0,0.3,0.1,0.6,0.2,0.7c0.1,0.2,0.4,0.2,0.7,0.2c0.2,0,0.4,0,0.6-0.1v1.1
					c-0.4,0.1-0.7,0.1-1,0.1c-0.6,0-1.1-0.2-1.4-0.5c-0.3-0.4-0.5-0.9-0.5-1.6v-4.9h-1.4v-1h1.4v-1.9H3581.5z"/>
				<path class="st5" d="M3587.8-1370.3c-1.1,0-1.9-0.4-2.6-1.1c-0.7-0.7-1-1.6-1-2.8v-0.2c0-0.8,0.1-1.5,0.5-2.1
					c0.3-0.6,0.7-1.1,1.3-1.5c0.5-0.3,1.1-0.5,1.8-0.5c1,0,1.8,0.3,2.4,1s0.9,1.7,0.9,2.9v0.6h-5.4c0,0.8,0.2,1.4,0.7,1.9
					c0.4,0.5,1,0.7,1.7,0.7c0.5,0,0.9-0.1,1.2-0.3s0.6-0.5,0.9-0.8l0.8,0.6C3590.1-1370.8,3589.1-1370.3,3587.8-1370.3z
					 M3587.7-1377.4c-0.5,0-1,0.2-1.4,0.6c-0.4,0.4-0.6,1-0.7,1.7h4v-0.1c0-0.7-0.2-1.2-0.6-1.6
					C3588.7-1377.2,3588.2-1377.4,3587.7-1377.4z"/>
				<path class="st5" d="M3593.8-1378.3l0,0.9c0.6-0.7,1.4-1,2.4-1c1.1,0,1.9,0.4,2.3,1.3c0.3-0.4,0.6-0.7,1-0.9
					c0.4-0.2,0.9-0.4,1.5-0.4c1.7,0,2.6,0.9,2.7,2.8v5.3h-1.4v-5.2c0-0.6-0.1-1-0.4-1.3c-0.3-0.3-0.7-0.4-1.3-0.4
					c-0.5,0-0.9,0.2-1.3,0.5c-0.3,0.3-0.5,0.7-0.6,1.2v5.3h-1.4v-5.2c0-1.2-0.6-1.7-1.7-1.7c-0.9,0-1.5,0.4-1.8,1.1v5.8h-1.4v-7.9
					H3593.8z"/>
				<path class="st5" d="M3610.5-1370.4c-0.1-0.2-0.1-0.4-0.2-0.8c-0.6,0.7-1.4,1-2.3,1c-0.8,0-1.4-0.2-1.9-0.7
					c-0.5-0.4-0.8-1-0.8-1.7c0-0.8,0.3-1.5,0.9-1.9c0.6-0.5,1.5-0.7,2.6-0.7h1.3v-0.6c0-0.5-0.1-0.9-0.4-1.1
					c-0.3-0.3-0.7-0.4-1.3-0.4c-0.5,0-0.9,0.1-1.2,0.4s-0.5,0.5-0.5,0.9h-1.4c0-0.4,0.1-0.8,0.4-1.1c0.3-0.4,0.7-0.7,1.1-0.9
					c0.5-0.2,1-0.3,1.6-0.3c0.9,0,1.6,0.2,2.1,0.7c0.5,0.5,0.8,1.1,0.8,1.9v3.6c0,0.7,0.1,1.3,0.3,1.7v0.1H3610.5z M3608.3-1371.5
					c0.4,0,0.8-0.1,1.2-0.3s0.7-0.5,0.8-0.9v-1.6h-1.1c-1.7,0-2.5,0.5-2.5,1.5c0,0.4,0.1,0.8,0.4,1S3607.8-1371.5,3608.3-1371.5z"/>
				<path class="st5" d="M3617.2-1374.5c0-1.2,0.3-2.2,0.9-2.9c0.6-0.7,1.3-1.1,2.3-1.1c0.9,0,1.7,0.3,2.2,1v-4.1h1.4v11.2h-1.2
					l-0.1-0.8c-0.5,0.7-1.3,1-2.3,1c-0.9,0-1.7-0.4-2.2-1.1c-0.6-0.8-0.9-1.7-0.9-2.9V-1374.5z M3618.5-1374.3
					c0,0.9,0.2,1.6,0.6,2.1c0.4,0.5,0.9,0.8,1.5,0.8c0.9,0,1.5-0.4,1.9-1.2v-3.6c-0.4-0.7-1-1.1-1.9-1.1c-0.7,0-1.2,0.3-1.6,0.8
					S3618.5-1375.3,3618.5-1374.3z"/>
				<path class="st5" d="M3629.2-1370.3c-1.1,0-1.9-0.4-2.6-1.1c-0.7-0.7-1-1.6-1-2.8v-0.2c0-0.8,0.1-1.5,0.5-2.1
					c0.3-0.6,0.7-1.1,1.3-1.5c0.5-0.3,1.1-0.5,1.8-0.5c1,0,1.8,0.3,2.4,1s0.9,1.7,0.9,2.9v0.6h-5.4c0,0.8,0.2,1.4,0.7,1.9
					c0.4,0.5,1,0.7,1.7,0.7c0.5,0,0.9-0.1,1.2-0.3s0.6-0.5,0.9-0.8l0.8,0.6C3631.6-1370.8,3630.6-1370.3,3629.2-1370.3z
					 M3629.1-1377.4c-0.5,0-1,0.2-1.4,0.6c-0.4,0.4-0.6,1-0.7,1.7h4v-0.1c0-0.7-0.2-1.2-0.6-1.6
					C3630.1-1377.2,3629.6-1377.4,3629.1-1377.4z"/>
				<path class="st5" d="M3637.6-1380.5c0-0.2,0.1-0.4,0.2-0.6c0.1-0.2,0.3-0.2,0.6-0.2s0.5,0.1,0.6,0.2c0.1,0.2,0.2,0.3,0.2,0.6
					c0,0.2-0.1,0.4-0.2,0.5s-0.3,0.2-0.6,0.2s-0.5-0.1-0.6-0.2C3637.7-1380,3637.6-1380.2,3637.6-1380.5z M3639.1-1370.4h-1.4v-7.9
					h1.4V-1370.4z"/>
				<path class="st5" d="M3642.5-1378.3l0,1c0.6-0.8,1.4-1.1,2.4-1.1c1.7,0,2.5,0.9,2.5,2.8v5.2h-1.4v-5.2c0-0.6-0.1-1-0.4-1.3
					c-0.3-0.3-0.7-0.4-1.2-0.4c-0.4,0-0.8,0.1-1.2,0.4s-0.6,0.5-0.8,0.9v5.6h-1.4v-7.9H3642.5z"/>
				<path class="st5" d="M3650.2-1370.4v-6.9h-1.3v-1h1.3v-0.8c0-0.8,0.2-1.5,0.7-2s1.1-0.7,1.9-0.7c0.3,0,0.6,0,0.9,0.1l-0.1,1.1
					c-0.2,0-0.5-0.1-0.7-0.1c-0.4,0-0.8,0.1-1,0.4s-0.4,0.6-0.4,1.1v0.8h1.7v1h-1.7v6.9H3650.2z"/>
				<path class="st5" d="M3654.4-1374.5c0-0.8,0.2-1.5,0.5-2.1c0.3-0.6,0.7-1.1,1.3-1.4c0.5-0.3,1.2-0.5,1.9-0.5
					c1.1,0,2,0.4,2.6,1.1c0.7,0.7,1,1.7,1,3v0.1c0,0.8-0.1,1.5-0.4,2.1c-0.3,0.6-0.7,1.1-1.3,1.4c-0.5,0.3-1.2,0.5-1.9,0.5
					c-1.1,0-1.9-0.4-2.6-1.1C3654.7-1372.1,3654.4-1373.1,3654.4-1374.5L3654.4-1374.5z M3655.7-1374.3c0,0.9,0.2,1.6,0.6,2.1
					c0.4,0.5,1,0.8,1.6,0.8c0.7,0,1.2-0.3,1.6-0.8c0.4-0.5,0.6-1.3,0.6-2.3c0-0.9-0.2-1.6-0.6-2.1c-0.4-0.5-1-0.8-1.6-0.8
					c-0.7,0-1.2,0.3-1.6,0.8C3655.9-1376.1,3655.7-1375.3,3655.7-1374.3z"/>
				<path class="st5" d="M3667.1-1377.1c-0.2,0-0.4-0.1-0.7-0.1c-0.9,0-1.5,0.4-1.8,1.1v5.6h-1.4v-7.9h1.3l0,0.9
					c0.4-0.7,1.1-1.1,1.9-1.1c0.3,0,0.5,0,0.6,0.1V-1377.1z"/>
				<path class="st5" d="M3669.6-1378.3l0,0.9c0.6-0.7,1.4-1,2.4-1c1.1,0,1.9,0.4,2.3,1.3c0.3-0.4,0.6-0.7,1-0.9
					c0.4-0.2,0.9-0.4,1.5-0.4c1.7,0,2.6,0.9,2.7,2.8v5.3h-1.4v-5.2c0-0.6-0.1-1-0.4-1.3c-0.3-0.3-0.7-0.4-1.3-0.4
					c-0.5,0-0.9,0.2-1.3,0.5c-0.3,0.3-0.5,0.7-0.6,1.2v5.3h-1.4v-5.2c0-1.2-0.6-1.7-1.7-1.7c-0.9,0-1.5,0.4-1.8,1.1v5.8h-1.4v-7.9
					H3669.6z"/>
				<path class="st5" d="M3686.4-1370.4c-0.1-0.2-0.1-0.4-0.2-0.8c-0.6,0.7-1.4,1-2.3,1c-0.8,0-1.4-0.2-1.9-0.7
					c-0.5-0.4-0.8-1-0.8-1.7c0-0.8,0.3-1.5,0.9-1.9c0.6-0.5,1.5-0.7,2.6-0.7h1.3v-0.6c0-0.5-0.1-0.9-0.4-1.1
					c-0.3-0.3-0.7-0.4-1.3-0.4c-0.5,0-0.9,0.1-1.2,0.4s-0.5,0.5-0.5,0.9h-1.4c0-0.4,0.1-0.8,0.4-1.1c0.3-0.4,0.7-0.7,1.1-0.9
					c0.5-0.2,1-0.3,1.6-0.3c0.9,0,1.6,0.2,2.1,0.7c0.5,0.5,0.8,1.1,0.8,1.9v3.6c0,0.7,0.1,1.3,0.3,1.7v0.1H3686.4z M3684.2-1371.5
					c0.4,0,0.8-0.1,1.2-0.3s0.7-0.5,0.8-0.9v-1.6h-1.1c-1.7,0-2.5,0.5-2.5,1.5c0,0.4,0.1,0.8,0.4,1S3683.7-1371.5,3684.2-1371.5z"/>
				<path class="st5" d="M3692.9-1371.4c0.5,0,0.9-0.1,1.3-0.4s0.6-0.7,0.6-1.1h1.3c0,0.5-0.2,0.9-0.5,1.3s-0.7,0.7-1.2,1
					c-0.5,0.2-1,0.4-1.5,0.4c-1.1,0-1.9-0.4-2.6-1.1c-0.6-0.7-1-1.7-1-3v-0.2c0-0.8,0.1-1.5,0.4-2.1c0.3-0.6,0.7-1.1,1.2-1.4
					c0.5-0.3,1.2-0.5,1.9-0.5c0.9,0,1.6,0.3,2.2,0.8c0.6,0.5,0.9,1.2,0.9,2.1h-1.3c0-0.5-0.2-0.9-0.6-1.3c-0.3-0.3-0.8-0.5-1.3-0.5
					c-0.7,0-1.2,0.2-1.6,0.7c-0.4,0.5-0.6,1.2-0.6,2.2v0.3c0,0.9,0.2,1.6,0.6,2.1S3692.2-1371.4,3692.9-1371.4z"/>
				<path class="st5" d="M3697.5-1380.5c0-0.2,0.1-0.4,0.2-0.6c0.1-0.2,0.3-0.2,0.6-0.2s0.5,0.1,0.6,0.2c0.1,0.2,0.2,0.3,0.2,0.6
					c0,0.2-0.1,0.4-0.2,0.5s-0.3,0.2-0.6,0.2s-0.5-0.1-0.6-0.2C3697.6-1380,3697.5-1380.2,3697.5-1380.5z M3699-1370.4h-1.4v-7.9
					h1.4V-1370.4z"/>
				<path class="st5" d="M3700.8-1374.5c0-0.8,0.2-1.5,0.5-2.1c0.3-0.6,0.7-1.1,1.3-1.4c0.5-0.3,1.2-0.5,1.9-0.5
					c1.1,0,2,0.4,2.6,1.1c0.7,0.7,1,1.7,1,3v0.1c0,0.8-0.1,1.5-0.4,2.1c-0.3,0.6-0.7,1.1-1.3,1.4c-0.5,0.3-1.2,0.5-1.9,0.5
					c-1.1,0-1.9-0.4-2.6-1.1C3701.1-1372.1,3700.8-1373.1,3700.8-1374.5L3700.8-1374.5z M3702.2-1374.3c0,0.9,0.2,1.6,0.6,2.1
					c0.4,0.5,1,0.8,1.6,0.8c0.7,0,1.2-0.3,1.6-0.8c0.4-0.5,0.6-1.3,0.6-2.3c0-0.9-0.2-1.6-0.6-2.1c-0.4-0.5-1-0.8-1.6-0.8
					c-0.7,0-1.2,0.3-1.6,0.8C3702.4-1376.1,3702.2-1375.3,3702.2-1374.3z M3705-1381.7h1.6l-2,2.2l-1.1,0L3705-1381.7z"/>
				<path class="st5" d="M3711-1378.3l0,1c0.6-0.8,1.4-1.1,2.4-1.1c1.7,0,2.5,0.9,2.5,2.8v5.2h-1.4v-5.2c0-0.6-0.1-1-0.4-1.3
					c-0.3-0.3-0.7-0.4-1.2-0.4c-0.4,0-0.8,0.1-1.2,0.4s-0.6,0.5-0.8,0.9v5.6h-1.4v-7.9H3711z"/>
			</g>
			<g class="st7">
				<path class="st5" d="M3543.3-1355.2c0-0.4-0.1-0.7-0.4-1c-0.3-0.2-0.8-0.5-1.6-0.7c-0.8-0.2-1.4-0.5-1.8-0.7
					c-1.2-0.7-1.8-1.5-1.8-2.6c0-0.6,0.2-1.1,0.5-1.5c0.3-0.5,0.8-0.8,1.4-1.1c0.6-0.3,1.3-0.4,2-0.4c0.8,0,1.4,0.1,2,0.4
					c0.6,0.3,1.1,0.7,1.4,1.2c0.3,0.5,0.5,1.1,0.5,1.7h-2.2c0-0.5-0.2-0.9-0.5-1.1c-0.3-0.3-0.7-0.4-1.3-0.4c-0.5,0-1,0.1-1.3,0.3
					c-0.3,0.2-0.4,0.5-0.4,0.9c0,0.3,0.2,0.6,0.5,0.9c0.3,0.2,0.9,0.5,1.5,0.7c1.2,0.4,2.2,0.8,2.7,1.4s0.9,1.2,0.9,2.1
					c0,0.9-0.3,1.6-1,2.2c-0.7,0.5-1.6,0.8-2.8,0.8c-0.8,0-1.6-0.2-2.2-0.5c-0.7-0.3-1.2-0.7-1.5-1.2c-0.4-0.5-0.5-1.1-0.5-1.8h2.2
					c0,1.2,0.7,1.8,2.1,1.8c0.5,0,0.9-0.1,1.2-0.3C3543.1-1354.5,3543.3-1354.8,3543.3-1355.2z"/>
				<path class="st5" d="M3552.5-1355.2c0-0.4-0.1-0.7-0.4-1c-0.3-0.2-0.8-0.5-1.6-0.7c-0.8-0.2-1.4-0.5-1.8-0.7
					c-1.2-0.7-1.8-1.5-1.8-2.6c0-0.6,0.2-1.1,0.5-1.5c0.3-0.5,0.8-0.8,1.4-1.1c0.6-0.3,1.3-0.4,2-0.4c0.8,0,1.4,0.1,2,0.4
					c0.6,0.3,1.1,0.7,1.4,1.2c0.3,0.5,0.5,1.1,0.5,1.7h-2.2c0-0.5-0.2-0.9-0.5-1.1c-0.3-0.3-0.7-0.4-1.3-0.4c-0.5,0-1,0.1-1.3,0.3
					c-0.3,0.2-0.4,0.5-0.4,0.9c0,0.3,0.2,0.6,0.5,0.9c0.3,0.2,0.9,0.5,1.5,0.7c1.2,0.4,2.2,0.8,2.7,1.4s0.9,1.2,0.9,2.1
					c0,0.9-0.3,1.6-1,2.2c-0.7,0.5-1.6,0.8-2.8,0.8c-0.8,0-1.6-0.2-2.2-0.5c-0.7-0.3-1.2-0.7-1.5-1.2c-0.4-0.5-0.5-1.1-0.5-1.8h2.2
					c0,1.2,0.7,1.8,2.1,1.8c0.5,0,0.9-0.1,1.2-0.3C3552.3-1354.5,3552.5-1354.8,3552.5-1355.2z"/>
				<path class="st5" d="M3556.1-1359.5c0-0.3,0.1-0.6,0.3-0.8c0.2-0.2,0.5-0.3,0.9-0.3c0.3,0,0.6,0.1,0.9,0.3
					c0.2,0.2,0.3,0.5,0.3,0.8c0,0.3-0.1,0.6-0.3,0.8c-0.2,0.2-0.5,0.3-0.9,0.3c-0.3,0-0.6-0.1-0.9-0.3
					C3556.3-1358.9,3556.1-1359.1,3556.1-1359.5z M3556.1-1353.5c0-0.3,0.1-0.6,0.3-0.8c0.2-0.2,0.5-0.3,0.9-0.3
					c0.3,0,0.6,0.1,0.9,0.3c0.2,0.2,0.3,0.5,0.3,0.8c0,0.3-0.1,0.6-0.3,0.8c-0.2,0.2-0.5,0.3-0.9,0.3c-0.3,0-0.6-0.1-0.9-0.3
					C3556.3-1352.9,3556.1-1353.1,3556.1-1353.5z"/>
			</g>
			<g class="st7">
				<path class="st5" d="M3567.6-1357.2c-1.2-0.3-2.1-0.8-2.6-1.3c-0.5-0.5-0.8-1.1-0.8-1.9c0-0.8,0.3-1.5,1-2.1
					c0.7-0.5,1.5-0.8,2.6-0.8c0.7,0,1.4,0.1,2,0.4c0.6,0.3,1,0.7,1.3,1.2c0.3,0.5,0.5,1,0.5,1.6h-1.4c0-0.6-0.2-1.2-0.6-1.5
					s-1-0.6-1.7-0.6c-0.7,0-1.2,0.2-1.6,0.5c-0.4,0.3-0.6,0.7-0.6,1.3c0,0.4,0.2,0.8,0.6,1.1c0.4,0.3,1,0.6,1.9,0.8
					c0.9,0.2,1.6,0.5,2.1,0.8c0.5,0.3,0.9,0.7,1.1,1.1c0.2,0.4,0.4,0.9,0.4,1.4c0,0.9-0.3,1.6-1,2.1c-0.7,0.5-1.6,0.8-2.7,0.8
					c-0.7,0-1.4-0.1-2.1-0.4c-0.6-0.3-1.1-0.7-1.5-1.2c-0.3-0.5-0.5-1-0.5-1.7h1.4c0,0.6,0.2,1.2,0.7,1.5c0.5,0.4,1.1,0.6,1.9,0.6
					c0.7,0,1.3-0.2,1.7-0.5s0.6-0.7,0.6-1.2s-0.2-0.9-0.5-1.2C3569.2-1356.6,3568.5-1356.9,3567.6-1357.2z"/>
				<path class="st5" d="M3576.4-1352.3c-1.1,0-1.9-0.4-2.6-1.1c-0.7-0.7-1-1.6-1-2.8v-0.2c0-0.8,0.1-1.5,0.5-2.1
					c0.3-0.6,0.7-1.1,1.3-1.5c0.5-0.3,1.1-0.5,1.8-0.5c1,0,1.8,0.3,2.4,1s0.9,1.7,0.9,2.9v0.6h-5.4c0,0.8,0.2,1.4,0.7,1.9
					c0.4,0.5,1,0.7,1.7,0.7c0.5,0,0.9-0.1,1.2-0.3s0.6-0.5,0.9-0.8l0.8,0.6C3578.7-1352.8,3577.7-1352.3,3576.4-1352.3z
					 M3576.2-1359.4c-0.5,0-1,0.2-1.4,0.6c-0.4,0.4-0.6,1-0.7,1.7h4v-0.1c0-0.7-0.2-1.2-0.6-1.6
					C3577.2-1359.2,3576.8-1359.4,3576.2-1359.4z"/>
				<path class="st5" d="M3584.9-1359.1c-0.2,0-0.4-0.1-0.7-0.1c-0.9,0-1.5,0.4-1.8,1.1v5.6h-1.4v-7.9h1.3l0,0.9
					c0.4-0.7,1.1-1.1,1.9-1.1c0.3,0,0.5,0,0.6,0.1V-1359.1z"/>
				<path class="st5" d="M3588.9-1354.3l2-6.1h1.4l-2.8,7.9h-1l-2.9-7.9h1.4L3588.9-1354.3z"/>
				<path class="st5" d="M3593.5-1362.5c0-0.2,0.1-0.4,0.2-0.6c0.1-0.2,0.3-0.2,0.6-0.2s0.5,0.1,0.6,0.2c0.1,0.2,0.2,0.3,0.2,0.6
					c0,0.2-0.1,0.4-0.2,0.5s-0.3,0.2-0.6,0.2s-0.5-0.1-0.6-0.2C3593.6-1362,3593.5-1362.2,3593.5-1362.5z M3595-1352.4h-1.4v-7.9
					h1.4V-1352.4z"/>
				<path class="st5" d="M3600.3-1353.4c0.5,0,0.9-0.1,1.3-0.4s0.6-0.7,0.6-1.1h1.3c0,0.5-0.2,0.9-0.5,1.3s-0.7,0.7-1.2,1
					c-0.5,0.2-1,0.4-1.5,0.4c-1.1,0-1.9-0.4-2.6-1.1c-0.6-0.7-1-1.7-1-3v-0.2c0-0.8,0.1-1.5,0.4-2.1c0.3-0.6,0.7-1.1,1.2-1.4
					c0.5-0.3,1.2-0.5,1.9-0.5c0.9,0,1.6,0.3,2.2,0.8c0.6,0.5,0.9,1.2,0.9,2.1h-1.3c0-0.5-0.2-0.9-0.6-1.3c-0.3-0.3-0.8-0.5-1.3-0.5
					c-0.7,0-1.2,0.2-1.6,0.7c-0.4,0.5-0.6,1.2-0.6,2.2v0.3c0,0.9,0.2,1.6,0.6,2.1S3599.6-1353.4,3600.3-1353.4z"/>
				<path class="st5" d="M3605-1362.5c0-0.2,0.1-0.4,0.2-0.6c0.1-0.2,0.3-0.2,0.6-0.2s0.5,0.1,0.6,0.2c0.1,0.2,0.2,0.3,0.2,0.6
					c0,0.2-0.1,0.4-0.2,0.5s-0.3,0.2-0.6,0.2s-0.5-0.1-0.6-0.2C3605.1-1362,3605-1362.2,3605-1362.5z M3606.5-1352.4h-1.4v-7.9h1.4
					V-1352.4z"/>
				<path class="st5" d="M3608.3-1356.5c0-0.8,0.2-1.5,0.5-2.1c0.3-0.6,0.7-1.1,1.3-1.4c0.5-0.3,1.2-0.5,1.9-0.5
					c1.1,0,2,0.4,2.6,1.1c0.7,0.7,1,1.7,1,3v0.1c0,0.8-0.1,1.5-0.4,2.1c-0.3,0.6-0.7,1.1-1.3,1.4c-0.5,0.3-1.2,0.5-1.9,0.5
					c-1.1,0-1.9-0.4-2.6-1.1C3608.6-1354.1,3608.3-1355.1,3608.3-1356.5L3608.3-1356.5z M3609.7-1356.3c0,0.9,0.2,1.6,0.6,2.1
					c0.4,0.5,1,0.8,1.6,0.8c0.7,0,1.2-0.3,1.6-0.8c0.4-0.5,0.6-1.3,0.6-2.3c0-0.9-0.2-1.6-0.6-2.1c-0.4-0.5-1-0.8-1.6-0.8
					c-0.7,0-1.2,0.3-1.6,0.8C3609.9-1358.1,3609.7-1357.3,3609.7-1356.3z"/>
				<path class="st5" d="M3620.6-1356.5c0-1.2,0.3-2.2,0.9-2.9c0.6-0.7,1.3-1.1,2.3-1.1c0.9,0,1.7,0.3,2.2,1v-4.1h1.4v11.2h-1.2
					l-0.1-0.8c-0.5,0.7-1.3,1-2.3,1c-0.9,0-1.7-0.4-2.2-1.1c-0.6-0.8-0.9-1.7-0.9-2.9V-1356.5z M3621.9-1356.3
					c0,0.9,0.2,1.6,0.6,2.1c0.4,0.5,0.9,0.8,1.5,0.8c0.9,0,1.5-0.4,1.9-1.2v-3.6c-0.4-0.7-1-1.1-1.9-1.1c-0.7,0-1.2,0.3-1.6,0.8
					S3621.9-1357.3,3621.9-1356.3z"/>
				<path class="st5" d="M3632.7-1352.3c-1.1,0-1.9-0.4-2.6-1.1c-0.7-0.7-1-1.6-1-2.8v-0.2c0-0.8,0.1-1.5,0.5-2.1
					c0.3-0.6,0.7-1.1,1.3-1.5c0.5-0.3,1.1-0.5,1.8-0.5c1,0,1.8,0.3,2.4,1s0.9,1.7,0.9,2.9v0.6h-5.4c0,0.8,0.2,1.4,0.7,1.9
					c0.4,0.5,1,0.7,1.7,0.7c0.5,0,0.9-0.1,1.2-0.3s0.6-0.5,0.9-0.8l0.8,0.6C3635-1352.8,3634-1352.3,3632.7-1352.3z M3632.5-1359.4
					c-0.5,0-1,0.2-1.4,0.6c-0.4,0.4-0.6,1-0.7,1.7h4v-0.1c0-0.7-0.2-1.2-0.6-1.6C3633.5-1359.2,3633.1-1359.4,3632.5-1359.4z"/>
				<path class="st5" d="M3644.4-1357.2c-1.2-0.3-2.1-0.8-2.6-1.3c-0.5-0.5-0.8-1.1-0.8-1.9c0-0.8,0.3-1.5,1-2.1
					c0.7-0.5,1.5-0.8,2.6-0.8c0.7,0,1.4,0.1,2,0.4c0.6,0.3,1,0.7,1.3,1.2c0.3,0.5,0.5,1,0.5,1.6h-1.4c0-0.6-0.2-1.2-0.6-1.5
					s-1-0.6-1.7-0.6c-0.7,0-1.2,0.2-1.6,0.5c-0.4,0.3-0.6,0.7-0.6,1.3c0,0.4,0.2,0.8,0.6,1.1c0.4,0.3,1,0.6,1.9,0.8
					c0.9,0.2,1.6,0.5,2.1,0.8c0.5,0.3,0.9,0.7,1.1,1.1c0.2,0.4,0.4,0.9,0.4,1.4c0,0.9-0.3,1.6-1,2.1c-0.7,0.5-1.6,0.8-2.7,0.8
					c-0.7,0-1.4-0.1-2.1-0.4c-0.6-0.3-1.1-0.7-1.5-1.2c-0.3-0.5-0.5-1-0.5-1.7h1.4c0,0.6,0.2,1.2,0.7,1.5c0.5,0.4,1.1,0.6,1.9,0.6
					c0.7,0,1.3-0.2,1.7-0.5s0.6-0.7,0.6-1.2s-0.2-0.9-0.5-1.2C3646-1356.6,3645.4-1356.9,3644.4-1357.2z"/>
				<path class="st5" d="M3653.2-1352.3c-1.1,0-1.9-0.4-2.6-1.1c-0.7-0.7-1-1.6-1-2.8v-0.2c0-0.8,0.2-1.5,0.5-2.1
					c0.3-0.6,0.7-1.1,1.3-1.5c0.5-0.3,1.1-0.5,1.8-0.5c1,0,1.8,0.3,2.4,1s0.9,1.7,0.9,2.9v0.6h-5.4c0,0.8,0.2,1.4,0.7,1.9
					c0.4,0.5,1,0.7,1.7,0.7c0.5,0,0.9-0.1,1.2-0.3s0.6-0.5,0.9-0.8l0.8,0.6C3655.6-1352.8,3654.6-1352.3,3653.2-1352.3z
					 M3653.1-1359.4c-0.5,0-1,0.2-1.4,0.6c-0.4,0.4-0.6,1-0.7,1.7h4v-0.1c0-0.7-0.2-1.2-0.6-1.6
					C3654.1-1359.2,3653.6-1359.4,3653.1-1359.4z"/>
				<path class="st5" d="M3657.6-1356.5c0-1.2,0.3-2.2,0.9-2.9c0.6-0.7,1.3-1.1,2.3-1.1c1,0,1.7,0.3,2.3,1l0.1-0.9h1.2v7.7
					c0,1-0.3,1.8-0.9,2.4c-0.6,0.6-1.4,0.9-2.4,0.9c-0.6,0-1.1-0.1-1.7-0.4s-1-0.6-1.3-1l0.7-0.8c0.6,0.7,1.3,1.1,2.1,1.1
					c0.7,0,1.2-0.2,1.5-0.6c0.4-0.4,0.6-0.9,0.6-1.6v-0.7c-0.5,0.6-1.3,0.9-2.2,0.9c-0.9,0-1.7-0.4-2.3-1.1
					C3657.9-1354.1,3657.6-1355.2,3657.6-1356.5z M3658.9-1356.3c0,0.9,0.2,1.6,0.5,2.1c0.4,0.5,0.9,0.8,1.5,0.8
					c0.9,0,1.5-0.4,1.9-1.2v-3.6c-0.4-0.8-1-1.1-1.9-1.1c-0.7,0-1.2,0.3-1.5,0.8S3658.9-1357.3,3658.9-1356.3z"/>
				<path class="st5" d="M3671.2-1353.2c-0.5,0.6-1.3,0.9-2.3,0.9c-0.8,0-1.5-0.2-1.9-0.7c-0.4-0.5-0.7-1.2-0.7-2.2v-5.2h1.4v5.1
					c0,1.2,0.5,1.8,1.5,1.8c1,0,1.7-0.4,2.1-1.2v-5.8h1.4v7.9h-1.3L3671.2-1353.2z"/>
				<path class="st5" d="M3678.4-1359.1c-0.2,0-0.4-0.1-0.7-0.1c-0.9,0-1.5,0.4-1.8,1.1v5.6h-1.4v-7.9h1.3l0,0.9
					c0.4-0.7,1.1-1.1,1.9-1.1c0.3,0,0.5,0,0.6,0.1V-1359.1z"/>
				<path class="st5" d="M3679.7-1362.5c0-0.2,0.1-0.4,0.2-0.6c0.1-0.2,0.3-0.2,0.6-0.2s0.5,0.1,0.6,0.2c0.1,0.2,0.2,0.3,0.2,0.6
					c0,0.2-0.1,0.4-0.2,0.5s-0.3,0.2-0.6,0.2s-0.5-0.1-0.6-0.2C3679.7-1362,3679.7-1362.2,3679.7-1362.5z M3681.1-1352.4h-1.4v-7.9
					h1.4V-1352.4z"/>
				<path class="st5" d="M3683-1356.5c0-1.2,0.3-2.2,0.9-2.9c0.6-0.7,1.3-1.1,2.3-1.1c0.9,0,1.7,0.3,2.2,1v-4.1h1.4v11.2h-1.2
					l-0.1-0.8c-0.5,0.7-1.3,1-2.3,1c-0.9,0-1.7-0.4-2.2-1.1c-0.6-0.8-0.9-1.7-0.9-2.9V-1356.5z M3684.3-1356.3
					c0,0.9,0.2,1.6,0.6,2.1c0.4,0.5,0.9,0.8,1.5,0.8c0.9,0,1.5-0.4,1.9-1.2v-3.6c-0.4-0.7-1-1.1-1.9-1.1c-0.7,0-1.2,0.3-1.6,0.8
					S3684.3-1357.3,3684.3-1356.3z"/>
				<path class="st5" d="M3696.6-1352.4c-0.1-0.2-0.1-0.4-0.2-0.8c-0.6,0.7-1.4,1-2.3,1c-0.8,0-1.4-0.2-1.9-0.7
					c-0.5-0.4-0.8-1-0.8-1.7c0-0.8,0.3-1.5,0.9-1.9c0.6-0.5,1.5-0.7,2.6-0.7h1.3v-0.6c0-0.5-0.1-0.9-0.4-1.1
					c-0.3-0.3-0.7-0.4-1.3-0.4c-0.5,0-0.9,0.1-1.2,0.4s-0.5,0.5-0.5,0.9h-1.4c0-0.4,0.1-0.8,0.4-1.1c0.3-0.4,0.7-0.7,1.1-0.9
					c0.5-0.2,1-0.3,1.6-0.3c0.9,0,1.6,0.2,2.1,0.7c0.5,0.5,0.8,1.1,0.8,1.9v3.6c0,0.7,0.1,1.3,0.3,1.7v0.1H3696.6z M3694.4-1353.5
					c0.4,0,0.8-0.1,1.2-0.3s0.7-0.5,0.8-0.9v-1.6h-1.1c-1.7,0-2.5,0.5-2.5,1.5c0,0.4,0.1,0.8,0.4,1S3693.9-1353.5,3694.4-1353.5z"/>
				<path class="st5" d="M3699.6-1356.5c0-1.2,0.3-2.2,0.9-2.9c0.6-0.7,1.3-1.1,2.3-1.1c0.9,0,1.7,0.3,2.2,1v-4.1h1.4v11.2h-1.2
					l-0.1-0.8c-0.5,0.7-1.3,1-2.3,1c-0.9,0-1.7-0.4-2.2-1.1c-0.6-0.8-0.9-1.7-0.9-2.9V-1356.5z M3700.9-1356.3
					c0,0.9,0.2,1.6,0.6,2.1c0.4,0.5,0.9,0.8,1.5,0.8c0.9,0,1.5-0.4,1.9-1.2v-3.6c-0.4-0.7-1-1.1-1.9-1.1c-0.7,0-1.2,0.3-1.6,0.8
					S3700.9-1357.3,3700.9-1356.3z"/>
			</g>
		</g>
	</g>
</g>
</svg>
