<svg xmlns="http://www.w3.org/2000/svg" width="74" height="74" viewBox="0 0 74 74">
  <g id="Grupo_54005" data-name="Grupo 54005" transform="translate(-1873.992 -2365.409)">
    <circle id="Elipse_3959" data-name="Elipse 3959" cx="37" cy="37" r="37" transform="translate(1873.992 2365.409)" fill="#ba0952"/>
    <path id="Trazado_99948" data-name="Trazado 99948" d="M1910.992,2365.409a37,37,0,0,0-34.324,50.815h68.648a37,37,0,0,0-34.324-50.815Z" fill="#ff0062"/>
    <g id="Grupo_54005-2" data-name="Grupo 54005">
      <rect id="Rectángulo_5255" data-name="Rectángulo 5255" width="14.068" height="7.367" transform="translate(1903.958 2418.109)" fill="#d9e7ec"/>
      <rect id="Rectángulo_5256" data-name="Rectángulo 5256" width="7.034" height="7.367" transform="translate(1910.992 2418.109)" fill="#9facba"/>
      <rect id="Rectángulo_5257" data-name="Rectángulo 5257" width="30.591" height="2.736" rx="1.114" transform="translate(1895.696 2424.635)" fill="#d9e7ec"/>
      <rect id="Rectángulo_5258" data-name="Rectángulo 5258" width="47.524" height="39.07" rx="4.19" transform="translate(1887.23 2379.917)" fill="#547ba4"/>
      <path id="Trazado_99949" data-name="Trazado 99949" d="M1887.23,2413.461v1.336a4.2,4.2,0,0,0,4.19,4.189h39.144a4.2,4.2,0,0,0,4.19-4.189v-1.336Z" fill="#d9e7ec"/>
      <path id="Rectángulo_5259" data-name="Rectángulo 5259" d="M2.289,0H39.546a2.289,2.289,0,0,1,2.289,2.289V27.706a0,0,0,0,1,0,0H0a0,0,0,0,1,0,0V2.289A2.289,2.289,0,0,1,2.289,0Z" transform="translate(1890.075 2382.835)" fill="#eaeff9"/>
    </g>
    <g id="Grupo_54007" data-name="Grupo 54007">
      <g id="Grupo_54006" data-name="Grupo 54006">
        <path id="Trazado_99950" data-name="Trazado 99950" d="M1919.415,2394.57h-1.379v-1.838a6.434,6.434,0,0,0-12.867,0v1.838h-1.378a.46.46,0,0,0-.46.46v11.488a1.841,1.841,0,0,0,1.838,1.839h12.867a1.841,1.841,0,0,0,1.839-1.839V2395.03A.46.46,0,0,0,1919.415,2394.57Zm-6.436,9.6a.461.461,0,0,1-.115.357.456.456,0,0,1-.342.153h-1.838a.459.459,0,0,1-.457-.51l.29-2.607a1.817,1.817,0,0,1-.752-1.478,1.838,1.838,0,0,1,3.676,0,1.816,1.816,0,0,1-.752,1.478Zm2.3-9.6h-7.352v-1.838a3.676,3.676,0,0,1,7.352,0Z" fill="#547ba4"/>
      </g>
    </g>
  </g>
</svg>
