<?xml version="1.0" encoding="utf-8"?>
<!-- Generator: Adobe Illustrator 25.2.3, SVG Export Plug-In . SVG Version: 6.00 Build 0)  -->
<svg version="1.1" id="Capa_1" xmlns="http://www.w3.org/2000/svg" xmlns:xlink="http://www.w3.org/1999/xlink" x="0px" y="0px"
	 viewBox="0 0 1020 392" style="enable-background:new 0 0 1020 392;" xml:space="preserve">
<style type="text/css">
	.st0{fill:url(#Rectángulo_5201_1_);}
	.st1{opacity:0.7;}
	.st2{fill:#065270;}
	.st3{fill:url(#Trazado_99714_1_);stroke:#B9D4EF;stroke-width:0.776;stroke-miterlimit:10;}
	.st4{fill:#3366C1;}
	.st5{fill:#FF0062;}
	.st6{enable-background:new    ;}
	.st7{fill:#FFFFFF;}
</style>
<g id="Grupo_55010" transform="translate(-284 -1575)">
	
		<linearGradient id="Rectángulo_5201_1_" gradientUnits="userSpaceOnUse" x1="496.799" y1="2190.8091" x2="495.278" y2="2190.8301" gradientTransform="matrix(1020 0 0 -392 -505424 860570.875)">
		<stop  offset="0" style="stop-color:#FFFFFF"/>
		<stop  offset="0.693" style="stop-color:#F1F6FC"/>
		<stop  offset="1" style="stop-color:#B8D3EE"/>
	</linearGradient>
	<rect id="Rectángulo_5201" x="284" y="1575" class="st0" width="1020" height="392"/>
	<g id="Grupo_53877" transform="translate(0 429.07)">
		<g id="Grupo_53853" transform="translate(-3148.344 2868.307)">
			<g id="Capa_1_1_">
				<g id="Grupo_53876" transform="translate(32.1 946.628)">
					<g id="Grupo_53856" transform="translate(3742.043 -2518.945)" class="st1">
						<path id="Trazado_99713" class="st2" d="M163.1,42.8c-1.6,0-3.2,0.2-4.8,0.5c-3.5-7.1-10.7-11.7-18.7-11.7c-0.3,0-0.6,0-0.9,0
							c-1.4-11.1-11.8-19.8-24.5-19.8c-5.6,0-11.1,1.7-15.6,5C91.3,6.4,79.4,0.1,66.7,0C46,0,29,16.7,27.4,37.9
							c-1.5-0.3-3-0.5-4.5-0.5C10.2,37.5,0,47.7,0,60.3c0,0,0,0,0,0c0,11.9,9.2,21.8,21.1,22.8c2.6,14.1,14.9,24.4,29.3,24.3
							c8.1,0,15.9-3.3,21.6-9.2c3.9,4.3,9.5,6.8,15.4,6.8c4.4,0,8.7-1.4,12.3-4c6.2,7.3,15.2,11.4,24.7,11.5
							c14.5,0,26.9-9.7,31.5-23.2c2.4,0.8,4.8,1.2,7.3,1.2c13.2,0,23.8-10.7,23.8-23.8C186.9,53.4,176.3,42.8,163.1,42.8z"/>
					</g>
					
						<radialGradient id="Trazado_99714_1_" cx="3610.9001" cy="-2054.947" r="0.956" gradientTransform="matrix(112.5367 0 0 -101.9365 -402515.6562 -211922.8281)" gradientUnits="userSpaceOnUse">
						<stop  offset="0" style="stop-color:#FFFFFF"/>
						<stop  offset="0.514" style="stop-color:#FCFCFC"/>
						<stop  offset="0.81" style="stop-color:#D8E2EB"/>
						<stop  offset="1" style="stop-color:#D8D8F0"/>
					</radialGradient>
					<path id="Trazado_99714" class="st3" d="M3905.1-2476.2c-1.6,0-3.2,0.2-4.8,0.5c-3.5-7.1-10.7-11.7-18.7-11.7
						c-0.3,0-0.6,0-0.9,0c-1.4-11.1-11.8-19.8-24.5-19.8c-5.6,0-11.1,1.7-15.6,5c-5.8-8.3-14.5-14.1-24.4-16.2c-0.1,0-0.1,0-0.6-0.1
						c-2.2-0.4-4.5-0.6-6.8-0.6c-20.7,0-37.7,16.7-39.3,37.9c-1.5-0.3-3-0.5-4.5-0.5c-12.6,0-22.8,10.2-22.8,22.8c0,0,0,0,0,0
						c0,11.9,9.2,21.8,21.1,22.8c2.6,14.1,14.9,24.4,29.3,24.3c8.1,0,15.9-3.3,21.6-9.2c3.9,4.3,9.5,6.8,15.4,6.8
						c4.4,0,8.7-1.4,12.3-4c6.2,7.3,15.2,11.4,24.7,11.5c14.5,0,26.9-9.7,31.5-23.2c2.4,0.8,4.8,1.2,7.3,1.2
						c13.2,0,23.8-10.7,23.8-23.8C3929-2465.5,3918.3-2476.2,3905.1-2476.2C3905.1-2476.2,3905.1-2476.2,3905.1-2476.2z"/>
				</g>
				<path id="Rectángulo_5172" class="st4" d="M3527.6-1547.4h36.9c7.7,0,13.9,6.2,13.9,13.9v36.8c0,7.7-6.2,13.9-13.9,13.9h-36.9
					c-7.7,0-13.9-6.2-13.9-13.9v-36.8C3513.7-1541.2,3519.9-1547.4,3527.6-1547.4z"/>
				<path id="Rectángulo_5173" class="st5" d="M3690-1547.4h36.9c7.7,0,13.9,6.2,13.9,13.9v36.8c0,7.7-6.2,13.9-13.9,13.9H3690
					c-7.7,0-13.9-6.2-13.9-13.9v-36.8C3676.2-1541.2,3682.4-1547.4,3690-1547.4z"/>
				<path id="Rectángulo_5174" class="st5" d="M3999.3-1547.4h36.9c7.7,0,13.9,6.2,13.9,13.9v36.8c0,7.7-6.2,13.9-13.9,13.9h-36.9
					c-7.7,0-13.9-6.2-13.9-13.9v-36.8C3985.4-1541.2,3991.6-1547.4,3999.3-1547.4z"/>
				<path id="Rectángulo_5175" class="st5" d="M3998.5-1430.8h36.9c7.7,0,13.9,6.2,13.9,13.9v36.8c0,7.7-6.2,13.9-13.9,13.9h-36.9
					c-7.7,0-13.9-6.2-13.9-13.9v-36.8C3984.6-1424.5,3990.8-1430.8,3998.5-1430.8z"/>
				<path id="Rectángulo_5176" class="st5" d="M3998.5-1663.1h36.9c7.7,0,13.9,6.2,13.9,13.9v36.8c0,7.7-6.2,13.9-13.9,13.9h-36.9
					c-7.7,0-13.9-6.2-13.9-13.9v-36.8C3984.6-1656.9,3990.8-1663.1,3998.5-1663.1z"/>
				<path id="Rectángulo_5177" class="st4" d="M4321.1-1547.4h36.9c7.7,0,13.9,6.2,13.9,13.9v36.8c0,7.7-6.2,13.9-13.9,13.9h-36.9
					c-7.7,0-13.9-6.2-13.9-13.9v-36.8C4307.2-1541.2,4313.4-1547.4,4321.1-1547.4z"/>
				<g class="st6">
					<path class="st7" d="M3545.7-1513.2c0-0.5-0.2-0.9-0.5-1.1s-1-0.5-1.9-0.8s-1.6-0.6-2.2-0.9c-1.5-0.8-2.2-1.8-2.2-3.2
						c0-0.7,0.2-1.3,0.6-1.9c0.4-0.5,0.9-1,1.7-1.3s1.5-0.5,2.5-0.5c0.9,0,1.7,0.2,2.4,0.5c0.7,0.3,1.3,0.8,1.7,1.4s0.6,1.3,0.6,2.1
						h-2.6c0-0.6-0.2-1-0.6-1.4c-0.4-0.3-0.9-0.5-1.6-0.5c-0.6,0-1.1,0.1-1.5,0.4c-0.4,0.3-0.5,0.6-0.5,1.1c0,0.4,0.2,0.8,0.6,1
						s1,0.5,1.9,0.8c1.5,0.5,2.6,1,3.3,1.7s1,1.5,1,2.5c0,1.1-0.4,2-1.3,2.6c-0.8,0.6-2,0.9-3.4,0.9c-1,0-1.9-0.2-2.7-0.5
						c-0.8-0.4-1.4-0.9-1.9-1.5s-0.6-1.4-0.6-2.2h2.6c0,1.4,0.8,2.1,2.5,2.1c0.6,0,1.1-0.1,1.5-0.4
						C3545.5-1512.4,3545.7-1512.8,3545.7-1513.2z"/>
					<path class="st7" d="M3552.9-1509.9h-2.6v-12.8h2.6V-1509.9z"/>
				</g>
				<g class="st6">
					<path class="st7" d="M4339.4-1513.2c0-0.5-0.2-0.9-0.5-1.1s-1-0.5-1.9-0.8s-1.6-0.6-2.2-0.9c-1.5-0.8-2.2-1.8-2.2-3.2
						c0-0.7,0.2-1.3,0.6-1.9c0.4-0.5,0.9-1,1.7-1.3s1.5-0.5,2.5-0.5c0.9,0,1.7,0.2,2.4,0.5c0.7,0.3,1.3,0.8,1.7,1.4s0.6,1.3,0.6,2.1
						h-2.6c0-0.6-0.2-1-0.6-1.4c-0.4-0.3-0.9-0.5-1.6-0.5c-0.6,0-1.1,0.1-1.5,0.4c-0.4,0.3-0.5,0.6-0.5,1.1c0,0.4,0.2,0.8,0.6,1
						s1,0.5,1.8,0.8c1.5,0.5,2.6,1,3.3,1.7s1,1.5,1,2.5c0,1.1-0.4,2-1.3,2.6c-0.8,0.6-2,0.9-3.4,0.9c-1,0-1.9-0.2-2.7-0.5
						c-0.8-0.4-1.4-0.9-1.8-1.5s-0.6-1.4-0.6-2.2h2.6c0,1.4,0.8,2.1,2.5,2.1c0.6,0,1.1-0.1,1.5-0.4
						C4339.3-1512.4,4339.4-1512.8,4339.4-1513.2z"/>
					<path class="st7" d="M4346.7-1509.9h-2.6v-12.8h2.6V-1509.9z"/>
				</g>
				<g class="st6">
					<path class="st7" d="M3705.2-1513.2c0-0.5-0.2-0.9-0.5-1.1s-1-0.5-1.9-0.8s-1.6-0.6-2.2-0.9c-1.5-0.8-2.2-1.8-2.2-3.2
						c0-0.7,0.2-1.3,0.6-1.9c0.4-0.5,0.9-1,1.7-1.3s1.5-0.5,2.5-0.5c0.9,0,1.7,0.2,2.4,0.5c0.7,0.3,1.3,0.8,1.7,1.4s0.6,1.3,0.6,2.1
						h-2.6c0-0.6-0.2-1-0.6-1.4c-0.4-0.3-0.9-0.5-1.6-0.5c-0.6,0-1.1,0.1-1.5,0.4c-0.4,0.3-0.5,0.6-0.5,1.1c0,0.4,0.2,0.8,0.6,1
						s1,0.5,1.9,0.8c1.5,0.5,2.6,1,3.3,1.7s1,1.5,1,2.5c0,1.1-0.4,2-1.3,2.6c-0.8,0.6-2,0.9-3.4,0.9c-1,0-1.9-0.2-2.7-0.5
						c-0.8-0.4-1.4-0.9-1.9-1.5s-0.6-1.4-0.6-2.2h2.6c0,1.4,0.8,2.1,2.5,2.1c0.6,0,1.1-0.1,1.5-0.4
						C3705-1512.4,3705.2-1512.8,3705.2-1513.2z"/>
					<path class="st7" d="M3716.2-1513.2c0-0.5-0.2-0.9-0.5-1.1s-1-0.5-1.9-0.8s-1.6-0.6-2.2-0.9c-1.5-0.8-2.2-1.8-2.2-3.2
						c0-0.7,0.2-1.3,0.6-1.9c0.4-0.5,0.9-1,1.7-1.3s1.5-0.5,2.5-0.5c0.9,0,1.7,0.2,2.4,0.5c0.7,0.3,1.3,0.8,1.7,1.4s0.6,1.3,0.6,2.1
						h-2.6c0-0.6-0.2-1-0.6-1.4c-0.4-0.3-0.9-0.5-1.6-0.5c-0.6,0-1.1,0.1-1.5,0.4c-0.4,0.3-0.5,0.6-0.5,1.1c0,0.4,0.2,0.8,0.6,1
						s1,0.5,1.9,0.8c1.5,0.5,2.6,1,3.3,1.7s1,1.5,1,2.5c0,1.1-0.4,2-1.3,2.6c-0.8,0.6-2,0.9-3.4,0.9c-1,0-1.9-0.2-2.7-0.5
						c-0.8-0.4-1.4-0.9-1.9-1.5s-0.6-1.4-0.6-2.2h2.6c0,1.4,0.8,2.1,2.5,2.1c0.6,0,1.1-0.1,1.5-0.4
						C3716.1-1512.4,3716.2-1512.8,3716.2-1513.2z"/>
				</g>
				<g class="st6">
					<path class="st7" d="M4010.4-1513.2c0-0.5-0.2-0.9-0.5-1.1s-1-0.5-1.9-0.8s-1.6-0.6-2.2-0.9c-1.5-0.8-2.2-1.8-2.2-3.2
						c0-0.7,0.2-1.3,0.6-1.9c0.4-0.5,0.9-1,1.7-1.3c0.7-0.3,1.5-0.5,2.5-0.5c0.9,0,1.7,0.2,2.4,0.5c0.7,0.3,1.3,0.8,1.7,1.4
						c0.4,0.6,0.6,1.3,0.6,2.1h-2.6c0-0.6-0.2-1-0.6-1.4c-0.4-0.3-0.9-0.5-1.6-0.5c-0.6,0-1.1,0.1-1.5,0.4c-0.4,0.3-0.5,0.6-0.5,1.1
						c0,0.4,0.2,0.8,0.6,1c0.4,0.3,1,0.5,1.8,0.8c1.5,0.5,2.6,1,3.3,1.7s1,1.5,1,2.5c0,1.1-0.4,2-1.3,2.6c-0.8,0.6-2,0.9-3.4,0.9
						c-1,0-1.9-0.2-2.7-0.5c-0.8-0.4-1.4-0.9-1.8-1.5c-0.4-0.6-0.6-1.4-0.6-2.2h2.6c0,1.4,0.8,2.1,2.5,2.1c0.6,0,1.1-0.1,1.5-0.4
						C4010.2-1512.4,4010.4-1512.8,4010.4-1513.2z"/>
					<path class="st7" d="M4021.5-1513.2c0-0.5-0.2-0.9-0.5-1.1s-1-0.5-1.9-0.8s-1.6-0.6-2.2-0.9c-1.5-0.8-2.2-1.8-2.2-3.2
						c0-0.7,0.2-1.3,0.6-1.9c0.4-0.5,0.9-1,1.7-1.3c0.7-0.3,1.5-0.5,2.5-0.5c0.9,0,1.7,0.2,2.4,0.5c0.7,0.3,1.3,0.8,1.7,1.4
						c0.4,0.6,0.6,1.3,0.6,2.1h-2.6c0-0.6-0.2-1-0.6-1.4c-0.4-0.3-0.9-0.5-1.6-0.5c-0.6,0-1.1,0.1-1.5,0.4c-0.4,0.3-0.5,0.6-0.5,1.1
						c0,0.4,0.2,0.8,0.6,1c0.4,0.3,1,0.5,1.9,0.8c1.5,0.5,2.6,1,3.3,1.7s1,1.5,1,2.5c0,1.1-0.4,2-1.3,2.6c-0.8,0.6-2,0.9-3.4,0.9
						c-1,0-1.9-0.2-2.7-0.5c-0.8-0.4-1.4-0.9-1.9-1.5c-0.4-0.6-0.6-1.4-0.6-2.2h2.6c0,1.4,0.8,2.1,2.5,2.1c0.6,0,1.1-0.1,1.5-0.4
						C4021.3-1512.4,4021.5-1512.8,4021.5-1513.2z"/>
				</g>
				<g class="st6">
					<path class="st7" d="M4032.3-1509.9h-6.8v-1.4l3.2-3.4c0.4-0.5,0.8-0.9,1-1.3c0.2-0.4,0.3-0.7,0.3-1c0-0.4-0.1-0.8-0.3-1
						c-0.2-0.3-0.5-0.4-1-0.4c-0.4,0-0.8,0.2-1.1,0.5c-0.3,0.3-0.4,0.7-0.4,1.2h-2c0-0.6,0.1-1.2,0.4-1.7c0.3-0.5,0.7-0.9,1.2-1.2
						c0.5-0.3,1.1-0.4,1.8-0.4c1,0,1.8,0.2,2.4,0.7c0.6,0.5,0.9,1.2,0.9,2.1c0,0.5-0.1,1-0.4,1.5s-0.7,1.1-1.3,1.8l-2.3,2.4h4.3
						V-1509.9z"/>
				</g>
				<g class="st6">
					<path class="st7" d="M4010.4-1630c0-0.5-0.2-0.9-0.5-1.1s-1-0.5-1.9-0.8s-1.6-0.6-2.2-0.9c-1.5-0.8-2.2-1.8-2.2-3.2
						c0-0.7,0.2-1.3,0.6-1.9c0.4-0.5,0.9-1,1.7-1.3c0.7-0.3,1.5-0.5,2.5-0.5c0.9,0,1.7,0.2,2.4,0.5c0.7,0.3,1.3,0.8,1.7,1.4
						c0.4,0.6,0.6,1.3,0.6,2.1h-2.6c0-0.6-0.2-1-0.6-1.4c-0.4-0.3-0.9-0.5-1.6-0.5c-0.6,0-1.1,0.1-1.5,0.4c-0.4,0.3-0.5,0.6-0.5,1.1
						c0,0.4,0.2,0.8,0.6,1c0.4,0.3,1,0.5,1.8,0.8c1.5,0.5,2.6,1,3.3,1.7s1,1.5,1,2.5c0,1.1-0.4,2-1.3,2.6c-0.8,0.6-2,0.9-3.4,0.9
						c-1,0-1.9-0.2-2.7-0.5c-0.8-0.4-1.4-0.9-1.8-1.5c-0.4-0.6-0.6-1.4-0.6-2.2h2.6c0,1.4,0.8,2.1,2.5,2.1c0.6,0,1.1-0.1,1.5-0.4
						C4010.2-1629.2,4010.4-1629.5,4010.4-1630z"/>
					<path class="st7" d="M4021.5-1630c0-0.5-0.2-0.9-0.5-1.1s-1-0.5-1.9-0.8s-1.6-0.6-2.2-0.9c-1.5-0.8-2.2-1.8-2.2-3.2
						c0-0.7,0.2-1.3,0.6-1.9c0.4-0.5,0.9-1,1.7-1.3c0.7-0.3,1.5-0.5,2.5-0.5c0.9,0,1.7,0.2,2.4,0.5c0.7,0.3,1.3,0.8,1.7,1.4
						c0.4,0.6,0.6,1.3,0.6,2.1h-2.6c0-0.6-0.2-1-0.6-1.4c-0.4-0.3-0.9-0.5-1.6-0.5c-0.6,0-1.1,0.1-1.5,0.4c-0.4,0.3-0.5,0.6-0.5,1.1
						c0,0.4,0.2,0.8,0.6,1c0.4,0.3,1,0.5,1.9,0.8c1.5,0.5,2.6,1,3.3,1.7s1,1.5,1,2.5c0,1.1-0.4,2-1.3,2.6c-0.8,0.6-2,0.9-3.4,0.9
						c-1,0-1.9-0.2-2.7-0.5c-0.8-0.4-1.4-0.9-1.9-1.5c-0.4-0.6-0.6-1.4-0.6-2.2h2.6c0,1.4,0.8,2.1,2.5,2.1c0.6,0,1.1-0.1,1.5-0.4
						C4021.3-1629.2,4021.5-1629.5,4021.5-1630z"/>
				</g>
				<g class="st6">
					<path class="st7" d="M4030.2-1626.6h-2v-7.6l-2.4,0.7v-1.6l4.1-1.5h0.2V-1626.6z"/>
				</g>
				<g class="st6">
					<path class="st7" d="M4010.4-1394.8c0-0.5-0.2-0.9-0.5-1.1s-1-0.5-1.9-0.8s-1.6-0.6-2.2-0.9c-1.5-0.8-2.2-1.8-2.2-3.2
						c0-0.7,0.2-1.3,0.6-1.9c0.4-0.5,0.9-1,1.7-1.3c0.7-0.3,1.5-0.5,2.5-0.5c0.9,0,1.7,0.2,2.4,0.5c0.7,0.3,1.3,0.8,1.7,1.4
						c0.4,0.6,0.6,1.3,0.6,2.1h-2.6c0-0.6-0.2-1-0.6-1.4c-0.4-0.3-0.9-0.5-1.6-0.5c-0.6,0-1.1,0.1-1.5,0.4c-0.4,0.3-0.5,0.6-0.5,1.1
						c0,0.4,0.2,0.8,0.6,1c0.4,0.3,1,0.5,1.8,0.8c1.5,0.5,2.6,1,3.3,1.7s1,1.5,1,2.5c0,1.1-0.4,2-1.3,2.6c-0.8,0.6-2,0.9-3.4,0.9
						c-1,0-1.9-0.2-2.7-0.5c-0.8-0.4-1.4-0.9-1.8-1.5c-0.4-0.6-0.6-1.4-0.6-2.2h2.6c0,1.4,0.8,2.1,2.5,2.1c0.6,0,1.1-0.1,1.5-0.4
						C4010.2-1394,4010.4-1394.4,4010.4-1394.8z"/>
					<path class="st7" d="M4021.5-1394.8c0-0.5-0.2-0.9-0.5-1.1s-1-0.5-1.9-0.8s-1.6-0.6-2.2-0.9c-1.5-0.8-2.2-1.8-2.2-3.2
						c0-0.7,0.2-1.3,0.6-1.9c0.4-0.5,0.9-1,1.7-1.3c0.7-0.3,1.5-0.5,2.5-0.5c0.9,0,1.7,0.2,2.4,0.5c0.7,0.3,1.3,0.8,1.7,1.4
						c0.4,0.6,0.6,1.3,0.6,2.1h-2.6c0-0.6-0.2-1-0.6-1.4c-0.4-0.3-0.9-0.5-1.6-0.5c-0.6,0-1.1,0.1-1.5,0.4c-0.4,0.3-0.5,0.6-0.5,1.1
						c0,0.4,0.2,0.8,0.6,1c0.4,0.3,1,0.5,1.9,0.8c1.5,0.5,2.6,1,3.3,1.7s1,1.5,1,2.5c0,1.1-0.4,2-1.3,2.6c-0.8,0.6-2,0.9-3.4,0.9
						c-1,0-1.9-0.2-2.7-0.5c-0.8-0.4-1.4-0.9-1.9-1.5c-0.4-0.6-0.6-1.4-0.6-2.2h2.6c0,1.4,0.8,2.1,2.5,2.1c0.6,0,1.1-0.1,1.5-0.4
						C4021.3-1394,4021.5-1394.4,4021.5-1394.8z"/>
				</g>
				<g class="st6">
					<path class="st7" d="M4027.5-1397.3h1.1c0.5,0,0.9-0.1,1.1-0.4s0.4-0.6,0.4-1c0-0.4-0.1-0.7-0.4-0.9c-0.2-0.2-0.6-0.3-1-0.3
						c-0.4,0-0.7,0.1-1,0.3c-0.3,0.2-0.4,0.5-0.4,0.8h-2c0-0.5,0.1-1,0.4-1.4c0.3-0.4,0.7-0.7,1.2-1c0.5-0.2,1.1-0.3,1.7-0.3
						c1.1,0,1.9,0.3,2.5,0.8c0.6,0.5,0.9,1.2,0.9,2.1c0,0.5-0.1,0.9-0.4,1.3s-0.6,0.7-1.1,0.9c0.6,0.2,1,0.5,1.3,0.9
						c0.3,0.4,0.4,0.9,0.4,1.4c0,0.9-0.3,1.6-1,2.1c-0.6,0.5-1.5,0.8-2.6,0.8c-1,0-1.8-0.3-2.4-0.8c-0.6-0.5-0.9-1.2-0.9-2.1h2
						c0,0.4,0.1,0.7,0.4,0.9c0.3,0.2,0.6,0.4,1,0.4c0.5,0,0.8-0.1,1.1-0.4c0.3-0.2,0.4-0.6,0.4-1c0-1-0.5-1.5-1.6-1.5h-1V-1397.3z"
						/>
				</g>
				<g class="st6">
					<path d="M3990.3-1684l3.5,8.7l3.5-8.7h1.8v10.7h-1.4v-4.2l0.1-4.5l-3.5,8.6h-1.1l-3.5-8.6l0.1,4.5v4.2h-1.4v-10.7H3990.3z"/>
					<path d="M4001.4-1683.4c0-0.2,0.1-0.4,0.2-0.6c0.1-0.2,0.3-0.2,0.6-0.2s0.5,0.1,0.6,0.2c0.1,0.2,0.2,0.3,0.2,0.6
						c0,0.2-0.1,0.4-0.2,0.5s-0.3,0.2-0.6,0.2s-0.5-0.1-0.6-0.2C4001.4-1683,4001.4-1683.2,4001.4-1683.4z M4002.8-1673.4h-1.4v-7.9
						h1.4V-1673.4z"/>
					<path d="M4008.3-1673.2c-1.1,0-1.9-0.4-2.6-1.1c-0.7-0.7-1-1.6-1-2.8v-0.2c0-0.8,0.2-1.5,0.5-2.1c0.3-0.6,0.7-1.1,1.3-1.5
						c0.5-0.3,1.1-0.5,1.8-0.5c1,0,1.8,0.3,2.4,1s0.9,1.7,0.9,2.9v0.6h-5.4c0,0.8,0.2,1.4,0.7,1.9c0.4,0.5,1,0.7,1.7,0.7
						c0.5,0,0.9-0.1,1.2-0.3s0.6-0.5,0.9-0.8l0.8,0.6C4010.6-1673.7,4009.6-1673.2,4008.3-1673.2z M4008.1-1680.3
						c-0.5,0-1,0.2-1.4,0.6c-0.4,0.4-0.6,1-0.7,1.7h4v-0.1c0-0.7-0.2-1.2-0.6-1.6C4009.1-1680.1,4008.7-1680.3,4008.1-1680.3z"/>
					<path d="M4014.2-1681.3l0,0.9c0.6-0.7,1.4-1,2.4-1c1.1,0,1.9,0.4,2.3,1.3c0.3-0.4,0.6-0.7,1-0.9c0.4-0.2,0.9-0.4,1.5-0.4
						c1.7,0,2.6,0.9,2.7,2.8v5.3h-1.4v-5.2c0-0.6-0.1-1-0.4-1.3c-0.3-0.3-0.7-0.4-1.3-0.4c-0.5,0-0.9,0.2-1.3,0.5
						c-0.3,0.3-0.5,0.7-0.6,1.2v5.3h-1.4v-5.2c0-1.2-0.6-1.7-1.7-1.7c-0.9,0-1.5,0.4-1.8,1.1v5.8h-1.4v-7.9H4014.2z"/>
					<path d="M4032.8-1677.3c0,1.2-0.3,2.2-0.8,2.9c-0.6,0.7-1.3,1.1-2.2,1.1c-1,0-1.8-0.4-2.3-1.1l-0.1,0.9h-1.2v-11.2h1.4v4.2
						c0.5-0.7,1.3-1,2.3-1s1.7,0.4,2.3,1.1c0.5,0.7,0.8,1.7,0.8,3V-1677.3z M4031.4-1677.4c0-0.9-0.2-1.6-0.5-2.1s-0.9-0.8-1.5-0.8
						c-0.9,0-1.5,0.4-1.9,1.2v3.4c0.4,0.8,1.1,1.2,1.9,1.2c0.6,0,1.2-0.3,1.5-0.8S4031.4-1676.4,4031.4-1677.4z"/>
					<path d="M4038.3-1680.1c-0.2,0-0.4-0.1-0.7-0.1c-0.9,0-1.5,0.4-1.8,1.1v5.6h-1.4v-7.9h1.3l0,0.9c0.4-0.7,1.1-1.1,1.9-1.1
						c0.3,0,0.5,0,0.6,0.1V-1680.1z"/>
					<path d="M4039.1-1677.4c0-0.8,0.2-1.5,0.5-2.1c0.3-0.6,0.7-1.1,1.3-1.4c0.5-0.3,1.2-0.5,1.9-0.5c1.1,0,2,0.4,2.6,1.1
						c0.7,0.7,1,1.7,1,3v0.1c0,0.8-0.1,1.5-0.4,2.1c-0.3,0.6-0.7,1.1-1.3,1.4c-0.5,0.3-1.2,0.5-1.9,0.5c-1.1,0-1.9-0.4-2.6-1.1
						C4039.4-1675.1,4039.1-1676.1,4039.1-1677.4L4039.1-1677.4z M4040.4-1677.3c0,0.9,0.2,1.6,0.6,2.1c0.4,0.5,1,0.8,1.6,0.8
						c0.7,0,1.2-0.3,1.6-0.8c0.4-0.5,0.6-1.3,0.6-2.3c0-0.9-0.2-1.6-0.6-2.1c-0.4-0.5-1-0.8-1.6-0.8c-0.7,0-1.2,0.3-1.6,0.8
						C4040.6-1679,4040.4-1678.2,4040.4-1677.3z"/>
				</g>
				<g class="st6">
					<path d="M4054.5-1678.9l1.3-2.4h2.3l-2.3,3.9l2.4,4h-2.3l-1.4-2.5l-1.4,2.5h-2.3l2.4-4l-2.2-3.9h2.3L4054.5-1678.9z"/>
					<path d="M4063.5-1672.5h-1.6l3.9-11.6h1.6L4063.5-1672.5z"/>
				</g>
				<g class="st6">
					<path d="M4075.8-1678.1c-1.2-0.3-2.1-0.8-2.6-1.3c-0.5-0.5-0.8-1.1-0.8-1.9c0-0.8,0.3-1.5,1-2.1c0.7-0.5,1.5-0.8,2.6-0.8
						c0.7,0,1.4,0.1,2,0.4c0.6,0.3,1,0.7,1.3,1.2c0.3,0.5,0.5,1,0.5,1.6h-1.4c0-0.6-0.2-1.2-0.6-1.5s-1-0.6-1.7-0.6
						c-0.7,0-1.2,0.2-1.6,0.5c-0.4,0.3-0.6,0.7-0.6,1.3c0,0.4,0.2,0.8,0.6,1.1c0.4,0.3,1,0.6,1.9,0.8c0.9,0.2,1.6,0.5,2.1,0.8
						c0.5,0.3,0.9,0.7,1.1,1.1c0.2,0.4,0.4,0.9,0.4,1.4c0,0.9-0.3,1.6-1,2.1c-0.7,0.5-1.6,0.8-2.7,0.8c-0.7,0-1.4-0.1-2.1-0.4
						c-0.6-0.3-1.1-0.7-1.5-1.2c-0.3-0.5-0.5-1-0.5-1.7h1.4c0,0.6,0.2,1.2,0.7,1.5c0.5,0.4,1.1,0.6,1.9,0.6c0.7,0,1.3-0.2,1.7-0.5
						s0.6-0.7,0.6-1.2s-0.2-0.9-0.5-1.2C4077.4-1677.6,4076.7-1677.9,4075.8-1678.1z"/>
					<path d="M4086.2-1674.2c-0.5,0.6-1.3,0.9-2.3,0.9c-0.8,0-1.5-0.2-1.9-0.7c-0.4-0.5-0.7-1.2-0.7-2.2v-5.2h1.4v5.1
						c0,1.2,0.5,1.8,1.5,1.8c1,0,1.7-0.4,2.1-1.2v-5.8h1.4v7.9h-1.3L4086.2-1674.2z"/>
					<path d="M4096.3-1677.3c0,1.2-0.3,2.2-0.8,2.9c-0.6,0.7-1.3,1.1-2.2,1.1c-1,0-1.8-0.4-2.3-1.1l-0.1,0.9h-1.2v-11.2h1.4v4.2
						c0.5-0.7,1.3-1,2.3-1s1.7,0.4,2.3,1.1c0.5,0.7,0.8,1.7,0.8,3V-1677.3z M4094.9-1677.4c0-0.9-0.2-1.6-0.5-2.1s-0.9-0.8-1.5-0.8
						c-0.9,0-1.5,0.4-1.9,1.2v3.4c0.4,0.8,1.1,1.2,1.9,1.2c0.6,0,1.2-0.3,1.5-0.8S4094.9-1676.4,4094.9-1677.4z"/>
					<path d="M4102.6-1675.5c0-0.4-0.1-0.7-0.4-0.9c-0.3-0.2-0.8-0.4-1.4-0.5c-0.7-0.1-1.2-0.3-1.6-0.5c-0.4-0.2-0.7-0.4-0.9-0.7
						c-0.2-0.3-0.3-0.6-0.3-1c0-0.6,0.3-1.2,0.8-1.6c0.5-0.4,1.3-0.7,2.1-0.7c0.9,0,1.6,0.2,2.2,0.7c0.6,0.5,0.8,1.1,0.8,1.8h-1.4
						c0-0.4-0.2-0.7-0.5-1c-0.3-0.3-0.7-0.4-1.2-0.4c-0.5,0-0.9,0.1-1.2,0.3s-0.4,0.5-0.4,0.8c0,0.3,0.1,0.6,0.4,0.7
						s0.7,0.3,1.4,0.5c0.7,0.2,1.2,0.3,1.6,0.5s0.7,0.5,0.9,0.8c0.2,0.3,0.3,0.7,0.3,1.1c0,0.7-0.3,1.3-0.8,1.7
						c-0.6,0.4-1.3,0.6-2.2,0.6c-0.6,0-1.2-0.1-1.7-0.3s-0.9-0.5-1.1-0.9c-0.3-0.4-0.4-0.8-0.4-1.3h1.4c0,0.5,0.2,0.8,0.5,1.1
						c0.3,0.3,0.8,0.4,1.3,0.4c0.5,0,0.9-0.1,1.2-0.3C4102.5-1674.9,4102.6-1675.1,4102.6-1675.5z"/>
					<path d="M4105.7-1683.4c0-0.2,0.1-0.4,0.2-0.6c0.1-0.2,0.3-0.2,0.6-0.2s0.5,0.1,0.6,0.2c0.1,0.2,0.2,0.3,0.2,0.6
						c0,0.2-0.1,0.4-0.2,0.5s-0.3,0.2-0.6,0.2s-0.5-0.1-0.6-0.2C4105.8-1683,4105.7-1683.2,4105.7-1683.4z M4107.2-1673.4h-1.4v-7.9
						h1.4V-1673.4z"/>
					<path d="M4114-1675.5c0-0.4-0.1-0.7-0.4-0.9c-0.3-0.2-0.8-0.4-1.4-0.5c-0.7-0.1-1.2-0.3-1.6-0.5c-0.4-0.2-0.7-0.4-0.9-0.7
						c-0.2-0.3-0.3-0.6-0.3-1c0-0.6,0.3-1.2,0.8-1.6c0.5-0.4,1.3-0.7,2.1-0.7c0.9,0,1.6,0.2,2.2,0.7c0.6,0.5,0.8,1.1,0.8,1.8h-1.4
						c0-0.4-0.2-0.7-0.5-1c-0.3-0.3-0.7-0.4-1.2-0.4c-0.5,0-0.9,0.1-1.2,0.3s-0.4,0.5-0.4,0.8c0,0.3,0.1,0.6,0.4,0.7
						s0.7,0.3,1.4,0.5c0.7,0.2,1.2,0.3,1.6,0.5s0.7,0.5,0.9,0.8c0.2,0.3,0.3,0.7,0.3,1.1c0,0.7-0.3,1.3-0.8,1.7
						c-0.6,0.4-1.3,0.6-2.2,0.6c-0.6,0-1.2-0.1-1.7-0.3s-0.9-0.5-1.1-0.9c-0.3-0.4-0.4-0.8-0.4-1.3h1.4c0,0.5,0.2,0.8,0.5,1.1
						c0.3,0.3,0.8,0.4,1.3,0.4c0.5,0,0.9-0.1,1.2-0.3C4113.8-1674.9,4114-1675.1,4114-1675.5z"/>
					<path d="M4119-1683.2v1.9h1.5v1h-1.5v4.9c0,0.3,0.1,0.6,0.2,0.7c0.1,0.2,0.4,0.2,0.7,0.2c0.2,0,0.4,0,0.6-0.1v1.1
						c-0.4,0.1-0.7,0.1-1,0.1c-0.6,0-1.1-0.2-1.4-0.5c-0.3-0.4-0.5-0.9-0.5-1.6v-4.9h-1.4v-1h1.4v-1.9H4119z"/>
					<path d="M4125.3-1673.2c-1.1,0-1.9-0.4-2.6-1.1c-0.7-0.7-1-1.6-1-2.8v-0.2c0-0.8,0.2-1.5,0.5-2.1c0.3-0.6,0.7-1.1,1.3-1.5
						c0.5-0.3,1.1-0.5,1.8-0.5c1,0,1.8,0.3,2.4,1s0.9,1.7,0.9,2.9v0.6h-5.4c0,0.8,0.2,1.4,0.7,1.9c0.4,0.5,1,0.7,1.7,0.7
						c0.5,0,0.9-0.1,1.2-0.3s0.6-0.5,0.9-0.8l0.8,0.6C4127.6-1673.7,4126.6-1673.2,4125.3-1673.2z M4125.1-1680.3
						c-0.5,0-1,0.2-1.4,0.6c-0.4,0.4-0.6,1-0.7,1.7h4v-0.1c0-0.7-0.2-1.2-0.6-1.6C4126.2-1680.1,4125.7-1680.3,4125.1-1680.3z"/>
					<path d="M4131.2-1681.3l0,0.9c0.6-0.7,1.4-1,2.4-1c1.1,0,1.9,0.4,2.3,1.3c0.3-0.4,0.6-0.7,1-0.9c0.4-0.2,0.9-0.4,1.5-0.4
						c1.7,0,2.6,0.9,2.7,2.8v5.3h-1.4v-5.2c0-0.6-0.1-1-0.4-1.3c-0.3-0.3-0.7-0.4-1.3-0.4c-0.5,0-0.9,0.2-1.3,0.5
						c-0.3,0.3-0.5,0.7-0.6,1.2v5.3h-1.4v-5.2c0-1.2-0.6-1.7-1.7-1.7c-0.9,0-1.5,0.4-1.8,1.1v5.8h-1.4v-7.9H4131.2z"/>
					<path d="M4148-1673.4c-0.1-0.2-0.1-0.4-0.2-0.8c-0.6,0.7-1.4,1-2.3,1c-0.8,0-1.4-0.2-1.9-0.7c-0.5-0.4-0.8-1-0.8-1.7
						c0-0.8,0.3-1.5,0.9-1.9c0.6-0.5,1.5-0.7,2.6-0.7h1.3v-0.6c0-0.5-0.1-0.9-0.4-1.1c-0.3-0.3-0.7-0.4-1.3-0.4
						c-0.5,0-0.9,0.1-1.2,0.4s-0.5,0.5-0.5,0.9h-1.4c0-0.4,0.1-0.8,0.4-1.1c0.3-0.4,0.7-0.7,1.1-0.9c0.5-0.2,1-0.3,1.6-0.3
						c0.9,0,1.6,0.2,2.1,0.7c0.5,0.5,0.8,1.1,0.8,1.9v3.6c0,0.7,0.1,1.3,0.3,1.7v0.1H4148z M4145.8-1674.4c0.4,0,0.8-0.1,1.2-0.3
						s0.7-0.5,0.8-0.9v-1.6h-1.1c-1.7,0-2.5,0.5-2.5,1.5c0,0.4,0.1,0.8,0.4,1S4145.3-1674.4,4145.8-1674.4z"/>
				</g>
				<g class="st6">
					<path d="M4158.6-1679.2l2.2-4.8h2.4l-3.5,6.8v3.9h-2.2v-3.9l-3.5-6.8h2.4L4158.6-1679.2z"/>
				</g>
				<g class="st6">
					<path d="M3987.6-1567.2l3.5,8.7l3.5-8.7h1.8v10.7h-1.4v-4.2l0.1-4.5l-3.5,8.6h-1.1l-3.5-8.6l0.1,4.5v4.2h-1.4v-10.7H3987.6z"/>
					<path d="M3998.7-1566.5c0-0.2,0.1-0.4,0.2-0.6c0.1-0.2,0.3-0.2,0.6-0.2s0.5,0.1,0.6,0.2c0.1,0.2,0.2,0.3,0.2,0.6
						c0,0.2-0.1,0.4-0.2,0.5s-0.3,0.2-0.6,0.2s-0.5-0.1-0.6-0.2C3998.8-1566.1,3998.7-1566.3,3998.7-1566.5z M4000.2-1556.5h-1.4
						v-7.9h1.4V-1556.5z"/>
					<path d="M4005.6-1556.3c-1.1,0-1.9-0.4-2.6-1.1c-0.7-0.7-1-1.6-1-2.8v-0.2c0-0.8,0.2-1.5,0.5-2.1c0.3-0.6,0.7-1.1,1.3-1.5
						c0.5-0.3,1.1-0.5,1.8-0.5c1,0,1.8,0.3,2.4,1s0.9,1.7,0.9,2.9v0.6h-5.4c0,0.8,0.2,1.4,0.7,1.9c0.4,0.5,1,0.7,1.7,0.7
						c0.5,0,0.9-0.1,1.2-0.3s0.6-0.5,0.9-0.8l0.8,0.6C4007.9-1556.9,4006.9-1556.3,4005.6-1556.3z M4005.4-1563.5
						c-0.5,0-1,0.2-1.4,0.6c-0.4,0.4-0.6,1-0.7,1.7h4v-0.1c0-0.7-0.2-1.2-0.6-1.6C4006.5-1563.3,4006-1563.5,4005.4-1563.5z"/>
					<path d="M4011.5-1564.4l0,0.9c0.6-0.7,1.4-1,2.4-1c1.1,0,1.9,0.4,2.3,1.3c0.3-0.4,0.6-0.7,1-0.9c0.4-0.2,0.9-0.4,1.5-0.4
						c1.7,0,2.6,0.9,2.7,2.8v5.3h-1.4v-5.2c0-0.6-0.1-1-0.4-1.3c-0.3-0.3-0.7-0.4-1.3-0.4c-0.5,0-0.9,0.2-1.3,0.5
						c-0.3,0.3-0.5,0.7-0.6,1.2v5.3h-1.4v-5.2c0-1.2-0.6-1.7-1.7-1.7c-0.9,0-1.5,0.4-1.8,1.1v5.8h-1.4v-7.9H4011.5z"/>
					<path d="M4030.1-1560.4c0,1.2-0.3,2.2-0.8,2.9c-0.6,0.7-1.3,1.1-2.2,1.1c-1,0-1.8-0.4-2.3-1.1l-0.1,0.9h-1.2v-11.2h1.4v4.2
						c0.5-0.7,1.3-1,2.3-1s1.7,0.4,2.3,1.1c0.5,0.7,0.8,1.7,0.8,3V-1560.4z M4028.8-1560.5c0-0.9-0.2-1.6-0.5-2.1s-0.9-0.8-1.5-0.8
						c-0.9,0-1.5,0.4-1.9,1.2v3.4c0.4,0.8,1.1,1.2,1.9,1.2c0.6,0,1.2-0.3,1.5-0.8S4028.8-1559.5,4028.8-1560.5z"/>
					<path d="M4035.7-1563.2c-0.2,0-0.4-0.1-0.7-0.1c-0.9,0-1.5,0.4-1.8,1.1v5.6h-1.4v-7.9h1.3l0,0.9c0.4-0.7,1.1-1.1,1.9-1.1
						c0.3,0,0.5,0,0.6,0.1V-1563.2z"/>
					<path d="M4036.4-1560.5c0-0.8,0.2-1.5,0.5-2.1c0.3-0.6,0.7-1.1,1.3-1.4c0.5-0.3,1.2-0.5,1.9-0.5c1.1,0,2,0.4,2.6,1.1
						c0.7,0.7,1,1.7,1,3v0.1c0,0.8-0.1,1.5-0.4,2.1c-0.3,0.6-0.7,1.1-1.3,1.4c-0.5,0.3-1.2,0.5-1.9,0.5c-1.1,0-1.9-0.4-2.6-1.1
						C4036.7-1558.2,4036.4-1559.2,4036.4-1560.5L4036.4-1560.5z M4037.8-1560.4c0,0.9,0.2,1.6,0.6,2.1c0.4,0.5,1,0.8,1.6,0.8
						c0.7,0,1.2-0.3,1.6-0.8c0.4-0.5,0.6-1.3,0.6-2.3c0-0.9-0.2-1.6-0.6-2.1c-0.4-0.5-1-0.8-1.6-0.8c-0.7,0-1.2,0.3-1.6,0.8
						C4038-1562.1,4037.8-1561.4,4037.8-1560.4z"/>
				</g>
				<g class="st6">
					<path d="M4051.9-1562.1l1.3-2.4h2.3l-2.3,3.9l2.4,4h-2.3l-1.4-2.5l-1.4,2.5h-2.3l2.4-4l-2.2-3.9h2.3L4051.9-1562.1z"/>
					<path d="M4060.9-1555.6h-1.6l3.9-11.6h1.6L4060.9-1555.6z"/>
				</g>
				<g class="st6">
					<path d="M4073.1-1561.2c-1.2-0.3-2.1-0.8-2.6-1.3c-0.5-0.5-0.8-1.1-0.8-1.9c0-0.8,0.3-1.5,1-2.1c0.7-0.5,1.5-0.8,2.6-0.8
						c0.7,0,1.4,0.1,2,0.4c0.6,0.3,1,0.7,1.3,1.2c0.3,0.5,0.5,1,0.5,1.6h-1.4c0-0.6-0.2-1.2-0.6-1.5s-1-0.6-1.7-0.6
						c-0.7,0-1.2,0.2-1.6,0.5c-0.4,0.3-0.6,0.7-0.6,1.3c0,0.4,0.2,0.8,0.6,1.1c0.4,0.3,1,0.6,1.9,0.8c0.9,0.2,1.6,0.5,2.1,0.8
						c0.5,0.3,0.9,0.7,1.1,1.1c0.2,0.4,0.4,0.9,0.4,1.4c0,0.9-0.3,1.6-1,2.1c-0.7,0.5-1.6,0.8-2.7,0.8c-0.7,0-1.4-0.1-2.1-0.4
						c-0.6-0.3-1.1-0.7-1.5-1.2c-0.3-0.5-0.5-1-0.5-1.7h1.4c0,0.6,0.2,1.2,0.7,1.5c0.5,0.4,1.1,0.6,1.9,0.6c0.7,0,1.3-0.2,1.7-0.5
						s0.6-0.7,0.6-1.2s-0.2-0.9-0.5-1.2C4074.7-1560.7,4074.1-1561,4073.1-1561.2z"/>
					<path d="M4083.6-1557.3c-0.5,0.6-1.3,0.9-2.3,0.9c-0.8,0-1.5-0.2-1.9-0.7c-0.4-0.5-0.7-1.2-0.7-2.2v-5.2h1.4v5.1
						c0,1.2,0.5,1.8,1.5,1.8c1,0,1.7-0.4,2.1-1.2v-5.8h1.4v7.9h-1.3L4083.6-1557.3z"/>
					<path d="M4093.6-1560.4c0,1.2-0.3,2.2-0.8,2.9c-0.6,0.7-1.3,1.1-2.2,1.1c-1,0-1.8-0.4-2.3-1.1l-0.1,0.9h-1.2v-11.2h1.4v4.2
						c0.5-0.7,1.3-1,2.3-1s1.7,0.4,2.3,1.1c0.5,0.7,0.8,1.7,0.8,3V-1560.4z M4092.3-1560.5c0-0.9-0.2-1.6-0.5-2.1s-0.9-0.8-1.5-0.8
						c-0.9,0-1.5,0.4-1.9,1.2v3.4c0.4,0.8,1.1,1.2,1.9,1.2c0.6,0,1.2-0.3,1.5-0.8S4092.3-1559.5,4092.3-1560.5z"/>
					<path d="M4100-1558.6c0-0.4-0.1-0.7-0.4-0.9c-0.3-0.2-0.8-0.4-1.4-0.5c-0.7-0.1-1.2-0.3-1.6-0.5c-0.4-0.2-0.7-0.4-0.9-0.7
						c-0.2-0.3-0.3-0.6-0.3-1c0-0.6,0.3-1.2,0.8-1.6c0.5-0.4,1.3-0.7,2.1-0.7c0.9,0,1.6,0.2,2.2,0.7c0.6,0.5,0.8,1.1,0.8,1.8h-1.4
						c0-0.4-0.2-0.7-0.5-1c-0.3-0.3-0.7-0.4-1.2-0.4c-0.5,0-0.9,0.1-1.2,0.3s-0.4,0.5-0.4,0.8c0,0.3,0.1,0.6,0.4,0.7
						s0.7,0.3,1.4,0.5c0.7,0.2,1.2,0.3,1.6,0.5s0.7,0.5,0.9,0.8c0.2,0.3,0.3,0.7,0.3,1.1c0,0.7-0.3,1.3-0.8,1.7
						c-0.6,0.4-1.3,0.6-2.2,0.6c-0.6,0-1.2-0.1-1.7-0.3s-0.9-0.5-1.1-0.9c-0.3-0.4-0.4-0.8-0.4-1.3h1.4c0,0.5,0.2,0.8,0.5,1.1
						c0.3,0.3,0.8,0.4,1.3,0.4c0.5,0,0.9-0.1,1.2-0.3C4099.8-1558,4100-1558.3,4100-1558.6z"/>
					<path d="M4103.1-1566.5c0-0.2,0.1-0.4,0.2-0.6c0.1-0.2,0.3-0.2,0.6-0.2s0.5,0.1,0.6,0.2c0.1,0.2,0.2,0.3,0.2,0.6
						c0,0.2-0.1,0.4-0.2,0.5s-0.3,0.2-0.6,0.2s-0.5-0.1-0.6-0.2C4103.2-1566.1,4103.1-1566.3,4103.1-1566.5z M4104.5-1556.5h-1.4
						v-7.9h1.4V-1556.5z"/>
					<path d="M4111.3-1558.6c0-0.4-0.1-0.7-0.4-0.9c-0.3-0.2-0.8-0.4-1.4-0.5c-0.7-0.1-1.2-0.3-1.6-0.5c-0.4-0.2-0.7-0.4-0.9-0.7
						c-0.2-0.3-0.3-0.6-0.3-1c0-0.6,0.3-1.2,0.8-1.6c0.5-0.4,1.3-0.7,2.1-0.7c0.9,0,1.6,0.2,2.2,0.7c0.6,0.5,0.8,1.1,0.8,1.8h-1.4
						c0-0.4-0.2-0.7-0.5-1c-0.3-0.3-0.7-0.4-1.2-0.4c-0.5,0-0.9,0.1-1.2,0.3s-0.4,0.5-0.4,0.8c0,0.3,0.1,0.6,0.4,0.7
						s0.7,0.3,1.4,0.5c0.7,0.2,1.2,0.3,1.6,0.5s0.7,0.5,0.9,0.8c0.2,0.3,0.3,0.7,0.3,1.1c0,0.7-0.3,1.3-0.8,1.7
						c-0.6,0.4-1.3,0.6-2.2,0.6c-0.6,0-1.2-0.1-1.7-0.3s-0.9-0.5-1.1-0.9c-0.3-0.4-0.4-0.8-0.4-1.3h1.4c0,0.5,0.2,0.8,0.5,1.1
						c0.3,0.3,0.8,0.4,1.3,0.4c0.5,0,0.9-0.1,1.2-0.3C4111.2-1558,4111.3-1558.3,4111.3-1558.6z"/>
					<path d="M4116.3-1566.3v1.9h1.5v1h-1.5v4.9c0,0.3,0.1,0.6,0.2,0.7c0.1,0.2,0.4,0.2,0.7,0.2c0.2,0,0.4,0,0.6-0.1v1.1
						c-0.4,0.1-0.7,0.1-1,0.1c-0.6,0-1.1-0.2-1.4-0.5c-0.3-0.4-0.5-0.9-0.5-1.6v-4.9h-1.4v-1h1.4v-1.9H4116.3z"/>
					<path d="M4122.6-1556.3c-1.1,0-1.9-0.4-2.6-1.1c-0.7-0.7-1-1.6-1-2.8v-0.2c0-0.8,0.2-1.5,0.5-2.1c0.3-0.6,0.7-1.1,1.3-1.5
						c0.5-0.3,1.1-0.5,1.8-0.5c1,0,1.8,0.3,2.4,1s0.9,1.7,0.9,2.9v0.6h-5.4c0,0.8,0.2,1.4,0.7,1.9c0.4,0.5,1,0.7,1.7,0.7
						c0.5,0,0.9-0.1,1.2-0.3s0.6-0.5,0.9-0.8l0.8,0.6C4125-1556.9,4124-1556.3,4122.6-1556.3z M4122.5-1563.5c-0.5,0-1,0.2-1.4,0.6
						c-0.4,0.4-0.6,1-0.7,1.7h4v-0.1c0-0.7-0.2-1.2-0.6-1.6C4123.5-1563.3,4123-1563.5,4122.5-1563.5z"/>
					<path d="M4128.6-1564.4l0,0.9c0.6-0.7,1.4-1,2.4-1c1.1,0,1.9,0.4,2.3,1.3c0.3-0.4,0.6-0.7,1-0.9c0.4-0.2,0.9-0.4,1.5-0.4
						c1.7,0,2.6,0.9,2.7,2.8v5.3h-1.4v-5.2c0-0.6-0.1-1-0.4-1.3c-0.3-0.3-0.7-0.4-1.3-0.4c-0.5,0-0.9,0.2-1.3,0.5
						c-0.3,0.3-0.5,0.7-0.6,1.2v5.3h-1.4v-5.2c0-1.2-0.6-1.7-1.7-1.7c-0.9,0-1.5,0.4-1.8,1.1v5.8h-1.4v-7.9H4128.6z"/>
					<path d="M4145.3-1556.5c-0.1-0.2-0.1-0.4-0.2-0.8c-0.6,0.7-1.4,1-2.3,1c-0.8,0-1.4-0.2-1.9-0.7c-0.5-0.4-0.8-1-0.8-1.7
						c0-0.8,0.3-1.5,0.9-1.9c0.6-0.5,1.5-0.7,2.6-0.7h1.3v-0.6c0-0.5-0.1-0.9-0.4-1.1c-0.3-0.3-0.7-0.4-1.3-0.4
						c-0.5,0-0.9,0.1-1.2,0.4s-0.5,0.5-0.5,0.9h-1.4c0-0.4,0.1-0.8,0.4-1.1c0.3-0.4,0.7-0.7,1.1-0.9c0.5-0.2,1-0.3,1.6-0.3
						c0.9,0,1.6,0.2,2.1,0.7c0.5,0.5,0.8,1.1,0.8,1.9v3.6c0,0.7,0.1,1.3,0.3,1.7v0.1H4145.3z M4143.1-1557.5c0.4,0,0.8-0.1,1.2-0.3
						s0.7-0.5,0.8-0.9v-1.6h-1.1c-1.7,0-2.5,0.5-2.5,1.5c0,0.4,0.1,0.8,0.4,1S4142.6-1557.5,4143.1-1557.5z"/>
				</g>
				<g class="st6">
					<path d="M4155.9-1562.4l2.2-4.8h2.4l-3.5,6.8v3.9h-2.2v-3.9l-3.5-6.8h2.4L4155.9-1562.4z"/>
				</g>
				<g class="st6">
					<path class="st4" d="M3843.7-1498.1h-1.3v-10h1.3V-1498.1z"/>
					<path class="st4" d="M3847.1-1505.5l0,0.9c0.6-0.7,1.3-1.1,2.2-1.1c1.6,0,2.4,0.9,2.4,2.6v4.9h-1.3v-4.9c0-0.5-0.1-0.9-0.4-1.2
						s-0.6-0.4-1.1-0.4c-0.4,0-0.8,0.1-1.1,0.3s-0.6,0.5-0.7,0.9v5.3h-1.3v-7.4H3847.1z"/>
					<path class="st4" d="M3855.3-1507.3v1.8h1.4v1h-1.4v4.6c0,0.3,0.1,0.5,0.2,0.7s0.3,0.2,0.6,0.2c0.1,0,0.3,0,0.6-0.1v1
						c-0.3,0.1-0.7,0.1-1,0.1c-0.6,0-1-0.2-1.3-0.5s-0.4-0.8-0.4-1.5v-4.6h-1.3v-1h1.3v-1.8H3855.3z"/>
					<path class="st4" d="M3861.2-1497.9c-1,0-1.8-0.3-2.4-1c-0.6-0.7-0.9-1.5-0.9-2.6v-0.2c0-0.7,0.1-1.4,0.4-2
						c0.3-0.6,0.7-1,1.2-1.4c0.5-0.3,1-0.5,1.6-0.5c1,0,1.7,0.3,2.2,1s0.8,1.5,0.8,2.7v0.5h-5c0,0.7,0.2,1.3,0.6,1.8
						c0.4,0.4,0.9,0.7,1.6,0.7c0.4,0,0.8-0.1,1.1-0.3s0.6-0.4,0.8-0.7l0.8,0.6C3863.4-1498.4,3862.5-1497.9,3861.2-1497.9z
						 M3861.1-1504.6c-0.5,0-0.9,0.2-1.3,0.6c-0.3,0.4-0.6,0.9-0.6,1.6h3.7v-0.1c0-0.6-0.2-1.1-0.5-1.5
						C3862-1504.4,3861.6-1504.6,3861.1-1504.6z"/>
					<path class="st4" d="M3869.1-1504.3c-0.2,0-0.4,0-0.6,0c-0.8,0-1.4,0.4-1.7,1.1v5.2h-1.3v-7.4h1.2l0,0.9c0.4-0.7,1-1,1.8-1
						c0.2,0,0.4,0,0.6,0.1V-1504.3z"/>
					<path class="st4" d="M3871.5-1505.5l0,0.9c0.6-0.7,1.3-1.1,2.2-1.1c1.6,0,2.4,0.9,2.4,2.6v4.9h-1.3v-4.9c0-0.5-0.1-0.9-0.4-1.2
						s-0.6-0.4-1.1-0.4c-0.4,0-0.8,0.1-1.1,0.3s-0.6,0.5-0.7,0.9v5.3h-1.3v-7.4H3871.5z"/>
					<path class="st4" d="M3881.1-1497.9c-1,0-1.8-0.3-2.4-1c-0.6-0.7-0.9-1.5-0.9-2.6v-0.2c0-0.7,0.1-1.4,0.4-2
						c0.3-0.6,0.7-1,1.2-1.4c0.5-0.3,1-0.5,1.6-0.5c1,0,1.7,0.3,2.2,1s0.8,1.5,0.8,2.7v0.5h-5c0,0.7,0.2,1.3,0.6,1.8
						c0.4,0.4,0.9,0.7,1.6,0.7c0.4,0,0.8-0.1,1.1-0.3s0.6-0.4,0.8-0.7l0.8,0.6C3883.3-1498.4,3882.3-1497.9,3881.1-1497.9z
						 M3880.9-1504.6c-0.5,0-0.9,0.2-1.3,0.6c-0.3,0.4-0.6,0.9-0.6,1.6h3.7v-0.1c0-0.6-0.2-1.1-0.5-1.5
						C3881.9-1504.4,3881.5-1504.6,3880.9-1504.6z"/>
					<path class="st4" d="M3887.2-1507.3v1.8h1.4v1h-1.4v4.6c0,0.3,0.1,0.5,0.2,0.7s0.3,0.2,0.6,0.2c0.1,0,0.3,0,0.6-0.1v1
						c-0.3,0.1-0.7,0.1-1,0.1c-0.6,0-1-0.2-1.3-0.5s-0.4-0.8-0.4-1.5v-4.6h-1.3v-1h1.3v-1.8H3887.2z"/>
				</g>
				<g class="st6">
					<path d="M3988.9-1451l3.5,8.7l3.5-8.7h1.8v10.7h-1.4v-4.2l0.1-4.5l-3.5,8.6h-1.1l-3.5-8.6l0.1,4.5v4.2h-1.4v-10.7H3988.9z"/>
					<path d="M3999.9-1450.3c0-0.2,0.1-0.4,0.2-0.6c0.1-0.2,0.3-0.2,0.6-0.2s0.5,0.1,0.6,0.2c0.1,0.2,0.2,0.3,0.2,0.6
						c0,0.2-0.1,0.4-0.2,0.5s-0.3,0.2-0.6,0.2s-0.5-0.1-0.6-0.2C4000-1449.9,3999.9-1450.1,3999.9-1450.3z M4001.4-1440.3h-1.4v-7.9
						h1.4V-1440.3z"/>
					<path d="M4006.8-1440.2c-1.1,0-1.9-0.4-2.6-1.1c-0.7-0.7-1-1.6-1-2.8v-0.2c0-0.8,0.2-1.5,0.5-2.1c0.3-0.6,0.7-1.1,1.3-1.5
						c0.5-0.3,1.1-0.5,1.8-0.5c1,0,1.8,0.3,2.4,1c0.6,0.7,0.9,1.7,0.9,2.9v0.6h-5.4c0,0.8,0.2,1.4,0.7,1.9c0.4,0.5,1,0.7,1.7,0.7
						c0.5,0,0.9-0.1,1.2-0.3s0.6-0.5,0.9-0.8l0.8,0.6C4009.2-1440.7,4008.2-1440.2,4006.8-1440.2z M4006.7-1447.3
						c-0.5,0-1,0.2-1.4,0.6c-0.4,0.4-0.6,1-0.7,1.7h4v-0.1c0-0.7-0.2-1.2-0.6-1.6C4007.7-1447.1,4007.2-1447.3,4006.7-1447.3z"/>
					<path d="M4012.8-1448.2l0,0.9c0.6-0.7,1.4-1,2.4-1c1.1,0,1.9,0.4,2.3,1.3c0.3-0.4,0.6-0.7,1-0.9s0.9-0.4,1.5-0.4
						c1.7,0,2.6,0.9,2.7,2.8v5.3h-1.4v-5.2c0-0.6-0.1-1-0.4-1.3c-0.3-0.3-0.7-0.4-1.3-0.4c-0.5,0-0.9,0.2-1.3,0.5
						c-0.3,0.3-0.5,0.7-0.6,1.2v5.3h-1.4v-5.2c0-1.2-0.6-1.7-1.7-1.7c-0.9,0-1.5,0.4-1.8,1.1v5.8h-1.4v-7.9H4012.8z"/>
					<path d="M4031.4-1444.2c0,1.2-0.3,2.2-0.8,2.9c-0.6,0.7-1.3,1.1-2.2,1.1c-1,0-1.8-0.4-2.3-1.1l-0.1,0.9h-1.2v-11.2h1.4v4.2
						c0.5-0.7,1.3-1,2.3-1c1,0,1.7,0.4,2.3,1.1c0.6,0.7,0.8,1.7,0.8,3V-1444.2z M4030-1444.3c0-0.9-0.2-1.6-0.5-2.1
						c-0.4-0.5-0.9-0.8-1.5-0.8c-0.9,0-1.5,0.4-1.9,1.2v3.4c0.4,0.8,1.1,1.2,1.9,1.2c0.6,0,1.2-0.3,1.5-0.8S4030-1443.3,4030-1444.3
						z"/>
					<path d="M4036.9-1447c-0.2,0-0.4-0.1-0.7-0.1c-0.9,0-1.5,0.4-1.8,1.1v5.6h-1.4v-7.9h1.3l0,0.9c0.4-0.7,1.1-1.1,1.9-1.1
						c0.3,0,0.5,0,0.6,0.1V-1447z"/>
					<path d="M4037.6-1444.3c0-0.8,0.2-1.5,0.5-2.1c0.3-0.6,0.7-1.1,1.3-1.4c0.5-0.3,1.2-0.5,1.9-0.5c1.1,0,2,0.4,2.6,1.1
						c0.7,0.7,1,1.7,1,3v0.1c0,0.8-0.1,1.5-0.4,2.1c-0.3,0.6-0.7,1.1-1.3,1.4s-1.2,0.5-1.9,0.5c-1.1,0-1.9-0.4-2.6-1.1
						C4038-1442,4037.6-1443,4037.6-1444.3L4037.6-1444.3z M4039-1444.2c0,0.9,0.2,1.6,0.6,2.1c0.4,0.5,1,0.8,1.6,0.8
						c0.7,0,1.2-0.3,1.6-0.8c0.4-0.5,0.6-1.3,0.6-2.3c0-0.9-0.2-1.6-0.6-2.1c-0.4-0.5-1-0.8-1.6-0.8c-0.7,0-1.2,0.3-1.6,0.8
						C4039.2-1445.9,4039-1445.2,4039-1444.2z"/>
				</g>
				<g class="st6">
					<path d="M4053.1-1445.9l1.3-2.4h2.3l-2.3,3.9l2.4,4h-2.3l-1.4-2.5l-1.4,2.5h-2.3l2.4-4l-2.2-3.9h2.3L4053.1-1445.9z"/>
					<path d="M4062.1-1439.4h-1.6l3.9-11.6h1.6L4062.1-1439.4z"/>
				</g>
				<g class="st6">
					<path d="M4074.3-1445.1c-1.2-0.3-2.1-0.8-2.6-1.3c-0.5-0.5-0.8-1.1-0.8-1.9c0-0.8,0.3-1.5,1-2.1c0.7-0.5,1.5-0.8,2.6-0.8
						c0.7,0,1.4,0.1,2,0.4c0.6,0.3,1,0.7,1.3,1.2c0.3,0.5,0.5,1,0.5,1.6h-1.4c0-0.6-0.2-1.2-0.6-1.5s-1-0.6-1.7-0.6
						c-0.7,0-1.2,0.2-1.6,0.5c-0.4,0.3-0.6,0.7-0.6,1.3c0,0.4,0.2,0.8,0.6,1.1s1,0.6,1.9,0.8c0.9,0.2,1.6,0.5,2.1,0.8
						c0.5,0.3,0.9,0.7,1.1,1.1c0.2,0.4,0.4,0.9,0.4,1.4c0,0.9-0.3,1.6-1,2.1c-0.7,0.5-1.6,0.8-2.7,0.8c-0.7,0-1.4-0.1-2.1-0.4
						c-0.6-0.3-1.1-0.7-1.5-1.2c-0.3-0.5-0.5-1-0.5-1.7h1.4c0,0.6,0.2,1.2,0.7,1.5c0.5,0.4,1.1,0.6,1.9,0.6c0.7,0,1.3-0.2,1.7-0.5
						s0.6-0.7,0.6-1.2s-0.2-0.9-0.5-1.2C4076-1444.5,4075.3-1444.8,4074.3-1445.1z"/>
					<path d="M4084.8-1441.1c-0.5,0.6-1.3,0.9-2.3,0.9c-0.8,0-1.5-0.2-1.9-0.7c-0.4-0.5-0.7-1.2-0.7-2.2v-5.2h1.4v5.1
						c0,1.2,0.5,1.8,1.5,1.8c1,0,1.7-0.4,2.1-1.2v-5.8h1.4v7.9h-1.3L4084.8-1441.1z"/>
					<path d="M4094.9-1444.2c0,1.2-0.3,2.2-0.8,2.9c-0.6,0.7-1.3,1.1-2.2,1.1c-1,0-1.8-0.4-2.3-1.1l-0.1,0.9h-1.2v-11.2h1.4v4.2
						c0.5-0.7,1.3-1,2.3-1s1.7,0.4,2.3,1.1c0.5,0.7,0.8,1.7,0.8,3V-1444.2z M4093.5-1444.3c0-0.9-0.2-1.6-0.5-2.1s-0.9-0.8-1.5-0.8
						c-0.9,0-1.5,0.4-1.9,1.2v3.4c0.4,0.8,1.1,1.2,1.9,1.2c0.6,0,1.2-0.3,1.5-0.8S4093.5-1443.3,4093.5-1444.3z"/>
					<path d="M4101.2-1442.4c0-0.4-0.1-0.7-0.4-0.9c-0.3-0.2-0.8-0.4-1.4-0.5s-1.2-0.3-1.6-0.5s-0.7-0.4-0.9-0.7
						c-0.2-0.3-0.3-0.6-0.3-1c0-0.6,0.3-1.2,0.8-1.6s1.3-0.7,2.1-0.7c0.9,0,1.6,0.2,2.2,0.7c0.6,0.5,0.8,1.1,0.8,1.8h-1.4
						c0-0.4-0.2-0.7-0.5-1c-0.3-0.3-0.7-0.4-1.2-0.4c-0.5,0-0.9,0.1-1.2,0.3c-0.3,0.2-0.4,0.5-0.4,0.8c0,0.3,0.1,0.6,0.4,0.7
						c0.3,0.2,0.7,0.3,1.4,0.5c0.7,0.2,1.2,0.3,1.6,0.5s0.7,0.5,0.9,0.8c0.2,0.3,0.3,0.7,0.3,1.1c0,0.7-0.3,1.3-0.8,1.7
						c-0.6,0.4-1.3,0.6-2.2,0.6c-0.6,0-1.2-0.1-1.7-0.3s-0.9-0.5-1.1-0.9c-0.3-0.4-0.4-0.8-0.4-1.3h1.4c0,0.5,0.2,0.8,0.5,1.1
						c0.3,0.3,0.8,0.4,1.3,0.4c0.5,0,0.9-0.1,1.2-0.3C4101-1441.8,4101.2-1442.1,4101.2-1442.4z"/>
					<path d="M4104.3-1450.3c0-0.2,0.1-0.4,0.2-0.6c0.1-0.2,0.3-0.2,0.6-0.2s0.5,0.1,0.6,0.2c0.1,0.2,0.2,0.3,0.2,0.6
						c0,0.2-0.1,0.4-0.2,0.5s-0.3,0.2-0.6,0.2s-0.5-0.1-0.6-0.2S4104.3-1450.1,4104.3-1450.3z M4105.8-1440.3h-1.4v-7.9h1.4V-1440.3
						z"/>
					<path d="M4112.6-1442.4c0-0.4-0.1-0.7-0.4-0.9c-0.3-0.2-0.8-0.4-1.4-0.5c-0.7-0.1-1.2-0.3-1.6-0.5c-0.4-0.2-0.7-0.4-0.9-0.7
						s-0.3-0.6-0.3-1c0-0.6,0.3-1.2,0.8-1.6c0.5-0.4,1.3-0.7,2.1-0.7c0.9,0,1.6,0.2,2.2,0.7c0.6,0.5,0.8,1.1,0.8,1.8h-1.4
						c0-0.4-0.2-0.7-0.5-1c-0.3-0.3-0.7-0.4-1.2-0.4c-0.5,0-0.9,0.1-1.2,0.3s-0.4,0.5-0.4,0.8c0,0.3,0.1,0.6,0.4,0.7
						s0.7,0.3,1.4,0.5c0.7,0.2,1.2,0.3,1.6,0.5s0.7,0.5,0.9,0.8c0.2,0.3,0.3,0.7,0.3,1.1c0,0.7-0.3,1.3-0.8,1.7
						c-0.6,0.4-1.3,0.6-2.2,0.6c-0.6,0-1.2-0.1-1.7-0.3s-0.9-0.5-1.1-0.9c-0.3-0.4-0.4-0.8-0.4-1.3h1.4c0,0.5,0.2,0.8,0.5,1.1
						c0.3,0.3,0.8,0.4,1.3,0.4c0.5,0,0.9-0.1,1.2-0.3C4112.4-1441.8,4112.6-1442.1,4112.6-1442.4z"/>
					<path d="M4117.5-1450.2v1.9h1.5v1h-1.5v4.9c0,0.3,0.1,0.6,0.2,0.7c0.1,0.2,0.4,0.2,0.7,0.2c0.2,0,0.4,0,0.6-0.1v1.1
						c-0.4,0.1-0.7,0.1-1,0.1c-0.6,0-1.1-0.2-1.4-0.5c-0.3-0.4-0.5-0.9-0.5-1.6v-4.9h-1.4v-1h1.4v-1.9H4117.5z"/>
					<path d="M4123.9-1440.2c-1.1,0-1.9-0.4-2.6-1.1c-0.7-0.7-1-1.6-1-2.8v-0.2c0-0.8,0.1-1.5,0.5-2.1c0.3-0.6,0.7-1.1,1.3-1.5
						c0.5-0.3,1.1-0.5,1.8-0.5c1,0,1.8,0.3,2.4,1c0.6,0.7,0.9,1.7,0.9,2.9v0.6h-5.4c0,0.8,0.2,1.4,0.7,1.9c0.4,0.5,1,0.7,1.7,0.7
						c0.5,0,0.9-0.1,1.2-0.3s0.6-0.5,0.9-0.8l0.8,0.6C4126.2-1440.7,4125.2-1440.2,4123.9-1440.2z M4123.7-1447.3
						c-0.5,0-1,0.2-1.4,0.6c-0.4,0.4-0.6,1-0.7,1.7h4v-0.1c0-0.7-0.2-1.2-0.6-1.6C4124.7-1447.1,4124.3-1447.3,4123.7-1447.3z"/>
					<path d="M4129.8-1448.2l0,0.9c0.6-0.7,1.4-1,2.4-1c1.1,0,1.9,0.4,2.3,1.3c0.3-0.4,0.6-0.7,1-0.9s0.9-0.4,1.5-0.4
						c1.7,0,2.6,0.9,2.7,2.8v5.3h-1.4v-5.2c0-0.6-0.1-1-0.4-1.3c-0.3-0.3-0.7-0.4-1.3-0.4c-0.5,0-0.9,0.2-1.3,0.5
						c-0.3,0.3-0.5,0.7-0.6,1.2v5.3h-1.4v-5.2c0-1.2-0.6-1.7-1.7-1.7c-0.9,0-1.5,0.4-1.8,1.1v5.8h-1.4v-7.9H4129.8z"/>
					<path d="M4146.6-1440.3c-0.1-0.2-0.1-0.4-0.2-0.8c-0.6,0.7-1.4,1-2.3,1c-0.8,0-1.4-0.2-1.9-0.7c-0.5-0.4-0.8-1-0.8-1.7
						c0-0.8,0.3-1.5,0.9-1.9c0.6-0.5,1.5-0.7,2.6-0.7h1.3v-0.6c0-0.5-0.1-0.9-0.4-1.1c-0.3-0.3-0.7-0.4-1.3-0.4
						c-0.5,0-0.9,0.1-1.2,0.4c-0.3,0.2-0.5,0.5-0.5,0.9h-1.4c0-0.4,0.1-0.8,0.4-1.1c0.3-0.4,0.7-0.7,1.1-0.9c0.5-0.2,1-0.3,1.6-0.3
						c0.9,0,1.6,0.2,2.1,0.7c0.5,0.5,0.8,1.1,0.8,1.9v3.6c0,0.7,0.1,1.3,0.3,1.7v0.1H4146.6z M4144.3-1441.3c0.4,0,0.8-0.1,1.2-0.3
						s0.7-0.5,0.8-0.9v-1.6h-1.1c-1.7,0-2.5,0.5-2.5,1.5c0,0.4,0.1,0.8,0.4,1S4143.9-1441.3,4144.3-1441.3z"/>
				</g>
				<g class="st6">
					<path d="M4157.2-1446.2l2.2-4.8h2.4l-3.5,6.8v3.9h-2.2v-3.9l-3.5-6.8h2.4L4157.2-1446.2z"/>
				</g>
				<g id="Grupo_53840">
					<rect id="Rectángulo_5178" x="3583.9" y="-1519.4" width="80.2" height="2"/>
					<g id="Grupo_53839">
						<path id="Trazado_99699" d="M3657.5-1510.2l-1.4-1.5l7.2-6.7l-7.2-6.7l1.4-1.5l8.8,8.2L3657.5-1510.2z"/>
					</g>
				</g>
				<g id="Grupo_53842">
					<rect id="Rectángulo_5179" x="3752.3" y="-1519.4" width="213.5" height="2"/>
					<g id="Grupo_53841">
						<path id="Trazado_99700" d="M3959.1-1510.2l-1.4-1.5l7.2-6.7l-7.2-6.7l1.4-1.5l8.8,8.2L3959.1-1510.2z"/>
					</g>
				</g>
				<g id="Grupo_53844">
					<rect id="Rectángulo_5180" x="4067.8" y="-1519.4" width="213.5" height="2"/>
					<g id="Grupo_53843">
						<path id="Trazado_99701" d="M4274.6-1510.2l-1.4-1.5l7.2-6.7l-7.2-6.7l1.4-1.5l8.8,8.2L4274.6-1510.2z"/>
					</g>
				</g>
				<g id="Grupo_53846">
					<path id="Trazado_99702" d="M3958.8-1398.6l-2.3-1.2l0.9-1.8l2.3,1.2L3958.8-1398.6z M3952.1-1402.2l-2.6-1.4l0.9-1.8l2.6,1.4
						L3952.1-1402.2z M3945-1405.9l-2.6-1.4l0.9-1.8l2.6,1.4L3945-1405.9z M3938-1409.7l-2.6-1.4l0.9-1.8l2.6,1.4L3938-1409.7z
						 M3930.9-1413.5l-2.6-1.4l0.9-1.8l2.6,1.4L3930.9-1413.5z M3923.9-1417.2l-2.6-1.4l0.9-1.8l2.6,1.4L3923.9-1417.2z
						 M3916.8-1421l-2.6-1.4l0.9-1.8l2.6,1.4L3916.8-1421z M3909.7-1424.8l-2.6-1.4l0.9-1.8l2.6,1.4L3909.7-1424.8z M3902.7-1428.5
						l-2.6-1.4l0.9-1.8l2.6,1.4L3902.7-1428.5z M3895.6-1432.3l-2.6-1.4l0.9-1.8l2.6,1.4L3895.6-1432.3z M3888.6-1436.1l-2.6-1.4
						l0.9-1.8l2.6,1.4L3888.6-1436.1z M3881.5-1439.8l-2.6-1.4l0.9-1.8l2.6,1.4L3881.5-1439.8z M3874.4-1443.6l-2.6-1.4l0.9-1.8
						l2.6,1.4L3874.4-1443.6z M3867.4-1447.4l-2.6-1.4l0.9-1.8l2.6,1.4L3867.4-1447.4z M3860.3-1451.1l-2.6-1.4l0.9-1.8l2.6,1.4
						L3860.3-1451.1z M3853.3-1454.9l-2.6-1.4l0.9-1.8l2.6,1.4L3853.3-1454.9z M3846.2-1458.6l-2.6-1.4l0.9-1.8l2.6,1.4
						L3846.2-1458.6z M3839.2-1462.4l-2.6-1.4l0.9-1.8l2.6,1.4L3839.2-1462.4z M3832.1-1466.2l-2.6-1.4l0.9-1.8l2.6,1.4
						L3832.1-1466.2z M3825-1469.9l-2.6-1.4l0.9-1.8l2.6,1.4L3825-1469.9z M3818-1473.7l-2.6-1.4l0.9-1.8l2.6,1.4L3818-1473.7z
						 M3810.9-1477.5l-2.6-1.4l0.9-1.8l2.6,1.4L3810.9-1477.5z M3803.9-1481.2l-2.6-1.4l0.9-1.8l2.6,1.4L3803.9-1481.2z
						 M3796.8-1485l-2.6-1.4l0.9-1.8l2.6,1.4L3796.8-1485z M3789.7-1488.8l-2.6-1.4l0.9-1.8l2.6,1.4L3789.7-1488.8z M3782.7-1492.5
						l-2.6-1.4l0.9-1.8l2.6,1.4L3782.7-1492.5z M3775.6-1496.3l-2.6-1.4l0.9-1.8l2.6,1.4L3775.6-1496.3z M3768.6-1500.1l-2.6-1.4
						l0.9-1.8l2.6,1.4L3768.6-1500.1z M3761.5-1503.8l-2.6-1.4l0.9-1.8l2.6,1.4L3761.5-1503.8z M3754.4-1507.6l-2.6-1.4l0.9-1.8
						l2.6,1.4L3754.4-1507.6z"/>
					<g id="Grupo_53845">
						<path id="Trazado_99703" d="M3949.6-1395.4l-0.5-1.9l9.5-2.5l-3.2-9.3l1.9-0.7l3.9,11.4L3949.6-1395.4z"/>
					</g>
				</g>
				<g id="Grupo_53848">
					<path id="Trazado_99704" d="M4280.7-1542l-2.3-1.2l0.9-1.8l2.3,1.2L4280.7-1542z M4274-1545.6l-2.6-1.4l0.9-1.8l2.6,1.4
						L4274-1545.6z M4266.9-1549.4l-2.6-1.4l0.9-1.8l2.6,1.4L4266.9-1549.4z M4259.9-1553.1l-2.6-1.4l0.9-1.8l2.6,1.4L4259.9-1553.1
						z M4252.8-1556.9l-2.6-1.4l0.9-1.8l2.6,1.4L4252.8-1556.9z M4245.7-1560.7l-2.6-1.4l0.9-1.8l2.6,1.4L4245.7-1560.7z
						 M4238.7-1564.4l-2.6-1.4l0.9-1.8l2.6,1.4L4238.7-1564.4z M4231.6-1568.2l-2.6-1.4l0.9-1.8l2.6,1.4L4231.6-1568.2z
						 M4224.6-1572l-2.6-1.4l0.9-1.8l2.6,1.4L4224.6-1572z M4217.5-1575.7l-2.6-1.4l0.9-1.8l2.6,1.4L4217.5-1575.7z M4210.4-1579.5
						l-2.6-1.4l0.9-1.8l2.6,1.4L4210.4-1579.5z M4203.4-1583.3l-2.6-1.4l0.9-1.8l2.6,1.4L4203.4-1583.3z M4196.3-1587l-2.6-1.4
						l0.9-1.8l2.6,1.4L4196.3-1587z M4189.3-1590.8l-2.6-1.4l0.9-1.8l2.6,1.4L4189.3-1590.8z M4182.2-1594.6l-2.6-1.4l0.9-1.8
						l2.6,1.4L4182.2-1594.6z M4175.1-1598.3l-2.6-1.4l0.9-1.8l2.6,1.4L4175.1-1598.3z M4168.1-1602.1l-2.6-1.4l0.9-1.8l2.6,1.4
						L4168.1-1602.1z M4161-1605.8l-2.6-1.4l0.9-1.8l2.6,1.4L4161-1605.8z M4154-1609.6l-2.6-1.4l0.9-1.8l2.6,1.4L4154-1609.6z
						 M4146.9-1613.4l-2.6-1.4l0.9-1.8l2.6,1.4L4146.9-1613.4z M4139.8-1617.1l-2.6-1.4l0.9-1.8l2.6,1.4L4139.8-1617.1z
						 M4132.8-1620.9l-2.6-1.4l0.9-1.8l2.6,1.4L4132.8-1620.9z M4125.7-1624.7l-2.6-1.4l0.9-1.8l2.6,1.4L4125.7-1624.7z
						 M4118.7-1628.4l-2.6-1.4l0.9-1.8l2.6,1.4L4118.7-1628.4z M4111.6-1632.2l-2.6-1.4l0.9-1.8l2.6,1.4L4111.6-1632.2z
						 M4104.6-1636l-2.6-1.4l0.9-1.8l2.6,1.4L4104.6-1636z M4097.5-1639.7l-2.6-1.4l0.9-1.8l2.6,1.4L4097.5-1639.7z M4090.4-1643.5
						l-2.6-1.4l0.9-1.8l2.6,1.4L4090.4-1643.5z M4083.4-1647.3l-2.6-1.4l0.9-1.8l2.6,1.4L4083.4-1647.3z M4076.3-1651l-2.6-1.4
						l0.9-1.8l2.6,1.4L4076.3-1651z"/>
					<g id="Grupo_53847">
						<path id="Trazado_99705" d="M4271.5-1538.8l-0.5-1.9l9.5-2.5l-3.2-9.3l1.9-0.7l3.9,11.4L4271.5-1538.8z"/>
					</g>
				</g>
				<g id="Grupo_53850">
					<path id="Trazado_99706" d="M3752.7-1525.9l-0.9-1.8l2.6-1.4l0.9,1.8L3752.7-1525.9z M3759.8-1529.7l-0.9-1.8l2.6-1.4l0.9,1.8
						L3759.8-1529.7z M3766.9-1533.5l-0.9-1.8l2.6-1.4l0.9,1.8L3766.9-1533.5z M3773.9-1537.2l-0.9-1.8l2.6-1.4l0.9,1.8
						L3773.9-1537.2z M3781-1541l-0.9-1.8l2.6-1.4l0.9,1.8L3781-1541z M3788-1544.8l-0.9-1.8l2.6-1.4l0.9,1.8L3788-1544.8z
						 M3795.1-1548.5l-0.9-1.8l2.6-1.4l0.9,1.8L3795.1-1548.5z M3802.2-1552.3l-0.9-1.8l2.6-1.4l0.9,1.8L3802.2-1552.3z
						 M3809.2-1556.1l-0.9-1.8l2.6-1.4l0.9,1.8L3809.2-1556.1z M3816.3-1559.8l-0.9-1.8l2.6-1.4l0.9,1.8L3816.3-1559.8z
						 M3823.3-1563.6l-0.9-1.8l2.6-1.4l0.9,1.8L3823.3-1563.6z M3830.4-1567.4l-0.9-1.8l2.6-1.4l0.9,1.8L3830.4-1567.4z
						 M3837.4-1571.1l-0.9-1.8l2.6-1.4l0.9,1.8L3837.4-1571.1z M3844.5-1574.9l-0.9-1.8l2.6-1.4l0.9,1.8L3844.5-1574.9z
						 M3851.6-1578.7l-0.9-1.8l2.6-1.4l0.9,1.8L3851.6-1578.7z M3858.6-1582.4l-0.9-1.8l2.6-1.4l0.9,1.8L3858.6-1582.4z
						 M3865.7-1586.2l-0.9-1.8l2.6-1.4l0.9,1.8L3865.7-1586.2z M3872.7-1589.9l-0.9-1.8l2.6-1.4l0.9,1.8L3872.7-1589.9z
						 M3879.8-1593.7l-0.9-1.8l2.6-1.4l0.9,1.8L3879.8-1593.7z M3886.9-1597.5l-0.9-1.8l2.6-1.4l0.9,1.8L3886.9-1597.5z
						 M3893.9-1601.2l-0.9-1.8l2.6-1.4l0.9,1.8L3893.9-1601.2z M3901-1605l-0.9-1.8l2.6-1.4l0.9,1.8L3901-1605z M3908-1608.8
						l-0.9-1.8l2.6-1.4l0.9,1.8L3908-1608.8z M3915.1-1612.5l-0.9-1.8l2.6-1.4l0.9,1.8L3915.1-1612.5z M3922.2-1616.3l-0.9-1.8
						l2.6-1.4l0.9,1.8L3922.2-1616.3z M3929.2-1620.1l-0.9-1.8l2.6-1.4l0.9,1.8L3929.2-1620.1z M3936.3-1623.8l-0.9-1.8l2.6-1.4
						l0.9,1.8L3936.3-1623.8z M3943.3-1627.6l-0.9-1.8l2.6-1.4l0.9,1.8L3943.3-1627.6z M3950.4-1631.4l-0.9-1.8l2.6-1.4l0.9,1.8
						L3950.4-1631.4z M3957.5-1635.1l-0.9-1.8l2.3-1.2l0.9,1.8L3957.5-1635.1z"/>
					<g id="Grupo_53849">
						<path id="Trazado_99707" d="M3957.3-1626.9l-1.9-0.7l3.2-9.3l-9.5-2.5l0.5-1.9l11.6,3.1L3957.3-1626.9z"/>
					</g>
				</g>
				<g id="Grupo_53852">
					<path id="Trazado_99708" d="M4074.6-1374.2l-0.9-1.8l2.6-1.4l0.9,1.8L4074.6-1374.2z M4081.7-1377.9l-0.9-1.8l2.6-1.4l0.9,1.8
						L4081.7-1377.9z M4088.7-1381.7l-0.9-1.8l2.6-1.4l0.9,1.8L4088.7-1381.7z M4095.8-1385.4l-0.9-1.8l2.6-1.4l0.9,1.8
						L4095.8-1385.4z M4102.9-1389.2l-0.9-1.8l2.6-1.4l0.9,1.8L4102.9-1389.2z M4109.9-1393l-0.9-1.8l2.6-1.4l0.9,1.8L4109.9-1393z
						 M4117-1396.7l-0.9-1.8l2.6-1.4l0.9,1.8L4117-1396.7z M4124-1400.5l-0.9-1.8l2.6-1.4l0.9,1.8L4124-1400.5z M4131.1-1404.3
						l-0.9-1.8l2.6-1.4l0.9,1.8L4131.1-1404.3z M4138.1-1408l-0.9-1.8l2.6-1.4l0.9,1.8L4138.1-1408z M4145.2-1411.8l-0.9-1.8
						l2.6-1.4l0.9,1.8L4145.2-1411.8z M4152.3-1415.6l-0.9-1.8l2.6-1.4l0.9,1.8L4152.3-1415.6z M4159.3-1419.3l-0.9-1.8l2.6-1.4
						l0.9,1.8L4159.3-1419.3z M4166.4-1423.1l-0.9-1.8l2.6-1.4l0.9,1.8L4166.4-1423.1z M4173.4-1426.9l-0.9-1.8l2.6-1.4l0.9,1.8
						L4173.4-1426.9z M4180.5-1430.6l-0.9-1.8l2.6-1.4l0.9,1.8L4180.5-1430.6z M4187.6-1434.4l-0.9-1.8l2.6-1.4l0.9,1.8
						L4187.6-1434.4z M4194.6-1438.2l-0.9-1.8l2.6-1.4l0.9,1.8L4194.6-1438.2z M4201.7-1441.9l-0.9-1.8l2.6-1.4l0.9,1.8
						L4201.7-1441.9z M4208.7-1445.7l-0.9-1.8l2.6-1.4l0.9,1.8L4208.7-1445.7z M4215.8-1449.4l-0.9-1.8l2.6-1.4l0.9,1.8
						L4215.8-1449.4z M4222.9-1453.2l-0.9-1.8l2.6-1.4l0.9,1.8L4222.9-1453.2z M4229.9-1457l-0.9-1.8l2.6-1.4l0.9,1.8L4229.9-1457z
						 M4237-1460.7l-0.9-1.8l2.6-1.4l0.9,1.8L4237-1460.7z M4244-1464.5l-0.9-1.8l2.6-1.4l0.9,1.8L4244-1464.5z M4251.1-1468.3
						l-0.9-1.8l2.6-1.4l0.9,1.8L4251.1-1468.3z M4258.1-1472l-0.9-1.8l2.6-1.4l0.9,1.8L4258.1-1472z M4265.2-1475.8l-0.9-1.8
						l2.6-1.4l0.9,1.8L4265.2-1475.8z M4272.3-1479.6l-0.9-1.8l2.6-1.4l0.9,1.8L4272.3-1479.6z M4279.3-1483.3l-0.9-1.8l2.3-1.2
						l0.9,1.8L4279.3-1483.3z"/>
					<g id="Grupo_53851">
						<path id="Trazado_99709" d="M4279.2-1475.1l-1.9-0.7l3.2-9.3l-9.5-2.5l0.5-1.9l11.6,3.1L4279.2-1475.1z"/>
					</g>
				</g>
			</g>
		</g>
	</g>
	<g id="Grupo_53878" transform="translate(-3151.411 2977.937)">
		<g id="Capa_2_1_">
			<path id="Rectángulo_5202" class="st7" d="M3724.6-1338.3h-195.5c-8.7,0-15.8-7.1-15.8-15.8v-48.8l0,0h227.1l0,0v48.8
				C3740.4-1345.4,3733.3-1338.3,3724.6-1338.3z"/>
		</g>
		<g id="Capa_1-2">
			<g class="st6">
				<path class="st4" d="M3543.3-1373.2c0-0.4-0.1-0.7-0.4-1c-0.3-0.2-0.8-0.5-1.6-0.7c-0.8-0.2-1.4-0.5-1.8-0.7
					c-1.2-0.7-1.8-1.5-1.8-2.6c0-0.6,0.2-1.1,0.5-1.5c0.3-0.5,0.8-0.8,1.4-1.1c0.6-0.3,1.3-0.4,2-0.4c0.8,0,1.4,0.1,2,0.4
					c0.6,0.3,1.1,0.7,1.4,1.2c0.3,0.5,0.5,1.1,0.5,1.7h-2.2c0-0.5-0.2-0.9-0.5-1.1c-0.3-0.3-0.7-0.4-1.3-0.4c-0.5,0-1,0.1-1.3,0.3
					c-0.3,0.2-0.4,0.5-0.4,0.9c0,0.3,0.2,0.6,0.5,0.9c0.3,0.2,0.9,0.5,1.5,0.7c1.2,0.4,2.2,0.8,2.7,1.4s0.9,1.2,0.9,2.1
					c0,0.9-0.3,1.6-1,2.2c-0.7,0.5-1.6,0.8-2.8,0.8c-0.8,0-1.6-0.2-2.2-0.5c-0.7-0.3-1.2-0.7-1.5-1.2c-0.4-0.5-0.5-1.1-0.5-1.8h2.2
					c0,1.2,0.7,1.8,2.1,1.8c0.5,0,0.9-0.1,1.2-0.3C3543.1-1372.5,3543.3-1372.8,3543.3-1373.2z"/>
				<path class="st4" d="M3549.3-1370.4h-2.2v-10.7h2.2V-1370.4z"/>
				<path class="st4" d="M3551.3-1377.5c0-0.3,0.1-0.6,0.3-0.8c0.2-0.2,0.5-0.3,0.9-0.3c0.3,0,0.6,0.1,0.9,0.3
					c0.2,0.2,0.3,0.5,0.3,0.8c0,0.3-0.1,0.6-0.3,0.8c-0.2,0.2-0.5,0.3-0.9,0.3c-0.3,0-0.6-0.1-0.9-0.3
					C3551.4-1376.9,3551.3-1377.1,3551.3-1377.5z M3551.3-1371.5c0-0.3,0.1-0.6,0.3-0.8c0.2-0.2,0.5-0.3,0.9-0.3
					c0.3,0,0.6,0.1,0.9,0.3c0.2,0.2,0.3,0.5,0.3,0.8c0,0.3-0.1,0.6-0.3,0.8c-0.2,0.2-0.5,0.3-0.9,0.3c-0.3,0-0.6-0.1-0.9-0.3
					C3551.4-1370.9,3551.3-1371.1,3551.3-1371.5z"/>
			</g>
			<g class="st6">
				<path class="st4" d="M3562.7-1375.2c-1.2-0.3-2.1-0.8-2.6-1.3c-0.5-0.5-0.8-1.1-0.8-1.9c0-0.8,0.3-1.5,1-2.1
					c0.7-0.5,1.5-0.8,2.6-0.8c0.7,0,1.4,0.1,2,0.4c0.6,0.3,1,0.7,1.3,1.2c0.3,0.5,0.5,1,0.5,1.6h-1.4c0-0.6-0.2-1.2-0.6-1.5
					s-1-0.6-1.7-0.6c-0.7,0-1.2,0.2-1.6,0.5c-0.4,0.3-0.6,0.7-0.6,1.3c0,0.4,0.2,0.8,0.6,1.1c0.4,0.3,1,0.6,1.9,0.8
					c0.9,0.2,1.6,0.5,2.1,0.8c0.5,0.3,0.9,0.7,1.1,1.1c0.2,0.4,0.4,0.9,0.4,1.4c0,0.9-0.3,1.6-1,2.1c-0.7,0.5-1.6,0.8-2.7,0.8
					c-0.7,0-1.4-0.1-2.1-0.4c-0.6-0.3-1.1-0.7-1.5-1.2c-0.3-0.5-0.5-1-0.5-1.7h1.4c0,0.6,0.2,1.2,0.7,1.5c0.5,0.4,1.1,0.6,1.9,0.6
					c0.7,0,1.3-0.2,1.7-0.5s0.6-0.7,0.6-1.2s-0.2-0.9-0.5-1.2C3564.3-1374.6,3563.7-1374.9,3562.7-1375.2z"/>
				<path class="st4" d="M3568.3-1380.5c0-0.2,0.1-0.4,0.2-0.6c0.1-0.2,0.3-0.2,0.6-0.2s0.5,0.1,0.6,0.2c0.1,0.2,0.2,0.3,0.2,0.6
					c0,0.2-0.1,0.4-0.2,0.5s-0.3,0.2-0.6,0.2s-0.5-0.1-0.6-0.2C3568.3-1380,3568.3-1380.2,3568.3-1380.5z M3569.7-1370.4h-1.4v-7.9
					h1.4V-1370.4z"/>
				<path class="st4" d="M3576.5-1372.5c0-0.4-0.1-0.7-0.4-0.9c-0.3-0.2-0.8-0.4-1.4-0.5c-0.7-0.1-1.2-0.3-1.6-0.5
					c-0.4-0.2-0.7-0.4-0.9-0.7c-0.2-0.3-0.3-0.6-0.3-1c0-0.6,0.3-1.2,0.8-1.6c0.5-0.4,1.3-0.7,2.1-0.7c0.9,0,1.6,0.2,2.2,0.7
					c0.6,0.5,0.8,1.1,0.8,1.8h-1.4c0-0.4-0.2-0.7-0.5-1c-0.3-0.3-0.7-0.4-1.2-0.4c-0.5,0-0.9,0.1-1.2,0.3s-0.4,0.5-0.4,0.8
					c0,0.3,0.1,0.6,0.4,0.7s0.7,0.3,1.4,0.5c0.7,0.2,1.2,0.3,1.6,0.5s0.7,0.5,0.9,0.8c0.2,0.3,0.3,0.7,0.3,1.1
					c0,0.7-0.3,1.3-0.8,1.7c-0.6,0.4-1.3,0.6-2.2,0.6c-0.6,0-1.2-0.1-1.7-0.3s-0.9-0.5-1.1-0.9c-0.3-0.4-0.4-0.8-0.4-1.3h1.4
					c0,0.5,0.2,0.8,0.5,1.1c0.3,0.3,0.8,0.4,1.3,0.4c0.5,0,0.9-0.1,1.2-0.3C3576.4-1371.9,3576.5-1372.2,3576.5-1372.5z"/>
				<path class="st4" d="M3581.5-1380.3v1.9h1.5v1h-1.5v4.9c0,0.3,0.1,0.6,0.2,0.7c0.1,0.2,0.4,0.2,0.7,0.2c0.2,0,0.4,0,0.6-0.1v1.1
					c-0.4,0.1-0.7,0.1-1,0.1c-0.6,0-1.1-0.2-1.4-0.5c-0.3-0.4-0.5-0.9-0.5-1.6v-4.9h-1.4v-1h1.4v-1.9H3581.5z"/>
				<path class="st4" d="M3587.8-1370.3c-1.1,0-1.9-0.4-2.6-1.1c-0.7-0.7-1-1.6-1-2.8v-0.2c0-0.8,0.1-1.5,0.5-2.1
					c0.3-0.6,0.7-1.1,1.3-1.5c0.5-0.3,1.1-0.5,1.8-0.5c1,0,1.8,0.3,2.4,1s0.9,1.7,0.9,2.9v0.6h-5.4c0,0.8,0.2,1.4,0.7,1.9
					c0.4,0.5,1,0.7,1.7,0.7c0.5,0,0.9-0.1,1.2-0.3s0.6-0.5,0.9-0.8l0.8,0.6C3590.1-1370.8,3589.1-1370.3,3587.8-1370.3z
					 M3587.7-1377.4c-0.5,0-1,0.2-1.4,0.6c-0.4,0.4-0.6,1-0.7,1.7h4v-0.1c0-0.7-0.2-1.2-0.6-1.6
					C3588.7-1377.2,3588.2-1377.4,3587.7-1377.4z"/>
				<path class="st4" d="M3593.8-1378.3l0,0.9c0.6-0.7,1.4-1,2.4-1c1.1,0,1.9,0.4,2.3,1.3c0.3-0.4,0.6-0.7,1-0.9
					c0.4-0.2,0.9-0.4,1.5-0.4c1.7,0,2.6,0.9,2.7,2.8v5.3h-1.4v-5.2c0-0.6-0.1-1-0.4-1.3c-0.3-0.3-0.7-0.4-1.3-0.4
					c-0.5,0-0.9,0.2-1.3,0.5c-0.3,0.3-0.5,0.7-0.6,1.2v5.3h-1.4v-5.2c0-1.2-0.6-1.7-1.7-1.7c-0.9,0-1.5,0.4-1.8,1.1v5.8h-1.4v-7.9
					H3593.8z"/>
				<path class="st4" d="M3610.5-1370.4c-0.1-0.2-0.1-0.4-0.2-0.8c-0.6,0.7-1.4,1-2.3,1c-0.8,0-1.4-0.2-1.9-0.7
					c-0.5-0.4-0.8-1-0.8-1.7c0-0.8,0.3-1.5,0.9-1.9c0.6-0.5,1.5-0.7,2.6-0.7h1.3v-0.6c0-0.5-0.1-0.9-0.4-1.1
					c-0.3-0.3-0.7-0.4-1.3-0.4c-0.5,0-0.9,0.1-1.2,0.4s-0.5,0.5-0.5,0.9h-1.4c0-0.4,0.1-0.8,0.4-1.1c0.3-0.4,0.7-0.7,1.1-0.9
					c0.5-0.2,1-0.3,1.6-0.3c0.9,0,1.6,0.2,2.1,0.7c0.5,0.5,0.8,1.1,0.8,1.9v3.6c0,0.7,0.1,1.3,0.3,1.7v0.1H3610.5z M3608.3-1371.5
					c0.4,0,0.8-0.1,1.2-0.3s0.7-0.5,0.8-0.9v-1.6h-1.1c-1.7,0-2.5,0.5-2.5,1.5c0,0.4,0.1,0.8,0.4,1S3607.8-1371.5,3608.3-1371.5z"/>
				<path class="st4" d="M3617.2-1374.5c0-1.2,0.3-2.2,0.9-2.9c0.6-0.7,1.3-1.1,2.3-1.1c0.9,0,1.7,0.3,2.2,1v-4.1h1.4v11.2h-1.2
					l-0.1-0.8c-0.5,0.7-1.3,1-2.3,1c-0.9,0-1.7-0.4-2.2-1.1c-0.6-0.8-0.9-1.7-0.9-2.9V-1374.5z M3618.5-1374.3
					c0,0.9,0.2,1.6,0.6,2.1c0.4,0.5,0.9,0.8,1.5,0.8c0.9,0,1.5-0.4,1.9-1.2v-3.6c-0.4-0.7-1-1.1-1.9-1.1c-0.7,0-1.2,0.3-1.6,0.8
					S3618.5-1375.3,3618.5-1374.3z"/>
				<path class="st4" d="M3629.2-1370.3c-1.1,0-1.9-0.4-2.6-1.1c-0.7-0.7-1-1.6-1-2.8v-0.2c0-0.8,0.1-1.5,0.5-2.1
					c0.3-0.6,0.7-1.1,1.3-1.5c0.5-0.3,1.1-0.5,1.8-0.5c1,0,1.8,0.3,2.4,1s0.9,1.7,0.9,2.9v0.6h-5.4c0,0.8,0.2,1.4,0.7,1.9
					c0.4,0.5,1,0.7,1.7,0.7c0.5,0,0.9-0.1,1.2-0.3s0.6-0.5,0.9-0.8l0.8,0.6C3631.6-1370.8,3630.6-1370.3,3629.2-1370.3z
					 M3629.1-1377.4c-0.5,0-1,0.2-1.4,0.6c-0.4,0.4-0.6,1-0.7,1.7h4v-0.1c0-0.7-0.2-1.2-0.6-1.6
					C3630.1-1377.2,3629.6-1377.4,3629.1-1377.4z"/>
				<path class="st4" d="M3637.6-1380.5c0-0.2,0.1-0.4,0.2-0.6c0.1-0.2,0.3-0.2,0.6-0.2s0.5,0.1,0.6,0.2c0.1,0.2,0.2,0.3,0.2,0.6
					c0,0.2-0.1,0.4-0.2,0.5s-0.3,0.2-0.6,0.2s-0.5-0.1-0.6-0.2C3637.7-1380,3637.6-1380.2,3637.6-1380.5z M3639.1-1370.4h-1.4v-7.9
					h1.4V-1370.4z"/>
				<path class="st4" d="M3642.5-1378.3l0,1c0.6-0.8,1.4-1.1,2.4-1.1c1.7,0,2.5,0.9,2.5,2.8v5.2h-1.4v-5.2c0-0.6-0.1-1-0.4-1.3
					c-0.3-0.3-0.7-0.4-1.2-0.4c-0.4,0-0.8,0.1-1.2,0.4s-0.6,0.5-0.8,0.9v5.6h-1.4v-7.9H3642.5z"/>
				<path class="st4" d="M3650.2-1370.4v-6.9h-1.3v-1h1.3v-0.8c0-0.8,0.2-1.5,0.7-2s1.1-0.7,1.9-0.7c0.3,0,0.6,0,0.9,0.1l-0.1,1.1
					c-0.2,0-0.5-0.1-0.7-0.1c-0.4,0-0.8,0.1-1,0.4s-0.4,0.6-0.4,1.1v0.8h1.7v1h-1.7v6.9H3650.2z"/>
				<path class="st4" d="M3654.4-1374.5c0-0.8,0.2-1.5,0.5-2.1c0.3-0.6,0.7-1.1,1.3-1.4c0.5-0.3,1.2-0.5,1.9-0.5
					c1.1,0,2,0.4,2.6,1.1c0.7,0.7,1,1.7,1,3v0.1c0,0.8-0.1,1.5-0.4,2.1c-0.3,0.6-0.7,1.1-1.3,1.4c-0.5,0.3-1.2,0.5-1.9,0.5
					c-1.1,0-1.9-0.4-2.6-1.1C3654.7-1372.1,3654.4-1373.1,3654.4-1374.5L3654.4-1374.5z M3655.7-1374.3c0,0.9,0.2,1.6,0.6,2.1
					c0.4,0.5,1,0.8,1.6,0.8c0.7,0,1.2-0.3,1.6-0.8c0.4-0.5,0.6-1.3,0.6-2.3c0-0.9-0.2-1.6-0.6-2.1c-0.4-0.5-1-0.8-1.6-0.8
					c-0.7,0-1.2,0.3-1.6,0.8C3655.9-1376.1,3655.7-1375.3,3655.7-1374.3z"/>
				<path class="st4" d="M3667.1-1377.1c-0.2,0-0.4-0.1-0.7-0.1c-0.9,0-1.5,0.4-1.8,1.1v5.6h-1.4v-7.9h1.3l0,0.9
					c0.4-0.7,1.1-1.1,1.9-1.1c0.3,0,0.5,0,0.6,0.1V-1377.1z"/>
				<path class="st4" d="M3669.6-1378.3l0,0.9c0.6-0.7,1.4-1,2.4-1c1.1,0,1.9,0.4,2.3,1.3c0.3-0.4,0.6-0.7,1-0.9
					c0.4-0.2,0.9-0.4,1.5-0.4c1.7,0,2.6,0.9,2.7,2.8v5.3h-1.4v-5.2c0-0.6-0.1-1-0.4-1.3c-0.3-0.3-0.7-0.4-1.3-0.4
					c-0.5,0-0.9,0.2-1.3,0.5c-0.3,0.3-0.5,0.7-0.6,1.2v5.3h-1.4v-5.2c0-1.2-0.6-1.7-1.7-1.7c-0.9,0-1.5,0.4-1.8,1.1v5.8h-1.4v-7.9
					H3669.6z"/>
				<path class="st4" d="M3686.4-1370.4c-0.1-0.2-0.1-0.4-0.2-0.8c-0.6,0.7-1.4,1-2.3,1c-0.8,0-1.4-0.2-1.9-0.7
					c-0.5-0.4-0.8-1-0.8-1.7c0-0.8,0.3-1.5,0.9-1.9c0.6-0.5,1.5-0.7,2.6-0.7h1.3v-0.6c0-0.5-0.1-0.9-0.4-1.1
					c-0.3-0.3-0.7-0.4-1.3-0.4c-0.5,0-0.9,0.1-1.2,0.4s-0.5,0.5-0.5,0.9h-1.4c0-0.4,0.1-0.8,0.4-1.1c0.3-0.4,0.7-0.7,1.1-0.9
					c0.5-0.2,1-0.3,1.6-0.3c0.9,0,1.6,0.2,2.1,0.7c0.5,0.5,0.8,1.1,0.8,1.9v3.6c0,0.7,0.1,1.3,0.3,1.7v0.1H3686.4z M3684.2-1371.5
					c0.4,0,0.8-0.1,1.2-0.3s0.7-0.5,0.8-0.9v-1.6h-1.1c-1.7,0-2.5,0.5-2.5,1.5c0,0.4,0.1,0.8,0.4,1S3683.7-1371.5,3684.2-1371.5z"/>
				<path class="st4" d="M3692.9-1371.4c0.5,0,0.9-0.1,1.3-0.4s0.6-0.7,0.6-1.1h1.3c0,0.5-0.2,0.9-0.5,1.3s-0.7,0.7-1.2,1
					c-0.5,0.2-1,0.4-1.5,0.4c-1.1,0-1.9-0.4-2.6-1.1c-0.6-0.7-1-1.7-1-3v-0.2c0-0.8,0.1-1.5,0.4-2.1c0.3-0.6,0.7-1.1,1.2-1.4
					c0.5-0.3,1.2-0.5,1.9-0.5c0.9,0,1.6,0.3,2.2,0.8c0.6,0.5,0.9,1.2,0.9,2.1h-1.3c0-0.5-0.2-0.9-0.6-1.3c-0.3-0.3-0.8-0.5-1.3-0.5
					c-0.7,0-1.2,0.2-1.6,0.7c-0.4,0.5-0.6,1.2-0.6,2.2v0.3c0,0.9,0.2,1.6,0.6,2.1S3692.2-1371.4,3692.9-1371.4z"/>
				<path class="st4" d="M3697.5-1380.5c0-0.2,0.1-0.4,0.2-0.6c0.1-0.2,0.3-0.2,0.6-0.2s0.5,0.1,0.6,0.2c0.1,0.2,0.2,0.3,0.2,0.6
					c0,0.2-0.1,0.4-0.2,0.5s-0.3,0.2-0.6,0.2s-0.5-0.1-0.6-0.2C3697.6-1380,3697.5-1380.2,3697.5-1380.5z M3699-1370.4h-1.4v-7.9
					h1.4V-1370.4z"/>
				<path class="st4" d="M3700.8-1374.5c0-0.8,0.2-1.5,0.5-2.1c0.3-0.6,0.7-1.1,1.3-1.4c0.5-0.3,1.2-0.5,1.9-0.5
					c1.1,0,2,0.4,2.6,1.1c0.7,0.7,1,1.7,1,3v0.1c0,0.8-0.1,1.5-0.4,2.1c-0.3,0.6-0.7,1.1-1.3,1.4c-0.5,0.3-1.2,0.5-1.9,0.5
					c-1.1,0-1.9-0.4-2.6-1.1C3701.1-1372.1,3700.8-1373.1,3700.8-1374.5L3700.8-1374.5z M3702.2-1374.3c0,0.9,0.2,1.6,0.6,2.1
					c0.4,0.5,1,0.8,1.6,0.8c0.7,0,1.2-0.3,1.6-0.8c0.4-0.5,0.6-1.3,0.6-2.3c0-0.9-0.2-1.6-0.6-2.1c-0.4-0.5-1-0.8-1.6-0.8
					c-0.7,0-1.2,0.3-1.6,0.8C3702.4-1376.1,3702.2-1375.3,3702.2-1374.3z M3705-1381.7h1.6l-2,2.2l-1.1,0L3705-1381.7z"/>
				<path class="st4" d="M3711-1378.3l0,1c0.6-0.8,1.4-1.1,2.4-1.1c1.7,0,2.5,0.9,2.5,2.8v5.2h-1.4v-5.2c0-0.6-0.1-1-0.4-1.3
					c-0.3-0.3-0.7-0.4-1.2-0.4c-0.4,0-0.8,0.1-1.2,0.4s-0.6,0.5-0.8,0.9v5.6h-1.4v-7.9H3711z"/>
			</g>
			<g class="st6">
				<path class="st4" d="M3543.3-1355.2c0-0.4-0.1-0.7-0.4-1c-0.3-0.2-0.8-0.5-1.6-0.7c-0.8-0.2-1.4-0.5-1.8-0.7
					c-1.2-0.7-1.8-1.5-1.8-2.6c0-0.6,0.2-1.1,0.5-1.5c0.3-0.5,0.8-0.8,1.4-1.1c0.6-0.3,1.3-0.4,2-0.4c0.8,0,1.4,0.1,2,0.4
					c0.6,0.3,1.1,0.7,1.4,1.2c0.3,0.5,0.5,1.1,0.5,1.7h-2.2c0-0.5-0.2-0.9-0.5-1.1c-0.3-0.3-0.7-0.4-1.3-0.4c-0.5,0-1,0.1-1.3,0.3
					c-0.3,0.2-0.4,0.5-0.4,0.9c0,0.3,0.2,0.6,0.5,0.9c0.3,0.2,0.9,0.5,1.5,0.7c1.2,0.4,2.2,0.8,2.7,1.4s0.9,1.2,0.9,2.1
					c0,0.9-0.3,1.6-1,2.2c-0.7,0.5-1.6,0.8-2.8,0.8c-0.8,0-1.6-0.2-2.2-0.5c-0.7-0.3-1.2-0.7-1.5-1.2c-0.4-0.5-0.5-1.1-0.5-1.8h2.2
					c0,1.2,0.7,1.8,2.1,1.8c0.5,0,0.9-0.1,1.2-0.3C3543.1-1354.5,3543.3-1354.8,3543.3-1355.2z"/>
				<path class="st4" d="M3552.5-1355.2c0-0.4-0.1-0.7-0.4-1c-0.3-0.2-0.8-0.5-1.6-0.7c-0.8-0.2-1.4-0.5-1.8-0.7
					c-1.2-0.7-1.8-1.5-1.8-2.6c0-0.6,0.2-1.1,0.5-1.5c0.3-0.5,0.8-0.8,1.4-1.1c0.6-0.3,1.3-0.4,2-0.4c0.8,0,1.4,0.1,2,0.4
					c0.6,0.3,1.1,0.7,1.4,1.2c0.3,0.5,0.5,1.1,0.5,1.7h-2.2c0-0.5-0.2-0.9-0.5-1.1c-0.3-0.3-0.7-0.4-1.3-0.4c-0.5,0-1,0.1-1.3,0.3
					c-0.3,0.2-0.4,0.5-0.4,0.9c0,0.3,0.2,0.6,0.5,0.9c0.3,0.2,0.9,0.5,1.5,0.7c1.2,0.4,2.2,0.8,2.7,1.4s0.9,1.2,0.9,2.1
					c0,0.9-0.3,1.6-1,2.2c-0.7,0.5-1.6,0.8-2.8,0.8c-0.8,0-1.6-0.2-2.2-0.5c-0.7-0.3-1.2-0.7-1.5-1.2c-0.4-0.5-0.5-1.1-0.5-1.8h2.2
					c0,1.2,0.7,1.8,2.1,1.8c0.5,0,0.9-0.1,1.2-0.3C3552.3-1354.5,3552.5-1354.8,3552.5-1355.2z"/>
				<path class="st4" d="M3556.1-1359.5c0-0.3,0.1-0.6,0.3-0.8c0.2-0.2,0.5-0.3,0.9-0.3c0.3,0,0.6,0.1,0.9,0.3
					c0.2,0.2,0.3,0.5,0.3,0.8c0,0.3-0.1,0.6-0.3,0.8c-0.2,0.2-0.5,0.3-0.9,0.3c-0.3,0-0.6-0.1-0.9-0.3
					C3556.3-1358.9,3556.1-1359.1,3556.1-1359.5z M3556.1-1353.5c0-0.3,0.1-0.6,0.3-0.8c0.2-0.2,0.5-0.3,0.9-0.3
					c0.3,0,0.6,0.1,0.9,0.3c0.2,0.2,0.3,0.5,0.3,0.8c0,0.3-0.1,0.6-0.3,0.8c-0.2,0.2-0.5,0.3-0.9,0.3c-0.3,0-0.6-0.1-0.9-0.3
					C3556.3-1352.9,3556.1-1353.1,3556.1-1353.5z"/>
			</g>
			<g class="st6">
				<path class="st4" d="M3567.6-1357.2c-1.2-0.3-2.1-0.8-2.6-1.3c-0.5-0.5-0.8-1.1-0.8-1.9c0-0.8,0.3-1.5,1-2.1
					c0.7-0.5,1.5-0.8,2.6-0.8c0.7,0,1.4,0.1,2,0.4c0.6,0.3,1,0.7,1.3,1.2c0.3,0.5,0.5,1,0.5,1.6h-1.4c0-0.6-0.2-1.2-0.6-1.5
					s-1-0.6-1.7-0.6c-0.7,0-1.2,0.2-1.6,0.5c-0.4,0.3-0.6,0.7-0.6,1.3c0,0.4,0.2,0.8,0.6,1.1c0.4,0.3,1,0.6,1.9,0.8
					c0.9,0.2,1.6,0.5,2.1,0.8c0.5,0.3,0.9,0.7,1.1,1.1c0.2,0.4,0.4,0.9,0.4,1.4c0,0.9-0.3,1.6-1,2.1c-0.7,0.5-1.6,0.8-2.7,0.8
					c-0.7,0-1.4-0.1-2.1-0.4c-0.6-0.3-1.1-0.7-1.5-1.2c-0.3-0.5-0.5-1-0.5-1.7h1.4c0,0.6,0.2,1.2,0.7,1.5c0.5,0.4,1.1,0.6,1.9,0.6
					c0.7,0,1.3-0.2,1.7-0.5s0.6-0.7,0.6-1.2s-0.2-0.9-0.5-1.2C3569.2-1356.6,3568.5-1356.9,3567.6-1357.2z"/>
				<path class="st4" d="M3576.4-1352.3c-1.1,0-1.9-0.4-2.6-1.1c-0.7-0.7-1-1.6-1-2.8v-0.2c0-0.8,0.1-1.5,0.5-2.1
					c0.3-0.6,0.7-1.1,1.3-1.5c0.5-0.3,1.1-0.5,1.8-0.5c1,0,1.8,0.3,2.4,1s0.9,1.7,0.9,2.9v0.6h-5.4c0,0.8,0.2,1.4,0.7,1.9
					c0.4,0.5,1,0.7,1.7,0.7c0.5,0,0.9-0.1,1.2-0.3s0.6-0.5,0.9-0.8l0.8,0.6C3578.7-1352.8,3577.7-1352.3,3576.4-1352.3z
					 M3576.2-1359.4c-0.5,0-1,0.2-1.4,0.6c-0.4,0.4-0.6,1-0.7,1.7h4v-0.1c0-0.7-0.2-1.2-0.6-1.6
					C3577.2-1359.2,3576.8-1359.4,3576.2-1359.4z"/>
				<path class="st4" d="M3584.9-1359.1c-0.2,0-0.4-0.1-0.7-0.1c-0.9,0-1.5,0.4-1.8,1.1v5.6h-1.4v-7.9h1.3l0,0.9
					c0.4-0.7,1.1-1.1,1.9-1.1c0.3,0,0.5,0,0.6,0.1V-1359.1z"/>
				<path class="st4" d="M3588.9-1354.3l2-6.1h1.4l-2.8,7.9h-1l-2.9-7.9h1.4L3588.9-1354.3z"/>
				<path class="st4" d="M3593.5-1362.5c0-0.2,0.1-0.4,0.2-0.6c0.1-0.2,0.3-0.2,0.6-0.2s0.5,0.1,0.6,0.2c0.1,0.2,0.2,0.3,0.2,0.6
					c0,0.2-0.1,0.4-0.2,0.5s-0.3,0.2-0.6,0.2s-0.5-0.1-0.6-0.2C3593.6-1362,3593.5-1362.2,3593.5-1362.5z M3595-1352.4h-1.4v-7.9
					h1.4V-1352.4z"/>
				<path class="st4" d="M3600.3-1353.4c0.5,0,0.9-0.1,1.3-0.4s0.6-0.7,0.6-1.1h1.3c0,0.5-0.2,0.9-0.5,1.3s-0.7,0.7-1.2,1
					c-0.5,0.2-1,0.4-1.5,0.4c-1.1,0-1.9-0.4-2.6-1.1c-0.6-0.7-1-1.7-1-3v-0.2c0-0.8,0.1-1.5,0.4-2.1c0.3-0.6,0.7-1.1,1.2-1.4
					c0.5-0.3,1.2-0.5,1.9-0.5c0.9,0,1.6,0.3,2.2,0.8c0.6,0.5,0.9,1.2,0.9,2.1h-1.3c0-0.5-0.2-0.9-0.6-1.3c-0.3-0.3-0.8-0.5-1.3-0.5
					c-0.7,0-1.2,0.2-1.6,0.7c-0.4,0.5-0.6,1.2-0.6,2.2v0.3c0,0.9,0.2,1.6,0.6,2.1S3599.6-1353.4,3600.3-1353.4z"/>
				<path class="st4" d="M3605-1362.5c0-0.2,0.1-0.4,0.2-0.6c0.1-0.2,0.3-0.2,0.6-0.2s0.5,0.1,0.6,0.2c0.1,0.2,0.2,0.3,0.2,0.6
					c0,0.2-0.1,0.4-0.2,0.5s-0.3,0.2-0.6,0.2s-0.5-0.1-0.6-0.2C3605.1-1362,3605-1362.2,3605-1362.5z M3606.5-1352.4h-1.4v-7.9h1.4
					V-1352.4z"/>
				<path class="st4" d="M3608.3-1356.5c0-0.8,0.2-1.5,0.5-2.1c0.3-0.6,0.7-1.1,1.3-1.4c0.5-0.3,1.2-0.5,1.9-0.5
					c1.1,0,2,0.4,2.6,1.1c0.7,0.7,1,1.7,1,3v0.1c0,0.8-0.1,1.5-0.4,2.1c-0.3,0.6-0.7,1.1-1.3,1.4c-0.5,0.3-1.2,0.5-1.9,0.5
					c-1.1,0-1.9-0.4-2.6-1.1C3608.6-1354.1,3608.3-1355.1,3608.3-1356.5L3608.3-1356.5z M3609.7-1356.3c0,0.9,0.2,1.6,0.6,2.1
					c0.4,0.5,1,0.8,1.6,0.8c0.7,0,1.2-0.3,1.6-0.8c0.4-0.5,0.6-1.3,0.6-2.3c0-0.9-0.2-1.6-0.6-2.1c-0.4-0.5-1-0.8-1.6-0.8
					c-0.7,0-1.2,0.3-1.6,0.8C3609.9-1358.1,3609.7-1357.3,3609.7-1356.3z"/>
				<path class="st4" d="M3620.6-1356.5c0-1.2,0.3-2.2,0.9-2.9c0.6-0.7,1.3-1.1,2.3-1.1c0.9,0,1.7,0.3,2.2,1v-4.1h1.4v11.2h-1.2
					l-0.1-0.8c-0.5,0.7-1.3,1-2.3,1c-0.9,0-1.7-0.4-2.2-1.1c-0.6-0.8-0.9-1.7-0.9-2.9V-1356.5z M3621.9-1356.3
					c0,0.9,0.2,1.6,0.6,2.1c0.4,0.5,0.9,0.8,1.5,0.8c0.9,0,1.5-0.4,1.9-1.2v-3.6c-0.4-0.7-1-1.1-1.9-1.1c-0.7,0-1.2,0.3-1.6,0.8
					S3621.9-1357.3,3621.9-1356.3z"/>
				<path class="st4" d="M3632.7-1352.3c-1.1,0-1.9-0.4-2.6-1.1c-0.7-0.7-1-1.6-1-2.8v-0.2c0-0.8,0.1-1.5,0.5-2.1
					c0.3-0.6,0.7-1.1,1.3-1.5c0.5-0.3,1.1-0.5,1.8-0.5c1,0,1.8,0.3,2.4,1s0.9,1.7,0.9,2.9v0.6h-5.4c0,0.8,0.2,1.4,0.7,1.9
					c0.4,0.5,1,0.7,1.7,0.7c0.5,0,0.9-0.1,1.2-0.3s0.6-0.5,0.9-0.8l0.8,0.6C3635-1352.8,3634-1352.3,3632.7-1352.3z M3632.5-1359.4
					c-0.5,0-1,0.2-1.4,0.6c-0.4,0.4-0.6,1-0.7,1.7h4v-0.1c0-0.7-0.2-1.2-0.6-1.6C3633.5-1359.2,3633.1-1359.4,3632.5-1359.4z"/>
				<path class="st4" d="M3644.4-1357.2c-1.2-0.3-2.1-0.8-2.6-1.3c-0.5-0.5-0.8-1.1-0.8-1.9c0-0.8,0.3-1.5,1-2.1
					c0.7-0.5,1.5-0.8,2.6-0.8c0.7,0,1.4,0.1,2,0.4c0.6,0.3,1,0.7,1.3,1.2c0.3,0.5,0.5,1,0.5,1.6h-1.4c0-0.6-0.2-1.2-0.6-1.5
					s-1-0.6-1.7-0.6c-0.7,0-1.2,0.2-1.6,0.5c-0.4,0.3-0.6,0.7-0.6,1.3c0,0.4,0.2,0.8,0.6,1.1c0.4,0.3,1,0.6,1.9,0.8
					c0.9,0.2,1.6,0.5,2.1,0.8c0.5,0.3,0.9,0.7,1.1,1.1c0.2,0.4,0.4,0.9,0.4,1.4c0,0.9-0.3,1.6-1,2.1c-0.7,0.5-1.6,0.8-2.7,0.8
					c-0.7,0-1.4-0.1-2.1-0.4c-0.6-0.3-1.1-0.7-1.5-1.2c-0.3-0.5-0.5-1-0.5-1.7h1.4c0,0.6,0.2,1.2,0.7,1.5c0.5,0.4,1.1,0.6,1.9,0.6
					c0.7,0,1.3-0.2,1.7-0.5s0.6-0.7,0.6-1.2s-0.2-0.9-0.5-1.2C3646-1356.6,3645.4-1356.9,3644.4-1357.2z"/>
				<path class="st4" d="M3653.2-1352.3c-1.1,0-1.9-0.4-2.6-1.1c-0.7-0.7-1-1.6-1-2.8v-0.2c0-0.8,0.2-1.5,0.5-2.1
					c0.3-0.6,0.7-1.1,1.3-1.5c0.5-0.3,1.1-0.5,1.8-0.5c1,0,1.8,0.3,2.4,1s0.9,1.7,0.9,2.9v0.6h-5.4c0,0.8,0.2,1.4,0.7,1.9
					c0.4,0.5,1,0.7,1.7,0.7c0.5,0,0.9-0.1,1.2-0.3s0.6-0.5,0.9-0.8l0.8,0.6C3655.6-1352.8,3654.6-1352.3,3653.2-1352.3z
					 M3653.1-1359.4c-0.5,0-1,0.2-1.4,0.6c-0.4,0.4-0.6,1-0.7,1.7h4v-0.1c0-0.7-0.2-1.2-0.6-1.6
					C3654.1-1359.2,3653.6-1359.4,3653.1-1359.4z"/>
				<path class="st4" d="M3657.6-1356.5c0-1.2,0.3-2.2,0.9-2.9c0.6-0.7,1.3-1.1,2.3-1.1c1,0,1.7,0.3,2.3,1l0.1-0.9h1.2v7.7
					c0,1-0.3,1.8-0.9,2.4c-0.6,0.6-1.4,0.9-2.4,0.9c-0.6,0-1.1-0.1-1.7-0.4s-1-0.6-1.3-1l0.7-0.8c0.6,0.7,1.3,1.1,2.1,1.1
					c0.7,0,1.2-0.2,1.5-0.6c0.4-0.4,0.6-0.9,0.6-1.6v-0.7c-0.5,0.6-1.3,0.9-2.2,0.9c-0.9,0-1.7-0.4-2.3-1.1
					C3657.9-1354.1,3657.6-1355.2,3657.6-1356.5z M3658.9-1356.3c0,0.9,0.2,1.6,0.5,2.1c0.4,0.5,0.9,0.8,1.5,0.8
					c0.9,0,1.5-0.4,1.9-1.2v-3.6c-0.4-0.8-1-1.1-1.9-1.1c-0.7,0-1.2,0.3-1.5,0.8S3658.9-1357.3,3658.9-1356.3z"/>
				<path class="st4" d="M3671.2-1353.2c-0.5,0.6-1.3,0.9-2.3,0.9c-0.8,0-1.5-0.2-1.9-0.7c-0.4-0.5-0.7-1.2-0.7-2.2v-5.2h1.4v5.1
					c0,1.2,0.5,1.8,1.5,1.8c1,0,1.7-0.4,2.1-1.2v-5.8h1.4v7.9h-1.3L3671.2-1353.2z"/>
				<path class="st4" d="M3678.4-1359.1c-0.2,0-0.4-0.1-0.7-0.1c-0.9,0-1.5,0.4-1.8,1.1v5.6h-1.4v-7.9h1.3l0,0.9
					c0.4-0.7,1.1-1.1,1.9-1.1c0.3,0,0.5,0,0.6,0.1V-1359.1z"/>
				<path class="st4" d="M3679.7-1362.5c0-0.2,0.1-0.4,0.2-0.6c0.1-0.2,0.3-0.2,0.6-0.2s0.5,0.1,0.6,0.2c0.1,0.2,0.2,0.3,0.2,0.6
					c0,0.2-0.1,0.4-0.2,0.5s-0.3,0.2-0.6,0.2s-0.5-0.1-0.6-0.2C3679.7-1362,3679.7-1362.2,3679.7-1362.5z M3681.1-1352.4h-1.4v-7.9
					h1.4V-1352.4z"/>
				<path class="st4" d="M3683-1356.5c0-1.2,0.3-2.2,0.9-2.9c0.6-0.7,1.3-1.1,2.3-1.1c0.9,0,1.7,0.3,2.2,1v-4.1h1.4v11.2h-1.2
					l-0.1-0.8c-0.5,0.7-1.3,1-2.3,1c-0.9,0-1.7-0.4-2.2-1.1c-0.6-0.8-0.9-1.7-0.9-2.9V-1356.5z M3684.3-1356.3
					c0,0.9,0.2,1.6,0.6,2.1c0.4,0.5,0.9,0.8,1.5,0.8c0.9,0,1.5-0.4,1.9-1.2v-3.6c-0.4-0.7-1-1.1-1.9-1.1c-0.7,0-1.2,0.3-1.6,0.8
					S3684.3-1357.3,3684.3-1356.3z"/>
				<path class="st4" d="M3696.6-1352.4c-0.1-0.2-0.1-0.4-0.2-0.8c-0.6,0.7-1.4,1-2.3,1c-0.8,0-1.4-0.2-1.9-0.7
					c-0.5-0.4-0.8-1-0.8-1.7c0-0.8,0.3-1.5,0.9-1.9c0.6-0.5,1.5-0.7,2.6-0.7h1.3v-0.6c0-0.5-0.1-0.9-0.4-1.1
					c-0.3-0.3-0.7-0.4-1.3-0.4c-0.5,0-0.9,0.1-1.2,0.4s-0.5,0.5-0.5,0.9h-1.4c0-0.4,0.1-0.8,0.4-1.1c0.3-0.4,0.7-0.7,1.1-0.9
					c0.5-0.2,1-0.3,1.6-0.3c0.9,0,1.6,0.2,2.1,0.7c0.5,0.5,0.8,1.1,0.8,1.9v3.6c0,0.7,0.1,1.3,0.3,1.7v0.1H3696.6z M3694.4-1353.5
					c0.4,0,0.8-0.1,1.2-0.3s0.7-0.5,0.8-0.9v-1.6h-1.1c-1.7,0-2.5,0.5-2.5,1.5c0,0.4,0.1,0.8,0.4,1S3693.9-1353.5,3694.4-1353.5z"/>
				<path class="st4" d="M3699.6-1356.5c0-1.2,0.3-2.2,0.9-2.9c0.6-0.7,1.3-1.1,2.3-1.1c0.9,0,1.7,0.3,2.2,1v-4.1h1.4v11.2h-1.2
					l-0.1-0.8c-0.5,0.7-1.3,1-2.3,1c-0.9,0-1.7-0.4-2.2-1.1c-0.6-0.8-0.9-1.7-0.9-2.9V-1356.5z M3700.9-1356.3
					c0,0.9,0.2,1.6,0.6,2.1c0.4,0.5,0.9,0.8,1.5,0.8c0.9,0,1.5-0.4,1.9-1.2v-3.6c-0.4-0.7-1-1.1-1.9-1.1c-0.7,0-1.2,0.3-1.6,0.8
					S3700.9-1357.3,3700.9-1356.3z"/>
			</g>
		</g>
	</g>
</g>
</svg>
