<svg xmlns="http://www.w3.org/2000/svg" width="603.5" height="155.984" viewBox="0 0 603.5 155.984">
  <g id="Grupo_54001" data-name="Grupo 54001" transform="translate(-4383.31 -145.132)">
    <ellipse id="Elipse_3967" data-name="Elipse 3967" cx="301.75" cy="3.047" rx="301.75" ry="3.047" transform="translate(4383.31 295.023)" fill="#d3d6e0"/>
    <g id="Grupo_54000" data-name="Grupo 54000">
      <g id="Grupo_53988" data-name="Grupo 53988">
        <g id="Grupo_53974" data-name="Grupo 53974" transform="translate(6.331 14.516)">
          <path id="Trazado_99853" data-name="Trazado 99853" d="M4905.107,131.457a6.521,6.521,0,0,0-5.154-.551c-8.756-1.029-11.31,9.183-11.191,12.7s.52,7.287-3.39,11.851c-11.295,13.184,12.359,13.765,12.359,13.765.2-10.534,12.827-6.69,12.273-5.623C4926.191,167.48,4911.614,134.833,4905.107,131.457Z" transform="translate(-1.938)" fill="#163560"/>
          <path id="Trazado_99854" data-name="Trazado 99854" d="M4869.4,179.389s-1.54-2.345-2.781-2.39-3.538-.689-3.354-.23,1.608.506,1.747.781-2.115.69-2.758.736-2.16,0-2.114.322,2.733,1.655,4.63,1.47a12.861,12.861,0,0,1,4.24.552Z" transform="translate(0 -4.018)" fill="#ffb27d"/>
          <path id="Trazado_99855" data-name="Trazado 99855" d="M4892.46,178.7a23.086,23.086,0,0,1-2.354,3.561c-1.83,2.292-4.651,4.939-8.193,5.461a8.79,8.79,0,0,1-4.867-.789l-.006,0c-4.3-1.909-7.536-6.3-7.536-6.3a3.538,3.538,0,0,1,.482-3.471s8.687,1.954,9.514,1.541,5.653-14.316,6.8-16.063,5.065-2.654,5.065-2.654Z" transform="translate(-0.797 -2.565)" fill="#bb4eb3"/>
          <path id="Trazado_99856" data-name="Trazado 99856" d="M4890.851,183.948c-1.83,2.292-4.651,4.939-8.193,5.461a8.79,8.79,0,0,1-4.867-.789c.168.022,4.465.552,6.177-2.512,1.747-3.125,3.636-8.089,6.231-6.434C4891.318,180.388,4891.268,182.163,4890.851,183.948Z" transform="translate(-1.543 -4.257)" fill="#933a91"/>
          <path id="Trazado_99857" data-name="Trazado 99857" d="M4929.271,283.118s2.651,2.418,2.133,4.137-2.909,2.865-3.231,4.966-1.616,3.246-2.78,3.246h-5.548s-.857-1.478,1.212-1.924,2.849-2.914,2.72-5.206a40.327,40.327,0,0,1,.193-5.347l4.4-1.018Z" transform="translate(-5.202 -13.224)" fill="#233862"/>
          <path id="Trazado_99858" data-name="Trazado 99858" d="M4904.163,284.353s.954,10.247-.21,10.82l-14.892-.03s0-1.719,2.392-2.1,6.594-1.782,7.305-4.9S4904.163,284.353,4904.163,284.353Z" transform="translate(-2.527 -13.432)" fill="#233862"/>
          <path id="Trazado_99859" data-name="Trazado 99859" d="M4914.838,199.053c-3.063-6.872-4.939-8.845-4.582-10.978.267-1.588-.811-29.6-.811-29.6-.363-.113-1.092-.214-1.491-.3a3.739,3.739,0,0,1-2.73-2.375,19.074,19.074,0,0,1-.926-6.321l-.393.078-6.6,1.307s.149,2.077.154,4.034v.049a3.8,3.8,0,0,1-2.74,3.671c-.833.241-1.559.446-1.559.446a60.552,60.552,0,0,0-2.887,14.029c-.463,7.108,4.407,10.2-.037,24.4C4885.7,212,4916.532,202.85,4914.838,199.053Z" transform="translate(-2.59 -1.648)" fill="#ffb27d"/>
          <path id="Trazado_99860" data-name="Trazado 99860" d="M4898.025,150.868s.149,2.077.154,4.034c3.693-.1,5.646-3.473,6.446-5.341Z" transform="translate(-3.311 -1.655)" fill="#e8945b"/>
          <path id="Trazado_99861" data-name="Trazado 99861" d="M4896.395,151.611s8.739.144,8.745-5.3,1.138-9.092-4.44-9.414-6.666,1.754-7.11,3.57S4894.121,151.434,4896.395,151.611Z" transform="translate(-2.914 -0.546)" fill="#ffb27d"/>
          <path id="Trazado_99862" data-name="Trazado 99862" d="M4897.028,136.65s2.392,6.387,6.064,7.331,5.265-.04,5.265-.04a10.392,10.392,0,0,1-3.4-6.143S4898.832,133.611,4897.028,136.65Z" transform="translate(-3.223 -0.431)" fill="#163560"/>
          <path id="Trazado_99863" data-name="Trazado 99863" d="M4897.253,137.224a5.423,5.423,0,0,0-2.5,1.958,8.8,8.8,0,0,0-1.182,5s-1.8-4.34.224-6.8C4895.939,134.779,4897.253,137.224,4897.253,137.224Z" transform="translate(-2.857 -0.486)" fill="#163560"/>
          <path id="Trazado_99864" data-name="Trazado 99864" d="M4898.454,149.294a2.192,2.192,0,0,1-1.809.736,1.606,1.606,0,0,1-1.347-.889A5.875,5.875,0,0,1,4898.454,149.294Z" transform="translate(-3.072 -1.605)" fill="#ebf3fa"/>
          <path id="Trazado_99865" data-name="Trazado 99865" d="M4915.586,171.727a59.505,59.505,0,0,1,0,6.883c-.148,2.489-2.666,5.823-3.023,6.647-.9,2.069-1.906,2.4-1.906,2.4l-7.82,1.917-2.749.674-8.67-2.59s-3.949-11.022-2.364-17.226a47.713,47.713,0,0,1,4.009-10.514s7.074,6.927,16.287-.588Z" transform="translate(-2.494 -2.509)" fill="#bb4eb3"/>
          <path id="Trazado_99866" data-name="Trazado 99866" d="M4914.327,181.327a24.345,24.345,0,0,1-.733,5.631c-.9,2.069-1.906,2.4-1.906,2.4l-7.82,1.917-3.4-1s11.336-1.718,10.08-11.471Z" transform="translate(-3.524 -4.211)" fill="#f2ccaa"/>
          <path id="Trazado_99867" data-name="Trazado 99867" d="M4891.847,192.207s-4.294,13.364-4.57,17.914,8.208,64.636,8.549,66.732c.322,1.977,2.776,3.236,2.776,3.236a3.708,3.708,0,0,0,2.739.211,6.772,6.772,0,0,0,2.942-1.386s3.342-42.853,1.274-58.162a242.412,242.412,0,0,1-2.093-28.545Z" transform="translate(-2.371 -5.381)" fill="#1f3b68"/>
          <path id="Trazado_99868" data-name="Trazado 99868" d="M4910.61,191.77s6.549,8.788,7.16,14.727.958,26.806,2.259,32.6,6.08,16.935,6.08,35a3.6,3.6,0,0,1-2.031,1.587,16.661,16.661,0,0,1-1.786.494,2.806,2.806,0,0,1-3.139-1.49c-3.232-6.505-13.524-27.488-14.052-31.843-.374-3.083-3.624-23.482-10.712-35.452-1.7-2.874,1.045-14.3,1.045-14.3Z" transform="translate(-2.944 -5.343)" fill="#213f7a"/>
          <path id="Trazado_99869" data-name="Trazado 99869" d="M4898.252,149.444s-.151.642-1.747.542c0,0-1.34-.083-1.3-.788A4.309,4.309,0,0,1,4898.252,149.444Z" transform="translate(-3.064 -1.609)" fill="#fff"/>
          <path id="Trazado_99870" data-name="Trazado 99870" d="M4891.51,189.946a9,9,0,0,0,5.148,1.433c4.089.082,14.224-1.043,14.224-1.043a8.367,8.367,0,0,1,.433,2.586s-12.378,3.122-19.549.456A4.533,4.533,0,0,1,4891.51,189.946Z" transform="translate(-2.72 -5.184)" fill="#233862"/>
          <g id="Grupo_53973" data-name="Grupo 53973" transform="translate(4891.091 185.495)">
            <path id="Trazado_99871" data-name="Trazado 99871" d="M4895.92,194.973a2.128,2.128,0,1,1,1.866-2.112A2,2,0,0,1,4895.92,194.973Zm0-3.606a1.518,1.518,0,1,0,1.248,1.494A1.389,1.389,0,0,0,4895.92,191.367Z" transform="translate(-4894.054 -190.749)" fill="#fff"/>
          </g>
          <rect id="Rectángulo_5241" data-name="Rectángulo 5241" width="16.815" height="23.017" transform="matrix(0.754, -0.657, 0.657, 0.754, 4893.691, 180.864)" fill="#b0d4ff"/>
          <path id="Trazado_99872" data-name="Trazado 99872" d="M4909.183,192.639s-4.646.543-4.632,1.646,1.158,3.369,1.732,3.47,3.781-3.065,3.781-3.065Z" transform="translate(-3.881 -5.419)" fill="#ffb27d"/>
          <path id="Trazado_99873" data-name="Trazado 99873" d="M4911.06,159.334s6.2.435,8.581,6.216,6.889,15.486,6.889,17.118-2.52,6.667-16.055,9.56c0,0-1.4-1.472-1.315-2.637,0,0,8.449-7.257,8.426-8.106-.043-1.6-1.385-3.722-8.8-11.142C4906.767,168.326,4911.06,159.334,4911.06,159.334Z" transform="translate(-4.204 -2.509)" fill="#bb4eb3"/>
        </g>
        <g id="Grupo_53978" data-name="Grupo 53978">
          <g id="Grupo_53975" data-name="Grupo 53975">
            <path id="Trazado_99874" data-name="Trazado 99874" d="M4684.84,296.369h-.07a.736.736,0,0,1-.736-.753l1.116-48.383,3.289-.384-2.8,48.77A.8.8,0,0,1,4684.84,296.369Z" fill="#b0d4ff"/>
          </g>
          <g id="Grupo_53976" data-name="Grupo 53976">
            <path id="Trazado_99875" data-name="Trazado 99875" d="M4665.679,296.369h-.071a.736.736,0,0,1-.736-.753l1.117-48.383,3.288-.384-2.8,48.77A.8.8,0,0,1,4665.679,296.369Z" fill="#95c0f4"/>
          </g>
          <g id="Grupo_53977" data-name="Grupo 53977">
            <path id="Trazado_99876" data-name="Trazado 99876" d="M4718.554,296.369h.07a.736.736,0,0,0,.737-.753l-1.117-48.383-3.288-.384,2.8,48.77A.8.8,0,0,0,4718.554,296.369Z" fill="#b0d4ff"/>
          </g>
          <path id="Trazado_99877" data-name="Trazado 99877" d="M4663.5,244.232V211.078a10.563,10.563,0,0,1,10.563-10.563h23.887a10.563,10.563,0,0,1,10.563,10.563V245.5Z" fill="#ff0062"/>
          <path id="Rectángulo_5242" data-name="Rectángulo 5242" d="M0,0H49.293a0,0,0,0,1,0,0V5.234a0,0,0,0,1,0,0H3.172A3.172,3.172,0,0,1,0,2.063V0A0,0,0,0,1,0,0Z" transform="translate(4663.5 244.232)" fill="#b1044b"/>
          <rect id="Rectángulo_5243" data-name="Rectángulo 5243" width="39.583" height="5.234" rx="2.345" transform="translate(4681.082 244.232)" fill="#ff0062"/>
        </g>
        <g id="Grupo_53983" data-name="Grupo 53983">
          <rect id="Rectángulo_5244" data-name="Rectángulo 5244" width="4.209" height="47.509" rx="2.056" transform="translate(4550.685 202.859)" fill="#ff0062"/>
          <g id="Grupo_53979" data-name="Grupo 53979">
            <path id="Trazado_99878" data-name="Trazado 99878" d="M4552.772,296.369h-.068a.7.7,0,0,1-.7-.721l1.069-46.332,3.148-.367-2.685,46.7A.762.762,0,0,1,4552.772,296.369Z" fill="#95c0f4"/>
          </g>
          <g id="Grupo_53980" data-name="Grupo 53980">
            <path id="Trazado_99879" data-name="Trazado 99879" d="M4603.406,296.369h.067a.7.7,0,0,0,.705-.721l-1.069-46.332-3.149-.367,2.685,46.7A.762.762,0,0,0,4603.406,296.369Z" fill="#b0d4ff"/>
          </g>
          <path id="Trazado_99880" data-name="Trazado 99880" d="M4603.181,246.443h-52.5v1.975a3.037,3.037,0,0,0,3.037,3.037h49.459a2.246,2.246,0,0,0,2.246-2.246v-.521A2.246,2.246,0,0,0,4603.181,246.443Z" fill="#ff0062"/>
          <path id="Trazado_99881" data-name="Trazado 99881" d="M4624.461,285.565s-.773,9.607.947,9.734c.229.017,8.725.017,8.725.017l10.846-.063a3.519,3.519,0,0,0-3.241-3.166c-3.171-.552-9.445-3.22-11.366-7.41C4628.352,280.269,4624.461,285.565,4624.461,285.565Z" fill="#163560"/>
          <path id="Trazado_99882" data-name="Trazado 99882" d="M4567.069,235.045s.345,8.678,1.935,11.588h36.638s8.8.877,9.6,1.448c1.013.721-2.694,16.3,8.953,38.47l8.334-.2s-4.18-47.974-5.728-49.121c-2.316-1.716-29.42-7.688-34.06-7.818S4567.069,235.045,4567.069,235.045Z" fill="#1c468a"/>
          <path id="Trazado_99883" data-name="Trazado 99883" d="M4586.59,185.971a6.407,6.407,0,0,1,2.731,4.792c-6.306,1.631-15.482-5.37-15.482-5.37a15.472,15.472,0,0,0,5.563-8.721c.076-.3.146-.613.207-.93a18.912,18.912,0,0,0,.341-3.282l2.9,2.6,4.818,4.316a41.563,41.563,0,0,1-.712,4.871Q4586.8,185.049,4586.59,185.971Z" fill="#ffb27d"/>
          <path id="Trazado_99884" data-name="Trazado 99884" d="M4590.153,219.078a9.419,9.419,0,0,0,.43,3.585,4.032,4.032,0,0,1,.1,1.173c-.345,3.893,1.043,4.387.609,5.643a30.8,30.8,0,0,1-4.2,1.9c-1.18.445-2.595.924-4.223,1.374l-.258.07a62.015,62.015,0,0,1-14.8,2.018c-3.576-.1-4.3-9.162-2.971-20.58,2.067-17.789,4.861-26.413,12.227-32.645.464-.393.151.943,2.627,2.137a11.587,11.587,0,0,0,7.187.884l1.685,1.727c3.345,5.284,3.7,11.556,3.411,16.784A153.749,153.749,0,0,1,4590.153,219.078Z" fill="#b0d4ff"/>
          <path id="Trazado_99885" data-name="Trazado 99885" d="M4587.665,179.372s.256-.27-.347,2.81c-5.336-1.544-7.074-4.262-7.786-6.064-.2-.509,1.983-.781,3.315-1.062Z" fill="#ed975d"/>
          <path id="Trazado_99886" data-name="Trazado 99886" d="M4590.145,179.387s-10.3,1.474-11.115-4.952-2.7-10.562,3.839-11.775,8.13,1.076,8.926,3.154S4592.8,178.838,4590.145,179.387Z" fill="#ffb27d"/>
          <g id="Grupo_53981" data-name="Grupo 53981">
            <rect id="Rectángulo_5245" data-name="Rectángulo 5245" width="0.944" height="24.731" transform="translate(4635.048 225.158) rotate(-162.63)" fill="#1c468a"/>
            <rect id="Rectángulo_5246" data-name="Rectángulo 5246" width="25.951" height="1.553" transform="matrix(-1, -0.01, 0.01, -1, 4635.047, 225.157)" fill="#1c468a"/>
          </g>
          <path id="Trazado_99887" data-name="Trazado 99887" d="M4575.747,162.789c-.083-.1-.274-.174-.7-.2a1.742,1.742,0,0,1,.8-.219,2.152,2.152,0,0,1,1.445-1.893,1.283,1.283,0,0,0-.629.921c1.195-1.208,3.743-2.075,10.775-1.464,9.268.805,6.165,6.718,4.959,7.417s-4.213-1.266-6.451-1.106-2.689,3.388-3.452,3.826-.457-.344-1.48-.817-1.134,1.229-.847,2.337-1.134,2.557-1.134,2.557l-1.413-1.547c-1.414-1.546-2.706-8.06-2.047-9.441Z" fill="#2c3a64"/>
          <path id="Trazado_99888" data-name="Trazado 99888" d="M4589.509,229.479a30.826,30.826,0,0,1-4.2,1.9c-11.747-8.57-11.683-28.857-11.747-29.2l14.753,12.991.487,7.5a4.048,4.048,0,0,1,.095,1.173C4588.556,227.729,4589.944,228.223,4589.509,229.479Z" fill="#91b8ef"/>
          <g id="Grupo_53982" data-name="Grupo 53982">
            <path id="Trazado_99889" data-name="Trazado 99889" d="M4612.553,219.936a3.647,3.647,0,0,0,1.941-.315c1-.468,4.436-1.945,5.081-1.743s2.755,1.393,3.251,1.619a6.371,6.371,0,0,1,1.374,1.386c-.364.368-1.645-.475-2.217-.459s-4.8,2.324-6.054,2.374a24.075,24.075,0,0,1-3.214-.207Z" fill="#ffb27d"/>
            <path id="Trazado_99890" data-name="Trazado 99890" d="M4620.213,220.12c.011.068,1.545,1.778,2.714,1.236l-1.282-1.266Z" fill="#ffb27d"/>
            <path id="Trazado_99891" data-name="Trazado 99891" d="M4614.494,219.621a22.147,22.147,0,0,0,1.832-1.886s.275.126.286.358a3.07,3.07,0,0,1-.36,1.1Z" fill="#ffb27d"/>
          </g>
          <path id="Trazado_99892" data-name="Trazado 99892" d="M4587.434,189.352c-7.561-4.605-16.486,3.44-12.734,11.459,4.351,9.3,11.594,20.638,17.35,21.308,4.1.478,15.825,1.981,20.79,1.055,0,0,2.406.118,1.1-3.756,0,0-16.043-4.471-18.708-7.939-1.428-1.858-3.861-5.621-7.624-22.019C4587.594,189.393,4587.493,189.388,4587.434,189.352Z" fill="#b0d4ff"/>
        </g>
        <g id="Grupo_53987" data-name="Grupo 53987">
          <g id="Grupo_53984" data-name="Grupo 53984">
            <path id="Trazado_99893" data-name="Trazado 99893" d="M4826.929,296.369h.1a1.015,1.015,0,0,0,1.017-1.04l-1.542-66.84-4.542-.529,3.873,67.373A1.1,1.1,0,0,0,4826.929,296.369Z" fill="#547ba5"/>
          </g>
          <g id="Grupo_53986" data-name="Grupo 53986">
            <g id="Grupo_53985" data-name="Grupo 53985">
              <path id="Trazado_99894" data-name="Trazado 99894" d="M4603.589,296.369h-.1a1.016,1.016,0,0,1-1.017-1.04l1.542-66.84,4.543-.529-3.874,67.373A1.1,1.1,0,0,1,4603.589,296.369Z" fill="#547ba5"/>
            </g>
            <rect id="Rectángulo_5247" data-name="Rectángulo 5247" width="237.944" height="8.065" rx="3.055" transform="translate(4595.998 221.653)" fill="#547ba5"/>
          </g>
        </g>
      </g>
      <g id="Grupo_53993" data-name="Grupo 53993" transform="translate(6.399 14.964)">
        <g id="Grupo_53989" data-name="Grupo 53989" transform="translate(4483.87 269.754)">
          <path id="Trazado_99895" data-name="Trazado 99895" d="M4491.293,295.08c.125,1.7,2.525,1.719,5.249,1.4s2,.374,5.814.426,5.129-1.207,5.313-1.752c.165-.484-1.672-.89-3.637-1.37-.247-.059-.5-.121-.744-.184-2.216-.563-3.683-2.221-5.579-3.67-1.8-1.371-4.112-6.336-4.112-6.336l-5.209-.235s2.194,4.45,3.018,6.369a6.279,6.279,0,0,1,.067,3.579A6.7,6.7,0,0,0,4491.293,295.08Z" transform="translate(-4488.388 -283.362)" fill="#ffad73"/>
          <path id="Trazado_99896" data-name="Trazado 99896" d="M4496.824,297.453c2.725-.315,2,.374,5.814.426s5.129-1.207,5.313-1.752c.165-.484-1.672-.89-3.637-1.37l-.023.036a10.687,10.687,0,0,1-5.6,1c-2.56-.256-5.172-1.325-6.939-1.516a6.681,6.681,0,0,0-.18,1.77C4491.7,297.751,4494.1,297.769,4496.824,297.453Z" transform="translate(-4488.67 -284.332)" fill="#1e3865"/>
        </g>
        <g id="Grupo_53990" data-name="Grupo 53990" transform="translate(4450.78 266.623)">
          <path id="Trazado_99897" data-name="Trazado 99897" d="M4452.083,295.127c.123,1.7,2.523,1.722,5.247,1.41s2,.374,5.814.432,5.13-1.2,5.315-1.748c.165-.483-1.672-.892-3.637-1.372-.247-.06-.495-.123-.742-.185-2.216-.566-3.681-2.226-5.576-3.676-1.795-1.374,0-9.505,0-9.505l-5.731-.558s.275,6.847.272,9.959a17.614,17.614,0,0,1-.778,3.473A6.642,6.642,0,0,0,4452.083,295.127Z" transform="translate(-4452.073 -279.925)" fill="#ffad73"/>
          <path id="Trazado_99898" data-name="Trazado 99898" d="M4457.33,297.846c2.725-.313,2,.374,5.814.432s5.13-1.2,5.315-1.748c.165-.483-1.672-.892-3.637-1.372l-.023.036a10.685,10.685,0,0,1-5.6,1c-2.56-.259-5.171-1.33-6.937-1.523a6.642,6.642,0,0,0-.182,1.77C4452.206,298.138,4454.606,298.159,4457.33,297.846Z" transform="translate(-4452.073 -281.234)" fill="#1e3865"/>
        </g>
        <path id="Trazado_99899" data-name="Trazado 99899" d="M4467.712,141.279c.986-4.057-.444-5.947-1.734-6.953a6.154,6.154,0,0,0-2.025-2.976,7.307,7.307,0,0,0-3.954-.756,1.844,1.844,0,0,1,.833-.4,6.136,6.136,0,0,0-2.188.571c-9.417-3.628-10.9,10.237-10.7,13.458s.17,7.015-4.729,9.553c-9.348,4.843,3.106,23.091,3.106,23.091-.237-2.6,11.774-16.34,18.04-20.454,1.525-2.245,2.067-6.212,2.108-6.525a17.161,17.161,0,0,1-1.282,5.9C4468.044,153.166,4468.467,146.854,4467.712,141.279Z" transform="translate(-0.197)" fill="#b43c37"/>
        <path id="Trazado_99900" data-name="Trazado 99900" d="M4465.491,158.3c.032.014-3.025,1.6-5.325.972-2.163-.59-3.577-3.394-3.546-3.4.916-.181,1.18-1.441,1.161-6.849l.414.082,6.962,1.379s-.157,2.191-.163,4.255C4464.989,156.467,4465.095,158.111,4465.491,158.3Z" transform="translate(-1.697 -1.674)" fill="#ffad73"/>
        <path id="Trazado_99901" data-name="Trazado 99901" d="M4465.31,150.487s-.158,2.191-.163,4.255c-3.9-.11-5.956-3.664-6.8-5.634Z" transform="translate(-1.85 -1.682)" fill="#f8914f"/>
        <path id="Trazado_99902" data-name="Trazado 99902" d="M4493.17,279.082a1.709,1.709,0,0,1-1.548,2.225l-2.72.128-2.878.087a2.306,2.306,0,0,1-1.862-.85,80.9,80.9,0,0,1-13.658-25.857c-.121-.383-.248-.77-.382-1.163-2.833-8.259-8.706-18.627-11.8-28.011-.492-1.494-.935-2.9-1.332-4.233-.127-.426-.251-.845-.369-1.257a99.519,99.519,0,0,1-3.549-18.685l22.346.179A492.165,492.165,0,0,0,4493.17,279.082Z" transform="translate(-1.382 -6.333)" fill="#214d99"/>
        <path id="Trazado_99903" data-name="Trazado 99903" d="M4471.755,184.746c-.057,10.633,1.56,15.2,1.56,15.2a30.029,30.029,0,0,1-20.938,1.282c-.134-.042-3.125-17.567-2.839-19.153a33.711,33.711,0,0,0,.276-8.909,71.487,71.487,0,0,0-2.757-13.99,72.553,72.553,0,0,0,9.225-3.154,7.2,7.2,0,0,0,4.977,1.846c2.265-.05,3-1.02,2.882-2.078,2.414,1.343,4.34,2.612,4.34,2.612,2.051,3.564,6.211,7.024,6.513,12.49C4475.067,172.233,4471.757,184.448,4471.755,184.746Z" transform="translate(-0.847 -2.276)" fill="#cde1ff"/>
        <path id="Trazado_99904" data-name="Trazado 99904" d="M4452.34,187.068c-.978,1.383-2.85,9.786-7.509,10.842,2.4-5.988,4.223-8.615,4.508-10.456a45.418,45.418,0,0,0,.276-10.348c1.56-2.734,2.724-4.608,2.724-4.608.122-.443,2.479-7.728,3.233-1.215S4453.431,185.521,4452.34,187.068Z" transform="translate(-0.65 -3.413)" fill="#4b9aa8"/>
        <path id="Trazado_99905" data-name="Trazado 99905" d="M4470.453,157.795a19,19,0,0,1,4.711,3.574c1.4,1.776,9.583,16.484,9.583,17.956s-8.307.51-8.307.51Z" transform="translate(-2.925 -2.454)" fill="#94308d"/>
        <path id="Trazado_99906" data-name="Trazado 99906" d="M4466.508,151.25s-9.218.152-9.224-5.59-1.2-9.589,4.685-9.929,7.031,1.85,7.5,3.766S4468.906,151.062,4466.508,151.25Z" transform="translate(-1.746 -0.491)" fill="#ffad73"/>
        <path id="Trazado_99907" data-name="Trazado 99907" d="M4465.878,135.465s-2.524,6.736-6.4,7.733-5.554-.042-5.554-.042a10.97,10.97,0,0,0,3.588-6.48S4463.975,132.259,4465.878,135.465Z" transform="translate(-1.458 -0.367)" fill="#b43c37"/>
        <path id="Trazado_99908" data-name="Trazado 99908" d="M4466.356,136.073a8.135,8.135,0,0,1,2.345,2.966c.46,1.462.667,4.472,1.543,4.37,0,0,1.9-4.579-.235-7.169C4467.743,133.493,4466.356,136.073,4466.356,136.073Z" transform="translate(-2.562 -0.427)" fill="#b43c37"/>
        <path id="Trazado_99909" data-name="Trazado 99909" d="M4465.805,155.786s5.333,13.176,5.49,15.842.627,43.6.627,43.6-.314,1.882,3.293,1.1,4.549-1.568,4.549-1.568-3.451-25.252-2.509-34.036-7.215-23.108-7.215-23.108Z" transform="translate(-2.513 -2.276)" fill="#94308d"/>
        <path id="Trazado_99910" data-name="Trazado 99910" d="M4489.248,283.012l-3.125.1a1.807,1.807,0,0,1-1.449-.654,80.645,80.645,0,0,1-13.824-26.061q-.182-.574-.383-1.163c-2.833-8.259-8.705-18.627-11.8-28.011-.492-1.494-.935-2.9-1.331-4.233-.128-.426-.251-.845-.369-1.257l3.292-2.5s9.879,16,12.938,31.055C4475.853,263.362,4486.494,279.1,4489.248,283.012Z" transform="translate(-1.728 -7.911)" fill="#153d74"/>
        <path id="Trazado_99911" data-name="Trazado 99911" d="M4459.288,251.273c.053,6.926-.275,22.364-1.118,29.911a1.364,1.364,0,0,1-1.356,1.212h-2.332c-.982,0-1.718-.007-2.207-.015a.9.9,0,0,1-.864-.724c-2.319-11.8-3.979-21.6-5.193-30.071-1.017-7.09-1.919-13.167-2.615-18.4-.7-5.266-1.186-9.675-1.359-13.4q-.041-.88-.059-1.711t-.009-1.624l19.308-1.882C4461.24,227.4,4459.255,247.017,4459.288,251.273Z" transform="translate(-0.413 -7.497)" fill="#214d99"/>
        <path id="Trazado_99912" data-name="Trazado 99912" d="M4454.488,282.9c-.882,0-1.566-.006-2.049-.013a1.087,1.087,0,0,1-1.052-.878c-2.3-11.73-3.954-21.485-5.163-29.918-1.017-7.09-1.919-13.167-2.615-18.4-.7-5.266-1.186-9.675-1.359-13.4l7.084,4.168s-4.522,1.595-2.8,13.672S4452.087,281.194,4454.488,282.9Z" transform="translate(-0.42 -8.006)" fill="#153d74"/>
        <path id="Trazado_99913" data-name="Trazado 99913" d="M4454.979,214.474s-1.359,4.914-6.064,4.286-11.4-3.451-11.4-3.451,2.011-6.354,4.511-14.7c3.027-10.106,6.773-23.134,8.54-31.351a50.819,50.819,0,0,0,.96-5.6l3.9-7.574s5.819,13.064,6.134,16.357S4454.979,214.474,4454.979,214.474Z" transform="translate(0 -2.302)" fill="#94308d"/>
        <path id="Trazado_99914" data-name="Trazado 99914" d="M4455.211,180.624c-.21,5.333-1.465,15.685-12.653,21.226-.03.015-.06.03-.089.043,3.027-10.106,6.773-23.134,8.54-31.351C4453.064,173.614,4455.326,177.688,4455.211,180.624Z" transform="translate(-0.44 -3.586)" fill="#6b2269"/>
        <path id="Trazado_99915" data-name="Trazado 99915" d="M4450.724,171.947l5.152-15.866a79.447,79.447,0,0,0-9.773,3.582s-2.042,2.632-3.305,8.705c0,0-1.335,14.579,1.646,19.912,0,0,9.411,1.882,24.468-3.294v-3.451s-16.469.863-19.841,1.255Z" transform="translate(-0.443 -2.302)" fill="#ffad73"/>
        <path id="Trazado_99916" data-name="Trazado 99916" d="M4455.827,156.081s-9.551.672-11.852,5.8-3.031,22.167-.1,27.186c0,0,4.031,1.148,11.16-.185l.264-.05s2.274-5.568.235-6.666c0,0-6.012.314-5.385-1.673S4455.827,156.081,4455.827,156.081Z" transform="translate(-0.394 -2.302)" fill="#94308d"/>
        <g id="Grupo_53991" data-name="Grupo 53991" transform="translate(4463.292 176.49)">
          <path id="Trazado_99917" data-name="Trazado 99917" d="M4481.893,185.882l-.282.9-15.672-4.875a.605.605,0,0,1-.106-.555.444.444,0,0,1,.388-.35Z" transform="translate(-4465.805 -181.006)" fill="#b43c37"/>
          <path id="Trazado_99918" data-name="Trazado 99918" d="M4484.566,187.211l-1.133-.854-.281.9Z" transform="translate(-4467.346 -181.481)" fill="#b43c37"/>
        </g>
        <path id="Trazado_99919" data-name="Trazado 99919" d="M4471.344,183.833s3.556-2.19,5.047-1.853,5.292,3.091,3.465,3.687-3.31-.029-4.013.4-1.222,1.225-4.5,1.214S4471.344,183.833,4471.344,183.833Z" transform="translate(-2.875 -4.599)" fill="#ffad73"/>
        <g id="Grupo_53992" data-name="Grupo 53992" transform="translate(4467.163 173.304)">
          <path id="Trazado_99920" data-name="Trazado 99920" d="M4470.052,202.978l16.285.006,6.268-23.678-16.285-.006Z" transform="translate(-4470.052 -177.668)" fill="#1e3865"/>
          <path id="Trazado_99921" data-name="Trazado 99921" d="M4477.622,177.509s-1.247.2-.7,1.632h5.561l-1.778-1.632Z" transform="translate(-4470.65 -177.509)" fill="#98adf8"/>
          <path id="Trazado_99922" data-name="Trazado 99922" d="M4477.7,177.509s2.455,0,3.307,1.978c1.042,2.417.6,9.172.6,9.172h13.065s2.063-7.938-2.25-11.15Z" transform="translate(-4470.732 -177.509)" fill="#fff"/>
        </g>
        <path id="Trazado_99923" data-name="Trazado 99923" d="M4491.05,192.158s-1.967-1.473-2.576-.623.467,5.184,1.754,4.864S4491.53,193.04,4491.05,192.158Z" transform="translate(-4.51 -5.428)" fill="#ffad73"/>
      </g>
      <g id="Grupo_53994" data-name="Grupo 53994">
        <path id="Trazado_99924" data-name="Trazado 99924" d="M4717.158,194.779l9.352,27.315,38.924-.029-9.542-27.286Z" fill="#515151"/>
        <path id="Trazado_99925" data-name="Trazado 99925" d="M4718.267,195.379l8.991,26.439.083.247h37.523l-9.321-26.686Z" fill="#a6d2ff"/>
        <path id="Trazado_99926" data-name="Trazado 99926" d="M4726.51,222.094l54.363-.029h0a2,2,0,0,0-2-2h-52.924Z" fill="#515151"/>
      </g>
      <g id="Grupo_53999" data-name="Grupo 53999">
        <g id="Grupo_53998" data-name="Grupo 53998">
          <g id="Grupo_53995" data-name="Grupo 53995">
            <path id="Trazado_99927" data-name="Trazado 99927" d="M4768.283,289.789s-.478,7.453-1.92,7.557c-.192.014-7.314,0-7.314,0l-9.092-.072a2.949,2.949,0,0,1,2.723-2.648c2.658-.458,7.111-2.316,8.728-5.825C4763.11,285.108,4768.283,289.789,4768.283,289.789Z" fill="#032c52"/>
            <path id="Trazado_99928" data-name="Trazado 99928" d="M4794.309,228.486c.347.293,9.607,10.326,8.851,18.032a4.446,4.446,0,0,1-4.447,3.966h-11.279s-11.51,2.056-11.784,4.544-2.63,15.894-7.3,34.947c0,0-3.439,1.184-5.526.338-2.758-1.118-3.159-2.3-3.159-2.3s2.782-42.664,4.978-45.666,24.823-11.929,32.149-12.818S4794.309,228.486,4794.309,228.486Z" fill="#0b3563"/>
            <path id="Trazado_99929" data-name="Trazado 99929" d="M4728.893,217.845s-6.545-1.522-8.219,0a8.255,8.255,0,0,0-2.207,3.729h10.426Z" fill="#ffad73"/>
            <path id="Trazado_99930" data-name="Trazado 99930" d="M4752.348,289.789s-.478,7.453-1.92,7.557c-.192.014-7.315,0-7.315,0l-9.091-.072a2.949,2.949,0,0,1,2.723-2.648c2.658-.458,7.111-2.316,8.728-5.825C4747.175,285.108,4752.348,289.789,4752.348,289.789Z" fill="#0b3563"/>
            <path id="Trazado_99931" data-name="Trazado 99931" d="M4802.863,228.486a61.969,61.969,0,0,1,3.606,11.739,8.451,8.451,0,0,1-8.252,10.259h-26.24s-11.51,2.056-11.784,4.544-2.63,15.894-7.3,34.947a10.983,10.983,0,0,1-6.146-.246,7.611,7.611,0,0,1-2.564-2.081s2.807-42.3,5-45.305,24.822-11.929,32.149-12.818S4802.863,228.486,4802.863,228.486Z" fill="#25468e"/>
            <path id="Trazado_99932" data-name="Trazado 99932" d="M4788.319,190.345l-4.058,3.9-6.914,0c-.008-.556.015-2.875.039-4.976,0-.123,0-.247,0-.369.006-.466.012-.916.017-1.326.014-1.158.026-2,.026-2l1.777-1.215,3.949-2.7,2.135-1.459c0,.035.177,1.946.2,2.223A16.188,16.188,0,0,0,4788.319,190.345Z" fill="#ffad73"/>
            <path id="Trazado_99933" data-name="Trazado 99933" d="M4778.266,189.642c.132-.055,7.613-3.411,8.488-3.122s1.966,2.961,1.966,2.961l-13.174,2.978A6.546,6.546,0,0,1,4778.266,189.642Z" fill="#afd1f4"/>
            <path id="Trazado_99934" data-name="Trazado 99934" d="M4810.624,212.061c-1.426-8.789-7.444-15.367-10.019-17.833-1.729-2.6-11.885-4.747-11.885-4.747l-13.174,2.978a16.787,16.787,0,0,0-11.611,7.731c-2.59,4.282-10.006,14.078-14.876,14.382s-20.166,3.273-20.166,3.273v3.762l23.319.64a3.962,3.962,0,0,0,.849-.067c2.007-.379,10.608-2.088,14.886-4.315.683,11.016,1.49,27.837,5.337,30.508,4.069,2.825,32.686,3.2,35.716-1.1,1.551-2.2-.351-15.253-2.726-27.835C4809.227,218.03,4811.221,215.746,4810.624,212.061Z" fill="#cde1ff"/>
            <path id="Trazado_99935" data-name="Trazado 99935" d="M4784.189,183.959l-.352.219a28.307,28.307,0,0,1-6.429,3.394c.014-1.158.026-2,.026-2l1.777-1.215Z" fill="#f49c64"/>
            <path id="Trazado_99936" data-name="Trazado 99936" d="M4775.01,185.636s10.639,1.258,11.321-5.379,2.514-10.945-4.25-12.029-8.345,1.313-9.112,3.473S4772.261,185.137,4775.01,185.636Z" fill="#ffad73"/>
            <path id="Trazado_99937" data-name="Trazado 99937" d="M4773.251,171.021s2.008,7.2,3.463,6.6,2.783-1.092,2.973,1.155,1.036,4.884,5.774,4.4,6.73-13.461,5.023-15.5C4785.559,161.8,4766.409,164,4773.251,171.021Z" fill="#0b3563"/>
          </g>
          <g id="Grupo_53997" data-name="Grupo 53997">
            <path id="Rectángulo_5248" data-name="Rectángulo 5248" d="M3.619,0H56.242a0,0,0,0,1,0,0V5.972a0,0,0,0,1,0,0H0a0,0,0,0,1,0,0V3.619A3.619,3.619,0,0,1,3.619,0Z" transform="translate(4821.958 251.911) rotate(-180)" fill="#6ca2e9"/>
            <rect id="Rectángulo_5249" data-name="Rectángulo 5249" width="45.163" height="5.972" rx="2.676" transform="translate(4801.898 251.911) rotate(180)" fill="#ff0062"/>
            <g id="Grupo_53996" data-name="Grupo 53996">
              <path id="Trazado_99938" data-name="Trazado 99938" d="M4792.555,295.1h3.394l.953-43.193h-5.186Z" fill="#25468e"/>
              <path id="Trazado_99939" data-name="Trazado 99939" d="M4777.8,295.1h33.012v-2.982l-16.825-1.517-16.187,1.517Z" fill="#25468e"/>
              <path id="Trazado_99940" data-name="Trazado 99940" d="M4814.022,294.636a2.716,2.716,0,1,0-2.716,2.716A2.715,2.715,0,0,0,4814.022,294.636Z" fill="#25468e"/>
              <path id="Trazado_99941" data-name="Trazado 99941" d="M4781.01,294.636a2.715,2.715,0,1,0-2.716,2.716A2.715,2.715,0,0,0,4781.01,294.636Z" fill="#25468e"/>
              <path id="Trazado_99942" data-name="Trazado 99942" d="M4778.986,254.745h30.645a2.834,2.834,0,0,0,2.834-2.834h-36.313A2.834,2.834,0,0,0,4778.986,254.745Z" fill="#25468e"/>
            </g>
            <path id="Trazado_99943" data-name="Trazado 99943" d="M4816.76,251.911a2.584,2.584,0,0,0,2.584-2.584V209.553c0-7.453-4.873-13.495-10.884-13.495h-24.612c-6.011,0-10.884,6.042-10.884,13.495v42.358Z" fill="#ff0062"/>
            <path id="Trazado_99944" data-name="Trazado 99944" d="M4817.246,251.911a4.713,4.713,0,0,0,4.713-4.713V209.553c0-7.453-4.873-13.495-10.884-13.495h-24.612c-6.011,0-10.884,6.042-10.884,13.495v42.358Z" fill="#b1044b"/>
          </g>
        </g>
      </g>
    </g>
  </g>
</svg>
