<?xml version="1.0" encoding="utf-8"?>
<!-- Generator: Adobe Illustrator 25.2.3, SVG Export Plug-In . SVG Version: 6.00 Build 0)  -->
<svg version="1.1" id="Capa_1" xmlns="http://www.w3.org/2000/svg" xmlns:xlink="http://www.w3.org/1999/xlink" x="0px" y="0px"
	 viewBox="0 0 60 60" style="enable-background:new 0 0 60 60;" xml:space="preserve">
<style type="text/css">
	.st0{fill:#95308E;}
	.st1{enable-background:new    ;}
	.st2{fill:#FFFFFF;}
</style>
<g id="Grupo_53832" transform="translate(-284 -782.5)">
	<circle id="Elipse_3954" class="st0" cx="314" cy="812.5" r="30"/>
	<g class="st1">
		<path class="st2" d="M321.1,821.5h-14.6v-2.9l6.9-7.4c0.9-1,1.6-1.9,2.1-2.7c0.5-0.8,0.7-1.5,0.7-2.2c0-0.9-0.2-1.7-0.7-2.2
			c-0.5-0.5-1.2-0.8-2.1-0.8c-1,0-1.7,0.3-2.3,1c-0.6,0.7-0.8,1.5-0.8,2.6H306c0-1.3,0.3-2.5,0.9-3.6s1.5-1.9,2.6-2.5
			s2.4-0.9,3.9-0.9c2.2,0,3.9,0.5,5.1,1.6c1.2,1.1,1.8,2.5,1.8,4.5c0,1.1-0.3,2.1-0.8,3.2s-1.5,2.4-2.8,3.8l-4.8,5.1h9.2V821.5z"/>
	</g>
</g>
</svg>
