<?xml version="1.0" encoding="utf-8"?>
<!-- Generator: Adobe Illustrator 25.2.3, SVG Export Plug-In . SVG Version: 6.00 Build 0)  -->
<svg version="1.1" id="Capa_1" xmlns="http://www.w3.org/2000/svg" xmlns:xlink="http://www.w3.org/1999/xlink" x="0px" y="0px"
	 viewBox="0 0 60 60" style="enable-background:new 0 0 60 60;" xml:space="preserve">
<style type="text/css">
	.st0{fill:#95308E;}
	.st1{enable-background:new    ;}
	.st2{fill:#FFFFFF;}
</style>
<g id="Grupo_53831" transform="translate(-804 -782.5)">
	<circle id="Elipse_3957" class="st0" cx="834" cy="812.5" r="30"/>
	<g class="st1">
		<path class="st2" d="M827.1,811l1.2-10.8h12v3.5h-8.5l-0.5,4.6c1-0.5,2.1-0.8,3.2-0.8c2,0,3.6,0.6,4.8,1.9s1.7,3,1.7,5.3
			c0,1.4-0.3,2.6-0.9,3.7c-0.6,1.1-1.4,1.9-2.5,2.5c-1.1,0.6-2.4,0.9-3.8,0.9c-1.3,0-2.5-0.3-3.6-0.8c-1.1-0.5-2-1.3-2.6-2.2
			s-1-2-1-3.2h4.2c0.1,0.9,0.4,1.6,0.9,2.1s1.2,0.7,2.1,0.7c1,0,1.7-0.3,2.2-1c0.5-0.7,0.8-1.7,0.8-2.9c0-1.2-0.3-2.1-0.9-2.8
			s-1.4-1-2.5-1c-1,0-1.8,0.3-2.4,0.8l-0.4,0.4L827.1,811z"/>
	</g>
</g>
</svg>
