<?xml version="1.0" encoding="utf-8"?>
<!-- Generator: Adobe Illustrator 25.2.3, SVG Export Plug-In . SVG Version: 6.00 Build 0)  -->
<svg version="1.1" id="Capa_1" xmlns="http://www.w3.org/2000/svg" xmlns:xlink="http://www.w3.org/1999/xlink" x="0px" y="0px"
	 viewBox="0 0 60 60" style="enable-background:new 0 0 60 60;" xml:space="preserve">
<style type="text/css">
	.st0{fill:#95308E;}
	.st1{enable-background:new    ;}
	.st2{fill:#FFFFFF;}
</style>
<g id="Grupo_53833" transform="translate(-804 -971.5)">
	<circle id="Elipse_3958" class="st0" cx="834" cy="1001.5" r="30"/>
	<g class="st1">
		<path class="st2" d="M837.9,989v3.5h-0.4c-1.9,0-3.5,0.5-4.6,1.5s-1.9,2.3-2.1,4c1.1-1.2,2.6-1.7,4.3-1.7c1.9,0,3.3,0.7,4.4,2
			s1.6,3.1,1.6,5.2c0,1.4-0.3,2.6-0.9,3.8c-0.6,1.1-1.4,2-2.5,2.6c-1.1,0.6-2.3,0.9-3.7,0.9c-2.2,0-4.1-0.8-5.4-2.3
			s-2.1-3.6-2.1-6.3v-1.5c0-2.3,0.4-4.4,1.3-6.1c0.9-1.8,2.1-3.1,3.8-4.1c1.6-1,3.5-1.5,5.7-1.5H837.9z M833.8,999.6
			c-0.7,0-1.3,0.2-1.9,0.5c-0.6,0.4-1,0.8-1.2,1.4v1.3c0,1.4,0.3,2.5,0.8,3.3s1.3,1.2,2.3,1.2c0.9,0,1.6-0.4,2.2-1.1
			c0.6-0.7,0.8-1.6,0.8-2.8c0-1.2-0.3-2.1-0.8-2.8S834.8,999.6,833.8,999.6z"/>
	</g>
</g>
</svg>
