<?xml version="1.0" encoding="utf-8"?>
<!-- Generator: Adobe Illustrator 25.2.3, SVG Export Plug-In . SVG Version: 6.00 Build 0)  -->
<svg version="1.1" id="Capa_1" xmlns="http://www.w3.org/2000/svg" xmlns:xlink="http://www.w3.org/1999/xlink" x="0px" y="0px"
	 viewBox="0 0 812 265" style="enable-background:new 0 0 812 265;" xml:space="preserve">
<style type="text/css">
	.st0{enable-background:new    ;}
	.st1{fill:#12263F;}
	.st2{fill:#FFFFFF;}
	.st3{fill:none;stroke:#3366C2;stroke-width:2;}
	.st4{fill:none;}
	.st5{fill:none;stroke:#95308E;}
	.st6{fill:#707070;}
</style>
<g id="Grupo_55009" transform="translate(-388 -2482)">
	<g class="st0">
		<path class="st1" d="M1013,2534v-11.4h4c1.4,0,2.4,0.3,3.1,0.8c0.7,0.5,1.1,1.3,1.1,2.3c0,0.6-0.1,1-0.4,1.5
			c-0.3,0.4-0.7,0.7-1.2,0.9c0.6,0.1,1,0.4,1.4,0.9s0.5,1,0.5,1.6c0,1.1-0.3,1.9-1,2.5c-0.7,0.6-1.7,0.8-3,0.9H1013z M1015.4,2527.4
			h1.7c1.2,0,1.8-0.5,1.8-1.4c0-0.5-0.2-0.9-0.4-1.1c-0.3-0.2-0.8-0.3-1.4-0.3h-1.6V2527.4z M1015.4,2529v3.1h2c0.6,0,1-0.1,1.3-0.4
			c0.3-0.3,0.5-0.6,0.5-1.1c0-1-0.5-1.6-1.6-1.6H1015.4z"/>
		<path class="st1" d="M1028,2534c-0.1-0.2-0.2-0.5-0.2-0.8c-0.5,0.6-1.3,0.9-2.1,0.9c-0.8,0-1.5-0.2-2.1-0.7
			c-0.5-0.5-0.8-1.1-0.8-1.8c0-0.9,0.3-1.6,1-2.1s1.6-0.7,2.9-0.7h1v-0.5c0-0.4-0.1-0.7-0.3-0.9c-0.2-0.2-0.5-0.4-0.9-0.4
			c-0.4,0-0.7,0.1-0.9,0.3c-0.2,0.2-0.3,0.4-0.3,0.8h-2.3c0-0.5,0.2-0.9,0.5-1.4c0.3-0.4,0.7-0.7,1.3-1c0.6-0.2,1.2-0.4,1.9-0.4
			c1,0,1.9,0.3,2.5,0.8c0.6,0.5,0.9,1.3,0.9,2.2v3.7c0,0.8,0.1,1.4,0.3,1.8v0.1H1028z M1026.1,2532.4c0.3,0,0.6-0.1,0.9-0.2
			s0.5-0.3,0.6-0.6v-1.5h-0.8c-1.1,0-1.7,0.4-1.8,1.2l0,0.1c0,0.3,0.1,0.5,0.3,0.7C1025.5,2532.3,1025.8,2532.4,1026.1,2532.4z"/>
		<path class="st1" d="M1034,2534h-2.3v-12h2.3V2534z"/>
		<path class="st1" d="M1040.8,2534c-0.1-0.2-0.2-0.5-0.2-0.8c-0.5,0.6-1.3,0.9-2.1,0.9c-0.8,0-1.5-0.2-2.1-0.7
			c-0.5-0.5-0.8-1.1-0.8-1.8c0-0.9,0.3-1.6,1-2.1s1.6-0.7,2.9-0.7h1v-0.5c0-0.4-0.1-0.7-0.3-0.9c-0.2-0.2-0.5-0.4-0.9-0.4
			c-0.4,0-0.7,0.1-0.9,0.3c-0.2,0.2-0.3,0.4-0.3,0.8h-2.3c0-0.5,0.2-0.9,0.5-1.4c0.3-0.4,0.7-0.7,1.3-1c0.6-0.2,1.2-0.4,1.9-0.4
			c1,0,1.9,0.3,2.5,0.8c0.6,0.5,0.9,1.3,0.9,2.2v3.7c0,0.8,0.1,1.4,0.3,1.8v0.1H1040.8z M1038.9,2532.4c0.3,0,0.6-0.1,0.9-0.2
			s0.5-0.3,0.6-0.6v-1.5h-0.8c-1.1,0-1.7,0.4-1.8,1.2l0,0.1c0,0.3,0.1,0.5,0.3,0.7C1038.3,2532.3,1038.6,2532.4,1038.9,2532.4z"/>
		<path class="st1" d="M1046.6,2525.5l0.1,1c0.6-0.8,1.4-1.1,2.4-1.1c0.9,0,1.6,0.3,2,0.8s0.7,1.3,0.7,2.4v5.5h-2.3v-5.4
			c0-0.5-0.1-0.8-0.3-1c-0.2-0.2-0.6-0.3-1-0.3c-0.6,0-1.1,0.3-1.4,0.8v6h-2.3v-8.5H1046.6z"/>
		<path class="st1" d="M1057,2532.3c0.4,0,0.8-0.1,1-0.3c0.3-0.2,0.4-0.5,0.4-0.9h2.1c0,0.6-0.2,1.1-0.5,1.6
			c-0.3,0.5-0.7,0.8-1.3,1.1c-0.5,0.3-1.1,0.4-1.8,0.4c-1.2,0-2.2-0.4-2.9-1.2c-0.7-0.8-1-1.8-1-3.2v-0.1c0-1.3,0.3-2.3,1-3.1
			c0.7-0.8,1.6-1.2,2.9-1.2c1.1,0,1.9,0.3,2.5,0.9c0.6,0.6,1,1.4,1,2.4h-2.1c0-0.4-0.1-0.8-0.4-1.1c-0.3-0.3-0.6-0.4-1-0.4
			c-0.5,0-0.9,0.2-1.2,0.6c-0.3,0.4-0.4,1-0.4,1.9v0.2c0,0.9,0.1,1.5,0.4,1.9S1056.4,2532.3,1057,2532.3z"/>
		<path class="st1" d="M1065.7,2534.2c-1.2,0-2.2-0.4-3-1.1c-0.8-0.8-1.2-1.8-1.2-3v-0.2c0-0.8,0.2-1.6,0.5-2.3s0.8-1.2,1.4-1.5
			s1.3-0.5,2.1-0.5c1.2,0,2.1,0.4,2.7,1.1s1,1.8,1,3.1v0.9h-5.4c0.1,0.6,0.3,1,0.7,1.3s0.8,0.5,1.4,0.5c0.9,0,1.5-0.3,2-0.9l1.1,1.2
			c-0.3,0.5-0.8,0.9-1.4,1.1S1066.4,2534.2,1065.7,2534.2z M1065.4,2527.2c-0.4,0-0.8,0.2-1.1,0.5c-0.3,0.3-0.5,0.7-0.5,1.3h3.1
			v-0.2c0-0.5-0.1-0.9-0.4-1.2C1066.3,2527.3,1065.9,2527.2,1065.4,2527.2z"/>
		<path class="st1" d="M1075.3,2534c-0.1-0.2-0.2-0.5-0.2-0.8c-0.5,0.6-1.3,0.9-2.1,0.9c-0.8,0-1.5-0.2-2.1-0.7
			c-0.5-0.5-0.8-1.1-0.8-1.8c0-0.9,0.3-1.6,1-2.1s1.6-0.7,2.9-0.7h1v-0.5c0-0.4-0.1-0.7-0.3-0.9c-0.2-0.2-0.5-0.4-0.9-0.4
			c-0.4,0-0.7,0.1-0.9,0.3c-0.2,0.2-0.3,0.4-0.3,0.8h-2.3c0-0.5,0.2-0.9,0.5-1.4c0.3-0.4,0.7-0.7,1.3-1c0.6-0.2,1.2-0.4,1.9-0.4
			c1,0,1.9,0.3,2.5,0.8c0.6,0.5,0.9,1.3,0.9,2.2v3.7c0,0.8,0.1,1.4,0.3,1.8v0.1H1075.3z M1073.5,2532.4c0.3,0,0.6-0.1,0.9-0.2
			s0.5-0.3,0.6-0.6v-1.5h-0.8c-1.1,0-1.7,0.4-1.8,1.2l0,0.1c0,0.3,0.1,0.5,0.3,0.7C1072.8,2532.3,1073.1,2532.4,1073.5,2532.4z"/>
		<path class="st1" d="M1078.7,2529.7c0-1.3,0.3-2.4,0.9-3.1c0.6-0.8,1.4-1.2,2.4-1.2c0.8,0,1.5,0.3,2,0.9v-4.3h2.3v12h-2l-0.1-0.9
			c-0.6,0.7-1.3,1.1-2.2,1.1c-1,0-1.8-0.4-2.4-1.2S1078.7,2531.1,1078.7,2529.7z M1080.9,2529.9c0,0.8,0.1,1.4,0.4,1.8
			c0.3,0.4,0.7,0.6,1.2,0.6c0.7,0,1.2-0.3,1.5-0.9v-3.4c-0.3-0.6-0.8-0.9-1.5-0.9C1081.5,2527.2,1080.9,2528.1,1080.9,2529.9z"/>
		<path class="st1" d="M1087.7,2529.7c0-0.8,0.2-1.6,0.5-2.2c0.3-0.7,0.8-1.2,1.4-1.5c0.6-0.4,1.3-0.5,2.1-0.5c1.1,0,2.1,0.3,2.8,1
			c0.7,0.7,1.1,1.6,1.2,2.8l0,0.6c0,1.3-0.4,2.3-1.1,3.1c-0.7,0.8-1.7,1.2-2.9,1.2s-2.2-0.4-2.9-1.2s-1.1-1.8-1.1-3.2V2529.7z
			 M1089.9,2529.9c0,0.8,0.2,1.4,0.5,1.8c0.3,0.4,0.7,0.6,1.3,0.6c0.5,0,1-0.2,1.3-0.6c0.3-0.4,0.5-1.1,0.5-2c0-0.8-0.2-1.4-0.5-1.8
			c-0.3-0.4-0.7-0.6-1.3-0.6c-0.6,0-1,0.2-1.3,0.6C1090.1,2528.3,1089.9,2529,1089.9,2529.9z"/>
		<path class="st1" d="M1101.8,2527.7c-0.3,0-0.6-0.1-0.8-0.1c-0.9,0-1.4,0.3-1.7,0.9v5.5h-2.3v-8.5h2.1l0.1,1
			c0.5-0.8,1.1-1.2,1.9-1.2c0.2,0,0.5,0,0.7,0.1L1101.8,2527.7z"/>
		<path class="st1" d="M1106.5,2529.7c0-1.3,0.3-2.4,0.9-3.1c0.6-0.8,1.4-1.2,2.4-1.2c0.8,0,1.5,0.3,2,0.9v-4.3h2.3v12h-2l-0.1-0.9
			c-0.6,0.7-1.3,1.1-2.2,1.1c-1,0-1.8-0.4-2.4-1.2S1106.5,2531.1,1106.5,2529.7z M1108.8,2529.9c0,0.8,0.1,1.4,0.4,1.8
			c0.3,0.4,0.7,0.6,1.2,0.6c0.7,0,1.2-0.3,1.5-0.9v-3.4c-0.3-0.6-0.8-0.9-1.5-0.9C1109.3,2527.2,1108.8,2528.1,1108.8,2529.9z"/>
		<path class="st1" d="M1119.8,2534.2c-1.2,0-2.2-0.4-3-1.1c-0.8-0.8-1.2-1.8-1.2-3v-0.2c0-0.8,0.2-1.6,0.5-2.3s0.8-1.2,1.4-1.5
			s1.3-0.5,2.1-0.5c1.2,0,2.1,0.4,2.7,1.1s1,1.8,1,3.1v0.9h-5.4c0.1,0.6,0.3,1,0.7,1.3s0.8,0.5,1.4,0.5c0.9,0,1.5-0.3,2-0.9l1.1,1.2
			c-0.3,0.5-0.8,0.9-1.4,1.1S1120.5,2534.2,1119.8,2534.2z M1119.5,2527.2c-0.4,0-0.8,0.2-1.1,0.5c-0.3,0.3-0.5,0.7-0.5,1.3h3.1
			v-0.2c0-0.5-0.1-0.9-0.4-1.2C1120.4,2527.3,1120,2527.2,1119.5,2527.2z"/>
		<path class="st1" d="M1137.6,2530.2c-0.1,1.2-0.5,2.2-1.4,2.9c-0.8,0.7-1.9,1.1-3.2,1.1c-1.5,0-2.6-0.5-3.4-1.5s-1.3-2.3-1.3-4
			v-0.7c0-1.1,0.2-2.1,0.6-2.9c0.4-0.8,0.9-1.5,1.7-1.9c0.7-0.4,1.5-0.7,2.5-0.7c1.3,0,2.4,0.4,3.2,1.1c0.8,0.7,1.3,1.7,1.4,3h-2.3
			c-0.1-0.7-0.3-1.3-0.6-1.6s-0.9-0.5-1.6-0.5c-0.8,0-1.4,0.3-1.8,0.8c-0.4,0.6-0.6,1.4-0.6,2.6v0.9c0,1.2,0.2,2.1,0.6,2.7
			c0.4,0.6,1,0.9,1.8,0.9c0.7,0,1.3-0.2,1.6-0.5c0.4-0.3,0.6-0.8,0.6-1.5H1137.6z"/>
		<path class="st1" d="M1143.9,2534c-0.1-0.2-0.2-0.5-0.2-0.8c-0.5,0.6-1.3,0.9-2.1,0.9c-0.8,0-1.5-0.2-2.1-0.7
			c-0.5-0.5-0.8-1.1-0.8-1.8c0-0.9,0.3-1.6,1-2.1s1.6-0.7,2.9-0.7h1v-0.5c0-0.4-0.1-0.7-0.3-0.9c-0.2-0.2-0.5-0.4-0.9-0.4
			c-0.4,0-0.7,0.1-0.9,0.3c-0.2,0.2-0.3,0.4-0.3,0.8h-2.3c0-0.5,0.2-0.9,0.5-1.4c0.3-0.4,0.7-0.7,1.3-1c0.6-0.2,1.2-0.4,1.9-0.4
			c1,0,1.9,0.3,2.5,0.8c0.6,0.5,0.9,1.3,0.9,2.2v3.7c0,0.8,0.1,1.4,0.3,1.8v0.1H1143.9z M1142,2532.4c0.3,0,0.6-0.1,0.9-0.2
			s0.5-0.3,0.6-0.6v-1.5h-0.8c-1.1,0-1.7,0.4-1.8,1.2l0,0.1c0,0.3,0.1,0.5,0.3,0.7C1141.4,2532.3,1141.7,2532.4,1142,2532.4z"/>
		<path class="st1" d="M1152.3,2527.7c-0.3,0-0.6-0.1-0.8-0.1c-0.9,0-1.4,0.3-1.7,0.9v5.5h-2.3v-8.5h2.1l0.1,1
			c0.5-0.8,1.1-1.2,1.9-1.2c0.2,0,0.5,0,0.7,0.1L1152.3,2527.7z"/>
		<path class="st1" d="M1152.9,2529.7c0-1.3,0.3-2.3,0.9-3.1s1.4-1.2,2.5-1.2c0.9,0,1.6,0.3,2.2,1l0.1-0.8h2v8.2
			c0,0.7-0.2,1.4-0.5,1.9s-0.8,1-1.4,1.2s-1.3,0.4-2.1,0.4c-0.6,0-1.2-0.1-1.8-0.4c-0.6-0.2-1-0.6-1.3-1l1-1.4
			c0.6,0.6,1.2,0.9,2,0.9c0.6,0,1.1-0.2,1.4-0.5c0.3-0.3,0.5-0.8,0.5-1.4v-0.5c-0.5,0.6-1.2,0.9-2.1,0.9c-1,0-1.8-0.4-2.5-1.2
			C1153.3,2532.2,1152.9,2531.1,1152.9,2529.7L1152.9,2529.7z M1155.2,2529.9c0,0.8,0.2,1.4,0.5,1.8c0.3,0.4,0.7,0.7,1.3,0.7
			c0.7,0,1.2-0.3,1.5-0.8v-3.6c-0.3-0.5-0.8-0.8-1.5-0.8c-0.5,0-1,0.2-1.3,0.7C1155.4,2528.3,1155.2,2529,1155.2,2529.9z"/>
		<path class="st1" d="M1167.3,2534c-0.1-0.2-0.2-0.5-0.2-0.8c-0.5,0.6-1.3,0.9-2.1,0.9c-0.8,0-1.5-0.2-2.1-0.7
			c-0.5-0.5-0.8-1.1-0.8-1.8c0-0.9,0.3-1.6,1-2.1s1.6-0.7,2.9-0.7h1v-0.5c0-0.4-0.1-0.7-0.3-0.9c-0.2-0.2-0.5-0.4-0.9-0.4
			c-0.4,0-0.7,0.1-0.9,0.3c-0.2,0.2-0.3,0.4-0.3,0.8h-2.3c0-0.5,0.2-0.9,0.5-1.4c0.3-0.4,0.7-0.7,1.3-1c0.6-0.2,1.2-0.4,1.9-0.4
			c1,0,1.9,0.3,2.5,0.8c0.6,0.5,0.9,1.3,0.9,2.2v3.7c0,0.8,0.1,1.4,0.3,1.8v0.1H1167.3z M1165.4,2532.4c0.3,0,0.6-0.1,0.9-0.2
			s0.5-0.3,0.6-0.6v-1.5h-0.8c-1.1,0-1.7,0.4-1.8,1.2l0,0.1c0,0.3,0.1,0.5,0.3,0.7C1164.8,2532.3,1165.1,2532.4,1165.4,2532.4z"/>
	</g>
	<g class="st0">
		<path class="st1" d="M1021.9,2739.2c-0.1,1.2-0.5,2.2-1.4,2.9c-0.8,0.7-1.9,1.1-3.2,1.1c-1.5,0-2.6-0.5-3.4-1.5s-1.3-2.3-1.3-4
			v-0.7c0-1.1,0.2-2.1,0.6-2.9c0.4-0.8,0.9-1.5,1.7-1.9c0.7-0.4,1.5-0.7,2.5-0.7c1.3,0,2.4,0.4,3.2,1.1c0.8,0.7,1.3,1.7,1.4,3h-2.3
			c-0.1-0.7-0.3-1.3-0.6-1.6s-0.9-0.5-1.6-0.5c-0.8,0-1.4,0.3-1.8,0.8c-0.4,0.6-0.6,1.4-0.6,2.6v0.9c0,1.2,0.2,2.1,0.6,2.7
			c0.4,0.6,1,0.9,1.8,0.9c0.7,0,1.3-0.2,1.6-0.5c0.4-0.3,0.6-0.8,0.6-1.5H1021.9z"/>
		<path class="st1" d="M1023,2738.7c0-0.8,0.2-1.6,0.5-2.2c0.3-0.7,0.8-1.2,1.4-1.5c0.6-0.4,1.3-0.5,2.1-0.5c1.1,0,2.1,0.3,2.8,1
			c0.7,0.7,1.1,1.6,1.2,2.8l0,0.6c0,1.3-0.4,2.3-1.1,3.1c-0.7,0.8-1.7,1.2-2.9,1.2s-2.2-0.4-2.9-1.2s-1.1-1.8-1.1-3.2V2738.7z
			 M1025.2,2738.9c0,0.8,0.2,1.4,0.5,1.8c0.3,0.4,0.7,0.6,1.3,0.6c0.5,0,1-0.2,1.3-0.6c0.3-0.4,0.5-1.1,0.5-2c0-0.8-0.2-1.4-0.5-1.8
			c-0.3-0.4-0.7-0.6-1.3-0.6c-0.6,0-1,0.2-1.3,0.6C1025.4,2737.3,1025.2,2738,1025.2,2738.9z"/>
		<path class="st1" d="M1034.5,2734.5l0.1,0.9c0.6-0.7,1.4-1.1,2.4-1.1c1.1,0,1.8,0.4,2.2,1.3c0.6-0.9,1.4-1.3,2.5-1.3
			c0.9,0,1.6,0.3,2,0.8c0.4,0.5,0.7,1.3,0.7,2.4v5.4h-2.3v-5.4c0-0.5-0.1-0.8-0.3-1.1s-0.5-0.3-1-0.3c-0.7,0-1.1,0.3-1.4,1l0,5.8
			h-2.3v-5.4c0-0.5-0.1-0.8-0.3-1.1c-0.2-0.2-0.5-0.3-1-0.3c-0.6,0-1.1,0.3-1.4,0.8v6h-2.3v-8.5H1034.5z"/>
		<path class="st1" d="M1053.8,2738.9c0,1.3-0.3,2.3-0.9,3.1c-0.6,0.8-1.4,1.2-2.4,1.2c-0.9,0-1.5-0.3-2.1-0.9v4h-2.3v-11.7h2.1
			l0.1,0.8c0.5-0.7,1.3-1,2.1-1c1,0,1.9,0.4,2.4,1.2s0.9,1.8,0.9,3.2V2738.9z M1051.6,2738.7c0-0.8-0.1-1.4-0.4-1.8
			c-0.3-0.4-0.7-0.6-1.2-0.6c-0.7,0-1.2,0.3-1.5,0.8v3.5c0.3,0.6,0.8,0.8,1.5,0.8C1051,2741.3,1051.6,2740.5,1051.6,2738.7z"/>
		<path class="st1" d="M1054.9,2738.7c0-0.8,0.2-1.6,0.5-2.2c0.3-0.7,0.8-1.2,1.4-1.5c0.6-0.4,1.3-0.5,2.1-0.5c1.1,0,2.1,0.3,2.8,1
			c0.7,0.7,1.1,1.6,1.2,2.8l0,0.6c0,1.3-0.4,2.3-1.1,3.1c-0.7,0.8-1.7,1.2-2.9,1.2s-2.2-0.4-2.9-1.2s-1.1-1.8-1.1-3.2V2738.7z
			 M1057.1,2738.9c0,0.8,0.2,1.4,0.5,1.8c0.3,0.4,0.7,0.6,1.3,0.6c0.5,0,1-0.2,1.3-0.6c0.3-0.4,0.5-1.1,0.5-2c0-0.8-0.2-1.4-0.5-1.8
			c-0.3-0.4-0.7-0.6-1.3-0.6c-0.6,0-1,0.2-1.3,0.6C1057.3,2737.3,1057.1,2738,1057.1,2738.9z"/>
		<path class="st1" d="M1066.4,2734.5l0.1,1c0.6-0.8,1.4-1.1,2.4-1.1c0.9,0,1.6,0.3,2,0.8s0.7,1.3,0.7,2.4v5.5h-2.3v-5.4
			c0-0.5-0.1-0.8-0.3-1c-0.2-0.2-0.6-0.3-1-0.3c-0.6,0-1.1,0.3-1.4,0.8v6h-2.3v-8.5H1066.4z"/>
		<path class="st1" d="M1077.1,2743.2c-1.2,0-2.2-0.4-3-1.1c-0.8-0.8-1.2-1.8-1.2-3v-0.2c0-0.8,0.2-1.6,0.5-2.3s0.8-1.2,1.4-1.5
			s1.3-0.5,2.1-0.5c1.2,0,2.1,0.4,2.7,1.1s1,1.8,1,3.1v0.9h-5.4c0.1,0.6,0.3,1,0.7,1.3s0.8,0.5,1.4,0.5c0.9,0,1.5-0.3,2-0.9l1.1,1.2
			c-0.3,0.5-0.8,0.9-1.4,1.1S1077.8,2743.2,1077.1,2743.2z M1076.9,2736.2c-0.4,0-0.8,0.2-1.1,0.5c-0.3,0.3-0.5,0.7-0.5,1.3h3.1
			v-0.2c0-0.5-0.1-0.9-0.4-1.2C1077.7,2736.3,1077.4,2736.2,1076.9,2736.2z"/>
		<path class="st1" d="M1084,2734.5l0.1,1c0.6-0.8,1.4-1.1,2.4-1.1c0.9,0,1.6,0.3,2,0.8s0.7,1.3,0.7,2.4v5.5h-2.3v-5.4
			c0-0.5-0.1-0.8-0.3-1c-0.2-0.2-0.6-0.3-1-0.3c-0.6,0-1.1,0.3-1.4,0.8v6h-2.3v-8.5H1084z"/>
		<path class="st1" d="M1093.6,2732.5v2.1h1.4v1.7h-1.4v4.2c0,0.3,0.1,0.5,0.2,0.7c0.1,0.1,0.3,0.2,0.7,0.2c0.2,0,0.5,0,0.7-0.1v1.7
			c-0.4,0.1-0.9,0.2-1.4,0.2c-1.6,0-2.4-0.8-2.4-2.4v-4.6h-1.2v-1.7h1.2v-2.1H1093.6z"/>
		<path class="st1" d="M1100.2,2743.2c-1.2,0-2.2-0.4-3-1.1c-0.8-0.8-1.2-1.8-1.2-3v-0.2c0-0.8,0.2-1.6,0.5-2.3s0.8-1.2,1.4-1.5
			s1.3-0.5,2.1-0.5c1.2,0,2.1,0.4,2.7,1.1s1,1.8,1,3.1v0.9h-5.4c0.1,0.6,0.3,1,0.7,1.3s0.8,0.5,1.4,0.5c0.9,0,1.5-0.3,2-0.9l1.1,1.2
			c-0.3,0.5-0.8,0.9-1.4,1.1S1100.9,2743.2,1100.2,2743.2z M1099.9,2736.2c-0.4,0-0.8,0.2-1.1,0.5c-0.3,0.3-0.5,0.7-0.5,1.3h3.1
			v-0.2c0-0.5-0.1-0.9-0.4-1.2C1100.7,2736.3,1100.4,2736.2,1099.9,2736.2z"/>
		<path class="st1" d="M1108.5,2738.7c0-1.3,0.3-2.4,0.9-3.1c0.6-0.8,1.4-1.2,2.4-1.2c0.8,0,1.5,0.3,2,0.9v-4.3h2.3v12h-2l-0.1-0.9
			c-0.6,0.7-1.3,1.1-2.2,1.1c-1,0-1.8-0.4-2.4-1.2S1108.5,2740.1,1108.5,2738.7z M1110.8,2738.9c0,0.8,0.1,1.4,0.4,1.8
			c0.3,0.4,0.7,0.6,1.2,0.6c0.7,0,1.2-0.3,1.5-0.9v-3.4c-0.3-0.6-0.8-0.9-1.5-0.9C1111.3,2736.2,1110.8,2737.1,1110.8,2738.9z"/>
		<path class="st1" d="M1121.8,2743.2c-1.2,0-2.2-0.4-3-1.1c-0.8-0.8-1.2-1.8-1.2-3v-0.2c0-0.8,0.2-1.6,0.5-2.3s0.8-1.2,1.4-1.5
			s1.3-0.5,2.1-0.5c1.2,0,2.1,0.4,2.7,1.1s1,1.8,1,3.1v0.9h-5.4c0.1,0.6,0.3,1,0.7,1.3s0.8,0.5,1.4,0.5c0.9,0,1.5-0.3,2-0.9l1.1,1.2
			c-0.3,0.5-0.8,0.9-1.4,1.1S1122.5,2743.2,1121.8,2743.2z M1121.5,2736.2c-0.4,0-0.8,0.2-1.1,0.5c-0.3,0.3-0.5,0.7-0.5,1.3h3.1
			v-0.2c0-0.5-0.1-0.9-0.4-1.2C1122.4,2736.3,1122,2736.2,1121.5,2736.2z"/>
		<path class="st1" d="M1136.6,2740c0-0.4-0.2-0.8-0.5-1s-0.9-0.5-1.7-0.8s-1.5-0.5-1.9-0.8c-1.3-0.7-1.9-1.6-1.9-2.8
			c0-0.6,0.2-1.2,0.5-1.6c0.3-0.5,0.8-0.9,1.5-1.1s1.4-0.4,2.2-0.4c0.8,0,1.5,0.1,2.2,0.4c0.6,0.3,1.1,0.7,1.5,1.2s0.5,1.1,0.5,1.8
			h-2.3c0-0.5-0.2-0.9-0.5-1.2s-0.8-0.4-1.4-0.4c-0.6,0-1,0.1-1.3,0.4c-0.3,0.2-0.5,0.6-0.5,1c0,0.4,0.2,0.7,0.6,0.9
			c0.4,0.2,0.9,0.5,1.6,0.7c1.3,0.4,2.3,0.9,2.9,1.5s0.9,1.3,0.9,2.2c0,1-0.4,1.8-1.1,2.3c-0.7,0.6-1.7,0.8-3,0.8
			c-0.9,0-1.7-0.2-2.4-0.5s-1.3-0.8-1.6-1.3c-0.4-0.6-0.6-1.2-0.6-1.9h2.4c0,1.3,0.8,1.9,2.2,1.9c0.6,0,1-0.1,1.3-0.3
			S1136.6,2740.4,1136.6,2740z"/>
		<path class="st1" d="M1140,2738.7c0-0.8,0.2-1.6,0.5-2.2c0.3-0.7,0.8-1.2,1.4-1.5c0.6-0.4,1.3-0.5,2.1-0.5c1.1,0,2.1,0.3,2.8,1
			c0.7,0.7,1.1,1.6,1.2,2.8l0,0.6c0,1.3-0.4,2.3-1.1,3.1c-0.7,0.8-1.7,1.2-2.9,1.2s-2.2-0.4-2.9-1.2s-1.1-1.8-1.1-3.2V2738.7z
			 M1142.3,2738.9c0,0.8,0.2,1.4,0.5,1.8c0.3,0.4,0.7,0.6,1.3,0.6c0.5,0,1-0.2,1.3-0.6c0.3-0.4,0.5-1.1,0.5-2c0-0.8-0.2-1.4-0.5-1.8
			c-0.3-0.4-0.7-0.6-1.3-0.6c-0.6,0-1,0.2-1.3,0.6C1142.4,2737.3,1142.3,2738,1142.3,2738.9z"/>
		<path class="st1" d="M1150,2743v-6.8h-1.3v-1.7h1.3v-0.7c0-0.9,0.3-1.7,0.8-2.2c0.5-0.5,1.3-0.8,2.3-0.8c0.3,0,0.7,0.1,1.1,0.2
			l0,1.7c-0.2,0-0.4-0.1-0.7-0.1c-0.8,0-1.3,0.4-1.3,1.2v0.7h1.7v1.7h-1.7v6.8H1150z"/>
		<path class="st1" d="M1157.9,2732.5v2.1h1.4v1.7h-1.4v4.2c0,0.3,0.1,0.5,0.2,0.7c0.1,0.1,0.3,0.2,0.7,0.2c0.2,0,0.5,0,0.7-0.1v1.7
			c-0.4,0.1-0.9,0.2-1.4,0.2c-1.6,0-2.4-0.8-2.4-2.4v-4.6h-1.2v-1.7h1.2v-2.1H1157.9z"/>
		<path class="st1" d="M1167.9,2739.9l1.1-5.4h2.2l-2.2,8.5h-1.9l-1.6-5.3l-1.6,5.3h-1.9l-2.2-8.5h2.2l1.1,5.4l1.5-5.4h1.6
			L1167.9,2739.9z"/>
		<path class="st1" d="M1177.2,2743c-0.1-0.2-0.2-0.5-0.2-0.8c-0.5,0.6-1.3,0.9-2.1,0.9c-0.8,0-1.5-0.2-2.1-0.7
			c-0.5-0.5-0.8-1.1-0.8-1.8c0-0.9,0.3-1.6,1-2.1s1.6-0.7,2.9-0.7h1v-0.5c0-0.4-0.1-0.7-0.3-0.9c-0.2-0.2-0.5-0.4-0.9-0.4
			c-0.4,0-0.7,0.1-0.9,0.3c-0.2,0.2-0.3,0.4-0.3,0.8h-2.3c0-0.5,0.2-0.9,0.5-1.4c0.3-0.4,0.7-0.7,1.3-1c0.6-0.2,1.2-0.4,1.9-0.4
			c1,0,1.9,0.3,2.5,0.8c0.6,0.5,0.9,1.3,0.9,2.2v3.7c0,0.8,0.1,1.4,0.3,1.8v0.1H1177.2z M1175.4,2741.4c0.3,0,0.6-0.1,0.9-0.2
			s0.5-0.3,0.6-0.6v-1.5h-0.8c-1.1,0-1.7,0.4-1.8,1.2l0,0.1c0,0.3,0.1,0.5,0.3,0.7C1174.7,2741.3,1175,2741.4,1175.4,2741.4z"/>
		<path class="st1" d="M1185.7,2736.7c-0.3,0-0.6-0.1-0.8-0.1c-0.9,0-1.4,0.3-1.7,0.9v5.5h-2.3v-8.5h2.1l0.1,1
			c0.5-0.8,1.1-1.2,1.9-1.2c0.2,0,0.5,0,0.7,0.1L1185.7,2736.7z"/>
		<path class="st1" d="M1190.5,2743.2c-1.2,0-2.2-0.4-3-1.1c-0.8-0.8-1.2-1.8-1.2-3v-0.2c0-0.8,0.2-1.6,0.5-2.3s0.8-1.2,1.4-1.5
			s1.3-0.5,2.1-0.5c1.2,0,2.1,0.4,2.7,1.1s1,1.8,1,3.1v0.9h-5.4c0.1,0.6,0.3,1,0.7,1.3s0.8,0.5,1.4,0.5c0.9,0,1.5-0.3,2-0.9l1.1,1.2
			c-0.3,0.5-0.8,0.9-1.4,1.1S1191.2,2743.2,1190.5,2743.2z M1190.2,2736.2c-0.4,0-0.8,0.2-1.1,0.5c-0.3,0.3-0.5,0.7-0.5,1.3h3.1
			v-0.2c0-0.5-0.1-0.9-0.4-1.2C1191.1,2736.3,1190.7,2736.2,1190.2,2736.2z"/>
	</g>
	<g class="st0">
		<path class="st1" d="M933.2,2684.8h-1.9v4.2H929v-11.4h4.2c1.3,0,2.4,0.3,3.1,0.9c0.7,0.6,1.1,1.4,1.1,2.5c0,0.8-0.2,1.4-0.5,1.9
			s-0.8,0.9-1.5,1.2l2.5,4.6v0.1h-2.5L933.2,2684.8z M931.4,2682.9h1.9c0.6,0,1-0.1,1.4-0.4c0.3-0.3,0.5-0.7,0.5-1.2
			c0-0.5-0.2-1-0.5-1.3s-0.8-0.5-1.4-0.5h-1.9V2682.9z"/>
		<path class="st1" d="M943,2689.2c-1.2,0-2.2-0.4-3-1.1c-0.8-0.8-1.2-1.8-1.2-3v-0.2c0-0.8,0.2-1.6,0.5-2.3s0.8-1.2,1.4-1.5
			s1.3-0.5,2.1-0.5c1.2,0,2.1,0.4,2.7,1.1s1,1.8,1,3.1v0.9h-5.4c0.1,0.6,0.3,1,0.7,1.3s0.8,0.5,1.4,0.5c0.9,0,1.5-0.3,2-0.9l1.1,1.2
			c-0.3,0.5-0.8,0.9-1.4,1.1S943.7,2689.2,943,2689.2z M942.7,2682.2c-0.4,0-0.8,0.2-1.1,0.5c-0.3,0.3-0.5,0.7-0.5,1.3h3.1v-0.2
			c0-0.5-0.1-0.9-0.4-1.2C943.6,2682.3,943.2,2682.2,942.7,2682.2z M942.9,2677h2.5l-2.2,2.4h-1.8L942.9,2677z"/>
		<path class="st1" d="M955.3,2684.9c0,1.3-0.3,2.3-0.9,3.1c-0.6,0.8-1.4,1.2-2.4,1.2c-0.9,0-1.5-0.3-2.1-0.9v4h-2.3v-11.7h2.1
			l0.1,0.8c0.5-0.7,1.3-1,2.1-1c1,0,1.9,0.4,2.4,1.2s0.9,1.8,0.9,3.2V2684.9z M953.1,2684.7c0-0.8-0.1-1.4-0.4-1.8
			c-0.3-0.4-0.7-0.6-1.2-0.6c-0.7,0-1.2,0.3-1.5,0.8v3.5c0.3,0.6,0.8,0.8,1.5,0.8C952.5,2687.3,953.1,2686.5,953.1,2684.7z"/>
		<path class="st1" d="M959.1,2689h-2.3v-12h2.3V2689z"/>
		<path class="st1" d="M961,2678.4c0-0.3,0.1-0.6,0.3-0.8s0.5-0.3,0.9-0.3c0.4,0,0.7,0.1,0.9,0.3c0.2,0.2,0.3,0.5,0.3,0.8
			c0,0.3-0.1,0.6-0.3,0.8c-0.2,0.2-0.5,0.3-0.9,0.3c-0.4,0-0.7-0.1-0.9-0.3C961.1,2679,961,2678.7,961,2678.4z M963.4,2689h-2.3
			v-8.5h2.3V2689z"/>
		<path class="st1" d="M968.7,2687.3c0.4,0,0.8-0.1,1-0.3c0.3-0.2,0.4-0.5,0.4-0.9h2.1c0,0.6-0.2,1.1-0.5,1.6
			c-0.3,0.5-0.7,0.8-1.3,1.1c-0.5,0.3-1.1,0.4-1.8,0.4c-1.2,0-2.2-0.4-2.9-1.2c-0.7-0.8-1-1.8-1-3.2v-0.1c0-1.3,0.3-2.3,1-3.1
			c0.7-0.8,1.6-1.2,2.9-1.2c1.1,0,1.9,0.3,2.5,0.9c0.6,0.6,1,1.4,1,2.4h-2.1c0-0.4-0.1-0.8-0.4-1.1c-0.3-0.3-0.6-0.4-1-0.4
			c-0.5,0-0.9,0.2-1.2,0.6c-0.3,0.4-0.4,1-0.4,1.9v0.2c0,0.9,0.1,1.5,0.4,1.9S968.2,2687.3,968.7,2687.3z"/>
		<path class="st1" d="M978.5,2689c-0.1-0.2-0.2-0.5-0.2-0.8c-0.5,0.6-1.3,0.9-2.1,0.9c-0.8,0-1.5-0.2-2.1-0.7
			c-0.5-0.5-0.8-1.1-0.8-1.8c0-0.9,0.3-1.6,1-2.1s1.6-0.7,2.9-0.7h1v-0.5c0-0.4-0.1-0.7-0.3-0.9c-0.2-0.2-0.5-0.4-0.9-0.4
			c-0.4,0-0.7,0.1-0.9,0.3c-0.2,0.2-0.3,0.4-0.3,0.8h-2.3c0-0.5,0.2-0.9,0.5-1.4c0.3-0.4,0.7-0.7,1.3-1c0.6-0.2,1.2-0.4,1.9-0.4
			c1,0,1.9,0.3,2.5,0.8c0.6,0.5,0.9,1.3,0.9,2.2v3.7c0,0.8,0.1,1.4,0.3,1.8v0.1H978.5z M976.6,2687.4c0.3,0,0.6-0.1,0.9-0.2
			s0.5-0.3,0.6-0.6v-1.5h-0.8c-1.1,0-1.7,0.4-1.8,1.2l0,0.1c0,0.3,0.1,0.5,0.3,0.7C976,2687.3,976.2,2687.4,976.6,2687.4z"/>
		<path class="st1" d="M988.3,2682.3h1.2c0.6,0,1-0.1,1.3-0.4c0.3-0.3,0.4-0.7,0.4-1.1c0-0.5-0.1-0.8-0.4-1.1s-0.7-0.4-1.1-0.4
			c-0.4,0-0.8,0.1-1.1,0.4c-0.3,0.2-0.4,0.5-0.4,0.9h-2.3c0-0.6,0.2-1.1,0.5-1.6s0.8-0.8,1.3-1.1c0.6-0.3,1.2-0.4,1.9-0.4
			c1.2,0,2.1,0.3,2.8,0.9c0.7,0.6,1,1.4,1,2.4c0,0.5-0.2,1-0.5,1.4c-0.3,0.4-0.7,0.8-1.2,1c0.6,0.2,1.1,0.6,1.4,1
			c0.3,0.5,0.5,1,0.5,1.6c0,1-0.4,1.8-1.1,2.4c-0.7,0.6-1.7,0.9-2.9,0.9c-1.1,0-2.1-0.3-2.8-0.9c-0.7-0.6-1.1-1.4-1.1-2.4h2.3
			c0,0.4,0.2,0.8,0.5,1s0.7,0.4,1.2,0.4c0.5,0,1-0.1,1.3-0.4s0.5-0.7,0.5-1.1c0-1.1-0.6-1.7-1.9-1.7h-1.2V2682.3z"/>
	</g>
	<g class="st0">
		<path class="st1" d="M695.2,2684.8h-1.9v4.2H691v-11.4h4.2c1.3,0,2.4,0.3,3.1,0.9c0.7,0.6,1.1,1.4,1.1,2.5c0,0.8-0.2,1.4-0.5,1.9
			s-0.8,0.9-1.5,1.2l2.5,4.6v0.1h-2.5L695.2,2684.8z M693.4,2682.9h1.9c0.6,0,1-0.1,1.4-0.4c0.3-0.3,0.5-0.7,0.5-1.2
			c0-0.5-0.2-1-0.5-1.3s-0.8-0.5-1.4-0.5h-1.9V2682.9z"/>
		<path class="st1" d="M705,2689.2c-1.2,0-2.2-0.4-3-1.1c-0.8-0.8-1.2-1.8-1.2-3v-0.2c0-0.8,0.2-1.6,0.5-2.3s0.8-1.2,1.4-1.5
			s1.3-0.5,2.1-0.5c1.2,0,2.1,0.4,2.7,1.1s1,1.8,1,3.1v0.9h-5.4c0.1,0.6,0.3,1,0.7,1.3s0.8,0.5,1.4,0.5c0.9,0,1.5-0.3,2-0.9l1.1,1.2
			c-0.3,0.5-0.8,0.9-1.4,1.1S705.7,2689.2,705,2689.2z M704.7,2682.2c-0.4,0-0.8,0.2-1.1,0.5c-0.3,0.3-0.5,0.7-0.5,1.3h3.1v-0.2
			c0-0.5-0.1-0.9-0.4-1.2C705.6,2682.3,705.2,2682.2,704.7,2682.2z M704.9,2677h2.5l-2.2,2.4h-1.8L704.9,2677z"/>
		<path class="st1" d="M717.3,2684.9c0,1.3-0.3,2.3-0.9,3.1c-0.6,0.8-1.4,1.2-2.4,1.2c-0.9,0-1.5-0.3-2.1-0.9v4h-2.3v-11.7h2.1
			l0.1,0.8c0.5-0.7,1.3-1,2.1-1c1,0,1.9,0.4,2.4,1.2s0.9,1.8,0.9,3.2V2684.9z M715.1,2684.7c0-0.8-0.1-1.4-0.4-1.8
			c-0.3-0.4-0.7-0.6-1.2-0.6c-0.7,0-1.2,0.3-1.5,0.8v3.5c0.3,0.6,0.8,0.8,1.5,0.8C714.5,2687.3,715.1,2686.5,715.1,2684.7z"/>
		<path class="st1" d="M721.1,2689h-2.3v-12h2.3V2689z"/>
		<path class="st1" d="M723,2678.4c0-0.3,0.1-0.6,0.3-0.8s0.5-0.3,0.9-0.3c0.4,0,0.7,0.1,0.9,0.3c0.2,0.2,0.3,0.5,0.3,0.8
			c0,0.3-0.1,0.6-0.3,0.8c-0.2,0.2-0.5,0.3-0.9,0.3c-0.4,0-0.7-0.1-0.9-0.3C723.1,2679,723,2678.7,723,2678.4z M725.4,2689h-2.3
			v-8.5h2.3V2689z"/>
		<path class="st1" d="M730.7,2687.3c0.4,0,0.8-0.1,1-0.3c0.3-0.2,0.4-0.5,0.4-0.9h2.1c0,0.6-0.2,1.1-0.5,1.6
			c-0.3,0.5-0.7,0.8-1.3,1.1c-0.5,0.3-1.1,0.4-1.8,0.4c-1.2,0-2.2-0.4-2.9-1.2c-0.7-0.8-1-1.8-1-3.2v-0.1c0-1.3,0.3-2.3,1-3.1
			c0.7-0.8,1.6-1.2,2.9-1.2c1.1,0,1.9,0.3,2.5,0.9c0.6,0.6,1,1.4,1,2.4h-2.1c0-0.4-0.1-0.8-0.4-1.1c-0.3-0.3-0.6-0.4-1-0.4
			c-0.5,0-0.9,0.2-1.2,0.6c-0.3,0.4-0.4,1-0.4,1.9v0.2c0,0.9,0.1,1.5,0.4,1.9S730.2,2687.3,730.7,2687.3z"/>
		<path class="st1" d="M740.5,2689c-0.1-0.2-0.2-0.5-0.2-0.8c-0.5,0.6-1.3,0.9-2.1,0.9c-0.8,0-1.5-0.2-2.1-0.7
			c-0.5-0.5-0.8-1.1-0.8-1.8c0-0.9,0.3-1.6,1-2.1s1.6-0.7,2.9-0.7h1v-0.5c0-0.4-0.1-0.7-0.3-0.9c-0.2-0.2-0.5-0.4-0.9-0.4
			c-0.4,0-0.7,0.1-0.9,0.3c-0.2,0.2-0.3,0.4-0.3,0.8h-2.3c0-0.5,0.2-0.9,0.5-1.4c0.3-0.4,0.7-0.7,1.3-1c0.6-0.2,1.2-0.4,1.9-0.4
			c1,0,1.9,0.3,2.5,0.8c0.6,0.5,0.9,1.3,0.9,2.2v3.7c0,0.8,0.1,1.4,0.3,1.8v0.1H740.5z M738.6,2687.4c0.3,0,0.6-0.1,0.9-0.2
			s0.5-0.3,0.6-0.6v-1.5h-0.8c-1.1,0-1.7,0.4-1.8,1.2l0,0.1c0,0.3,0.1,0.5,0.3,0.7C738,2687.3,738.2,2687.4,738.6,2687.4z"/>
		<path class="st1" d="M755.8,2689H748v-1.5l3.7-3.9c0.5-0.6,0.9-1,1.1-1.4s0.4-0.8,0.4-1.2c0-0.5-0.1-0.9-0.4-1.2
			c-0.3-0.3-0.6-0.4-1.1-0.4c-0.5,0-0.9,0.2-1.2,0.5c-0.3,0.4-0.4,0.8-0.4,1.4h-2.3c0-0.7,0.2-1.3,0.5-1.9c0.3-0.6,0.8-1,1.4-1.3
			c0.6-0.3,1.3-0.5,2.1-0.5c1.2,0,2.1,0.3,2.7,0.8s1,1.4,1,2.4c0,0.6-0.1,1.1-0.4,1.7c-0.3,0.6-0.8,1.3-1.5,2l-2.6,2.7h4.9V2689z"/>
	</g>
	<g class="st0">
		<path class="st1" d="M449.2,2684.8h-1.9v4.2H445v-11.4h4.2c1.3,0,2.4,0.3,3.1,0.9c0.7,0.6,1.1,1.4,1.1,2.5c0,0.8-0.2,1.4-0.5,1.9
			s-0.8,0.9-1.5,1.2l2.5,4.6v0.1h-2.5L449.2,2684.8z M447.4,2682.9h1.9c0.6,0,1-0.1,1.4-0.4c0.3-0.3,0.5-0.7,0.5-1.2
			c0-0.5-0.2-1-0.5-1.3s-0.8-0.5-1.4-0.5h-1.9V2682.9z"/>
		<path class="st1" d="M459,2689.2c-1.2,0-2.2-0.4-3-1.1c-0.8-0.8-1.2-1.8-1.2-3v-0.2c0-0.8,0.2-1.6,0.5-2.3s0.8-1.2,1.4-1.5
			s1.3-0.5,2.1-0.5c1.2,0,2.1,0.4,2.7,1.1s1,1.8,1,3.1v0.9h-5.4c0.1,0.6,0.3,1,0.7,1.3s0.8,0.5,1.4,0.5c0.9,0,1.5-0.3,2-0.9l1.1,1.2
			c-0.3,0.5-0.8,0.9-1.4,1.1S459.7,2689.2,459,2689.2z M458.7,2682.2c-0.4,0-0.8,0.2-1.1,0.5c-0.3,0.3-0.5,0.7-0.5,1.3h3.1v-0.2
			c0-0.5-0.1-0.9-0.4-1.2C459.6,2682.3,459.2,2682.2,458.7,2682.2z M458.9,2677h2.5l-2.2,2.4h-1.8L458.9,2677z"/>
		<path class="st1" d="M471.3,2684.9c0,1.3-0.3,2.3-0.9,3.1c-0.6,0.8-1.4,1.2-2.4,1.2c-0.9,0-1.5-0.3-2.1-0.9v4h-2.3v-11.7h2.1
			l0.1,0.8c0.5-0.7,1.3-1,2.1-1c1,0,1.9,0.4,2.4,1.2s0.9,1.8,0.9,3.2V2684.9z M469.1,2684.7c0-0.8-0.1-1.4-0.4-1.8
			c-0.3-0.4-0.7-0.6-1.2-0.6c-0.7,0-1.2,0.3-1.5,0.8v3.5c0.3,0.6,0.8,0.8,1.5,0.8C468.5,2687.3,469.1,2686.5,469.1,2684.7z"/>
		<path class="st1" d="M475.1,2689h-2.3v-12h2.3V2689z"/>
		<path class="st1" d="M477,2678.4c0-0.3,0.1-0.6,0.3-0.8s0.5-0.3,0.9-0.3c0.4,0,0.7,0.1,0.9,0.3c0.2,0.2,0.3,0.5,0.3,0.8
			c0,0.3-0.1,0.6-0.3,0.8c-0.2,0.2-0.5,0.3-0.9,0.3c-0.4,0-0.7-0.1-0.9-0.3C477.1,2679,477,2678.7,477,2678.4z M479.4,2689h-2.3
			v-8.5h2.3V2689z"/>
		<path class="st1" d="M484.7,2687.3c0.4,0,0.8-0.1,1-0.3c0.3-0.2,0.4-0.5,0.4-0.9h2.1c0,0.6-0.2,1.1-0.5,1.6
			c-0.3,0.5-0.7,0.8-1.3,1.1c-0.5,0.3-1.1,0.4-1.8,0.4c-1.2,0-2.2-0.4-2.9-1.2c-0.7-0.8-1-1.8-1-3.2v-0.1c0-1.3,0.3-2.3,1-3.1
			c0.7-0.8,1.6-1.2,2.9-1.2c1.1,0,1.9,0.3,2.5,0.9c0.6,0.6,1,1.4,1,2.4h-2.1c0-0.4-0.1-0.8-0.4-1.1c-0.3-0.3-0.6-0.4-1-0.4
			c-0.5,0-0.9,0.2-1.2,0.6c-0.3,0.4-0.4,1-0.4,1.9v0.2c0,0.9,0.1,1.5,0.4,1.9S484.2,2687.3,484.7,2687.3z"/>
		<path class="st1" d="M494.5,2689c-0.1-0.2-0.2-0.5-0.2-0.8c-0.5,0.6-1.3,0.9-2.1,0.9c-0.8,0-1.5-0.2-2.1-0.7
			c-0.5-0.5-0.8-1.1-0.8-1.8c0-0.9,0.3-1.6,1-2.1s1.6-0.7,2.9-0.7h1v-0.5c0-0.4-0.1-0.7-0.3-0.9c-0.2-0.2-0.5-0.4-0.9-0.4
			c-0.4,0-0.7,0.1-0.9,0.3c-0.2,0.2-0.3,0.4-0.3,0.8h-2.3c0-0.5,0.2-0.9,0.5-1.4c0.3-0.4,0.7-0.7,1.3-1c0.6-0.2,1.2-0.4,1.9-0.4
			c1,0,1.9,0.3,2.5,0.8c0.6,0.5,0.9,1.3,0.9,2.2v3.7c0,0.8,0.1,1.4,0.3,1.8v0.1H494.5z M492.6,2687.4c0.3,0,0.6-0.1,0.9-0.2
			s0.5-0.3,0.6-0.6v-1.5h-0.8c-1.1,0-1.7,0.4-1.8,1.2l0,0.1c0,0.3,0.1,0.5,0.3,0.7C492,2687.3,492.2,2687.4,492.6,2687.4z"/>
		<path class="st1" d="M507.5,2689h-2.3v-8.7l-2.7,0.8v-1.8l4.7-1.7h0.2V2689z"/>
	</g>
	<g id="Rectángulo_5143" transform="translate(651 2482)">
		<rect y="0" class="st2" width="289" height="59"/>
		<rect x="1" y="1" class="st3" width="287" height="57"/>
	</g>
	<g id="Rectángulo_5144" transform="translate(926 2487)">
		<rect y="0" class="st2" width="28" height="14"/>
		<rect x="1" y="1" class="st3" width="26" height="12"/>
	</g>
	<g id="Rectángulo_5145" transform="translate(926 2504)">
		<rect y="0" class="st2" width="28" height="15"/>
		<rect x="1" y="1" class="st3" width="26" height="13"/>
	</g>
	<g id="Rectángulo_5146" transform="translate(444 2602)">
		<rect y="0" class="st2" width="214" height="59"/>
		<rect x="1" y="1" class="st3" width="212" height="57"/>
	</g>
	<g id="Rectángulo_5149" transform="translate(686 2602)">
		<rect y="0" class="st2" width="214" height="59"/>
		<rect x="1" y="1" class="st3" width="212" height="57"/>
	</g>
	<g id="Rectángulo_5152" transform="translate(928 2602)">
		<rect y="0" class="st2" width="214" height="59"/>
		<rect x="1" y="1" class="st3" width="212" height="57"/>
	</g>
	<g id="Rectángulo_5147" transform="translate(644 2607)">
		<rect y="0" class="st2" width="28" height="15"/>
		<rect x="1" y="1" class="st3" width="26" height="13"/>
	</g>
	<g id="Rectángulo_5151" transform="translate(886 2607)">
		<rect y="0" class="st2" width="28" height="15"/>
		<rect x="1" y="1" class="st3" width="26" height="13"/>
	</g>
	<g id="Rectángulo_5154" transform="translate(1128 2607)">
		<rect y="0" class="st2" width="28" height="15"/>
		<rect x="1" y="1" class="st3" width="26" height="13"/>
	</g>
	<g id="Rectángulo_5148" transform="translate(644 2624.999)">
		<rect y="0" class="st2" width="28" height="14"/>
		<rect x="1" y="1" class="st3" width="26" height="12"/>
	</g>
	<g id="Rectángulo_5150" transform="translate(886 2624.999)">
		<rect y="0" class="st2" width="28" height="14"/>
		<rect x="1" y="1" class="st3" width="26" height="12"/>
	</g>
	<g id="Rectángulo_5153" transform="translate(1128 2624.999)">
		<rect y="0" class="st2" width="28" height="14"/>
		<rect x="1" y="1" class="st3" width="26" height="12"/>
	</g>
	<g id="Rectángulo_5155" transform="translate(388 2570)">
		<rect y="0" class="st4" width="812" height="146"/>
		<rect x="0.5" y="0.5" class="st5" width="811" height="145"/>
	</g>
	<g id="Grupo_53822" transform="translate(-1853.528 2920.337)">
		<g id="Trazado_99691">
			<path id="Trazado_99691-2" class="st6" d="M2433.3-326.7l-0.5-1.9l2.9-0.7l0.5,1.9L2433.3-326.7z M2441.1-328.5l-0.5-1.9l2.9-0.7
				l0.5,1.9L2441.1-328.5z M2448.9-330.4l-0.5-1.9l2.9-0.7l0.5,1.9L2448.9-330.4z M2456.6-332.2l-0.5-1.9l2.9-0.7l0.5,1.9
				L2456.6-332.2z M2464.4-334.1l-0.5-1.9l2.9-0.7l0.5,1.9L2464.4-334.1z M2472.2-335.9l-0.5-1.9l2.9-0.7l0.5,1.9L2472.2-335.9z
				 M2480-337.8l-0.5-1.9l2.9-0.7l0.5,1.9L2480-337.8z M2487.8-339.6l-0.5-1.9l2.9-0.7l0.5,1.9L2487.8-339.6z M2495.6-341.5
				l-0.5-1.9l2.9-0.7l0.5,1.9L2495.6-341.5z M2503.3-343.3l-0.5-1.9l2.9-0.7l0.5,1.9L2503.3-343.3z M2511.1-345.2l-0.5-1.9l2.9-0.7
				l0.5,1.9L2511.1-345.2z M2518.9-347l-0.5-1.9l2.9-0.7l0.5,1.9L2518.9-347z M2526.7-348.9l-0.5-1.9l2.9-0.7l0.5,1.9L2526.7-348.9z
				 M2534.5-350.8l-0.5-1.9l2.9-0.7l0.5,1.9L2534.5-350.8z M2542.3-352.6l-0.5-1.9l2.9-0.7l0.5,1.9L2542.3-352.6z M2550-354.5
				l-0.5-1.9l2.9-0.7l0.5,1.9L2550-354.5z M2557.8-356.3l-0.5-1.9l2.9-0.7l0.5,1.9L2557.8-356.3z M2565.6-358.2l-0.5-1.9l2.9-0.7
				l0.5,1.9L2565.6-358.2z M2573.4-360l-0.5-1.9l2.9-0.7l0.5,1.9L2573.4-360z M2581.2-361.9l-0.5-1.9l2.9-0.7l0.5,1.9L2581.2-361.9z
				 M2588.9-363.7l-0.5-1.9l2.9-0.7l0.5,1.9L2588.9-363.7z M2596.7-365.6l-0.5-1.9l2.9-0.7l0.5,1.9L2596.7-365.6z M2604.5-367.4
				l-0.5-1.9l2.9-0.7l0.5,1.9L2604.5-367.4z M2612.3-369.3l-0.5-1.9l2.9-0.7l0.5,1.9L2612.3-369.3z M2620.1-371.1l-0.5-1.9l2.9-0.7
				l0.5,1.9L2620.1-371.1z M2627.9-373l-0.5-1.9l2.9-0.7l0.5,1.9L2627.9-373z M2635.6-374.8l-0.5-1.9l2.9-0.7l0.5,1.9L2635.6-374.8z
				 M2643.4-376.7l-0.5-1.9l2.9-0.7l0.5,1.9L2643.4-376.7z"/>
			<g id="Grupo_53818">
				<path id="Trazado_99692" class="st6" d="M2436.2-336.8l1.7,1.1l-5.5,8.2l8.6,4.9l-1,1.7l-10.5-5.9L2436.2-336.8z"/>
			</g>
		</g>
		<g id="Trazado_99691-3">
			<path id="Trazado_99693" class="st6" d="M2864-326.7l-2.9-0.7l0.5-1.9l2.9,0.7L2864-326.7z M2856.2-328.5l-2.9-0.7l0.5-1.9
				l2.9,0.7L2856.2-328.5z M2848.4-330.4l-2.9-0.7l0.5-1.9l2.9,0.7L2848.4-330.4z M2840.7-332.2l-2.9-0.7l0.5-1.9l2.9,0.7
				L2840.7-332.2z M2832.9-334.1l-2.9-0.7l0.5-1.9l2.9,0.7L2832.9-334.1z M2825.1-335.9l-2.9-0.7l0.5-1.9l2.9,0.7L2825.1-335.9z
				 M2817.3-337.8l-2.9-0.7l0.5-1.9l2.9,0.7L2817.3-337.8z M2809.5-339.6l-2.9-0.7l0.5-1.9l2.9,0.7L2809.5-339.6z M2801.8-341.5
				l-2.9-0.7l0.5-1.9l2.9,0.7L2801.8-341.5z M2794-343.3l-2.9-0.7l0.5-1.9l2.9,0.7L2794-343.3z M2786.2-345.2l-2.9-0.7l0.5-1.9
				l2.9,0.7L2786.2-345.2z M2778.4-347l-2.9-0.7l0.5-1.9l2.9,0.7L2778.4-347z M2770.6-348.9l-2.9-0.7l0.5-1.9l2.9,0.7L2770.6-348.9z
				 M2762.8-350.8l-2.9-0.7l0.5-1.9l2.9,0.7L2762.8-350.8z M2755.1-352.6l-2.9-0.7l0.5-1.9l2.9,0.7L2755.1-352.6z M2747.3-354.5
				l-2.9-0.7l0.5-1.9l2.9,0.7L2747.3-354.5z M2739.5-356.3l-2.9-0.7l0.5-1.9l2.9,0.7L2739.5-356.3z M2731.7-358.2l-2.9-0.7l0.5-1.9
				l2.9,0.7L2731.7-358.2z M2723.9-360l-2.9-0.7l0.5-1.9l2.9,0.7L2723.9-360z M2716.1-361.9l-2.9-0.7l0.5-1.9l2.9,0.7L2716.1-361.9z
				 M2708.4-363.7l-2.9-0.7l0.5-1.9l2.9,0.7L2708.4-363.7z M2700.6-365.6l-2.9-0.7l0.5-1.9l2.9,0.7L2700.6-365.6z M2692.8-367.4
				l-2.9-0.7l0.5-1.9l2.9,0.7L2692.8-367.4z M2685-369.3l-2.9-0.7l0.5-1.9l2.9,0.7L2685-369.3z M2677.2-371.1l-2.9-0.7l0.5-1.9
				l2.9,0.7L2677.2-371.1z M2669.5-373l-2.9-0.7l0.5-1.9l2.9,0.7L2669.5-373z M2661.7-374.8l-2.9-0.7l0.5-1.9l2.9,0.7L2661.7-374.8z
				 M2653.9-376.7l-2.9-0.7l0.5-1.9l2.9,0.7L2653.9-376.7z"/>
			<g id="Grupo_53819">
				<path id="Trazado_99694" class="st6" d="M2857.3-320.9l-1-1.7l8.6-4.9l-5.5-8.2l1.7-1.1l6.7,10L2857.3-320.9z"/>
			</g>
		</g>
		<g id="Grupo_53821">
			<path id="Trazado_99695" class="st6" d="M2649.8-329h-2v-1.4h2V-329z M2649.8-335.4h-2v-3h2V-335.4z M2649.8-343.4h-2v-3h2
				V-343.4z M2649.8-351.4h-2v-3h2V-351.4z M2649.8-359.4h-2v-3h2V-359.4z M2649.8-367.4h-2v-3h2V-367.4z M2649.8-375.4h-2v-3h2
				V-375.4z"/>
			<g id="Grupo_53820">
				<path id="Trazado_99696" class="st6" d="M2640.7-335.6l1.5-1.4l6.7,7.2l6.7-7.2l1.5,1.4l-8.2,8.8L2640.7-335.6z"/>
			</g>
		</g>
	</g>
</g>
</svg>
