<svg xmlns="http://www.w3.org/2000/svg" width="81.3" height="81.3" viewBox="0 0 81.3 81.3">
  <g id="Grupo_54013" data-name="Grupo 54013" transform="translate(-1740.982 -2262.476)">
    <g id="Grupo_54011" data-name="Grupo 54011">
      <circle id="Elipse_3959" data-name="Elipse 3959" cx="40.65" cy="40.65" r="40.65" transform="translate(1740.982 2262.476)" fill="#ba0952"/>
      <path id="Trazado_99957" data-name="Trazado 99957" d="M1781.632,2262.476a40.649,40.649,0,0,0-37.71,55.827h75.42a40.649,40.649,0,0,0-37.71-55.827Z" fill="#ff0062"/>
    </g>
    <g id="_003---Right-Arrow" data-name="003---Right-Arrow">
      <path id="Shape" d="M1782.42,2333.3l22.211-23.262-2.968-4.939a1.07,1.07,0,0,0-.942-.537h-9.627l2.585-28.475-2.968-4.939a1.072,1.072,0,0,0-.942-.537h-16.274a1.071,1.071,0,0,0-.942.537l-2.968,4.939,2.584,28.475h-9.626a1.071,1.071,0,0,0-.942.537l-2.968,4.939,22.21,23.262a1.1,1.1,0,0,0,1.577,0Z" fill="#f0f8ff"/>
      <g id="Grupo_54012" data-name="Grupo 54012">
        <path id="Shape-2" data-name="Shape" d="M1804.631,2310.041H1791.8a1.082,1.082,0,0,1-1.084-1.194l.383-4.282h9.627a1.07,1.07,0,0,1,.942.537Z" fill="#b7d2ed"/>
        <path id="Shape-3" data-name="Shape" d="M1771.469,2310.041h-12.836l2.968-4.939a1.071,1.071,0,0,1,.942-.537h9.626l.384,4.282a1.082,1.082,0,0,1-1.084,1.194Z" fill="#b7d2ed"/>
        <path id="Shape-4" data-name="Shape" d="M1793.679,2276.09h-24.094l2.968-4.939a1.071,1.071,0,0,1,.942-.537h16.274a1.072,1.072,0,0,1,.942.537Z" fill="#b7d2ed"/>
      </g>
      <path id="Shape-5" data-name="Shape" d="M1785,2307.851c0-1.472-.189,5.109.65-17.564a1.1,1.1,0,0,1,1.9-.708,1.084,1.084,0,0,1,.288.789l-.649,17.523a1.1,1.1,0,0,1-2.19-.04Z" fill="#d9ecfc"/>
      <path id="Shape-6" data-name="Shape" d="M1785.81,2285.947c0-.438-.058,1.548.2-5.517a1.1,1.1,0,0,1,1.135-1.054,1.075,1.075,0,0,1,1.055,1.135l-.2,5.476a1.1,1.1,0,0,1-2.19-.04Z" fill="#d9ecfc"/>
    </g>
  </g>
</svg>
