<svg xmlns="http://www.w3.org/2000/svg" width="396" height="180.153" viewBox="0 0 396 180.153">
  <g id="Grupo_53900" data-name="Grupo 53900" transform="translate(0 0)">
    <g id="Grupo_53899" data-name="Grupo 53899" transform="translate(0.001 0)">
      <ellipse id="Elipse_3964" data-name="Elipse 3964" cx="198" cy="2.718" rx="198" ry="2.718" transform="translate(0 174.718)" fill="#d3d6e0"/>
      <g id="Grupo_53898" data-name="Grupo 53898" transform="translate(70.518)">
        <g id="Grupo_53883" data-name="Grupo 53883" transform="translate(30.27 58.912)">
          <g id="Grupo_53880" data-name="Grupo 53880" transform="translate(24.978 56.361)">
            <path id="Trazado_99726" data-name="Trazado 99726" d="M4605.723,506.848h-.085a.9.9,0,0,1-.9-.916l1.357-58.853,4-.467-3.411,59.324A.967.967,0,0,1,4605.723,506.848Z" transform="translate(-4604.741 -446.612)" fill="#b0d4ff"/>
          </g>
          <g id="Grupo_53881" data-name="Grupo 53881" transform="translate(1.669 56.361)">
            <path id="Trazado_99727" data-name="Trazado 99727" d="M4628.881,506.848h-.084a.9.9,0,0,1-.9-.916l1.358-58.853,4-.467-3.411,59.324A.967.967,0,0,1,4628.881,506.848Z" transform="translate(-4627.9 -446.612)" fill="#95c0f4"/>
          </g>
          <g id="Grupo_53882" data-name="Grupo 53882" transform="translate(62.591 56.361)">
            <path id="Trazado_99728" data-name="Trazado 99728" d="M4571.746,506.848h.084a.9.9,0,0,0,.9-.916l-1.357-58.853-4-.467,3.411,59.324A.966.966,0,0,0,4571.746,506.848Z" transform="translate(-4567.368 -446.612)" fill="#b0d4ff"/>
          </g>
          <path id="Trazado_99729" data-name="Trazado 99729" d="M4580.479,443.789V403.46a12.848,12.848,0,0,1,12.849-12.848h29.056a12.848,12.848,0,0,1,12.849,12.848v41.87Z" transform="translate(-4580.479 -390.612)" fill="#b0d4ff"/>
          <path id="Rectángulo_5204" data-name="Rectángulo 5204" d="M0,0H59.959a0,0,0,0,1,0,0V6.367a0,0,0,0,1,0,0H3.833A3.833,3.833,0,0,1,0,2.533V0A0,0,0,0,1,0,0Z" transform="translate(0 53.177)" fill="#95c0f4"/>
          <path id="Rectángulo_5205" data-name="Rectángulo 5205" d="M2.835,0H45.314a2.834,2.834,0,0,1,2.834,2.834v.7a2.834,2.834,0,0,1-2.834,2.834H2.835A2.835,2.835,0,0,1,0,3.532v-.7A2.835,2.835,0,0,1,2.835,0Z" transform="translate(21.387 53.177)" fill="#cae5ff"/>
        </g>
        <g id="Grupo_53892" data-name="Grupo 53892" transform="translate(122.96)">
          <g id="Grupo_53887" data-name="Grupo 53887" transform="translate(59.52 59.068)">
            <g id="Grupo_53884" data-name="Grupo 53884" transform="translate(39.199 56.362)">
              <path id="Trazado_99730" data-name="Trazado 99730" d="M4443.751,507h.085a.9.9,0,0,0,.9-.916l-1.358-58.853-4-.467,3.411,59.324A.967.967,0,0,0,4443.751,507Z" transform="translate(-4439.374 -446.768)" fill="#b0d4ff"/>
            </g>
            <g id="Grupo_53885" data-name="Grupo 53885" transform="translate(62.507 56.362)">
              <path id="Trazado_99731" data-name="Trazado 99731" d="M4420.591,507h.085a.9.9,0,0,0,.9-.916l-1.359-58.853-4-.467,3.411,59.324A.966.966,0,0,0,4420.591,507Z" transform="translate(-4416.214 -446.768)" fill="#95c0f4"/>
            </g>
            <g id="Grupo_53886" data-name="Grupo 53886" transform="translate(1.585 56.362)">
              <path id="Trazado_99732" data-name="Trazado 99732" d="M4477.727,507h-.085a.9.9,0,0,1-.9-.916l1.358-58.853,4-.467-3.411,59.324A.969.969,0,0,1,4477.727,507Z" transform="translate(-4476.746 -446.768)" fill="#b0d4ff"/>
            </g>
            <path id="Trazado_99733" data-name="Trazado 99733" d="M4469.309,443.945V403.616a12.848,12.848,0,0,0-12.848-12.849h-29.056a12.849,12.849,0,0,0-12.85,12.849v41.87Z" transform="translate(-4399.775 -390.767)" fill="#b0d4ff"/>
            <path id="Rectángulo_5206" data-name="Rectángulo 5206" d="M0,0H59.959a0,0,0,0,1,0,0V2.533a3.833,3.833,0,0,1-3.833,3.833H0a0,0,0,0,1,0,0V0A0,0,0,0,1,0,0Z" transform="translate(9.575 53.178)" fill="#95c0f4"/>
            <rect id="Rectángulo_5207" data-name="Rectángulo 5207" width="48.148" height="6.367" rx="2.834" transform="translate(0 53.178)" fill="#b0d4ff"/>
          </g>
          <g id="Grupo_53891" data-name="Grupo 53891">
            <path id="Trazado_99734" data-name="Trazado 99734" d="M4448.4,433.628c4.162,7.245,9.4,10.041,9.4,10.041h21.78S4445.227,428.1,4448.4,433.628Z" transform="translate(-4384.382 -331.43)" fill="#233862"/>
            <g id="Grupo_53888" data-name="Grupo 53888">
              <path id="Trazado_99735" data-name="Trazado 99735" d="M4480.2,489.431a2.014,2.014,0,0,1,.36,2.154l-.005.01c-.52,1.435-2.236,3.039-4.23,4.64-.255.205-.481.392-.679.566-.052.046-.1.092-.153.137s-.079.072-.117.106c-1.859,1.714-1.159,2.107-4.5,5.584-3.808,3.962-6.431,4.034-7.176,3.673-.632-.307.651-2.408,2.072-4.771.069-.114.136-.229.207-.345.189-.313.377-.632.565-.948,1.665-2.842,1.237-4.177.842-8.407-.321-3.438-5.348-19.206-5.348-19.206l7.3-1.258s2.2,12.556,4.62,14.491c1.294,1.031,2.744,1.044,3.988,1.808.087.053.174.108.259.163A9.569,9.569,0,0,1,4480.2,489.431Z" transform="translate(-4399.451 -331.179)" fill="#ffb27d"/>
              <path id="Trazado_99736" data-name="Trazado 99736" d="M4478.7,489.326a2.014,2.014,0,0,1,.36,2.154l-.005.01c-.637,1.434-2.31,3.029-4.237,4.626-.251.208-.474.4-.671.58-.052.046-.1.092-.153.137s-.079.072-.117.106c-1.859,1.714-1.159,2.107-4.5,5.584-3.808,3.962-6.431,4.034-7.176,3.673-.632-.307.651-2.408,2.072-4.771a16.234,16.234,0,0,0,6.789-5c2.292-2.927,3.821-6.686,5.383-8.864.087.053.174.108.259.163A9.569,9.569,0,0,1,4478.7,489.326Z" transform="translate(-4397.954 -331.075)" fill="#233862"/>
              <path id="Trazado_99737" data-name="Trazado 99737" d="M4537.127,484.887c-.451,2.252-3.662,1.877-7.25,1s-2.734.165-7.841-.4-6.651-2.469-6.807-3.229c-.14-.673,2.383-.911,5.089-1.223.34-.038.683-.081,1.023-.123,3.056-.382,5.293-2.354,8.068-3.973,2.628-1.534,6.552-7.782,6.552-7.782l7,.555s-3.674,5.581-5.1,8.007a8.47,8.47,0,0,0-.687,4.772A9.011,9.011,0,0,1,4537.127,484.887Z" transform="translate(-4515.224 -331.193)" fill="#ffb27d"/>
              <path id="Trazado_99738" data-name="Trazado 99738" d="M4535.57,485.811c-3.588-.877-2.734.165-7.841-.4s-6.651-2.469-6.807-3.229c-.14-.673,2.383-.911,5.089-1.223l.025.052a14.394,14.394,0,0,0,7.312,2.273c3.464.085,7.132-.908,9.525-.87a9.011,9.011,0,0,1-.053,2.4C4542.369,487.063,4539.158,486.688,4535.57,485.811Z" transform="translate(-4520.917 -331.117)" fill="#233862"/>
              <path id="Trazado_99739" data-name="Trazado 99739" d="M4470.493,440.371l6.546,17.614,8.545,23a13.851,13.851,0,0,0,4.541-.416,19.7,19.7,0,0,0,4.39-2.137s-2.372-24.694-6.8-38.869c-1.134-3.639-2.405-6.582-3.809-8.239C4477.044,423.214,4470.493,440.371,4470.493,440.371Z" transform="translate(-4421.756 -331.451)" fill="#233862"/>
              <path id="Trazado_99740" data-name="Trazado 99740" d="M4463.547,412.529c4.289-1.384,16.52.392,28.806,2.8l2.573-4.243,26.538-2.073s8.757,19.42,3.962,31.795a4.486,4.486,0,0,1-4.49,3.023h-.387s-15.8-.009-20.924-.009c-13.2,0-27.931-9.072-29.837-9.454-3.12-.624-4.368,5.615-7.487,12.167s-29.325,29.012-29.325,29.012-4.028.04-5.691-.584a5.6,5.6,0,0,1-2.444-1.543S4453.877,415.647,4463.547,412.529Z" transform="translate(-4408.155 -331.581)" fill="#2b478b"/>
              <path id="Trazado_99741" data-name="Trazado 99741" d="M4420.052,334.3c3.4-1.785,8.573-2.027,9.414-2.14,10.056-1.352,16.108,13.262,16.465,17.689.656,8.161,4.974,9.405,11.05,14.517,12.184,10.249,8.611,22.157,1.949,26.582-4,2.655-11.044,0-11.044,0-.1.07-19.271-10.717-28.721-15.92C4405,373.018,4411.389,338.853,4420.052,334.3Z" transform="translate(-4332.238 -332.077)" fill="#233862"/>
              <path id="Trazado_99742" data-name="Trazado 99742" d="M4436.9,370.451c-.042.027,4.65,1.628,7.786.24,2.952-1.3,5.188-6.159,5.143-6.162-1.343-.061-2.816-1.235-3.951-8.936l-.571.205-9.611,3.458s.7,3.084,1.146,6.021C4437.225,367.741,4437.428,370.1,4436.9,370.451Z" transform="translate(-4342.057 -331.925)" fill="#ffb27d"/>
              <path id="Trazado_99743" data-name="Trazado 99743" d="M4440.192,359.254s.7,3.084,1.146,6.021c5.52-.994,7.688-6.495,8.464-9.479Z" transform="translate(-4346.55 -331.924)" fill="#ed975d"/>
              <path id="Trazado_99744" data-name="Trazado 99744" d="M4445.987,362.421s13.15-1.764,11.925-9.937-.353-13.9-8.8-13.123-9.607,4.144-9.862,6.972S4442.535,362.67,4445.987,362.421Z" transform="translate(-4353.777 -332.03)" fill="#ffb27d"/>
              <path id="Trazado_99745" data-name="Trazado 99745" d="M4435.487,341.858s8.418,7.254,14.144,7.839,7.894-1.253,7.894-1.253a22.368,22.368,0,0,1-5.407-7.325,4.023,4.023,0,0,0-3.318-2.373C4444.71,338.393,4436.96,338.232,4435.487,341.858Z" transform="translate(-4349.536 -332.035)" fill="#233862"/>
              <path id="Trazado_99746" data-name="Trazado 99746" d="M4458.955,341.2a20.728,20.728,0,0,0-3.7,4.742c-.857,1.949-1.113,6.61-.432,8.462,0,0-4.387-8.532-1.9-12.677C4455.55,337.333,4458.955,341.2,4458.955,341.2Z" transform="translate(-4367.741 -332.028)" fill="#233862"/>
              <path id="Trazado_99747" data-name="Trazado 99747" d="M4424.487,389.767c.4,26.619.108,21.057,3.02,23.582.7.609,2.674.971,5.27,1.142,8.162.542,22.511-.8,23.057-2.311,1.883-5.219.554-6.841,2.125-14.832.163-.849.367-1.769.6-2.771,1.309-5.489,2.584-7.356-2.062-16.174-4.213-7.986-8.591-14.469-8.985-14.234-11.117,6.6-12.013,1.052-12.013,1.052S4424.292,376.783,4424.487,389.767Z" transform="translate(-4340.713 -331.87)" fill="#ff0062"/>
              <path id="Trazado_99748" data-name="Trazado 99748" d="M4470.493,457.918l8.545,23a13.851,13.851,0,0,0,4.541-.416,19.7,19.7,0,0,0,4.39-2.137s-2.372-24.694-6.8-38.869Z" transform="translate(-4415.21 -331.385)" fill="#2b478b"/>
              <path id="Trazado_99749" data-name="Trazado 99749" d="M4470.633,365.214s-11.439,1.938-12.782,6.864-9.248,33.878-9.248,33.878,5.815,1.046,8.5-1.642,9.348-24.924,9.348-24.924Z" transform="translate(-4375.845 -331.863)" fill="#ff0062"/>
              <path id="Trazado_99750" data-name="Trazado 99750" d="M4426.291,414.35c8.162.542,22.511-.8,23.057-2.311,1.883-5.219.554-6.841,2.125-14.832l-3.937-11.085s.651,12.344-2.99,15.591-14.905,6.268-16.675,8.98A9.951,9.951,0,0,0,4426.291,414.35Z" transform="translate(-4334.227 -331.728)" fill="#cc0255"/>
              <path id="Trazado_99751" data-name="Trazado 99751" d="M4456.275,409.018s-8.053-1.792-9.352-1.078-4.474,3.317-4.872,4.223,2.893-.687,3.963-.974c.692-.186,2.517.448,3.42.749a11.36,11.36,0,0,0,6.129.615Z" transform="translate(-4354.859 -331.589)" fill="#ffb27d"/>
              <path id="Trazado_99752" data-name="Trazado 99752" d="M4417.435,364.164s10.813.665,14.556,5.886c5.269,7.349,15.721,38.669,9.731,42.845-6.747,4.7-30.7,1.231-30.7,1.231s-.8-3.727.312-5.529,19.136-4.714,19.967-5.546-10.4-16.224-10.4-18.719S4417.435,364.164,4417.435,364.164Z" transform="translate(-4310.626 -331.87)" fill="#ff0062"/>
              <path id="Trazado_99753" data-name="Trazado 99753" d="M4454.848,410.166a15.606,15.606,0,0,1-2.24,2.437,1.65,1.65,0,0,1-.911.194l1.137-2.046Z" transform="translate(-4363.173 -331.574)" fill="#ffb27d"/>
              <path id="Trazado_99754" data-name="Trazado 99754" d="M4456.216,407.939l-4.905,2.382a.877.877,0,0,0,.813.314,11.75,11.75,0,0,0,2.127-.585Z" transform="translate(-4364.152 -331.588)" fill="#ffb27d"/>
            </g>
            <g id="Grupo_53890" data-name="Grupo 53890" transform="translate(38.957 55.335)">
              <g id="Grupo_53889" data-name="Grupo 53889">
                <path id="Trazado_99755" data-name="Trazado 99755" d="M4504.4,416.085h-38.8l-11.673-29.027h38.744Z" transform="translate(-4453.922 -387.058)" fill="#8bb5e0"/>
                <path id="Trazado_99756" data-name="Trazado 99756" d="M4442.017,414.775h51.241v1.131h-50.786Z" transform="translate(-4430.799 -386.879)" fill="#8bb5e0"/>
              </g>
              <path id="Trazado_99757" data-name="Trazado 99757" d="M4479.075,401.49a1.344,1.344,0,0,1,1.318-1.847,2.647,2.647,0,0,1,2.377,1.847,1.345,1.345,0,0,1-1.318,1.848A2.647,2.647,0,0,1,4479.075,401.49Z" transform="translate(-4457.606 -386.977)" fill="#edf5fc"/>
            </g>
          </g>
        </g>
        <g id="Grupo_53895" data-name="Grupo 53895" transform="translate(0 84.628)">
          <g id="Grupo_53893" data-name="Grupo 53893" transform="translate(8.429 7.775)">
            <path id="Trazado_99758" data-name="Trazado 99758" d="M4650.841,508.226h-.114a1.223,1.223,0,0,1-1.184-1.283l1.8-82.4,5.29-.653-4.511,83.061A1.314,1.314,0,0,1,4650.841,508.226Z" transform="translate(-4649.543 -423.888)" fill="#78acea"/>
          </g>
          <g id="Grupo_53894" data-name="Grupo 53894" transform="translate(218.396 7.775)">
            <path id="Trazado_99759" data-name="Trazado 99759" d="M4446.708,508.226h.113a1.223,1.223,0,0,0,1.185-1.283l-1.8-82.4-5.289-.653,4.511,83.061A1.313,1.313,0,0,0,4446.708,508.226Z" transform="translate(-4440.92 -423.888)" fill="#78acea"/>
          </g>
          <rect id="Rectángulo_5208" data-name="Rectángulo 5208" width="233.022" height="9.943" rx="3.335" fill="#78acea"/>
        </g>
        <g id="Grupo_53897" data-name="Grupo 53897" transform="translate(66.309 55.601)">
          <g id="Grupo_53896" data-name="Grupo 53896">
            <path id="Trazado_99760" data-name="Trazado 99760" d="M4537.015,416.349h38.8l11.673-29.027h-38.745Z" transform="translate(-4525.033 -387.321)" fill="#2b478b"/>
            <path id="Trazado_99761" data-name="Trazado 99761" d="M4599.4,415.039h-51.241v1.131h50.786Z" transform="translate(-4548.161 -387.143)" fill="#2b478b"/>
          </g>
          <path id="Trazado_99762" data-name="Trazado 99762" d="M4562.042,401.754a1.345,1.345,0,0,0-1.318-1.848,2.649,2.649,0,0,0-2.377,1.848,1.345,1.345,0,0,0,1.318,1.848A2.648,2.648,0,0,0,4562.042,401.754Z" transform="translate(-4521.051 -387.24)" fill="#fff"/>
        </g>
      </g>
    </g>
  </g>
</svg>
