<svg xmlns="http://www.w3.org/2000/svg" width="498.412" height="169.914" viewBox="0 0 498.412 169.914">
  <g id="Grupo_53972" data-name="Grupo 53972" transform="translate(-4298.661 -690.259)">
    <ellipse id="Elipse_3965" data-name="Elipse 3965" cx="249.206" cy="5.242" rx="249.206" ry="5.242" transform="translate(4298.661 836.65)" fill="#d3d6e0"/>
    <g id="Grupo_53920" data-name="Grupo 53920">
      <g id="Grupo_53901" data-name="Grupo 53901">
        <path id="Trazado_99763" data-name="Trazado 99763" d="M4373.072,818.373a18.231,18.231,0,1,0-29.618,14.233l-3.352,6.518h2.069l4.232-4.591a18.241,18.241,0,0,0,17.087-.108l4.332,4.7h2.07l-3.443-6.693A18.194,18.194,0,0,0,4373.072,818.373Z" fill="#ff0062"/>
        <circle id="Elipse_3966" data-name="Elipse 3966" cx="14.779" cy="14.779" r="14.779" transform="matrix(0.875, -0.484, 0.484, 0.875, 4334.757, 812.91)" fill="#fff"/>
        <path id="Trazado_99764" data-name="Trazado 99764" d="M4363.859,819.986h-9.815l-5.1-10.185a1.29,1.29,0,1,1,2.307-1.156l4.386,8.761h8.221a1.29,1.29,0,1,1,0,2.58Z" fill="#bb4eb3"/>
      </g>
      <g id="Grupo_53908" data-name="Grupo 53908">
        <g id="Grupo_53907" data-name="Grupo 53907">
          <g id="Grupo_53902" data-name="Grupo 53902">
            <path id="Trazado_99765" data-name="Trazado 99765" d="M4368.336,771.2l-3.366.93-1.011-4.766a1.454,1.454,0,0,1,1.036-1.7h0a1.453,1.453,0,0,1,1.762.93Z" fill="#5684c2"/>
          </g>
          <path id="Trazado_99766" data-name="Trazado 99766" d="M4383.221,833.551c.49,1.7,1.073,2.978,1.332,2.906s.1-1.47-.349-3.178Z" fill="#353c73"/>
          <path id="Trazado_99767" data-name="Trazado 99767" d="M4385.282,826.279a75.433,75.433,0,0,1-3.683-10.338l-13.154-47.614-5.043,1.394,13.153,47.613A75.455,75.455,0,0,1,4378.7,828.1l.139,1.108a.935.935,0,0,0,.2.467l4.211,5.314a.943.943,0,0,0,.988.323h0a.941.941,0,0,0,.682-.784l.886-6.722a.942.942,0,0,0-.072-.5Z" fill="#fff"/>
          <rect id="Rectángulo_5209" data-name="Rectángulo 5209" width="5.232" height="27.457" transform="translate(4363.401 769.721) rotate(-15.444)" fill="#bb4eb3"/>
          <g id="Grupo_53903" data-name="Grupo 53903">
            <path id="Trazado_99768" data-name="Trazado 99768" d="M4380,830.884l5.6-1.549.134-1.013-6.374,1.761Z" fill="#fff"/>
          </g>
          <g id="Grupo_53904" data-name="Grupo 53904">
            <rect id="Rectángulo_5210" data-name="Rectángulo 5210" width="1.91" height="11.96" transform="matrix(0.964, -0.266, 0.266, 0.964, 4375.729, 808.105)" fill="#5684c2"/>
          </g>
          <rect id="Rectángulo_5211" data-name="Rectángulo 5211" width="1.91" height="6.063" transform="matrix(0.964, -0.266, 0.266, 0.964, 4377.299, 813.789)" fill="#fff"/>
          <g id="Grupo_53905" data-name="Grupo 53905">
            <rect id="Rectángulo_5212" data-name="Rectángulo 5212" width="5.232" height="0.941" transform="matrix(0.964, -0.266, 0.266, 0.964, 4370.597, 795.766)" fill="#5684c2"/>
          </g>
          <g id="Grupo_53906" data-name="Grupo 53906">
            <rect id="Rectángulo_5213" data-name="Rectángulo 5213" width="5.232" height="0.941" transform="translate(4363.711 770.888) rotate(-15.443)" fill="#5684c2"/>
          </g>
        </g>
      </g>
      <g id="Grupo_53910" data-name="Grupo 53910">
        <g id="Grupo_53909" data-name="Grupo 53909">
          <path id="Trazado_99769" data-name="Trazado 99769" d="M4379.907,767.549l4.295,58.583,2.578-2.447-4.131-56.337Z" fill="#cc0255"/>
          <path id="Trazado_99770" data-name="Trazado 99770" d="M4377.165,767.749l4.13,56.337,2.88,1.681-4.268-58.219Z" fill="#ff0062"/>
          <path id="Trazado_99771" data-name="Trazado 99771" d="M4385.257,824.569a1.268,1.268,0,0,0-2.327.17,1.685,1.685,0,0,0-1.635-.653l2.084,5.514,2.142-.156,1.259-5.76A1.685,1.685,0,0,0,4385.257,824.569Z" fill="#fff"/>
          <path id="Trazado_99772" data-name="Trazado 99772" d="M4384.444,829.439a7.1,7.1,0,0,0-1.064.162l1.059,2.8a.224.224,0,0,0,.232.155h0a.224.224,0,0,0,.207-.187l.64-2.927A7.022,7.022,0,0,0,4384.444,829.439Z" fill="#353c73"/>
          <rect id="Rectángulo_5214" data-name="Rectángulo 5214" width="5.499" height="1.914" transform="translate(4377.024 765.84) rotate(-4.19)" fill="#fff"/>
          <path id="Trazado_99773" data-name="Trazado 99773" d="M4380.717,761.032l-2.561.187a1.466,1.466,0,0,0-1.355,1.569l.223,3.052,5.485-.4-.223-3.053A1.467,1.467,0,0,0,4380.717,761.032Z" fill="#5684c2"/>
        </g>
      </g>
      <g id="Grupo_53912" data-name="Grupo 53912">
        <g id="Grupo_53911" data-name="Grupo 53911">
          <path id="Trazado_99774" data-name="Trazado 99774" d="M4389.074,765.921l1.261,58.726,2.7-2.31-1.213-56.475Z" fill="#8de085"/>
          <path id="Trazado_99775" data-name="Trazado 99775" d="M4386.325,765.98l1.213,56.475,2.789,1.828-1.253-58.361Z" fill="#8de085"/>
          <path id="Trazado_99776" data-name="Trazado 99776" d="M4391.47,823.141a1.269,1.269,0,0,0-2.333.05,1.684,1.684,0,0,0-1.6-.736l1.8,5.614,2.147-.045,1.555-5.687A1.685,1.685,0,0,0,4391.47,823.141Z" fill="#fff"/>
          <path id="Trazado_99777" data-name="Trazado 99777" d="M4390.406,827.963a7.148,7.148,0,0,0-1.071.107l.913,2.855a.224.224,0,0,0,.224.166h0a.225.225,0,0,0,.217-.176l.79-2.891A7.157,7.157,0,0,0,4390.406,827.963Z" fill="#353c73"/>
          <rect id="Rectángulo_5215" data-name="Rectángulo 5215" width="5.499" height="1.914" transform="translate(4386.284 764.066) rotate(-1.225)" fill="#fff"/>
          <path id="Trazado_99778" data-name="Trazado 99778" d="M4390.22,759.455l-2.567.055a1.464,1.464,0,0,0-1.434,1.5l.065,3.06,5.5-.117-.065-3.06A1.465,1.465,0,0,0,4390.22,759.455Z" fill="#5684c2"/>
        </g>
      </g>
      <g id="Grupo_53919" data-name="Grupo 53919">
        <g id="Grupo_53918" data-name="Grupo 53918">
          <g id="Grupo_53913" data-name="Grupo 53913">
            <path id="Trazado_99779" data-name="Trazado 99779" d="M4400.694,772.5l-3.3-1.149,1.878-4.495a1.455,1.455,0,0,1,1.82-.813h0a1.455,1.455,0,0,1,.921,1.768Z" fill="#5684c2"/>
          </g>
          <path id="Trazado_99780" data-name="Trazado 99780" d="M4377.492,832.26c-.561,1.675-.811,3.06-.557,3.148s.919-1.152,1.52-2.813Z" fill="#353c73"/>
          <path id="Trazado_99781" data-name="Trazado 99781" d="M4383.321,827.449a75.706,75.706,0,0,1,2.848-10.6l16.248-46.649-4.941-1.721-16.248,46.648a75.663,75.663,0,0,1-4.353,10.076l-.516.99a.943.943,0,0,0-.1.5l.444,6.766a.94.94,0,0,0,.629.827h0a.94.94,0,0,0,1.006-.257l4.551-5.026a.941.941,0,0,0,.227-.454Z" fill="#fff"/>
          <rect id="Rectángulo_5216" data-name="Rectángulo 5216" width="27.457" height="5.232" transform="translate(4388.445 794.41) rotate(-70.797)" fill="#2a56a4"/>
          <g id="Grupo_53914" data-name="Grupo 53914">
            <path id="Trazado_99782" data-name="Trazado 99782" d="M4376.355,828.233l5.492,1.913.686-.758-6.245-2.175Z" fill="#fff"/>
          </g>
          <g id="Grupo_53915" data-name="Grupo 53915">
            <rect id="Rectángulo_5217" data-name="Rectángulo 5217" width="11.96" height="1.91" transform="matrix(0.329, -0.944, 0.944, 0.329, 4381.861, 818.361)" fill="#5684c2"/>
          </g>
          <rect id="Rectángulo_5218" data-name="Rectángulo 5218" width="6.063" height="1.91" transform="matrix(0.329, -0.944, 0.944, 0.329, 4381.861, 818.362)" fill="#fff"/>
          <g id="Grupo_53916" data-name="Grupo 53916">
            <rect id="Rectángulo_5219" data-name="Rectángulo 5219" width="0.941" height="5.232" transform="translate(4388.279 794.886) rotate(-70.797)" fill="#5684c2"/>
          </g>
          <g id="Grupo_53917" data-name="Grupo 53917">
            <rect id="Rectángulo_5220" data-name="Rectángulo 5220" width="0.941" height="5.232" transform="translate(4396.757 770.506) rotate(-70.797)" fill="#5684c2"/>
          </g>
        </g>
      </g>
      <path id="Rectángulo_5221" data-name="Rectángulo 5221" d="M0,0H32.966a0,0,0,0,1,0,0V44.108a2.521,2.521,0,0,1-2.521,2.521H2.521A2.521,2.521,0,0,1,0,44.108V0A0,0,0,0,1,0,0Z" transform="translate(4365.572 793.998)" fill="#2a4f98"/>
    </g>
    <g id="Grupo_53922" data-name="Grupo 53922">
      <g id="Grupo_53921" data-name="Grupo 53921">
        <path id="Trazado_99783" data-name="Trazado 99783" d="M4708.535,760.517a17.639,17.639,0,0,1-9.327,16.916c-3.77,2.262-8.295,1.508-12.065,0a17.8,17.8,0,0,1-6.786-6.033c-2.262-4.524-3.771-8.294-3.017-13.572.755-3.771,1.509-7.541,4.525-9.8a15.343,15.343,0,0,1,11.31-4.524c2.263,0,3.771.754,6.033,1.508,3.77,2.262,6.786,5.278,8.058,8.769A18.847,18.847,0,0,1,4708.535,760.517Z" fill="#8de085"/>
        <path id="Trazado_99784" data-name="Trazado 99784" d="M4704.448,760.957c.038,7.427-2.224,17.23-11.273,17.984a9.272,9.272,0,0,1-8.294-5.278c-.754-3.017-2.262-5.279-3.016-8.3,0-4.525-.755-9.8,1.508-14.327a15.766,15.766,0,0,1,3.016-4.524c1.508-2.262,4.524-2.262,6.786-3.016a10.718,10.718,0,0,1,4.525,1.508c3.016,2.262,4.524,6.032,5.8,9.036A26.685,26.685,0,0,1,4704.448,760.957Z" fill="#6fbf66"/>
        <path id="Trazado_99785" data-name="Trazado 99785" d="M4700.217,761.308c-.255,6.322-.255,17.633-6.288,16.125-11.31-3.016-12.064-28.654-.754-33.178,3.771-1.508,5.279,6.032,6.426,10A44.425,44.425,0,0,1,4700.217,761.308Z" fill="#8de085"/>
        <path id="Trazado_99786" data-name="Trazado 99786" d="M4696.575,761.484c-.383,6.146.371,12.179-3.4,17.457-5.278-10.557-5.278-24.884,0-35.44,2.263,3.016,3.017,6.786,3.059,10.861C4696.428,756.54,4696.548,758.955,4696.575,761.484Z" fill="#6fbf66"/>
      </g>
      <path id="Trazado_99787" data-name="Trazado 99787" d="M4674.815,775.035l7.551,25.242s3,2.28,9.666,2.407a35.29,35.29,0,0,0,11.4-1.564l8.455-25.332Z" fill="#353c73"/>
      <rect id="Rectángulo_5222" data-name="Rectángulo 5222" width="40.547" height="10.18" rx="1.508" transform="translate(4672.93 771.767)" fill="#2a4f98"/>
    </g>
    <g id="Grupo_53924" data-name="Grupo 53924">
      <path id="Trazado_99788" data-name="Trazado 99788" d="M4737.2,825.06c-.1,0-.231.021-.231.058V824.7h-87.763c-1.373,0-2.486,3.377-2.486,7.324s1.113,7.323,2.486,7.323h87.763v-.057c0,.036.126.057.231.057,1.372,0,2.485-3.2,2.485-7.145S4738.572,825.06,4737.2,825.06Z" fill="#ff0062"/>
      <path id="Trazado_99789" data-name="Trazado 99789" d="M4733.393,827.065h-16.9c.816.945,1.052,3.307,1.052,5.7a11.632,11.632,0,0,1-1.014,5.643h16.858c.858,0,1.553-2.581,1.553-5.67S4734.251,827.065,4733.393,827.065Z" fill="#cc0255"/>
      <g id="Grupo_53923" data-name="Grupo 53923">
        <path id="Trazado_99790" data-name="Trazado 99790" d="M4652.623,832.418a13.467,13.467,0,0,1,1.147-5.825h-3.131c-.858,0-1.553,2.582-1.553,5.67s.695,5.67,1.553,5.67h2.963A14.379,14.379,0,0,1,4652.623,832.418Z" fill="#cc0255"/>
      </g>
    </g>
    <g id="Grupo_53926" data-name="Grupo 53926">
      <path id="Trazado_99791" data-name="Trazado 99791" d="M4473.013,825.06c-.106,0-.232.021-.232.058V824.7h-87.763c-1.372,0-2.485,3.377-2.485,7.324s1.113,7.323,2.485,7.323h87.763v-.057c0,.036.126.057.232.057,1.372,0,2.485-3.2,2.485-7.145S4474.385,825.06,4473.013,825.06Z" fill="#ff0062"/>
      <path id="Trazado_99792" data-name="Trazado 99792" d="M4469.205,827.065h-16.9c.815.945,1.052,3.307,1.052,5.7a11.62,11.62,0,0,1-1.015,5.643h16.858c.858,0,1.554-2.581,1.554-5.67S4470.063,827.065,4469.205,827.065Z" fill="#cc0255"/>
      <g id="Grupo_53925" data-name="Grupo 53925">
        <path id="Trazado_99793" data-name="Trazado 99793" d="M4388.435,832.418a13.481,13.481,0,0,1,1.147-5.825h-3.13c-.858,0-1.554,2.582-1.554,5.67s.7,5.67,1.554,5.67h2.963A14.387,14.387,0,0,1,4388.435,832.418Z" fill="#cc0255"/>
      </g>
    </g>
    <g id="Grupo_53927" data-name="Grupo 53927">
      <path id="Trazado_99794" data-name="Trazado 99794" d="M4729.134,812c-.083,0-.4-.056-.4-.056h-69.47c-1.094,0-1.98,2.725-1.98,6.379s.886,6.379,1.98,6.379h69.673v.254c0,.034.222.054.306.054,1.094,0,1.929-2.967,1.929-6.621S4730.228,812,4729.134,812Z" fill="#ee897b"/>
      <path id="Trazado_99795" data-name="Trazado 99795" d="M4729.134,811.956c-.083,0-.4-.011-.4-.011h-69.47c-1.094,0-1.98,2.835-1.98,6.143h73.836C4731.119,814.78,4730.228,811.956,4729.134,811.956Z" fill="#ee897b"/>
      <path id="Trazado_99796" data-name="Trazado 99796" d="M4661.353,818.483a12.141,12.141,0,0,1,1.2-5.593H4661.2c-.858,0-1.553,2.582-1.553,5.67s.695,5.67,1.553,5.67h1.468C4661.891,823.285,4661.353,820.984,4661.353,818.483Z" fill="#e55740"/>
      <rect id="Rectángulo_5223" data-name="Rectángulo 5223" width="34.965" height="2.835" transform="translate(4691.608 815.725)" fill="#fff"/>
    </g>
    <g id="Grupo_53928" data-name="Grupo 53928">
      <path id="Trazado_99797" data-name="Trazado 99797" d="M4717.666,798.923l-.07,0v.262h-51.975v-.262c-1.418.039-1.641,2.9-1.641,6.439s.223,6.4,1.641,6.439v.141H4717.6V811.8l.07,0c.916,0,1.659-2.885,1.659-6.443S4718.582,798.923,4717.666,798.923Z" fill="#94308d"/>
    </g>
    <path id="Trazado_99798" data-name="Trazado 99798" d="M4564.806,835.008c-3.066-4.459-3.345-10.472-3.345-10.472h-20.422s-.279,6.013-3.345,10.472-9.476,7.247-9.476,7.247h46.064S4567.872,839.468,4564.806,835.008Z" fill="#2a56a4"/>
    <rect id="Rectángulo_5224" data-name="Rectángulo 5224" width="202.124" height="137.702" rx="6.689" transform="translate(4449.897 690.259)" fill="#547ba5"/>
    <path id="Trazado_99799" data-name="Trazado 99799" d="M4449.9,808.858v12.414a6.689,6.689,0,0,0,6.689,6.689h188.746a6.689,6.689,0,0,0,6.689-6.689V808.858Z" fill="#8bb5e0"/>
    <rect id="Rectángulo_5225" data-name="Rectángulo 5225" width="49.831" height="5.177" rx="0.753" transform="translate(4526.498 839.35)" fill="#8bb5e0"/>
    <rect id="Rectángulo_5226" data-name="Rectángulo 5226" width="186.84" height="104.847" rx="2.93" transform="translate(4457.226 696.983)" fill="#2a56a4"/>
    <path id="Trazado_99800" data-name="Trazado 99800" d="M4638.593,707.56a2.931,2.931,0,0,0-2.931-2.93H4467.289a2.93,2.93,0,0,0-2.93,2.93v8.234h174.234Z" fill="#c4d6eb"/>
    <path id="Trazado_99801" data-name="Trazado 99801" d="M4464.359,715.794v75.459a2.93,2.93,0,0,0,2.93,2.93h168.373a2.931,2.931,0,0,0,2.931-2.93V715.794Z" fill="#fff"/>
    <path id="Trazado_99802" data-name="Trazado 99802" d="M4651.513,705.782a2.338,2.338,0,0,1,.508.755V705.22C4651.852,705.407,4651.682,705.594,4651.513,705.782Z" fill="#353c73"/>
    <g id="Grupo_53929" data-name="Grupo 53929">
      <path id="Trazado_99803" data-name="Trazado 99803" d="M4489.695,848.5h117.1l19.063,9.165H4468.105Z" fill="#547ba5"/>
      <rect id="Rectángulo_5227" data-name="Rectángulo 5227" width="157.752" height="2.509" transform="translate(4468.105 857.665)" fill="#2a56a4"/>
    </g>
    <rect id="Rectángulo_5228" data-name="Rectángulo 5228" width="10.739" height="10.739" rx="4.843" transform="translate(4545.725 812.398)" fill="#353c73"/>
    <g id="Grupo_53939" data-name="Grupo 53939">
      <g id="Grupo_53932" data-name="Grupo 53932">
        <g id="Grupo_53930" data-name="Grupo 53930">
          <path id="Trazado_99804" data-name="Trazado 99804" d="M4503.187,851.875l-6.024-.005,3.906-1.708h5.539Z" fill="#8bb5e0"/>
          <path id="Trazado_99805" data-name="Trazado 99805" d="M4495.84,851.868l-6.024,0,4.5-1.7h5.539Z" fill="#8bb5e0"/>
          <path id="Trazado_99806" data-name="Trazado 99806" d="M4517.883,851.888l-6.024-.006,2.721-1.721h5.539Z" fill="#8bb5e0"/>
          <path id="Trazado_99807" data-name="Trazado 99807" d="M4510.537,851.881l-6.024-.006,3.313-1.715h5.539Z" fill="#8bb5e0"/>
          <path id="Trazado_99808" data-name="Trazado 99808" d="M4532.7,851.9l-6.024-.006,1.526-1.734h5.538Z" fill="#8bb5e0"/>
          <path id="Trazado_99809" data-name="Trazado 99809" d="M4525.35,851.894l-6.024-.005,2.119-1.728h5.539Z" fill="#8bb5e0"/>
          <path id="Trazado_99810" data-name="Trazado 99810" d="M4547.393,851.914l-6.024-.005.34-1.747h5.538Z" fill="#8bb5e0"/>
          <path id="Trazado_99811" data-name="Trazado 99811" d="M4540.046,851.907l-6.024,0,.933-1.741h5.539Z" fill="#8bb5e0"/>
        </g>
        <g id="Grupo_53931" data-name="Grupo 53931">
          <path id="Trazado_99812" data-name="Trazado 99812" d="M4562.142,851.927l-6.024-.006-.85-1.76h5.538Z" fill="#8bb5e0"/>
          <path id="Trazado_99813" data-name="Trazado 99813" d="M4554.8,851.921l-6.024-.006-.257-1.754h5.539Z" fill="#8bb5e0"/>
          <path id="Trazado_99814" data-name="Trazado 99814" d="M4576.839,851.94l-6.024-.005-2.036-1.773h5.538Z" fill="#8bb5e0"/>
          <path id="Trazado_99815" data-name="Trazado 99815" d="M4569.493,851.933l-6.025-.005-1.443-1.767h5.539Z" fill="#8bb5e0"/>
          <path id="Trazado_99816" data-name="Trazado 99816" d="M4591.652,851.953l-6.024,0-3.23-1.787h5.538Z" fill="#8bb5e0"/>
          <path id="Trazado_99817" data-name="Trazado 99817" d="M4584.305,851.946l-6.024-.005-2.638-1.78h5.539Z" fill="#8bb5e0"/>
          <path id="Trazado_99818" data-name="Trazado 99818" d="M4606.349,851.966l-6.024-.005-4.417-1.8h5.538Z" fill="#8bb5e0"/>
          <path id="Trazado_99819" data-name="Trazado 99819" d="M4599,851.959l-6.024,0-3.824-1.793h5.539Z" fill="#8bb5e0"/>
        </g>
      </g>
      <g id="Grupo_53935" data-name="Grupo 53935">
        <g id="Grupo_53933" data-name="Grupo 53933">
          <path id="Trazado_99820" data-name="Trazado 99820" d="M4499.293,853.935l-6.608-.012,3.891-1.708,6.123.006Z" fill="#8bb5e0"/>
          <path id="Trazado_99821" data-name="Trazado 99821" d="M4491.234,853.92l-6.608-.012,4.483-1.7,6.122.007Z" fill="#8bb5e0"/>
          <path id="Trazado_99822" data-name="Trazado 99822" d="M4515.416,853.963l-6.609-.012,2.7-1.721,6.123.006Z" fill="#8bb5e0"/>
          <path id="Trazado_99823" data-name="Trazado 99823" d="M4507.356,853.949l-6.608-.012,3.3-1.715,6.123.007Z" fill="#8bb5e0"/>
          <path id="Trazado_99824" data-name="Trazado 99824" d="M4531.665,853.992l-6.608-.011,1.51-1.735,6.122.006Z" fill="#8bb5e0"/>
          <path id="Trazado_99825" data-name="Trazado 99825" d="M4523.605,853.978l-6.608-.012,2.1-1.728,6.122.006Z" fill="#8bb5e0"/>
          <path id="Trazado_99826" data-name="Trazado 99826" d="M4547.786,854.021l-6.608-.012.324-1.747,6.123.006Z" fill="#8bb5e0"/>
          <path id="Trazado_99827" data-name="Trazado 99827" d="M4539.727,854.006l-6.608-.012.917-1.741,6.123.006Z" fill="#8bb5e0"/>
        </g>
        <g id="Grupo_53934" data-name="Grupo 53934">
          <path id="Trazado_99828" data-name="Trazado 99828" d="M4563.966,854.049l-6.609-.012-.866-1.76,6.123.007Z" fill="#8bb5e0"/>
          <path id="Trazado_99829" data-name="Trazado 99829" d="M4555.906,854.035l-6.608-.012-.273-1.754,6.123.007Z" fill="#8bb5e0"/>
          <path id="Trazado_99830" data-name="Trazado 99830" d="M4580.087,854.078l-6.608-.012-2.052-1.774,6.123.007Z" fill="#8bb5e0"/>
          <path id="Trazado_99831" data-name="Trazado 99831" d="M4572.028,854.064l-6.609-.012-1.459-1.767,6.124.006Z" fill="#8bb5e0"/>
          <path id="Trazado_99832" data-name="Trazado 99832" d="M4596.336,854.107l-6.608-.012-3.247-1.786,6.123.007Z" fill="#8bb5e0"/>
          <path id="Trazado_99833" data-name="Trazado 99833" d="M4588.277,854.093l-6.608-.011-2.654-1.781,6.122.006Z" fill="#8bb5e0"/>
          <path id="Trazado_99834" data-name="Trazado 99834" d="M4612.458,854.136l-6.608-.012-4.432-1.8,6.123.006Z" fill="#8bb5e0"/>
          <path id="Trazado_99835" data-name="Trazado 99835" d="M4604.4,854.121l-6.608-.012-3.839-1.793,6.122.006Z" fill="#8bb5e0"/>
        </g>
      </g>
      <g id="Grupo_53938" data-name="Grupo 53938">
        <g id="Grupo_53936" data-name="Grupo 53936">
          <path id="Trazado_99836" data-name="Trazado 99836" d="M4495.307,855.941l-7.178-.018,3.89-1.708,6.692.013Z" fill="#8bb5e0"/>
          <path id="Trazado_99837" data-name="Trazado 99837" d="M4486.554,855.919l-7.178-.018,4.483-1.7,6.692.013Z" fill="#8bb5e0"/>
          <path id="Trazado_99838" data-name="Trazado 99838" d="M4512.817,855.985l-7.178-.018,2.705-1.722,6.692.013Z" fill="#8bb5e0"/>
          <path id="Trazado_99839" data-name="Trazado 99839" d="M4504.063,855.963l-7.177-.017,3.3-1.715,6.692.012Z" fill="#8bb5e0"/>
          <path id="Trazado_99840" data-name="Trazado 99840" d="M4547.739,856.073l-24.451-.061,1.51-1.735,22.8.043Z" fill="#8bb5e0"/>
          <path id="Trazado_99841" data-name="Trazado 99841" d="M4521.713,856.008l-7.178-.018,2.1-1.728,6.691.013Z" fill="#8bb5e0"/>
        </g>
        <g id="Grupo_53937" data-name="Grupo 53937">
          <path id="Trazado_99842" data-name="Trazado 99842" d="M4565.548,856.117l-7.177-.018-.866-1.761,6.691.013Z" fill="#8bb5e0"/>
          <path id="Trazado_99843" data-name="Trazado 99843" d="M4556.795,856.1l-7.177-.018-.273-1.754,6.692.013Z" fill="#8bb5e0"/>
          <path id="Trazado_99844" data-name="Trazado 99844" d="M4583.058,856.161l-7.177-.018-2.052-1.773,6.691.013Z" fill="#8bb5e0"/>
          <path id="Trazado_99845" data-name="Trazado 99845" d="M4574.306,856.139l-7.178-.018-1.459-1.767,6.692.013Z" fill="#8bb5e0"/>
          <path id="Trazado_99846" data-name="Trazado 99846" d="M4600.708,856.206l-7.178-.018-3.247-1.787,6.692.013Z" fill="#8bb5e0"/>
          <path id="Trazado_99847" data-name="Trazado 99847" d="M4591.954,856.184l-7.177-.018-2.654-1.781,6.692.013Z" fill="#8bb5e0"/>
          <path id="Trazado_99848" data-name="Trazado 99848" d="M4618.217,856.249l-7.177-.018-4.433-1.8,6.691.013Z" fill="#8bb5e0"/>
          <path id="Trazado_99849" data-name="Trazado 99849" d="M4609.464,856.227l-7.178-.018-3.839-1.793,6.691.012Z" fill="#8bb5e0"/>
        </g>
      </g>
    </g>
    <g id="Grupo_53942" data-name="Grupo 53942">
      <g id="Grupo_53941" data-name="Grupo 53941">
        <g id="Grupo_53940" data-name="Grupo 53940">
          <rect id="Rectángulo_5229" data-name="Rectángulo 5229" width="70.329" height="1.279" transform="translate(4516.213 738.141)" fill="#c4d6eb"/>
        </g>
      </g>
    </g>
    <g id="Grupo_53945" data-name="Grupo 53945">
      <g id="Grupo_53944" data-name="Grupo 53944">
        <g id="Grupo_53943" data-name="Grupo 53943">
          <rect id="Rectángulo_5230" data-name="Rectángulo 5230" width="141.159" height="2.927" transform="translate(4480.952 725.028)" fill="#c4d6eb"/>
        </g>
      </g>
    </g>
    <g id="Grupo_53948" data-name="Grupo 53948">
      <g id="Grupo_53947" data-name="Grupo 53947">
        <g id="Grupo_53946" data-name="Grupo 53946">
          <rect id="Rectángulo_5231" data-name="Rectángulo 5231" width="70.54" height="1.278" transform="translate(4516.002 742.117)" fill="#c4d6eb"/>
        </g>
      </g>
    </g>
    <g id="Grupo_53951" data-name="Grupo 53951">
      <g id="Grupo_53950" data-name="Grupo 53950">
        <g id="Grupo_53949" data-name="Grupo 53949">
          <rect id="Rectángulo_5232" data-name="Rectángulo 5232" width="70.54" height="1.279" transform="translate(4516.002 734.164)" fill="#c4d6eb"/>
        </g>
      </g>
    </g>
    <g id="Grupo_53954" data-name="Grupo 53954">
      <g id="Grupo_53953" data-name="Grupo 53953">
        <g id="Grupo_53952" data-name="Grupo 53952">
          <rect id="Rectángulo_5233" data-name="Rectángulo 5233" width="70.54" height="1.279" transform="translate(4516.002 746.094)" fill="#c4d6eb"/>
        </g>
      </g>
    </g>
    <g id="Grupo_53957" data-name="Grupo 53957">
      <g id="Grupo_53956" data-name="Grupo 53956">
        <g id="Grupo_53955" data-name="Grupo 53955">
          <rect id="Rectángulo_5234" data-name="Rectángulo 5234" width="70.54" height="1.278" transform="translate(4516.002 750.07)" fill="#c4d6eb"/>
        </g>
      </g>
    </g>
    <g id="Grupo_53960" data-name="Grupo 53960">
      <g id="Grupo_53959" data-name="Grupo 53959">
        <g id="Grupo_53958" data-name="Grupo 53958">
          <rect id="Rectángulo_5235" data-name="Rectángulo 5235" width="70.54" height="1.279" transform="translate(4516.002 754.046)" fill="#c4d6eb"/>
        </g>
      </g>
    </g>
    <g id="Grupo_53963" data-name="Grupo 53963">
      <g id="Grupo_53962" data-name="Grupo 53962">
        <g id="Grupo_53961" data-name="Grupo 53961">
          <rect id="Rectángulo_5236" data-name="Rectángulo 5236" width="70.54" height="1.278" transform="translate(4516.002 758.023)" fill="#c4d6eb"/>
        </g>
      </g>
    </g>
    <g id="Grupo_53966" data-name="Grupo 53966">
      <g id="Grupo_53965" data-name="Grupo 53965">
        <g id="Grupo_53964" data-name="Grupo 53964">
          <rect id="Rectángulo_5237" data-name="Rectángulo 5237" width="70.54" height="1.278" transform="translate(4516.002 761.999)" fill="#c4d6eb"/>
        </g>
      </g>
    </g>
    <g id="Grupo_53969" data-name="Grupo 53969">
      <g id="Grupo_53968" data-name="Grupo 53968">
        <g id="Grupo_53967" data-name="Grupo 53967">
          <rect id="Rectángulo_5238" data-name="Rectángulo 5238" width="38.13" height="1.279" transform="translate(4516.002 765.976)" fill="#c4d6eb"/>
        </g>
      </g>
    </g>
    <path id="Trazado_99850" data-name="Trazado 99850" d="M4617.06,710.3a2.07,2.07,0,1,1-2.07-2.07A2.07,2.07,0,0,1,4617.06,710.3Z" fill="#353c73"/>
    <path id="Trazado_99851" data-name="Trazado 99851" d="M4625.5,710.3a2.07,2.07,0,1,1-2.07-2.07A2.07,2.07,0,0,1,4625.5,710.3Z" fill="#353c73"/>
    <path id="Trazado_99852" data-name="Trazado 99852" d="M4633.931,710.3a2.07,2.07,0,1,1-2.069-2.07A2.069,2.069,0,0,1,4633.931,710.3Z" fill="#353c73"/>
    <g id="Grupo_53970" data-name="Grupo 53970">
      <rect id="Rectángulo_5239" data-name="Rectángulo 5239" width="31.937" height="53.853" rx="2.719" transform="translate(4481.01 734.119)" fill="#c4d6eb"/>
    </g>
    <g id="Grupo_53971" data-name="Grupo 53971">
      <rect id="Rectángulo_5240" data-name="Rectángulo 5240" width="31.937" height="53.853" rx="2.719" transform="translate(4589.856 734.119)" fill="#c4d6eb"/>
    </g>
  </g>
</svg>
