<svg xmlns="http://www.w3.org/2000/svg" width="161.573" height="137.245" viewBox="0 0 161.573 137.245">
  <g id="Grupo_55008" data-name="Grupo 55008" transform="translate(0)">
    <g id="Grupo_54534" data-name="Grupo 54534" transform="translate(0 0)">
      <path id="Trazado_99165" data-name="Trazado 99165" d="M1080.541,1493.331V1454.99h-10.954l-7.15-10.724a49.679,49.679,0,0,0-41.364-22.139H990.167l-25.119,25.119A7.746,7.746,0,0,0,976,1458.2l5.947-5.947,2.106,7.016a36.259,36.259,0,0,0,34.739,25.842h39.836Z" transform="translate(-957.304 -1375.256)" fill="#f6ccbf"/>
      <g id="Grupo_53273" data-name="Grupo 53273" transform="translate(0 131.768)">
        <path id="Trazado_99166" data-name="Trazado 99166" d="M1017.969,1506.121H960.458a2.739,2.739,0,1,1,0-5.478h57.511a2.739,2.739,0,0,1,0,5.478Z" transform="translate(-957.719 -1500.643)" fill="#3e5e7a"/>
        <path id="Trazado_99167" data-name="Trazado 99167" d="M1026.515,1506.121h-2.739a2.739,2.739,0,1,1,0-5.478h2.739a2.739,2.739,0,1,1,0,5.478Z" transform="translate(-952.573 -1500.643)" fill="#3e5e7a"/>
      </g>
      <path id="Trazado_99168" data-name="Trazado 99168" d="M1037.526,1446.581a25.8,25.8,0,0,0-19.766-9.278H994.2l-13.688,13.712,2.106,7.016a36.261,36.261,0,0,0,34.739,25.842H1043.5v-20.779A25.788,25.788,0,0,0,1037.526,1446.581Z" transform="translate(-955.867 -1374.023)" fill="#e7b7a8"/>
      <rect id="Rect치ngulo_5262" data-name="Rect치ngulo 5262" width="68.898" height="68.898" transform="translate(52.949 4.663) rotate(45)" fill="#ff0062"/>
      <rect id="Rect치ngulo_5263" data-name="Rect치ngulo 5263" width="68.898" height="15.46" transform="translate(42.017 91.167) rotate(-45)" fill="#cb0d56"/>
      <path id="Trazado_99173" data-name="Trazado 99173" d="M1079.94,1491.067v-38.341h-30.125l-10.954-2.739h-26.72a8.218,8.218,0,1,0-.011,16.435h18.516l4.694,8.218,2.846,4.974a22.731,22.731,0,0,0,19.734,11.453Z" transform="translate(-953.964 -1372.992)" fill="#f6ccbf"/>
      <path id="Trazado_99174" data-name="Trazado 99174" d="M1071.694,1442.39h38.335v54.772h-38.335Z" transform="translate(-948.457 -1373.609)" fill="#249dac"/>
      <path id="Trazado_99175" data-name="Trazado 99175" d="M1089.834,1486.267a5.478,5.478,0,1,1,5.478-5.478,5.477,5.477,0,0,1-5.478,5.478Z" transform="translate(-947.427 -1370.934)" fill="#f8f6f7"/>
      <path id="Trazado_102130" data-name="Trazado 102130" d="M1048.183,1397.757a2.163,2.163,0,0,0-2.163,2.163v1.216l-18.031-18.032h1.472a2.163,2.163,0,1,0,0-4.325h-6.692c-.045,0-.088.011-.133.014s-.1.007-.146.014a2.139,2.139,0,0,0-.535.134l-.013,0h0a2.152,2.152,0,0,0-.491.3c-.035.027-.068.054-.1.083a2.2,2.2,0,0,0-.374.415l-.006.011a2.161,2.161,0,0,0-.235.494c-.015.043-.028.086-.04.129a2.149,2.149,0,0,0-.085.569v6.182a2.163,2.163,0,1,0,4.325,0v-.961l17.775,17.776h-1.215a2.163,2.163,0,1,0,0,4.325h6.692a2.163,2.163,0,0,0,2.162-2.163v-6.18A2.163,2.163,0,0,0,1048.183,1397.757Z" transform="translate(-952.608 -1378.779)" fill="#3e5e7a"/>
    </g>
  </g>
</svg>
